<svg width="69" height="128" viewBox="0 0 69 128" fill="none" xmlns="http://www.w3.org/2000/svg">
<mask id="mask0_1_867" style="mask-type:luminance" maskUnits="userSpaceOnUse" x="0" y="0" width="69" height="128">
<path d="M68.067 0H0V127.493H68.067V0Z" fill="white"/>
</mask>
<g mask="url(#mask0_1_867)">
<path d="M39.776 28.97C39.776 28.97 40.687 22.312 43.482 17.854C44.5295 16.4034 45.2867 14.764 45.712 13.026C45.768 12.503 45.827 12.087 45.84 12.689C45.879 14.619 43.965 17.812 44.717 21.448C45.642 25.913 45.84 31.89 44.605 33.462C43.37 35.034 39.777 28.971 39.777 28.971" fill="#346E00"/>
<path d="M46.808 40.983C47.53 39.835 49.353 34.545 57.587 29.904C65.821 25.263 67.768 21.969 67.468 19.274C67.168 16.579 68.029 17.289 68.068 19.874C68.137 24.517 59.984 34.396 58.636 39.786C57.288 45.176 54.294 64.339 50.701 67.186C47.108 70.033 43.515 46.226 46.808 40.986" fill="#9FBC50"/>
<path d="M19.447 63.104C19.335 62.204 20.682 50.079 15.854 44.015C11.026 37.951 7.65401 36.267 4.17601 28.515C2.86843 25.5672 1.81949 22.5114 1.04101 19.382C0.820011 18.789 -0.158989 18.307 0.0220109 18.296C0.285011 18.28 0.167011 18.396 1.31401 18.978C4.79401 20.739 13.656 25.632 16.865 32.556C21.132 41.763 27.195 54.115 27.195 55.799C27.195 57.483 31.349 70.508 31.349 70.508L19.447 63.104Z" fill="#346E00"/>
<path d="M30.669 70.174C26.5365 64.2381 23.3249 57.7117 21.143 50.816C17.303 38.832 13.308 39.6 15.763 23.775C18.218 7.95 21.137 7.95 20.063 2.88C18.989 -2.19 20.146 0.351002 20.684 3.495C21.6946 9.29223 24.064 14.7677 27.598 19.473C31.591 25 33.742 27 36.354 33.916C38.966 40.832 44.496 57.73 38.505 64.8C32.514 71.87 30.67 70.177 30.67 70.177" fill="#9FBC50"/>
<path d="M33.333 89.791C33.333 89.791 27.345 70.031 29.291 57.602C31.237 45.173 36.072 21.675 35.878 15.233C35.684 8.791 34.569 6.578 35.278 7.149C35.878 7.63 35.147 10.181 38.122 17.779C41.714 26.951 48.901 35.595 49.949 43.829C50.997 52.063 51.749 56.854 49.349 66.136C46.949 75.418 44.409 84.701 40.965 92.486C37.521 100.271 33.329 89.791 33.329 89.791" fill="#7CA417"/>
<path d="M35.651 85.15C35.6806 81.3991 34.8451 77.6919 33.2093 74.3164C31.5735 70.9408 29.1814 67.9879 26.219 65.687C16.038 57.752 14.841 56.255 14.841 56.255C16.8803 58.0441 18.2524 60.4721 18.733 63.142C19.781 67.933 18.883 69.131 21.877 76.167C24.871 83.203 28.764 81.707 28.614 87.546C28.464 93.385 29.514 93.385 31.309 93.535C33.104 93.685 35.651 90.84 35.651 85.151" fill="#9FBC50"/>
<path d="M18.009 58.279C11.253 51.523 14.509 50.135 12.261 45.924C10.013 41.713 6.98403 39.187 4.96103 36.885C2.93803 34.583 3.22003 32.506 4.11903 37.334C5.01803 42.162 3.89403 44.634 6.70203 48.675C9.51003 52.716 11.755 53.504 15.46 56.875C19.165 60.246 22.029 62.375 22.029 62.375C22.029 62.375 21.096 61.368 18.009 58.275" fill="#7CA417"/>
<path d="M54.929 45.277C56.372 41.8408 58.5133 38.742 61.217 36.177C64.264 33.553 65.78 31.887 66.486 30.503C66.6836 30.1084 66.8221 29.6869 66.897 29.252C67.009 28.69 66.918 28.42 67.027 28.438C67.414 28.503 66.644 29.853 66.495 32.472C66.271 36.402 68.067 38.985 65.485 44.935C62.903 50.885 62.116 56.388 56.165 59.981C50.214 63.574 48.754 65.034 49.091 64.023C49.428 63.012 54.93 45.271 54.93 45.271" fill="#346E00"/>
<path d="M46.358 65.712C55.032 58.927 59.809 56.428 59.809 56.428C58.1414 59.7438 56.089 62.8516 53.694 65.687C48.549 71.687 46.059 68.681 46.658 88.743C47.257 108.805 42.466 93.085 42.466 93.534C42.466 93.983 33.566 75.718 46.359 65.712" fill="#9FBC50"/>
<path d="M18.341 85.898C18.0923 85.8975 17.8534 85.9948 17.676 86.169C17.4986 86.3433 17.3969 86.5804 17.393 86.829C17.3856 87.399 17.3816 87.971 17.381 88.545C17.381 103.817 20.147 117.533 24.538 126.952C24.6149 127.115 24.7365 127.252 24.8887 127.348C25.0408 127.443 25.2172 127.494 25.397 127.493H50.023C50.2028 127.494 50.3792 127.444 50.5314 127.348C50.6836 127.252 50.8052 127.115 50.882 126.952C55.274 117.533 58.039 103.817 58.039 88.545C58.039 87.9703 58.035 87.3983 58.027 86.829C58.023 86.5804 57.9214 86.3433 57.7439 86.169C57.5665 85.9948 57.3276 85.8975 57.079 85.898H18.341Z" fill="#ED7465"/>
<path d="M57.81 96.095H21.61L57.284 102.095C57.506 100.138 57.68 98.1377 57.806 96.095" fill="#CC6255"/>
</g>
</svg>
