<svg width="130" height="132" viewBox="0 0 130 132" fill="none" xmlns="http://www.w3.org/2000/svg">
<mask id="mask0_1_671" style="mask-type:luminance" maskUnits="userSpaceOnUse" x="0" y="0" width="130" height="132">
<path d="M129.44 0H0V131.239H129.44V0Z" fill="white"/>
</mask>
<g mask="url(#mask0_1_671)">
<path opacity="0.49" d="M109.512 128.869C109.512 130.178 84.997 131.239 54.756 131.239C24.515 131.239 0 130.178 0 128.869C0 127.56 24.515 126.499 54.756 126.499C84.997 126.499 109.512 127.56 109.512 128.869Z" fill="#506E8E"/>
<path d="M56.5309 94.226L67.2709 126.499H58.0649C58.0649 126.499 51.5569 112.823 51.1649 112.505C50.7729 112.187 49.075 112.505 49.075 112.505C49.075 112.505 47.4349 102.225 47.4349 102.005C47.4349 101.785 56.5349 94.223 56.5349 94.223" fill="#133C58"/>
<path d="M49.0699 103.432V126.5H40.0389C40.0389 126.5 37.8269 104.808 37.8389 100.576C37.8509 96.344 49.0699 103.433 49.0699 103.433" fill="#133C58"/>
<path d="M56.243 97.051C55.9486 99.403 55.2964 101.696 54.309 103.851C52.563 107.925 53.8979 117.841 53.9389 117.924C53.9799 118.007 51.161 112.501 51.161 112.501H49.071V114.432C49.071 114.432 48.066 107.554 44.204 110.358C40.342 113.162 42.5639 126.494 42.5639 126.494H40.0399C40.0399 126.494 37.6139 105.12 37.8399 102.263C38.0659 99.406 55.9399 97.046 55.9399 97.046L56.243 97.051Z" fill="#103046"/>
<path d="M50.341 99.57C44.31 102.321 47.625 103.581 50.559 103.009C52.0812 102.61 53.5134 101.925 54.779 100.99C55.8043 99.3742 56.3564 97.5035 56.373 95.59C55.767 96.378 54.226 97.8 50.341 99.573" fill="#EFE6E8"/>
<path d="M56.266 93.486L37.046 101.98C37.046 101.98 40.499 105.972 49.176 104.385C50.2925 104.234 51.366 103.855 52.3295 103.271C53.293 102.687 54.1258 101.911 54.776 100.991C53.5104 101.926 52.0782 102.611 50.556 103.01C47.622 103.582 44.306 102.322 50.338 99.571C54.224 97.799 55.765 96.376 56.37 95.588C56.3977 94.8862 56.3619 94.1833 56.263 93.488" fill="#E0D5D8"/>
<path d="M57.062 79.518C63.833 80.63 67.951 72.458 69.639 68.945L67.432 67.651C67.432 67.651 62.432 76.317 57.832 76.079C53.232 75.841 51.642 72.979 48.626 71C47.193 70.057 45.671 69.034 44.469 68.219C46.105 71 51.043 78.528 57.069 79.519" fill="#EFE6E8"/>
<path d="M44.998 76.238C44.998 76.238 50.9239 84.458 59.0179 81.467C67.1119 78.476 70.049 69.187 70.049 69.187L69.637 68.946C67.949 72.459 63.832 80.631 57.06 79.519C51.038 78.53 46.1 71.001 44.46 68.219C43.133 67.319 42.194 66.675 42.194 66.675L44.998 76.238Z" fill="#E0D5D8"/>
<path d="M31.06 71.361L28.639 65.015L32.981 63.569L37.061 69.183L31.06 71.361Z" fill="#FFCAA6"/>
<path d="M22.037 62.312C25.92 65.38 31.245 66.355 33.184 63.9C35.123 61.445 32.941 56.491 29.058 53.423C25.175 50.355 21.058 50.336 19.121 52.791C17.184 55.246 18.153 59.244 22.037 62.312Z" fill="#FFCAA6"/>
<path d="M28.717 65.226C30.3088 65.2653 31.8723 64.8005 33.1841 63.898C33.3981 64.25 33.566 64.521 33.566 64.521L29.8951 68.312L28.717 65.226Z" fill="#F2B186"/>
<path d="M26.4901 55.104C27.2299 55.9694 27.7548 56.9973 28.022 58.104C28.15 59.432 27.577 59.994 28.092 61.042C28.607 62.09 30.742 64.659 28.543 66.447C26.344 68.235 24.443 67.847 23.777 66.517C23.111 65.187 23.303 64.051 22.56 63.153C21.817 62.255 26.4901 55.107 26.4901 55.107" fill="#733C20"/>
<path d="M30.821 45.329C30.7471 45.3031 30.6667 45.302 30.5921 45.326C30.5176 45.3501 30.4529 45.3978 30.408 45.462L26.623 50.869C26.623 50.869 21.861 49.337 20.188 50.401C19.2411 51.1361 18.4732 52.0763 17.942 53.151C18.2122 54.5525 18.9943 55.8034 20.136 56.66C21.5519 57.5631 23.0365 58.3539 24.576 59.025L31.024 45.825C31.047 45.7795 31.06 45.7297 31.0622 45.6788C31.0644 45.6279 31.0558 45.5772 31.0369 45.5299C31.018 45.4826 30.9892 45.4399 30.9525 45.4045C30.9158 45.3692 30.872 45.3421 30.824 45.325" fill="#1088C4"/>
<path d="M17.94 53.15C16.931 55.024 16.347 57.392 17.473 59.027C18.7999 60.8021 20.5477 62.219 22.559 63.15L24.575 59.024C23.0351 58.3529 21.5502 57.5622 20.134 56.659C18.9922 55.8024 18.2102 54.5515 17.94 53.15Z" fill="#1373A4"/>
<path d="M29.5181 70.088L30.3111 69.401C30.3111 69.401 33.3051 70.524 35.0111 69.651C36.7171 68.778 35.4741 67.111 35.4741 67.111L36.6381 66.675C36.6381 66.675 42.3121 73.817 40.2891 76.075C38.2661 78.333 29.5181 70.083 29.5181 70.083" fill="#EFE6E8"/>
<path d="M24.748 75.371C24.748 75.371 24.376 74.532 25.765 72.945C26.7483 71.6849 28.0408 70.7007 29.517 70.088C30.487 69.81 39.256 75.683 39.494 74.81C39.732 73.937 35.843 66.602 36.32 66.381C36.797 66.16 40.843 65.128 42.828 67.192C44.813 69.256 51.134 79.674 53.674 85.469C56.214 91.264 56.954 93.169 56.531 94.227C56.108 95.285 51.131 98.354 45.531 100.047C39.931 101.74 36.589 102.904 35.61 101.105C34.631 99.306 31.881 91.688 31.669 91.37C31.457 91.052 24.753 75.37 24.753 75.37" fill="#1088C4"/>
<path d="M119.385 28.676C121.631 29.6199 123.543 31.2147 124.875 33.255C126.26 35.181 127.239 37.3687 127.752 39.685C127.752 39.685 125.452 38.694 122.504 34.741C119.556 30.788 119.386 28.676 119.386 28.676" fill="#ED7465"/>
<path d="M127.598 39.161C128.334 39.4778 128.97 39.9874 129.44 40.636C128.897 40.347 128.113 40.005 128.113 40.005C128.271 40.4833 128.376 40.9771 128.429 41.478C127.926 40.8485 127.522 40.1466 127.229 39.396L127.598 39.161Z" fill="#F15F46"/>
<path d="M25.765 72.944C25.765 72.944 27.114 71.423 30.818 74.068C34.522 76.713 36.479 85.1259 40.341 87.8239C44.203 90.5219 51.932 81.867 51.932 81.867L54.675 87.767C54.675 87.767 52.167 93.691 49.652 96.601C47.137 99.511 45.525 100.04 45.525 100.04C43.2632 100.987 40.9093 101.696 38.501 102.156C35.501 102.579 35.367 101.256 34.918 100.225C34.469 99.1939 32.59 94.511 32.59 94.511L24.575 75.835C24.5111 75.2904 24.5868 74.7384 24.795 74.2311C25.0032 73.7238 25.337 73.2778 25.765 72.935" fill="#1373A4"/>
<path d="M27.855 83.968C29.865 89.468 32.695 95.39 40.724 95.39C46.163 95.39 50.15 90.15 52.157 86.768L50.086 84.855C50.086 84.855 44.653 91.872 39.971 90.999C36.559 90.363 34.571 82.666 34.571 82.666C33.8091 80.2993 32.6179 78.0932 31.057 76.158C29.664 74.589 28.068 73.391 26.739 73.519C26.2658 77.0405 26.6476 80.6242 27.852 83.967" fill="#EFE6E8"/>
<path d="M24.576 75.841C23.307 79.73 28.861 97.348 38.225 97.427C47.589 97.506 52.607 87.183 52.607 87.183L52.157 86.768C50.15 90.15 46.163 95.39 40.724 95.39C32.695 95.39 29.865 89.464 27.855 83.968C26.6505 80.6252 26.2688 77.0415 26.742 73.52C25.853 73.606 25.084 74.283 24.576 75.841Z" fill="#E0D5D8"/>
<path d="M38.501 120.15H49.864V127.769H39.609L38.501 120.15Z" fill="#1088C4"/>
<path d="M54.361 120.15H65.6299L68.064 127.769H57.8L54.361 120.15Z" fill="#1088C4"/>
<path d="M58.621 120.15L61.002 127.769H57.802L54.363 120.15H58.621Z" fill="#1373A4"/>
<path d="M42.47 120.15L42.986 127.769H39.609L38.501 120.15H42.47Z" fill="#1373A4"/>
<path d="M47.553 102.873C56.0077 83.0835 65.7212 63.8558 76.634 45.308C95.208 13.543 107.427 4.01999 114.569 1.47999C121.711 -1.06001 119.331 25.129 119.331 25.129C119.331 25.129 122.77 3.64899 116.844 0.473993C110.918 -2.70101 98.009 10.526 87.644 25.234C77.279 39.942 64.944 60.47 57.831 76.078C50.718 91.686 45.848 102.872 45.848 102.872L47.553 102.873Z" fill="#443D4F"/>
<path d="M69.637 68.946C69.637 68.946 70.363 66.398 69.637 65.604C68.911 64.81 66.213 61.904 65.79 62.429C65.3919 63.1741 65.2436 64.0273 65.367 64.863C66.1733 65.9941 67.0767 67.0528 68.067 68.027L69.637 68.946Z" fill="#FFCAA6"/>
<path d="M50.484 85.223C51.181 84.6143 51.943 84.0841 52.756 83.642C53.436 83.408 56.94 83.619 56.643 84.651C56.5118 85.3566 56.1229 85.9882 55.552 86.423C54.4364 86.662 53.2979 86.778 52.157 86.769L50.484 85.223Z" fill="#FFCAA6"/>
<path d="M77.905 41.473C77.905 41.473 81.45 43.373 81.238 44.224C81.026 45.075 77.4819 42.848 77.4819 42.848L77.905 41.473Z" fill="#443D4F"/>
<path d="M103.935 7.40601C103.935 7.40601 107.321 10.316 106.316 11.48C105.311 12.644 103.194 8.25301 103.353 8.09401C103.512 7.93501 103.935 7.40601 103.935 7.40601Z" fill="#443D4F"/>
</g>
</svg>
