<svg width="112" height="105" viewBox="0 0 112 105" fill="none" xmlns="http://www.w3.org/2000/svg">
<mask id="mask0_1_79" style="mask-type:luminance" maskUnits="userSpaceOnUse" x="0" y="0" width="112" height="105">
<path d="M111.996 0H0V104.132H111.996V0Z" fill="white"/>
</mask>
<g mask="url(#mask0_1_79)">
<path d="M106.532 43.588C107.305 43.782 108.932 41.2131 108.721 42.9741C108.354 43.3741 109.206 44.604 109.472 43.507C109.403 43.207 109.624 42.471 109.939 42.962C110.169 43.462 109.663 44.098 109.947 44.596C110.475 44.858 109.907 43.8841 110.112 43.6461C110.77 42.6201 110.692 45.0461 111.14 44.0921C111.807 43.6071 111.74 44.757 111.851 45.127C112.362 45.527 111.37 46.858 111.09 46.036C111.046 45.953 110.885 45.8651 110.861 45.9561C110.697 47.1841 110.061 45.116 109.64 45.056C109.458 45.02 109.498 45.195 109.589 45.296C109.756 45.561 109.426 45.8961 109.489 46.1961C110.354 47.2551 107.749 48.0321 109.084 46.7821C109.259 46.5821 109.251 45.8191 108.897 45.8441C108.834 46.2021 108.384 47.233 107.903 46.958C108.912 44.685 103.633 51.472 104.729 47.517C104.792 46.793 103.985 47.831 104.2 46.817C104.36 46.731 104.41 46.6241 104.276 46.4721C103.976 46.1111 104.798 45.7901 104.365 45.4901C103.885 44.1707 103.685 42.766 103.777 41.3651C103.608 40.2521 105.152 40.116 104.453 41.254C104.532 41.484 104.87 41.065 104.918 41.317C104.997 42.464 104.045 43.6931 105.864 42.7171C105.929 42.4681 106.199 42.2341 106.316 42.5921C106.185 43.0341 105.564 43.7561 106.532 43.5841" fill="#E6E6E7"/>
<path d="M108.735 48.001C108.06 47.618 108.403 48.918 108.944 48.501C109.167 48.316 108.899 48.101 108.735 48.001Z" fill="#E6E6E7"/>
<path d="M102.649 50.2681C102.334 50.5751 102.611 51.6291 102.878 50.8561C103.143 50.3721 102.953 49.1351 102.649 50.2681Z" fill="#E6E6E7"/>
<path d="M29.102 53.829C29.353 54.044 29.62 54.206 29.439 54.55C29.539 55.306 30.484 55.7499 30.539 56.5389C30.916 57.1639 32.939 60.0079 33.6 58.7809C33.771 57.7629 29.087 51.511 29.1 53.829" fill="#E6E6E7"/>
<path d="M29.443 49.887C29.988 50.911 30.008 49.793 30.025 49.229C29.812 48.82 28.943 49.57 29.443 49.887Z" fill="#E6E6E7"/>
<path d="M28.9749 47.4609C28.9869 47.7289 29.3029 49.2509 29.4599 48.4689C29.0839 48.0869 29.2599 46.9689 28.8809 46.9199C28.7509 47.0639 28.9209 47.3199 28.9739 47.4599" fill="#E6E6E7"/>
<path d="M26.3089 46.8739C26.2939 47.1119 27.009 51.2969 27.465 50.0319C26.732 48.1919 27.53 47.9199 27.772 46.5979C26.903 46.6159 26.8789 45.0979 26.3089 46.8739Z" fill="#E6E6E7"/>
<path d="M46.597 15.5129C46.766 18.4949 46.524 16.9619 44.706 19.2129C44.506 19.4619 44.77 19.5579 44.995 19.6019C45.539 19.9189 44.834 21.4219 45.802 21.2019C46.023 21.1349 46.13 20.8659 46.352 20.8169C47.421 21.3629 47.293 19.6929 48.258 19.6099C48.626 18.5289 51.072 18.9229 50.65 17.4969C50.036 15.8059 49.826 16.9669 49.184 16.4329C48.146 15.6259 48.242 14.8499 46.598 15.5189" fill="#E6E6E7"/>
<path d="M50.655 18.6391C49.478 18.8601 47.781 19.891 48.097 21.192C48.304 21.592 49.355 21.125 49.247 21.632C49.042 22.011 48.039 21.624 48.016 22.132C48.173 22.185 48.394 22.148 48.416 22.397C48.476 23.308 49.833 22.837 50.444 23.151C51.651 23.209 51.844 24.534 50.663 23.578C49.611 22.768 46.985 23.478 48.58 24.91C49.28 25.571 49.861 25.359 50.029 26.498C50.845 27.698 52.319 26.6841 53.486 26.6481C53.91 26.7071 54.718 25.215 54.757 26.104C55.099 26.288 55.275 26.1121 55.524 26.6311C56.124 26.8521 58.464 26.623 57.124 25.723C55.364 25.93 57.024 24.68 57.545 25.323C57.818 25.312 58.14 24.691 57.904 24.494C56.071 23.273 55.585 22.754 55.722 20.473C54.378 17.328 54.186 20.006 54.541 21.738C53.618 22.963 54.583 19.707 53.361 19.538C53.048 19.052 53.044 20.238 52.876 20.422C53.108 21.066 51.246 20.559 52.505 20.275C52.856 19.75 51.854 19.5451 51.77 19.0581C51.447 18.6271 51.299 19.231 51.058 19.323C50.426 19.143 51.843 18.375 50.658 18.628" fill="#E6E6E7"/>
<path d="M55.19 18.1659C54.384 18.5759 55.714 19.1839 55.846 19.6659C56.795 20.0259 56.661 17.6399 55.19 18.1659Z" fill="#E6E6E7"/>
<path d="M59.7589 24.9829C57.1309 27.4029 62.6449 27.7079 61.4799 26.1969C60.8329 25.9279 60.5369 24.8819 59.7589 24.9829Z" fill="#E6E6E7"/>
<path d="M58.08 18.0129C57.757 18.0919 57.8499 18.4639 57.8489 18.7059C57.7419 18.8279 57.5939 18.9729 57.7839 19.1149C58.2079 19.1609 58.731 20.1149 57.991 19.8599C56.691 18.7599 56.848 20.2139 57.426 20.9599C58.494 20.7529 58.762 23.0189 59.65 22.5079C59.575 21.3619 60.085 22.2149 60.35 21.3469C60.789 20.6249 60.259 19.2409 59.392 19.6339C59.286 19.3249 60.2149 19.1629 59.7919 18.7419C59.6919 18.6949 59.679 18.6039 59.772 18.5419C60.225 17.9959 59.435 17.8549 59.137 18.2809C58.721 18.6139 58.466 18.0149 58.082 18.0209" fill="#E6E6E7"/>
<path d="M60.438 15.0241C58.454 16.9801 62.809 17.1401 61.25 15.5791C61.308 15.0291 60.95 14.5611 60.438 15.0241Z" fill="#E6E6E7"/>
<path d="M61.861 17.2189C58.561 16.1269 62.025 24.0189 61.912 19.6899C63.004 19.6799 62.841 19.0679 63.112 18.1669C63.745 17.1529 62.436 17.3929 61.859 17.2189" fill="#E6E6E7"/>
<path d="M57.883 13.287C57.851 13.547 58.913 14.687 58.164 14.254C57.878 13.442 57.547 13.933 57.846 14.497C56.893 14.924 56.521 15.505 57.946 15.285C58.928 15.243 57.168 15.885 58.101 16.243C59.952 16.591 59.58 14.761 59.418 13.506C59.579 13.147 57.872 12.939 57.883 13.287Z" fill="#E6E6E7"/>
<path d="M56.412 12.947C56.27 13.252 56.5639 13.797 56.9259 13.73C57.3999 13.51 56.791 12.378 56.412 12.947Z" fill="#E6E6E7"/>
<path d="M56.498 13.9909C56.208 14.1679 56.763 14.3849 56.931 14.2969C57.142 14.2459 57.566 13.7519 57.121 13.8779C56.921 13.9589 56.7 13.9259 56.498 13.9909Z" fill="#E6E6E7"/>
<path d="M56.091 12.0741C56.018 12.3231 56.391 12.7051 56.591 12.4821C56.728 11.9321 55.991 10.7821 56.091 12.0741Z" fill="#E6E6E7"/>
<path d="M53.796 10.4709C52.632 10.7709 53.26 12.1129 54.253 11.7519C54.89 10.4519 54.961 10.9519 53.796 10.4709Z" fill="#E6E6E7"/>
<path d="M54.2559 9.6431C52.6879 10.0691 53.867 10.2351 54.733 10.3891C55.508 10.2221 54.7499 8.9191 54.2559 9.6431Z" fill="#E6E6E7"/>
<path d="M51.199 11.1189C50.372 11.0559 49.949 11.7769 49.314 12.1399C48.972 12.1259 48.53 11.8399 48.543 12.4209C48.409 13.0699 49.117 12.8259 49.351 13.1849C49.651 13.9589 49.797 12.6279 50.213 13.0239C50.582 13.0789 50.543 12.0819 50.856 12.3749C50.437 14.1669 54.031 10.2989 51.199 11.1189Z" fill="#E6E6E7"/>
<path d="M50.038 13.6999C49.298 14.7789 51.163 13.9319 50.791 13.3069C50.499 13.0779 50.191 13.4959 50.038 13.6999Z" fill="#E6E6E7"/>
<path d="M55.407 14.7139C55.284 14.3479 54.544 14.6809 54.962 14.1959C54.9668 14.1758 54.9668 14.1549 54.962 14.1348C54.9571 14.1147 54.9475 14.0961 54.934 14.0805C54.9205 14.0648 54.9035 14.0526 54.8844 14.0449C54.8653 14.0371 54.8445 14.034 54.824 14.0359C54.306 14.1939 54.919 13.4199 54.49 13.2149C54.075 11.8509 53.4579 14.0909 54.1819 14.5209C54.4029 15.5049 53.069 14.4709 52.719 14.4339C52.519 14.1479 52.904 14.2159 53.064 14.2729C53.598 14.0329 52.49 13.4269 52.292 13.1729C51.915 12.5669 50.329 13.8379 51.499 13.9569C51.021 14.1669 50.428 14.2449 51.29 14.5319C51.118 14.8639 49.713 14.2399 50.579 15.0989C51.31 15.3839 51.487 16.4389 52.019 15.2349C52.203 16.1569 52.432 15.1729 52.866 15.6899C52.807 15.8959 52.382 15.6439 52.259 15.8329C52.2026 15.9058 52.1269 15.9616 52.0405 15.9937C51.9541 16.0259 51.8603 16.0332 51.77 16.0149C50.67 16.6679 52.945 17.3009 53.739 16.2539C54.246 15.9799 54.8239 16.3819 55.3279 16.1379C55.6839 15.6669 56.108 16.1249 56.511 15.9529C56.942 15.5529 56.421 15.2749 56.176 15.0109C56.371 13.9419 55.3829 13.4059 55.4059 14.7109" fill="#E6E6E7"/>
<path d="M56.407 8.60806C55.417 9.39206 56.981 9.53306 56.869 10.1981C56.68 10.2431 56.436 9.81406 56.296 10.1271C56.043 11.4071 58.196 10.0091 57.955 11.3931C59.255 12.2531 58.319 9.67306 57.77 9.42206C57.78 9.11006 57.625 8.93006 57.312 9.07506C57.03 8.81306 56.932 8.24007 56.406 8.60707" fill="#E6E6E7"/>
<path d="M57.152 11.3539C57.1992 11.5373 57.3109 11.6976 57.4666 11.8054C57.6223 11.9132 57.8117 11.9613 58 11.9409C58.112 11.6409 57.274 10.9409 57.152 11.3539Z" fill="#E6E6E7"/>
<path d="M58.8959 9.57593C58.6959 10.3759 59.245 12.2889 60.044 10.8829C60.871 10.4059 59.3219 9.20893 58.8959 9.57593Z" fill="#E6E6E7"/>
<path d="M59.7199 11.6639C59.5049 12.1589 60.1839 12.2219 60.4389 11.9209C60.6839 11.6379 61.4659 11.9799 61.4179 11.4989C61.1949 10.9989 59.993 11.2989 59.718 11.6639" fill="#E6E6E7"/>
<path d="M64.4919 16.323C60.6379 16.523 63.125 15.587 61.204 13.814C58.975 14.404 59.6729 11.067 61.0409 13.163C61.3599 13.316 61.5709 12.904 61.8409 12.848C62.7409 13.258 62.077 13.227 62.172 13.478C62.36 13.605 62.5869 13.434 62.7889 13.454C63.2889 13.625 62.77 13.923 62.473 13.819C62.466 14.719 63.686 14.245 64.222 14.405C65.171 13.605 66.7139 12.69 67.6769 13.771C67.6445 13.8302 67.6244 13.8954 67.6178 13.9626C67.6113 14.0299 67.6184 14.0977 67.6387 14.1621C67.6591 14.2265 67.6923 14.2861 67.7364 14.3373C67.7804 14.3885 67.8343 14.4302 67.8949 14.46C68.0769 15.68 65.463 15.972 64.495 16.321" fill="#E6E6E7"/>
<path d="M60.888 5.68708C59.674 3.65908 59.015 5.03608 59.864 6.50808C59.045 6.66208 59.2339 7.67708 59.9989 6.92608C60.4509 7.27008 58.9639 7.32608 59.6989 7.92608C59.8889 8.06508 59.9989 8.22608 59.8339 8.41208C59.8669 8.97508 60.7899 8.41908 61.0109 8.76708C60.9679 9.10108 60.3539 8.72907 60.3579 9.16707C60.2199 9.68807 60.937 9.87908 60.792 10.0501C60.672 10.3351 61.231 10.7181 61.492 10.6311C61.839 10.5011 61.3979 9.51707 61.8759 9.93107C62.2949 10.5721 62.3199 10.2031 62.4329 9.70008C62.3639 9.45208 61.8329 9.30908 62.0329 8.99208C63.0149 9.42008 62.1729 8.99207 62.9179 8.29207C63.1099 7.54707 61.9379 7.80308 62.1369 7.14408C61.9499 4.93908 61.804 7.81908 60.885 5.68508" fill="#E6E6E7"/>
<path d="M63.657 8.686C62.85 8.337 63.983 8.507 63.167 7.77C62.624 7.458 61.967 6.06501 63.097 6.40301C63.532 6.51 63.79 7.37101 64.221 7.215C63.884 6.12601 62.541 6.467 64.342 5.392C65.037 3.87101 64.418 5.17201 64.434 4.19201C64.509 3.22201 63.976 4.95501 63.834 5.214C63.263 5.978 61.261 6.79101 62.549 5.10801C61.869 4.35801 62.249 6.49001 61.388 5.97701C60.797 5.577 61.788 5.30501 61.588 5.00301C61.162 5.13901 61.044 5.14101 61.119 4.675C60.572 5.014 60.595 4.73 60.125 4.395C60.066 4.008 60.84 4.037 60.665 3.58801C60.765 3.21201 61.041 3.82501 61.235 3.71001C61.601 3.08701 60.857 2.68701 62.11 2.89401C62.425 2.649 61.664 2.188 61.991 1.946C62.802 1.775 61.817 1.418 62.964 1.406C62.895 0.892005 63.531 1.206 63.617 0.700005C63.801 0.488005 66.109 -0.547995 65.283 0.377005C65.183 0.477005 65.095 0.696005 65.218 0.769005C65.518 0.943005 65.599 0.196005 65.918 0.0790049C66.518 0.0650049 67.297 0.121005 67.218 0.911005C67.806 1.564 65.518 2.87 66.502 3.066C67.846 0.305005 67.324 3.52201 66.963 4.60201C66.689 5.00201 67.3 5.402 66.974 5.757C65.682 6.007 67.21 5.89001 65.706 6.847C65.338 7.67401 67.061 6.17101 66.506 7.19201C65.58 7.465 67.133 7.343 66.962 7.88C66.9013 8.02446 66.8753 8.18118 66.8863 8.33751C66.8972 8.49385 66.9447 8.64542 67.025 8.78C67.409 9.387 66.225 9.32 66.625 9.78C67.352 11.496 65.436 9.35501 65.225 11.366C65.645 11.457 66.087 10.424 66.517 10.986C67.368 10.933 67.805 11.635 66.87 12.207C66.508 13.807 66.192 11.839 65.712 12.472C65.271 12.491 64.902 12.412 64.742 12.947C64.31 13.547 63.62 12.596 63.207 13.158C61.749 13.039 62.783 12.331 63.36 11.868C63.467 11.368 62.627 11.374 62.504 10.984C62.939 9.665 64.788 13.284 64.713 10.184C64.476 10.163 64.604 10.574 64.541 10.719C64.319 11.493 63.004 10.408 63.71 10.014C63.267 9.887 62.458 10.908 62.822 9.17C63.148 8.37601 63.879 9.488 64.322 9.088C64.122 8.78 64.414 8.641 64.551 8.388C64.43 7.854 63.991 8.781 63.651 8.688" fill="#E6E6E7"/>
<path d="M69.9611 16.52C69.4181 15.973 68.585 16.411 68.125 16.785C68.4 17.118 68.835 17.327 68.776 17.868C69.082 18.419 69.406 17.436 69.83 17.443C70.941 17.268 71.0231 16.986 69.9611 16.52Z" fill="#E6E6E7"/>
<path d="M82.6559 31C81.6109 31.017 81.9699 32.983 80.3559 30.427C79.2988 30.2094 78.2567 29.9245 77.2359 29.574C77.1579 29.757 77.9189 29.885 77.5309 30.215C77.3199 30.45 76.8169 30.026 76.7949 30.461C76.1489 32.123 74.1089 30.733 75.1379 29.328C79.1379 28.041 75.3939 27.918 77.1499 25.323C76.4369 24.606 77.3339 24.891 77.1609 24.506C76.2069 23.939 75.1929 23.678 74.2049 23.191C73.9239 23.267 73.663 24.015 73.381 23.505C73.058 23.074 73.6479 23.117 73.7269 22.921C72.8159 22.241 72.9699 23.273 71.6799 21.685C71.3259 21.767 70.6439 20.908 70.5499 21.551C72.2439 22.388 71.1989 22.807 69.9499 22.489C69.7799 23.099 71.0339 22.633 71.1739 23C70.4379 23.279 64.1959 23.74 64.8739 22.175C65.1269 22.086 65.9519 22.46 65.7949 21.881C63.0339 22.828 63.3888 15.801 65.9218 17.256C66.0008 17.756 65.3219 18.191 65.4419 18.711C66.1659 19.311 65.7089 20.511 66.6479 20.845C67.2269 21.139 67.0169 21.36 66.5799 21.536C66.7339 22.276 67.9669 20.452 66.5639 20.463C66.3429 20.387 66.1289 20.069 66.2639 19.88C66.3989 19.691 67.3579 20.407 66.8639 19.64C66.5639 19.44 66.0948 19.409 66.1198 18.94C65.5908 18.369 66.4808 18.503 66.1928 17.807C66.2228 17.538 66.5928 17.447 66.7238 17.207C66.8238 16.931 66.8639 16.514 67.2639 16.623C69.2119 17.705 68.2949 18.866 68.9809 18.835C68.9729 18.953 68.7929 19.098 68.8919 19.219C69.2359 19.336 68.9518 18.547 69.3388 18.638C69.6288 18.675 69.8459 19.426 70.0309 18.833C70.4479 18.886 70.249 18.822 70.131 18.512C70.763 18.271 69.7768 18.461 69.7708 18.192C69.9538 17.492 71.4899 17.074 71.7999 17.877C71.9819 18.117 72.4299 17.811 72.3889 18.287C71.8709 19.467 74.7229 17.169 74.5289 18.719C74.4129 18.86 74.0799 19.224 74.4399 19.275C74.7139 19.275 74.7729 18.987 74.7159 18.775C75.1469 18.126 75.0089 19.459 75.5669 18.768C75.6999 18.815 75.8059 18.946 75.9499 18.82C77.0079 18.42 75.7909 20.049 76.4499 19.781C76.7499 19.211 77.0339 18.653 77.7829 19.347C78.1659 19.739 76.8959 19.954 77.1949 20.391C77.4949 20.577 77.9639 19.935 78.3709 20.04C78.7349 20.008 78.8379 20.384 78.4809 20.503C78.3089 20.65 77.6178 20.589 77.7968 20.924C79.1478 20.638 77.0059 21.942 78.0309 21.671C78.6429 21.492 79.5639 22.178 80.3069 22.127C81.0139 21.421 81.5609 22.219 82.1779 22.262C82.3909 21.991 82.5778 21.916 82.7918 22.214C83.2828 22.161 84.0378 21.64 84.3178 22.437C84.5418 22.849 83.4589 22.937 84.1819 23.231C84.5359 23.289 84.4959 23.52 84.4109 23.777C85.1109 24.377 84.4439 24.263 83.9399 24.33C83.6689 24.808 84.7599 25.051 84.5909 25.53C84.3649 25.779 84.0909 25.367 83.8529 25.36C83.6371 25.4168 83.411 25.4223 83.1927 25.3759C82.9744 25.3295 82.77 25.2326 82.5959 25.093C82.2599 24.81 83.0299 24.241 82.5519 24.076C82.2369 24.131 82.4819 24.902 81.9969 24.654C81.6829 24.409 80.0349 24.045 80.8919 24.701C81.0869 24.895 80.6339 25.024 80.9009 25.166C81.0839 25.166 81.5479 25.117 81.2929 25.427C78.9869 25.327 81.8189 25.751 82.2689 26.533C83.12 26.446 83.9719 26.6891 84.649 27.2119C85.3261 27.7348 85.7768 28.4976 85.9079 29.343C86.1079 30.137 85.1639 29.392 84.8459 29.357C83.9609 29.322 81.3959 28.863 83.4459 29.866C84.3959 29.787 87.3459 30.933 84.9099 31.201C84.0959 31.546 83.1249 32.06 82.6649 31.001" fill="#E6E6E7"/>
<path d="M73.6289 24.941C73.2499 25.802 74.482 26.784 75.068 25.825C75.312 24.841 74.0539 23.287 73.6289 24.941Z" fill="#E6E6E7"/>
<path d="M68.89 30.908C70.354 34.325 67.99 33.4299 69.057 34.4799C69.726 34.2439 70.094 34.015 70.471 34.827C71.621 34.652 70.705 32.298 72.46 33.111C73.215 33.819 75.638 32.168 72.932 32.223C72.3644 31.6966 71.6784 31.3145 70.932 31.109C70.676 31.172 70.415 31.117 70.419 30.809C70.256 30.421 69.8441 30.931 69.6131 30.646C69.3951 30.113 68.904 30.501 68.887 30.911" fill="#E6E6E7"/>
<path d="M72.789 34.6249C72.033 34.5649 71.363 35.8009 72.344 36.0169C73.275 36.2169 74.128 33.7359 72.789 34.6249Z" fill="#E6E6E7"/>
<path d="M74.958 35.6869C75.58 37.6069 76.709 34.7039 75.281 34.6409C74.905 34.7019 74.89 35.4189 74.958 35.6869Z" fill="#E6E6E7"/>
<path d="M75.8689 32.5421C75.3139 32.8471 76.22 33.4661 76.456 32.9421C76.632 32.5651 76.1709 32.3121 75.8689 32.5421Z" fill="#E6E6E7"/>
<path d="M79.391 50.116C79.06 49.833 78.866 50.223 78.698 50.467C78.091 50.973 79.15 50.881 79.463 50.85C80.328 50.971 79.686 50.408 79.391 50.116Z" fill="#E6E6E7"/>
<path d="M85.388 33.74C85.288 33.954 85.239 34.4031 85.476 34.5331C85.957 34.5461 85.96 33.298 85.388 33.74Z" fill="#E6E6E7"/>
<path d="M99.2719 47.7809C98.8999 47.7049 97.514 48.0719 98.109 48.5169C99.1454 48.5791 100.185 48.5224 101.209 48.3479C102.409 47.3979 99.8239 47.3299 99.2769 47.7809" fill="#E6E6E7"/>
<path d="M102.664 52.353C101.581 53.684 100.754 51.703 100.692 52.842C101.859 55.07 104.967 51.456 102.664 52.353Z" fill="#E6E6E7"/>
<path d="M52.417 12.378C52.3924 12.4122 52.3749 12.4509 52.3655 12.492C52.3562 12.5331 52.3552 12.5756 52.3626 12.6171C52.37 12.6585 52.3857 12.6981 52.4087 12.7333C52.4317 12.7686 52.4616 12.7989 52.4966 12.8224C52.5315 12.8459 52.5709 12.8621 52.6122 12.8701C52.6536 12.878 52.6961 12.8776 52.7373 12.8688C52.7785 12.86 52.8175 12.843 52.852 12.8188C52.8864 12.7946 52.9157 12.7637 52.938 12.728C53.194 12.416 52.638 12.154 52.417 12.378Z" fill="#E6E6E7"/>
<path d="M52.531 10.4589C52.5393 10.5525 52.5661 10.6434 52.6099 10.7265C52.6536 10.8096 52.7135 10.8832 52.786 10.9429C53.413 11.0009 52.738 9.8659 52.531 10.4589Z" fill="#E6E6E7"/>
<path d="M58.283 7.48899C58.339 7.69599 58.365 8.104 58.606 8.162C59.124 7.944 58.496 6.61799 58.283 7.48899Z" fill="#E6E6E7"/>
<path d="M61.921 11.4441C61.413 11.7071 61.8 12.4791 62.267 12.0391C62.65 11.8201 62.286 11.1901 61.921 11.4441Z" fill="#E6E6E7"/>
<path d="M75.564 24.156C74.507 24.296 76.078 25.187 76.117 24.536C76.0731 24.4248 75.9971 24.3292 75.8986 24.2615C75.8 24.1938 75.6835 24.157 75.564 24.156Z" fill="#E6E6E7"/>
<path d="M86.936 30.7999C86.158 31.0209 86.969 31.7439 87.313 31.2299C87.3254 31.1755 87.3247 31.1189 87.311 31.0648C87.2973 31.0107 87.271 30.9606 87.2342 30.9186C87.1974 30.8767 87.1512 30.844 87.0993 30.8234C87.0475 30.8027 86.9916 30.7947 86.936 30.7999Z" fill="#E6E6E7"/>
<path d="M78.5709 32.564C77.7899 33.024 79.859 33.1991 79.531 32.4851C79.252 32.4461 78.8879 32.577 78.5709 32.564Z" fill="#E6E6E7"/>
<path d="M71.8181 23.341C72.0061 23.706 71.203 24.141 71.669 24.374C71.914 24.247 71.903 23.864 72.144 23.694C72.392 23.406 71.9441 22.77 71.8181 23.341Z" fill="#E6E6E7"/>
<path d="M106.157 51.7649C105.681 51.1309 105.124 51.4299 104.751 50.3349C103.146 50.2059 105.496 53.6179 103.211 53.8849C99.92 55.1529 100.419 51.3619 99.111 52.0849C98.901 52.7449 98.472 52.1969 98.025 52.4709C96.576 52.4119 100.325 51.6709 99.385 50.0019C95.504 47.8829 95.144 55.4699 93.28 57.3019C92.144 57.9519 93.754 56.1259 93.916 55.7389C94.362 54.4039 93.969 52.7339 94.904 51.5949C95.1557 51.4148 95.355 51.1712 95.4817 50.8889C95.6084 50.6065 95.6578 50.2956 95.625 49.9879C96.366 46.7879 100.737 47.3969 102.199 44.8149C101.46 42.8799 105.14 40.4439 102.985 39.1609C102.828 38.2419 101.218 37.7109 100.9 38.8259C100.119 39.2909 100.875 38.1989 100.412 38.0319C99.175 37.8389 99.623 38.6889 99.15 39.1429C98.592 41.0209 98.273 40.4619 98.95 38.9739C98.69 38.4169 99.45 38.1999 99.576 37.7569C99.37 36.7209 98.202 38.1239 97.453 37.8669C96.192 37.9979 95.111 36.9889 93.853 37.1599C94.153 36.6459 94.328 36.5039 93.569 36.0199C92.169 34.8039 90.269 34.0389 88.748 32.9379C88.648 32.7189 88.206 32.1979 88.013 32.5379C88.527 33.7609 87.961 33.2379 87.958 34.0309C88.791 33.9889 88.221 34.4099 88.525 34.9309C88.799 35.5359 87.899 36.3959 87.988 37.0379C87.753 37.6979 86.811 36.4289 86.257 36.7799C86.031 37.0619 85.675 37.7139 85.25 37.5529C84.865 36.6029 85.683 37.2619 85.793 36.9419C85.947 36.4559 85.693 35.9709 85.193 36.3609C83.806 33.2149 83.27 34.2359 80.024 33.0439C79.0879 33.6819 77.9391 33.9275 76.824 33.7279C75.814 34.4359 76.678 34.8889 77.265 35.4279C77.511 36.5889 76.72 35.9279 77.928 37.0479C78.903 38.4139 78.882 38.3029 78.028 39.8159C78.401 41.5429 81.54 40.6949 81.35 43.4329C82.026 45.8409 80.388 45.8839 79.805 47.6329C79.8106 47.7636 79.854 47.8899 79.93 47.9964C80.006 48.1029 80.1112 48.185 80.233 48.2329C81.626 48.3639 81.073 50.2829 82.146 50.8809C82.277 50.9739 82.312 51.1429 82.154 51.2289C81.48 51.8569 82.879 52.4149 82.627 52.9439C80.07 51.7519 82.768 53.9129 80.827 53.2119C79.462 51.0589 78.214 52.5999 77.676 49.1199C77.148 48.6939 77.281 48.1499 77.176 47.6069C76.414 46.9939 75.398 47.8959 74.576 47.9069C73.9021 47.5497 73.1593 47.3413 72.398 47.2959C71.147 46.9169 70.198 45.3169 68.711 45.8109C67.863 45.1399 67.157 46.2469 66.394 46.4589C66.339 43.2239 65.323 43.1989 62.403 43.6719C62.115 43.6399 61.587 44.0629 61.415 43.7819C63.376 42.8499 64.385 44.5979 63.815 41.1469C64.262 40.0469 64.135 38.2989 65.299 37.6359C65.143 37.2079 65.411 36.8859 65.569 36.4869C69.325 35.1629 61.263 34.7679 62.11 34.2469C63.462 33.9849 66.418 36.1059 66.754 34.0809C66.983 33.4239 68.505 34.3249 68.21 33.1539C69.362 30.8129 66.022 32.3829 65.955 30.9969C67.025 30.6329 68.812 32.4969 68.692 30.2969C69.348 29.8969 68.201 29.7969 68.525 29.4879C68.977 29.0489 69.225 29.4879 69.57 29.6709C70.936 29.1449 70.184 29.0629 69.362 28.3879C69.434 27.7239 70.441 29.1439 70.882 28.7879C72.357 26.7409 70.948 27.1439 70.139 25.5469C70.145 24.9689 71.201 25.5109 70.359 24.4279C70.759 23.5619 68.192 23.6159 67.719 23.7109C67.344 24.4369 68.667 24.8809 68.229 25.4109C67.36 26.2429 68.392 29.8889 66.489 27.2109C66.047 26.7019 67.028 26.2399 66.12 25.7819C64.314 24.5919 65.38 25.9699 65.138 26.8699C64.365 26.9059 64.82 24.6209 63.929 24.8989C63.74 25.1109 63.021 25.0789 63.44 24.7609C64.012 23.6609 63.796 24.0529 62.904 23.2609C61.452 18.5259 59.167 24.3829 61.804 25.2159C62.04 25.1389 62.76 25.3039 62.549 25.6009C62.038 25.7609 61.826 26.9629 62.649 26.5419C62.963 27.0609 62.461 27.6119 61.994 27.8109C61.201 28.3799 62.623 29.3029 61.757 29.7719C61.092 30.1129 61.746 29.3049 61.657 29.0969C61.248 28.7459 61.471 28.2829 61.511 27.8579C60.962 27.0909 58.842 27.4459 60.397 28.3269C60.886 28.7589 59.89 28.5729 59.807 28.1919C59.186 27.8759 58.229 29.0059 57.298 28.5799C55.328 27.1189 56.421 28.9049 54.798 26.6499C52.79 26.7229 53.191 28.1939 54.725 27.1129C55.525 27.5009 54.59 27.9479 54.091 27.9129C53.239 28.4129 53.809 29.3549 53.632 30.0339C53.289 30.4429 53.448 29.5769 53.451 29.3929C53.2174 28.8389 52.7753 28.3991 52.2202 28.1684C51.665 27.9377 51.0414 27.9346 50.484 28.1599C49.972 28.1059 48.484 27.7899 49.222 27.1239C50.693 26.8769 48.616 25.7479 47.974 25.7669C47.034 25.1069 46.464 23.9509 45.484 23.3249C44.809 22.7479 43.214 24.6129 44.003 22.8499C44.232 22.6939 44.176 22.3159 43.874 22.4079C42.764 23.8329 42.498 23.0819 42.439 21.6079C42.348 20.8409 41.671 21.8299 41.282 21.8079C40.737 21.8149 38.662 22.5629 39.088 21.8539C39.549 21.5999 42.188 21.5369 40.588 21.0099C40.151 20.8989 38.603 21.8369 38.263 21.3829C39.302 20.6409 36.889 20.5989 36.817 21.3639C36.417 23.2039 35.408 18.6749 34.538 18.3889C33.538 19.2549 22.349 34.5939 26.984 32.8709C27.355 32.9809 27.068 33.3809 26.993 33.5959C27.358 38.5729 29.249 34.3779 29.486 36.0389C29.57 37.7929 30.278 39.4839 30.065 41.2889C30.088 43.1829 32.488 44.1439 30.174 46.1079C29.865 46.1539 29.44 46.1479 29.549 46.6009C29.707 47.0609 29.101 47.4489 29.504 47.8709C29.804 49.7509 31.165 47.0349 30.643 48.8809C29.924 48.6689 30.374 49.8189 30.276 50.2229C30.307 52.3119 32.118 49.6389 31.549 51.1839C31.359 51.6569 30.385 51.1909 30.436 51.8709C29.771 53.0709 30.852 53.8369 31.686 54.7159C32.935 55.2989 32.886 56.7009 33.805 57.5969C43.473 62.6689 59.876 61.6579 69.984 63.7769C73.507 62.2429 76.906 61.3769 80.384 62.9399C86.247 64.6779 78.131 74.1269 86.743 67.1589C86.78 64.0059 89.004 65.9589 90.334 61.9679C94.428 59.3869 95.922 61.3519 95.394 55.4859C95.312 54.6519 96.14 55.2859 96.423 54.9219C97.607 53.9549 97.323 57.4219 98.599 57.1569C99.529 58.9689 100.307 55.7569 101.223 55.4439C101.644 55.9809 102.023 54.6679 102.382 55.2119C101.933 55.9839 100.792 56.5739 100.508 57.5189C100.867 58.2869 101.349 59.2589 102.332 58.9719C102.302 57.6529 103.071 58.8079 102.865 56.5869C103.574 55.7869 104.888 55.4819 104.986 54.1529C105.242 53.6899 105.877 53.4929 105.74 52.8719C105.92 52.5199 106.408 52.2719 106.16 51.7949" fill="#E6E6E7"/>
<path d="M33.78 88.7659C33.665 88.4339 34.08 89.066 34.118 89.139C33.923 89.361 33.791 88.9249 33.78 88.7659Z" fill="#ED7465"/>
<path d="M34.02 87.8799C34.134 87.9249 34.5001 88.346 34.2011 88.247C34.0811 88.217 33.734 87.7109 34.02 87.8799Z" fill="#ED7465"/>
<path d="M32.437 88.0311C32.35 87.8711 32.657 88.053 32.637 88.142C32.569 88.189 32.48 88.0711 32.437 88.0311Z" fill="#ED7465"/>
<path d="M31.419 86.325C31.389 86.225 31.639 86.3151 31.573 86.3641C31.5195 86.3621 31.467 86.3487 31.419 86.325Z" fill="#ED7465"/>
<path d="M31.7429 86.49C31.7979 86.758 32.1429 86.661 32.0009 86.453C31.9899 86.413 31.5219 86.38 31.7429 86.49Z" fill="#ED7465"/>
<path d="M32.186 86.449C32.233 86.691 32.567 86.661 32.752 86.599C32.73 86.451 32.56 86.599 32.49 86.532C32.434 86.487 32.1 86.273 32.19 86.449" fill="#ED7465"/>
<path d="M34.046 59.7129C33.788 60.0299 34.146 59.7349 34.299 59.8059C34.278 59.6489 34.129 59.4819 34.046 59.7129Z" fill="#ED7465"/>
<path d="M34.256 60.122C34.108 60.316 34.317 60.122 34.316 60.415C34.527 60.392 34.259 59.854 34.256 60.122Z" fill="#ED7465"/>
<path d="M33.8359 58.9511C33.6679 59.0711 33.9629 58.9671 33.9489 59.0961C34.2749 59.0581 33.9879 58.6751 33.8359 58.9511Z" fill="#ED7465"/>
<path d="M33.843 59.3559C33.795 59.4219 33.911 59.6739 33.958 59.5649C33.965 59.4739 33.779 59.0729 33.843 59.3559Z" fill="#ED7465"/>
<path d="M99.5301 67.195C99.1551 67.38 100.107 67.376 99.673 67.028C99.391 66.893 99.8851 67.328 99.5301 67.195Z" fill="#ED7465"/>
<path d="M97.7769 68.0981C97.7359 68.2161 97.9109 68.2111 97.8609 68.0981C97.8669 67.9781 97.7239 67.9651 97.7769 68.0981Z" fill="#ED7465"/>
<path d="M97.0599 68.7471C96.7869 69.1761 97.121 69.074 97.183 68.733C97.2977 68.668 97.4262 68.6309 97.558 68.625C98.086 68.059 97.2889 69.2251 97.0719 69.0611C97.1719 69.1781 96.9019 69.361 96.8429 69.385C96.8329 69.328 96.9889 69.185 96.8719 69.27C96.7899 69.254 96.7419 69.37 96.8319 69.379C96.7429 69.604 96.0319 70.1031 95.9079 70.0031C96.0509 69.8771 96.8689 69.5301 96.6009 69.4561C96.2089 69.6871 95.7389 70.1831 95.5129 70.1791C95.7469 69.9931 95.4129 70.014 95.4129 70.229C94.8939 70.208 95.8939 69.2 95.9209 69.405C95.8579 69.243 96.229 69.441 96.194 69.245C96.206 69.05 96.7159 69.0831 96.8849 68.8811C97.0279 68.6021 97.3529 68.181 97.0569 68.745" fill="#ED7465"/>
<path d="M94.819 78.7271C94.576 78.2031 95.503 79.5271 95.56 79.6621C95.2607 79.3958 95.0098 79.0794 94.819 78.7271Z" fill="#ED7465"/>
<path d="M95.5919 79.7471C96.1049 79.9311 95.785 81.111 95.236 81.147C95.72 80.798 96.0279 80.2831 95.5919 79.7471Z" fill="#ED7465"/>
<path d="M94.9749 81.6899C94.9079 81.8409 94.6569 82.2589 94.7749 82.3359C94.7749 82.1589 95.0979 81.7449 94.9749 81.6899Z" fill="#ED7465"/>
<path d="M93.609 82.8329C93.539 82.9459 93.343 83.08 93.377 83.216C93.472 83.149 93.892 82.5909 93.609 82.8329Z" fill="#ED7465"/>
<path d="M93.066 84.2591C93.151 84.3091 93.159 84.125 93.11 84.131C93.093 84.167 93.018 84.2221 93.066 84.2591Z" fill="#ED7465"/>
<path d="M91.4821 95.0111C91.2461 94.9631 91.2681 94.7321 91.5231 94.8401C91.4311 94.7091 91.123 94.516 91.155 94.373C91.755 94.798 91.728 95.448 92.014 96.014C91.692 95.974 91.7421 94.9521 91.6481 95.1041C91.6841 95.5671 91.725 95.696 91.475 95.197C91.475 95.078 91.7161 94.8041 91.4821 95.0111Z" fill="#ED7465"/>
<path d="M93.5551 100.294C93.6131 100.412 93.496 100.601 93.542 100.668C93.642 100.624 93.6731 100.114 93.5551 100.294Z" fill="#ED7465"/>
<path d="M93.431 100.973C93.457 101.149 93.094 101.535 93.214 101.567C93.397 101.388 93.68 100.307 93.431 100.973Z" fill="#ED7465"/>
<path d="M93.07 101.675C93.049 101.727 93.164 101.701 93.138 101.652C93.115 101.586 93.099 101.668 93.07 101.675Z" fill="#ED7465"/>
<path d="M92.9709 101.803C92.9089 101.839 93.0228 101.857 93.0308 101.814C93.0448 101.747 92.9899 101.743 92.9709 101.803Z" fill="#ED7465"/>
<path d="M92.837 101.907C92.76 101.98 92.8809 101.984 92.9029 101.921C92.9249 101.858 92.869 101.877 92.837 101.907Z" fill="#ED7465"/>
<path d="M92.6099 102.101C92.5779 102.156 92.3739 102.158 92.4419 102.236C92.5779 102.299 92.8609 101.936 92.6099 102.101Z" fill="#ED7465"/>
<path d="M91.9891 102.341C92.0128 102.373 92.0403 102.403 92.0711 102.429C92.1501 102.391 91.9661 102.217 91.9891 102.341Z" fill="#ED7465"/>
<path d="M91.7701 102.401C91.6901 102.492 92.007 102.521 91.97 102.416C91.896 102.434 91.8251 102.328 91.7701 102.401Z" fill="#ED7465"/>
<path d="M91.6561 102.563C91.6701 102.758 91.841 102.576 91.819 102.527C91.761 102.558 91.6331 102.446 91.6561 102.563Z" fill="#ED7465"/>
<path d="M91.5291 102.696C91.5111 102.739 91.31 102.736 91.402 102.796C91.542 102.811 91.7381 102.531 91.5291 102.696Z" fill="#ED7465"/>
<path d="M90.876 102.837C90.908 102.881 90.832 102.902 90.854 102.937C90.995 102.982 90.947 102.699 90.876 102.837Z" fill="#ED7465"/>
<path d="M91.1159 102.89C91.0699 102.941 91.203 102.939 91.186 102.89C91.177 102.87 91.1299 102.878 91.1159 102.89Z" fill="#ED7465"/>
<path d="M89.4709 103.05C89.3849 103.179 89.652 103.05 89.517 103.039C89.509 103.036 89.5004 103.036 89.4923 103.038C89.4842 103.04 89.4768 103.044 89.4709 103.05Z" fill="#ED7465"/>
<path d="M89.651 103.013C89.587 103.069 89.6509 103.107 89.6949 103.046C89.6949 103.02 89.669 102.964 89.651 103.013Z" fill="#ED7465"/>
<path d="M90.0299 99.0819C89.8679 98.7899 90.2049 99.2059 90.2379 99.3259C90.1669 99.5159 90.0639 99.1469 90.0299 99.0819Z" fill="#ED7465"/>
<path d="M89.9741 99.3501C90.0301 99.4801 90.383 99.566 90.261 99.38C90.25 99.69 89.9611 99.1801 89.9741 99.3501Z" fill="#ED7465"/>
<path d="M84.354 94.52C84.368 94.72 84.9469 94.396 84.9659 94.248C84.7749 94.325 84.614 94.591 84.354 94.52Z" fill="#ED7465"/>
<path d="M79.4079 94.2331C79.0859 94.4571 79.508 94.258 79.652 94.257C79.766 94.125 79.4639 94.1951 79.4079 94.2331Z" fill="#ED7465"/>
<path d="M78.882 94.355C78.321 94.449 78.8821 94.3789 79.0981 94.4659C79.3351 94.3399 78.978 94.383 78.882 94.355Z" fill="#ED7465"/>
<path d="M78.2959 94.4889C78.2119 94.5079 78.267 94.608 78.339 94.575C78.411 94.542 78.3749 94.4549 78.2959 94.4889Z" fill="#ED7465"/>
<path d="M77.8119 94.8382C77.8419 94.8752 78.118 94.9941 78.058 94.8261C77.952 94.7731 77.8829 94.6892 77.8119 94.8382Z" fill="#ED7465"/>
<path d="M78.589 94.991C78.612 95.083 78.496 95.555 78.667 95.291C78.843 95.107 78.449 94.632 78.589 94.991Z" fill="#ED7465"/>
<path d="M73.8399 96.344C73.7699 96.46 74.0109 96.4089 74.0549 96.4729C74.5229 96.7569 74.2669 95.973 73.8399 96.344Z" fill="#ED7465"/>
<path d="M74.863 96.6941C74.957 96.9001 75.4549 96.9731 75.1119 96.7061C75.0459 96.5241 74.989 96.6261 74.863 96.6941Z" fill="#ED7465"/>
<path d="M34.177 18.4029C34.506 18.1579 33.451 17.6119 33.545 17.4489C33.438 16.3639 32.027 16.8979 31.956 15.6979C30.947 15.3639 31.114 13.7239 29.906 13.8119C30.161 13.7119 30.461 13.5279 29.838 13.5049C29.431 13.5299 29.738 12.4869 29.687 12.2849C29.127 11.4229 28.724 12.1399 28.952 10.9849C28.784 10.8489 28.184 11.3119 28.224 10.8849C28.337 10.6629 28.886 10.9459 28.714 10.5659C28.668 9.45892 27.207 10.5749 26.764 9.59592C27.164 9.46192 26.682 9.25091 26.464 9.30391C26.172 9.38191 26.138 10.0399 25.774 10.0329C25.524 9.77791 26.512 9.44692 25.927 9.33792C24.506 9.10592 25.27 8.36791 23.041 9.13791C22.115 9.60091 21.702 7.50292 21.123 8.41292C20.031 8.88092 20.376 7.84192 20.423 10.0829C19.985 11.5339 19.593 11.5539 20.704 12.7409C19.291 13.1199 20.929 13.4599 20.688 14.0179C20.253 14.3179 20.254 13.5709 19.988 13.3899C19.817 13.0129 20.704 12.4899 20.017 12.3129C19.684 12.5129 20.076 13.0609 19.682 13.3319C19.912 13.4679 20.093 14.1539 19.742 13.9439C19.972 13.4319 19.451 13.7059 19.242 13.7439C19.276 13.2209 18.031 12.4289 18.842 12.1769C19.733 11.9229 18.203 11.1579 17.85 11.0769C17.75 11.1459 17.85 11.5769 17.604 11.3169C17.51 10.6889 16.83 10.8469 16.413 10.5959C14.766 9.63592 17.199 13.1319 16.091 12.3459C16.391 11.7609 15.925 11.9959 15.762 11.6719C15.862 11.5929 15.841 11.3009 15.68 11.4799C15.56 12.8589 15.337 11.8249 15.174 12.5199C15.112 13.7399 16.259 13.5999 16.358 14.3799C16.308 14.4799 16.469 14.8539 16.534 14.6119C16.548 14.5119 16.502 14.3359 16.622 14.3259C17.105 14.6199 16.317 14.9929 16.622 15.0589C17.183 14.8479 17.491 15.2589 17.986 15.3039C18.335 16.0129 17.606 15.8269 17.25 15.6039C17.014 15.6389 17.341 16.0309 17.217 16.1689C16.901 16.4059 16.938 16.9799 16.417 16.8689C15.955 16.8689 15.788 16.6519 15.641 16.2689C14.863 16.3229 14.403 16.1409 14.223 15.3239C13.237 14.7849 12.031 16.1889 11.099 15.5799C10.311 15.8519 10.955 17.1169 10.293 17.3869C9.37895 17.0869 8.70895 20.9419 11.483 19.4819C12.067 19.7479 10.795 19.6819 10.769 19.9989C10.55 20.9269 9.79695 20.9699 9.66895 21.4929C9.79995 21.7579 9.38495 21.6279 9.30895 21.8689C7.87795 22.0279 10.264 22.3439 10.394 22.6539C10.067 23.2099 10.716 23.1089 10.629 23.3169C10.193 25.4109 10.668 23.7939 11.636 23.8299C12.136 23.8839 11.562 24.0399 11.385 24.0629C10.955 24.6569 11.958 24.9629 12.435 24.9019C12.835 24.9899 11.908 25.3699 11.727 25.3019C11.6921 25.2779 11.6526 25.2614 11.6111 25.2535C11.5695 25.2455 11.5268 25.2463 11.4855 25.2556C11.4443 25.265 11.4054 25.2829 11.3714 25.3081C11.3374 25.3332 11.309 25.3652 11.288 25.4019C11.115 25.5789 11.768 25.8909 11.063 25.6459C9.88896 25.8779 10.653 26.8959 9.87996 26.0909C9.64354 26.0158 9.39047 26.0106 9.15117 26.0759C8.91186 26.1412 8.6965 26.2742 8.53095 26.4589C8.27995 25.8859 6.17296 25.3849 6.23596 26.3789C5.99796 26.4329 6.16095 25.9589 5.92395 26.0069C5.81195 26.1499 5.66795 25.9069 5.85895 25.8689C6.46895 25.8139 5.50396 25.6369 5.90196 25.5509C5.66596 24.7199 3.77395 25.2229 3.20195 24.7749C2.79495 24.8599 2.67895 25.4879 3.18195 25.1029C3.32295 26.2509 3.80995 24.7909 3.76695 25.3869C3.63695 26.0299 4.64596 25.8239 4.95096 25.5739C5.25096 25.6249 5.11295 25.8559 4.87795 25.8389C4.64695 26.5649 6.10696 26.5209 6.45796 26.8089C5.73696 27.4919 6.90795 26.8619 7.70995 27.4319C8.52195 27.6609 7.32696 26.8999 8.66596 27.1399C9.40496 27.8989 9.44096 26.7849 9.49196 27.5459C9.84196 27.5579 10.4 27.7529 10.692 27.4759C11.904 27.4689 13.403 27.9549 14.744 27.5469C15.219 27.0589 13.944 26.6699 14.792 26.4539C15.632 26.1759 15.984 26.8139 16.057 26.4009C15.874 26.1009 17.091 27.0669 16.623 25.8869C16.583 25.7609 16.723 25.7159 16.76 25.8379C16.75 26.6159 18.503 25.5789 19.386 25.8229C19.968 25.9629 19.446 27.1849 19.278 26.3899C18.206 26.2389 18.537 25.9899 17.703 26.7899C17.112 26.8159 16.19 27.7789 17.318 27.5639C17.429 27.5279 17.596 27.7039 17.418 27.7279C16.786 27.9099 15.407 27.4659 16.624 28.3659C16.614 28.1269 16.757 28.1049 16.801 28.3439C17.02 28.6509 17.461 28.0889 17.692 28.3519C17.671 28.5029 17.141 28.5299 17.344 28.6729C17.72 28.3729 18.244 28.6589 18.58 28.4069C18.689 28.1799 18.885 28.3179 18.923 28.5069C19.069 29.1359 19.667 28.5789 19.547 29.0639C19.591 29.3459 20.107 29.0909 19.915 28.8529C19.933 28.5879 21.215 28.4039 19.886 28.1789C19.772 27.8789 20.458 28.4639 20.519 28.1309C20.587 27.8479 19.669 27.8309 20.327 27.7499C21.307 27.5779 21.291 27.4719 20.541 27.9999C21.328 28.3889 20.906 27.3779 21.58 28.3999C21.68 28.4269 21.649 28.5219 21.596 28.5879C21.352 29.2139 21.968 29.0249 21.762 29.3299C21.043 28.9679 20.437 29.6039 21.441 29.6299C21.597 29.4799 22.379 29.4369 21.79 29.6129C21.461 29.7129 22.022 29.9639 22.021 30.2549C22.403 29.7309 22.96 30.0109 22.249 30.2899C22.182 30.6229 22.524 30.9779 22.619 31.3059C23.954 31.7819 23.919 32.1269 24.025 32.3569C24.6329 31.7652 25.3605 31.3107 26.159 31.0239C27.678 27.3169 33.659 19.8559 34.182 18.3909" fill="#ED7465"/>
<path d="M24.6439 32.657C24.2129 32.851 24.3049 33.0411 24.6269 33.3651C24.9679 33.9701 25.7789 33.1941 26.0269 33.6171C26.0269 33.7951 25.8219 34.3411 25.6559 34.2071C25.9869 33.6071 25.9669 33.547 25.4799 33.993C24.8459 34.493 26.3589 35.4561 26.1159 36.1561C26.1899 36.8091 26.7009 38.1181 27.3159 37.4421C27.2269 37.1661 26.9299 36.4071 27.3869 36.9171C27.4789 36.8841 27.4769 36.655 27.6229 36.751C27.8389 37.042 27.1989 37.651 27.6529 37.751C28.1289 38.96 28.2059 37.351 28.3449 36.821C28.6609 36.942 28.2969 37.6211 28.2659 37.9031C28.0799 38.4471 28.8419 38.4811 28.7659 38.8671C28.7969 39.1541 29.0899 40.1901 28.8749 39.9211C28.4379 39.4211 28.7379 40.3551 28.6969 40.5041C28.6199 40.5311 28.4669 40.4211 28.4659 40.5641C29.9529 43.3181 27.7469 41.9301 28.5149 43.2421C28.7429 43.2921 28.6829 42.8951 28.8519 42.8221C29.7239 42.7561 28.2389 43.3881 28.3939 43.8061C28.6049 44.1391 28.8129 43.6591 28.8809 43.4661C29.5099 43.4181 28.4589 44.1871 28.5519 44.4291C28.6919 44.5621 28.5839 44.7121 28.4969 44.8511C29.0899 45.4931 28.5789 44.2511 28.9649 44.4811C29.0279 45.1811 28.9909 46.4611 30.1649 46.0811C30.4579 45.8846 30.6995 45.6207 30.8694 45.3116C31.0394 45.0025 31.1327 44.6573 31.1416 44.3046C31.1505 43.952 31.0748 43.6024 30.9207 43.2851C30.7665 42.9678 30.5386 42.6921 30.2559 42.4811C29.7109 41.3131 30.3959 33.6321 28.2559 36.2111C26.1899 35.9991 27.8559 32.036 26.4639 33.134C25.6349 33.08 25.6499 32.265 26.1519 31.04C25.3535 31.3268 24.6259 31.7813 24.0179 32.373C24.0799 32.506 24.1899 32.601 24.6439 32.66" fill="#E6E6E7"/>
<path d="M0.231964 23.5081C-0.156036 23.3331 -0.00103584 24.0511 0.292964 23.9571C0.330634 23.9298 0.360198 23.8928 0.378503 23.8501C0.396809 23.8073 0.40317 23.7604 0.396909 23.7143C0.390648 23.6682 0.372 23.6247 0.342952 23.5884C0.313904 23.552 0.275545 23.5243 0.231964 23.5081Z" fill="#ED7465"/>
<path d="M0.567974 23.7579C0.416974 23.8759 0.393975 24.2369 0.667975 24.1729C0.833975 24.0879 0.796974 23.7009 0.567974 23.7579Z" fill="#ED7465"/>
<path d="M2.04297 24.0259C0.362974 24.1939 1.70397 24.5589 2.27097 25.1489C3.25097 25.1019 2.59497 24.2799 2.04297 24.0259Z" fill="#ED7465"/>
<path d="M2.54797 26.0341C2.55783 26.093 2.58182 26.1485 2.61787 26.1961C2.65392 26.2436 2.70097 26.2817 2.75497 26.3071C3.11197 26.2161 2.59297 25.6221 2.54797 26.0341Z" fill="#ED7465"/>
<path d="M3.37492 25.7389C3.32692 25.9769 3.85692 25.9159 3.62392 25.7149C3.54292 25.6699 3.40292 25.6329 3.37492 25.7389Z" fill="#ED7465"/>
<path d="M4.93793 26.855C5.04693 27.271 5.38792 26.8179 5.40092 26.6089C5.33292 26.3809 4.92493 26.809 4.93793 26.855Z" fill="#ED7465"/>
<path d="M5.73693 27.31C5.51193 27.26 4.85993 27.244 4.85693 27.531C5.02493 27.699 6.11993 27.545 5.63993 27.289" fill="#ED7465"/>
<path d="M2.16795 16.899C1.96195 17.009 2.21595 17.406 2.41795 17.252C2.54595 17.116 2.33995 16.84 2.16795 16.899Z" fill="#ED7465"/>
<path d="M8.06495 16.8671C7.80395 15.6021 9.42394 16.8451 9.15594 17.4871C8.74294 18.2791 7.99095 17.5121 8.06495 16.8671Z" fill="#ED7465"/>
<path d="M11.442 10.7331C10.204 9.97709 11.842 9.58711 11.742 9.92011C11.342 10.3301 11.82 10.6201 12.109 10.8041C11.9784 11.2761 12.0119 11.7786 12.204 12.2291C12.004 12.9181 11.804 11.7101 11.304 12.1051C11.075 12.0151 11.642 11.1311 11.443 10.7341" fill="#ED7465"/>
<path d="M10.84 29.5931C11.105 29.3141 11.876 30.2931 11.446 30.2471C11.227 29.7001 10.091 29.7921 10.84 29.5931Z" fill="#ED7465"/>
<path d="M11.6929 29.019C12.0499 28.603 11.5049 28.381 12.6829 28.519C12.9239 28.807 12.1359 29.519 12.8829 28.886C13.1549 28.927 12.9539 28.673 12.9369 28.551C13.2519 28.171 13.2429 28.878 13.3619 28.951C13.5699 28.906 13.2619 28.52 13.5229 28.537C13.6349 28.727 14.1649 28.93 13.8229 29.143C14.0879 29.204 14.4059 29.443 13.9409 29.543C13.9779 29.78 14.0609 30.07 13.6619 29.99C13.4989 29.99 13.4159 29.316 13.3069 29.622C13.5309 29.822 13.2159 30.096 13.1069 29.806C13.1309 29.655 13.0159 29.614 12.9879 29.778C12.9109 29.84 12.8019 29.631 12.7259 29.7C12.6459 29.847 13.1019 29.961 12.8839 30.089C12.4039 29.755 12.4579 30.208 12.4919 29.666C11.9019 29.933 11.1009 29.83 12.2319 29.433C12.2539 29.115 11.3589 29.896 11.6959 29.018" fill="#ED7465"/>
<path d="M13.8069 28.4309C13.8965 28.3716 14.0049 28.3475 14.1112 28.3632C14.2175 28.3789 14.3143 28.4333 14.3829 28.5159C14.4409 28.3159 15.3399 28.1599 15.0099 28.4989C14.4419 28.5569 15.1099 28.7639 15.0529 29.0599C14.7689 29.3959 13.7459 28.8749 13.8069 28.4319" fill="#ED7465"/>
<path d="M9.15592 29.969C9.23092 30.047 9.49592 29.923 9.35592 29.832C9.28592 29.802 9.08692 29.884 9.15592 29.969Z" fill="#ED7465"/>
<path d="M26.5789 40.157C26.6529 39.694 26.8359 39.279 26.3919 39.9C26.1609 39.759 26.5049 39.44 26.6199 39.311C26.6429 38.89 26.3859 38.441 26.4689 38.024C26.6299 37.68 27.8689 37.845 27.3029 38.271C27.3029 38.419 27.4749 38.404 27.5389 38.295C28.0439 38.348 27.7579 38.969 27.2929 38.795C27.3199 39.109 27.9539 39.114 27.5089 39.595C27.2789 39.625 26.9979 38.571 26.9369 39.03C27.9089 39.916 25.9519 43.788 26.5789 40.153" fill="#E6E6E7"/>
<path d="M27.931 38.938C27.874 39.484 27.055 40.8291 28.078 40.1721C28.489 40.1321 28.105 38.559 28.44 39.196C28.406 40.427 28.82 38.8571 28.43 38.6541C28.102 39.0821 28.34 38.774 27.93 38.938" fill="#E6E6E7"/>
<path d="M27.283 41.0749C27.535 41.3369 26.318 42.7289 27.225 42.0599C28.191 41.2079 27.51 40.1159 27.283 41.0749Z" fill="#E6E6E7"/>
<path d="M27.8989 40.6821C27.9919 41.0001 28.1579 41.272 27.8989 41.572C27.7569 42.014 28.3289 41.972 28.2809 41.551C28.3109 41.5 28.4069 41.5941 28.4069 41.6511C28.4709 43.2041 29.2799 40.5701 27.8929 40.6781" fill="#E6E6E7"/>
<path d="M27.394 42.6481C27.131 42.9761 27.765 45.7601 28.085 44.8621C28.4 44.3081 27.911 40.5291 27.394 42.6481Z" fill="#E6E6E7"/>
<path d="M26.8849 43.568C26.9389 43.82 27.2689 45.298 27.2429 44.255C27.2779 43.955 26.7259 42.593 26.8849 43.568Z" fill="#E6E6E7"/>
<path d="M9.59596 22.5699C9.32496 22.5369 9.40997 23.0489 9.63097 22.7629C10.069 22.8169 9.97396 22.5629 9.59596 22.5699Z" fill="#ED7465"/>
<path d="M15.648 15.9389C15.426 15.5619 15.321 16.2269 15.625 16.1389C15.6464 16.1305 15.6649 16.116 15.6782 16.0973C15.6916 16.0786 15.6994 16.0564 15.7005 16.0335C15.7017 16.0105 15.6962 15.9877 15.6848 15.9677C15.6733 15.9478 15.6564 15.9315 15.636 15.9209" fill="#ED7465"/>
<path d="M101.121 59.34C101.073 59.293 101.021 59.531 100.983 59.386C101.001 59.162 100.85 59.074 100.683 58.927C100.429 58.841 100.597 59.057 100.43 59.059C100.244 58.869 100.135 58.6173 100.123 58.352C99.423 58.224 99.7 58.465 99.39 57.638C98.869 57.983 98.8219 57.367 98.5969 57.128C98.3509 57.103 98.082 57.166 97.976 56.859C97 55.247 97.717 54.44 95.612 54.991C95.112 61.417 96.044 58.77 90.332 61.94C88.966 65.999 86.801 63.927 86.742 67.13C79.494 72.389 84.525 68.685 82.042 64.182C79.568 61.599 72.714 59.965 69.929 61.582C69.42 61.169 67.008 60.9819 66.629 60.8819C65.107 59.9419 58.324 61.342 54.541 61.154C47.6774 60.7972 40.8633 59.7879 34.191 58.1399C33.791 58.0309 34.457 58.82 34.274 58.928C34.153 59.119 34.503 59.222 34.319 58.97C34.458 58.848 34.534 58.931 34.471 59.086C34.687 59.393 34.33 59.158 34.45 59.486C34.301 59.502 34.375 59.239 34.27 59.225C34.223 59.044 34.058 59.299 34.247 59.282C34.091 59.499 34.431 59.608 34.508 59.79C34.426 60.882 34.961 59.675 34.223 60.98C34.499 61.357 34.323 60.546 34.49 60.98C34.401 61.055 34.524 61.433 34.375 61.219C34.375 60.983 34.134 61.153 34.223 61.319C34.147 61.393 34.309 61.441 34.27 61.529C34.295 61.639 34.097 61.54 34.099 61.616C34.157 61.667 34.114 61.723 34.065 61.676C33.922 61.476 33.891 61.9319 33.672 61.8949C33.59 61.7749 33.458 61.8089 33.33 61.7259C33.411 61.4109 33.994 61.637 34.101 61.272C33.988 61.272 34.101 61.118 34.045 61.095C34.009 61.087 33.96 61.119 33.933 61.095C33.933 60.927 34.433 60.5289 34.123 60.4369C34.023 60.8819 33.323 60.9829 33.301 61.3769C32.982 61.2479 33.672 60.8999 33.731 60.7259C33.739 60.6599 33.767 60.49 33.846 60.516C33.595 61.516 34.291 59.928 33.981 60.169C34.017 60.131 33.991 59.8839 33.865 60.0069C33.821 60.0599 33.919 60.257 33.828 60.253C33.748 60.218 33.785 59.788 33.673 60.124C33.652 60.03 33.615 59.8309 33.42 59.8819C32.64 59.7219 32.284 58.843 31.579 58.582C31.217 59.266 32.179 60.557 31.362 60.815C31.293 60.887 31.351 61.039 31.316 61.134C31.471 61.346 31.298 60.998 31.449 61.056C31.606 61.318 31.962 61.262 31.497 61.35C31.531 61.667 31.397 61.262 31.335 61.271C31.247 61.377 31.327 61.737 31.457 61.727C31.563 61.571 31.702 61.77 31.533 61.797C31.315 61.863 31.633 62.4129 31.415 62.2389C31.171 62.4579 31.541 61.739 31.307 61.785C31.271 62.705 30.815 62.343 31.869 62.639C32.15 62.772 32.03 63.0709 31.825 62.7049C31.764 62.6879 31.719 62.773 31.655 62.774C31.591 62.775 31.486 62.587 31.428 62.664C31.434 62.711 31.556 62.7459 31.508 62.8039C31.386 62.8149 31.253 62.486 31.24 62.698C31.395 62.651 30.82 63.638 30.822 63.939C30.767 64.486 29.422 66.939 30.089 67.21C30.149 67.357 29.996 67.2449 29.964 67.1919C29.73 67.0739 29.714 67.436 29.564 67.542C29.33 67.889 29.829 67.375 29.718 67.761C29.643 67.818 29.655 67.647 29.562 67.715C28.553 68.559 29.347 70.677 28.875 72.11C28.919 72.31 28.398 72.561 28.815 72.449C28.52 72.896 28.229 72.6489 28.287 73.3429C29.118 74.8429 28.187 75.959 29.187 77.387C29.287 77.61 29.593 78.2689 29.311 77.7519C29.234 77.9069 29.111 78.312 29.339 78.006C29.389 78.197 29.649 78.616 29.839 78.547C29.853 78.472 29.927 77.747 30.178 78.147C30.287 78.105 30.126 78.027 30.139 77.972C30.307 77.872 30.23 78.155 30.294 78.225C30.444 78.405 30.594 77.835 30.661 78.332C30.861 78.482 31.054 78.054 31.041 78.332C31.159 78.368 31.382 78.4559 31.291 78.6319C31.221 78.5409 31.047 78.267 30.909 78.417C31.183 78.805 29.837 77.7959 30.063 78.6579C29.918 78.771 30.191 78.7449 30.178 78.8769C30.089 79.1029 30.587 79.537 30.278 79.471C30.178 79.28 29.932 79.154 29.912 78.933C29.996 78.184 29.531 79.172 29.785 79.488C29.501 80.306 30.893 80.3949 30.325 81.0279C29.363 81.5719 32.115 83.9809 31.271 85.1999C31.919 85.7939 32.971 85.706 33.481 86.641C33.698 86.967 34.481 86.609 34.289 87.311C34.082 87.332 34.569 87.679 34.448 87.43C35.324 87.736 35.66 88.9299 35.773 89.6529C36.045 89.9529 35.427 90.07 36.394 89.983C36.962 90.256 39.629 89.719 39.216 90.509C41.9888 92.6608 45.4147 93.7989 48.924 93.734C49.401 91.228 53.243 94.3619 53.971 95.658C54.343 96.514 54.409 97.663 55.537 97.893C55.825 98.082 56.546 98.76 56.8 98.233C57.144 97.633 57.265 97.092 57.932 96.766C58.399 97.223 59.197 96.649 59.532 97.266C60.795 98.349 61.018 100.147 62.396 101.081C62.42 101.913 62.782 103.159 63.609 103.281C64.199 103.825 65.17 103.594 65.827 104.09C65.959 104.167 65.987 104.123 65.933 103.998C66.024 103.935 66.491 103.83 66.206 103.698C66.253 103.861 65.896 103.824 66.145 103.727C66.074 103.493 65.762 103.182 65.708 102.896C65.978 102.88 65.433 102.212 65.523 101.967C65.753 101.954 65.599 101.715 65.652 101.583C65.739 101.533 65.76 101.423 65.645 101.44C65.572 101.528 65.43 101.42 65.364 101.44C65.324 101.521 65.09 101.493 65.164 101.428C65.215 101.418 65.271 101.387 65.253 101.328C64.777 100.817 65.859 101.679 65.402 101.088C65.57 100.788 65.529 101.317 65.696 101.339C65.687 101.369 66.056 100.294 65.813 100.724C65.713 100.716 65.807 100.63 65.806 100.572C65.649 100.433 65.759 100.385 65.533 100.372C65.627 100.104 66.181 100.705 66.271 99.862C66.196 99.796 66.071 99.951 66.088 100.031C65.988 100.158 66.012 100.026 66.061 99.938C66.006 99.845 65.916 100.064 65.861 99.969C65.948 99.907 66.026 99.6989 66.11 99.7909C66.176 99.8249 66.217 99.5149 66.242 99.7389C66.36 99.9389 66.268 99.46 66.371 99.621C66.271 100.021 66.7589 99.561 66.597 99.358C66.297 99.128 66.705 99.358 66.61 99.198C66.3759 98.964 66.778 99.198 66.782 99.367C66.924 99.429 67.374 99.0609 67.036 99.0749C67.029 99.1359 66.919 99.134 66.922 99.069C66.959 99.045 67.071 99.069 67.022 98.969C66.973 98.869 66.887 98.862 66.884 98.943C66.764 98.928 66.866 98.726 66.727 98.688C66.718 98.641 66.769 98.6399 66.797 98.658C66.885 98.658 66.768 98.478 66.873 98.498C66.928 99.148 67.026 98.5569 67.128 98.8979C67.27 98.8459 67.098 98.764 67.103 98.69C67.421 98.87 67.286 98.6579 67.51 98.5149C67.566 98.6149 67.328 98.759 67.516 98.781C67.288 99.033 67.616 98.819 67.722 98.706C68.0499 98.806 67.163 99.025 67.266 99.236C67.476 98.989 68.634 98.384 67.874 98.736C67.823 98.406 68.468 98.5699 68.622 98.2599C68.764 98.0879 69.335 97.636 68.855 97.833C68.813 97.77 69.055 97.7399 68.998 97.6189C68.9799 97.562 69.032 97.538 69.058 97.59C69.258 97.559 69.641 97.045 69.251 97.081C69.451 96.851 69.303 97.0189 69.211 96.8639C69.317 96.6589 68.953 96.5919 69.011 96.4109C69.411 96.9299 69.678 95.917 69.639 96.751C69.239 97.089 69.948 96.62 69.977 96.837C69.8375 96.8779 69.7121 96.9569 69.615 97.065C69.266 97.51 70.726 96.352 70.968 96.456C70.76 96.236 70.753 96.12 70.926 95.871C71.232 95.844 70.986 96.204 70.873 96.246C70.902 96.577 71.551 96.091 71.858 96.188C72.323 96.101 72.74 96.544 73.24 96.5C74.255 96.16 73.555 96.357 73.509 96C73.744 96.172 73.67 95.947 73.897 95.873C74.357 95.596 73.56 96.3039 74.281 95.9549C74.502 95.8839 74.242 96.212 74.435 96.165C74.582 96.044 74.511 96.288 74.535 96.341C74.681 96.408 74.682 96.198 74.71 96.107C74.849 96.107 74.693 96.2679 74.71 96.3299C74.926 96.5299 74.977 96.181 74.964 95.998C74.98 95.853 74.799 95.929 74.736 95.853C74.72 95.753 73.975 95.169 74.406 95.472C74.906 95.246 74.551 96.018 75.101 95.788C75.18 95.742 75.201 95.962 75.101 95.932C74.812 96.063 75.159 96.891 75.334 96.532C75.373 96.57 75.346 96.687 75.434 96.592C75.522 96.497 75.522 96.724 75.618 96.715C75.891 96.739 75.624 96.798 75.55 96.849C75.722 97.209 75.638 96.673 75.774 96.899C76.185 97.299 75.954 95.705 76.606 96.878C77.131 96.878 76.618 96.452 76.892 96.337C76.792 96.314 76.43 95.905 76.716 96.009C77.373 96.035 77.188 96.409 77.461 96.36C77.906 96.646 77.581 96.16 77.979 96.689C78.124 96.434 78.099 96.661 78.042 96.789C78.175 96.822 78.173 96.7279 78.16 96.6349C78.48 96.9169 78.197 96.729 78.469 96.335C78.192 96.588 78.535 96.153 78.224 96.203C78.213 96.377 76.795 95.648 77.499 95.763C77.13 95.441 77.589 95.863 77.68 95.677C77.535 95.665 77.18 95.377 77.503 95.514C77.585 95.525 77.628 95.514 77.568 95.441C77.661 95.403 77.652 95.688 77.78 95.641C77.821 95.171 77.898 95.4319 77.532 95.3639C77.917 95.2929 77.523 95.217 77.757 95.077C77.707 94.925 77.532 95.245 77.639 94.938C77.711 94.754 77.397 95.0289 77.457 95.132C77.42 95.457 77.24 95.18 77.177 95.132C76.66 95.3429 77.898 94.241 77.947 94.32C78.061 94.175 78.392 94.2199 78.447 94.1269C78.352 94.1019 78.247 94.087 78.405 94.087C78.833 94.375 79.085 93.971 79.435 94.065C79.606 94.306 79.601 93.571 79.435 93.583C79.447 93.483 79.528 93.62 79.553 93.546C79.599 92.861 79.668 93.691 79.685 93.108C79.826 93.288 79.685 93.843 79.942 93.868C80.03 93.849 79.923 93.954 79.98 93.991C80.467 94.132 79.601 94.141 79.735 94.277C80.035 94.159 80.474 94.234 80.335 93.886C80.535 94.11 80.773 93.915 80.997 93.625C80.855 93.261 80.975 93.38 81.115 93.591C81.204 93.591 81.08 93.143 81.18 93.397C81.135 93.509 81.469 93.4969 81.306 93.5409C80.327 94.0649 81.9 93.572 81.795 93.441C81.795 93.353 81.885 93.4609 81.913 93.4629C82.013 93.4799 81.897 93.196 82.059 93.32C82.1 93.53 82.378 93.165 82.498 93.336C82.715 93.465 82.037 93.436 81.95 93.483C82.144 93.597 82.603 93.505 82.869 93.643C83.011 93.654 83.378 93.966 83.195 93.695C82.795 93.34 83.208 93.671 83.312 93.485C83.59 93.33 83.272 93.5969 83.245 93.6789C83.375 93.7879 83.671 93.7789 83.709 93.908C83.6549 94.037 83.59 93.867 83.533 93.827C83.341 93.727 83.213 93.81 83.454 93.899C83.654 94.012 84.154 94.239 83.962 94.475C83.909 94.429 83.735 94.136 83.811 94.381C83.903 94.739 84.539 94.343 84.579 94.181C84.756 94.054 84.49 94.437 84.689 94.281C84.95 94.121 85.122 93.7049 85.411 93.8169C85.653 92.3169 87.225 94.79 87.911 94.686C88.69 95.217 88.346 96.1859 88.477 97.1659C88.621 97.4229 88.806 97.4119 88.537 97.1399C88.607 97.0099 88.779 97.583 88.842 97.21C88.914 97.04 88.251 96.51 88.852 96.802C88.835 96.968 89.127 97.264 88.986 96.884C89.161 96.562 89.135 97.4009 88.911 97.4759C88.823 97.5159 88.926 97.553 88.968 97.533C88.92 97.593 88.994 97.6789 89.068 97.5879C89.313 97.4879 89.054 97.7749 88.894 97.6479C88.504 97.6389 89.259 98.148 88.941 97.848C89.112 97.658 89.08 98.177 89.157 98.216C89.369 98.367 89.54 98.732 89.73 98.807C90.197 98.818 89.717 98.619 89.695 98.43C89.778 98.458 89.83 98.599 89.905 98.503C89.955 98.446 90.132 98.298 90.076 98.4679C89.93 98.6289 90.076 98.9679 90.167 99.1869C90.347 99.4089 90.343 98.751 90.476 98.887C90.1 99.629 90.505 99.009 90.755 99.957C90.773 100.057 91.055 100.084 90.955 100.15C90.707 100.45 91.655 99.8829 91.587 100.476C91.821 100.402 91.551 100.335 91.643 100.282C91.735 100.229 91.988 100.429 91.758 100.426C91.691 100.479 91.819 100.544 91.831 100.591C91.812 100.657 91.886 100.737 91.931 100.651C91.941 100.497 92.113 100.598 92.181 100.66C91.207 100.646 93.062 101.345 92.255 101.19C91.816 100.785 92.09 101.727 92.436 101.39C93.893 101.276 93.686 97.737 92.576 97.268C93.298 97.492 91.949 96.153 91.748 95.828C91.148 94.288 89.495 92.647 89.378 91.112C89.529 90.753 89.256 90.957 89.053 90.893C89.434 90.823 89.1959 90.769 89.084 90.488C89.1759 90.419 89.289 90.897 89.391 90.723C89.422 90.677 89.091 90.375 89.27 90.406C89.487 90.791 89.444 89.887 89.522 89.754C89.444 89.623 89.432 89.91 89.29 89.788C89.296 89.655 89.681 89.6769 89.475 89.3979C89.435 89.4209 89.389 89.5669 89.421 89.4419C89.36 89.2709 89.586 89.358 89.59 89.225C89.623 89.096 89.331 89.108 89.428 88.99C89.65 89.138 89.972 88.813 89.697 88.66C90.344 87.96 89.658 88.419 89.782 88.124C89.682 88.048 89.588 87.797 89.742 87.979C89.88 88.333 90.402 88.1099 90.187 87.7859C90.087 87.7129 89.507 87.809 89.987 87.643C90.332 87.762 91.144 87.183 90.692 86.823C90.648 86.538 90.91 87.234 91.073 86.855C91.254 86.597 91.173 86.6 91.217 86.376C91.817 86.451 91.36 85.883 91.663 85.996C91.701 85.896 91.607 85.838 91.519 85.819C91.475 85.734 91.777 85.738 91.548 85.608C91.459 85.479 91.576 85.545 91.584 85.629C91.693 85.339 92.111 84.609 92.209 84.422C92.3709 84.511 92.49 84.142 92.5369 84.288C92.6259 84.414 92.668 84.1709 92.692 84.1579C92.983 84.4219 93.161 83.886 92.947 83.673C92.972 83.458 93.105 83.9 93.118 83.754C93.041 83.215 93.794 82.767 93.475 82.435C93.438 82.209 93.675 82.494 93.624 82.625C93.837 82.716 93.865 82.312 93.875 82.225C94.069 82.294 93.852 82.5429 94.038 82.4029C94.218 82.2129 94.67 82.286 94.385 82.003C94.546 81.953 94.56 82.321 94.741 81.995C94.757 81.784 95.092 81.5379 94.858 81.3849C94.676 81.7609 94.764 81.2779 94.611 81.3849C94.289 82.1399 94.045 81.58 93.736 81.652C93.663 81.614 93.873 81.546 93.736 81.511C93.681 81.321 94.069 81.73 94.212 81.67C94.426 81.507 94.668 81.086 94.232 81.342C94.99 80.768 94.237 81.042 93.822 80.893C93.745 81.013 92.9579 80.4929 93.8729 80.8299C94.257 80.7839 94.452 81.019 94.131 80.544C94.324 80.537 94.331 80.735 94.419 80.834C94.486 80.655 94.548 80.499 94.56 80.834C94.619 80.866 94.638 80.783 94.67 80.762C94.708 80.774 94.751 80.821 94.775 80.762C94.759 80.631 94.8589 80.781 94.9119 80.737C95.0789 80.569 95.032 80.391 95.163 80.191C95.038 79.991 95.251 80.215 95.284 80.191C95.3428 80.0659 95.3538 79.9236 95.3149 79.791C95.276 79.6584 95.19 79.5446 95.073 79.471C94.63 79.447 95.188 80.2 94.7609 80.142C94.8439 79.967 94.901 80.113 94.817 79.809C94.734 79.702 94.949 79.5909 94.7 79.6479C94.7 79.5849 94.842 79.5409 94.7 79.5229C94.5 79.4579 94.452 79.79 94.293 79.714C94.224 79.569 94.031 79.955 93.881 79.868C93.812 79.707 93.593 79.4679 93.681 79.2829C93.476 79.1639 93.594 79.066 93.737 79.216C93.632 79.629 94.102 79.8319 94.262 79.4809C93.671 79.0519 94.962 79.658 94.509 79.102C94.237 78.926 94.609 78.989 94.695 79.144C94.904 79.244 94.719 78.996 94.661 78.927C94.739 78.813 94.867 79.302 95.035 79.248C94.874 79.029 94.749 78.617 94.603 78.68C94.475 78.66 94.348 78.231 94.52 78.462C94.82 78.684 94.444 77.8509 94.351 77.7729C94.143 77.7229 94.309 77.887 94.186 77.917C93.847 77.657 94 77.854 93.795 77.97C93.501 78.395 93.886 77.813 93.377 77.788C93.369 77.731 93.277 77.4599 93.265 77.6479C93.181 77.7009 93.08 77.5009 92.97 77.6479C92.749 77.1939 93.506 77.6429 93.715 77.8639C93.842 77.9149 94.023 77.5689 93.796 77.6059C93.761 77.3339 93.733 77.579 93.608 77.53C93.887 77.32 93.195 77.479 93.13 77.146C93.393 77.111 93.802 77.7759 93.466 77.0459C93.566 76.8899 93.697 77.269 93.814 77.193C93.808 77.035 93.77 76.8429 93.573 76.8429C93.534 76.8429 93.511 76.786 93.573 76.784C93.758 76.623 93.123 76.826 93.121 76.623C92.421 76.035 92.963 76.3889 93.273 76.6319C93.322 76.5089 93.4119 76.708 93.503 76.665C93.594 76.622 93.537 76.565 93.458 76.565C93.55 76.454 93.435 76.285 93.277 76.182C93.808 76.028 93.138 76.117 93.072 75.862C92.88 75.769 92.761 75.714 92.82 75.947C92.701 75.793 92.595 75.804 92.42 75.809C92.32 75.709 92.22 75.301 92.099 75.609C91.959 75.148 92.465 75.633 92.642 75.676C92.819 75.326 93.109 76.1109 93.093 75.6009C93.514 76.3819 93.345 75.338 92.95 75.427C92.928 75.389 92.55 75.2269 92.697 75.1919C93.497 75.6349 92.828 75.159 92.797 74.792C92.63 74.72 92.802 74.406 92.686 74.498C92.599 74.593 92.695 74.347 92.613 74.34C92.813 74.191 92.647 73.962 92.651 73.745C92.629 73.645 92.3879 73.653 92.5839 73.57C92.7239 73.47 92.616 73.252 92.7609 73.178C92.7609 73.886 92.916 72.9489 93.022 72.8689C92.982 73.5599 93.022 73.088 93.26 73.251C92.96 73.251 92.676 73.6259 92.898 73.8509C92.928 74.0969 93.189 74.118 92.832 74.051C92.869 75.144 93.118 74.371 93.2739 74.735C92.826 74.89 93.137 74.88 93.23 75.055C93.178 75.155 93.169 74.963 93.103 74.99C92.996 75.117 93.389 75.248 93.444 75.307C93.692 75.415 93.393 75.628 93.599 75.579C93.714 75.579 93.699 75.4989 93.655 75.4209C93.683 75.3349 94.005 75.356 93.815 75.404C93.625 75.452 93.937 75.7949 93.973 75.8899C94.082 75.8679 94.257 75.601 94.246 75.782C94.116 75.871 94.146 76.096 94.184 76.182C94.222 76.268 93.984 76.589 94.168 76.857C94.057 77.057 94.3009 77.699 94.3339 77.245C94.4699 77.472 94.362 77.071 94.311 77.04C94.361 76.829 94.198 76.94 94.37 76.797C94.17 76.743 94.477 76.647 94.348 76.555C94.377 76.51 94.422 76.6 94.448 76.608C94.599 76.608 94.521 76.4439 94.401 76.4499C94.63 76.3809 94.419 76.2499 94.434 76.1059C94.617 75.9439 94.664 74.834 94.762 75.098C94.552 76.655 95.112 74.784 94.644 74.669C94.686 74.651 94.7309 74.73 94.753 74.669C94.737 74.646 94.753 74.6 94.779 74.628C95.034 74.894 94.654 73.8169 94.479 74.0069C94.0244 73.6735 93.6769 73.2148 93.479 72.6869C93.416 72.5259 93.7179 72.3039 93.5369 72.6009C93.697 73.1829 94.063 72.973 94.2999 73.328C94.852 72.791 94.491 74.284 94.946 73.37C94.978 73.284 94.9 73.1789 94.859 73.3249C94.759 73.3639 94.826 73.238 94.887 73.248C94.841 73.032 95.281 72.8479 94.861 72.8849C94.8851 72.8846 94.9088 72.8788 94.9303 72.8678C94.9518 72.8569 94.9705 72.8411 94.9849 72.8218C94.9993 72.8024 95.009 72.78 95.0134 72.7563C95.0177 72.7326 95.0166 72.7082 95.01 72.685C95.022 72.876 95.1489 72.815 95.201 72.672C95.058 72.597 95.193 72.553 95.15 72.428C94.95 72.306 95.196 72.319 95.286 72.328C95.502 72.076 95.086 71.339 95.26 71.342C95.34 71.501 95.271 71.825 95.3599 71.933C95.3957 71.4354 95.3157 70.9363 95.126 70.475C95.003 70.469 95.15 70.5339 95.144 70.5749C95.09 70.6089 94.9069 70.483 94.8729 70.596C94.812 70.685 94.827 70.555 94.7609 70.564C94.6119 70.687 94.809 70.27 94.842 70.115C94.834 69.941 94.907 70.274 94.942 70.115C94.957 69.857 95.183 69.724 95.218 69.5C95.311 69.226 95.687 69.1109 95.742 68.8639C95.757 68.8019 95.812 68.8879 95.835 68.9029C95.958 68.8269 95.941 68.523 96.051 68.47C96.088 68.707 96.308 68.437 96.457 68.428C96.657 68.388 96.846 68.307 96.633 68.139C96.642 68.072 96.74 68.123 96.733 68.181C96.782 68.387 96.94 68.137 97.055 68.136C96.943 68.036 97.009 67.783 97.055 68.016C97.078 68.233 97.236 67.8919 97.31 67.9629C97.256 68.2729 97.619 67.681 97.777 67.779C97.899 67.479 97.4829 66.579 97.977 67.134C98.077 67.454 98.042 67.434 98.32 67.281C98.301 67.239 98.285 67.158 98.363 67.181C98.485 67.134 98.254 67.153 98.333 67.081C98.455 67.028 98.584 66.888 98.505 66.743C99.005 66.443 98.105 67.743 99.555 66.384C99.536 66.272 99.375 66.5209 99.444 66.3769C99.573 66.1559 99.05 65.623 98.897 65.912C98.93 66.037 99.006 65.894 99.061 65.9C99.193 65.892 99.131 66.227 99.243 66.154C99.674 66.195 98.725 66.97 98.631 66.281C98.452 66.287 98.224 66.158 98.499 66.118C98.416 66.029 98.278 65.971 98.218 65.855C97.136 66.18 98.218 65.255 98.098 64.999C97.735 65.434 97.759 63.862 97.547 64.46C97.48 64.433 97.468 64.146 97.647 64.316C97.694 64.324 97.672 64.2469 97.724 64.2729C97.747 64.2889 97.785 64.348 97.791 64.285C97.731 63.8946 97.8233 63.4961 98.049 63.172C98.095 62.859 97.7929 63.372 97.9719 62.779C98.0539 62.733 98.062 62.551 98.147 62.566C98.157 62.632 98.085 62.779 98.18 62.809C98.1911 62.7911 98.2061 62.776 98.2238 62.7646C98.2415 62.7533 98.2615 62.746 98.2824 62.7433C98.3032 62.7407 98.3244 62.7426 98.3444 62.7491C98.3644 62.7556 98.3827 62.7666 98.398 62.781C98.469 62.654 98.274 62.273 98.206 62.365C98.126 62.218 98.219 61.865 98.358 62.358C98.858 62.737 98.566 62.158 98.718 61.893C99.313 62.471 98.932 61.625 99.044 61.336C99.162 61.273 98.98 61.155 98.991 61.096C99.066 60.996 99.204 60.914 99.109 60.796C99.209 60.652 99.236 60.934 99.174 61.013C99.249 61.337 99.293 61.043 99.559 61.193C99.798 61.256 99.459 61.001 99.446 60.934C99.485 60.914 99.602 60.895 99.534 60.809C99.616 60.451 99.709 61.2749 99.891 61.1349C100.029 60.9449 100.053 60.786 99.791 60.711C99.597 60.384 100.024 60.65 100.042 60.748C100.342 60.7 100.056 60.5909 100.08 60.4889C100.214 60.6169 100.155 60.5069 100.233 60.4289C100.283 60.3699 100.727 60.266 100.54 60.105C100.53 59.944 100.84 60.052 100.966 59.823C100.957 59.753 101.057 59.685 100.959 59.655C100.959 59.541 101.2 59.483 101.091 59.349" fill="#ED7465"/>
</g>
</svg>
