<svg width="107" height="85" viewBox="0 0 107 85" fill="none" xmlns="http://www.w3.org/2000/svg">
<path fill-rule="evenodd" clip-rule="evenodd" d="M105.245 84.6122H1.46024C1.04999 84.5736 0.670115 84.3793 0.398735 84.0692C0.127356 83.7592 -0.0148956 83.3569 0.0012362 82.9452V1.66716C-0.0148956 1.25542 0.127356 0.853154 0.398735 0.543086C0.670115 0.233018 1.04999 0.0387252 1.46024 0.000163207C1.68001 -0.00293356 1.89817 0.0380677 2.10181 0.120746C2.30546 0.203424 2.49047 0.326101 2.64588 0.481517C2.8013 0.636933 2.92397 0.821936 3.00665 1.02558C3.08933 1.22923 3.13033 1.44739 3.12724 1.66716V81.4862H105.245C105.438 81.4815 105.63 81.5161 105.809 81.5877C105.988 81.6594 106.151 81.7667 106.287 81.9031C106.424 82.0395 106.531 82.2022 106.603 82.3814C106.674 82.5605 106.709 82.7523 106.704 82.9452C106.719 83.3567 106.577 83.7584 106.306 84.0682C106.034 84.3781 105.655 84.5727 105.245 84.6122Z" fill="#CFD0D1"/>
<path fill-rule="evenodd" clip-rule="evenodd" d="M8.33722 14.5891H1.46022C1.07327 14.5891 0.702168 14.4354 0.428552 14.1618C0.154936 13.8882 0.0012207 13.5171 0.0012207 13.1301C0.0012207 12.7432 0.154936 12.3721 0.428552 12.0984C0.702168 11.8248 1.07327 11.6711 1.46022 11.6711H8.33722C8.54452 11.6461 8.75477 11.665 8.95425 11.7267C9.15374 11.7884 9.33799 11.8914 9.49499 12.0291C9.65199 12.1667 9.77822 12.3359 9.86544 12.5256C9.95267 12.7154 9.99893 12.9213 10.0012 13.1301C9.96268 13.5398 9.76881 13.9192 9.45939 14.1906C9.14997 14.4619 8.74845 14.6045 8.33722 14.5891Z" fill="#CFD0D1"/>
<path fill-rule="evenodd" clip-rule="evenodd" d="M8.33724 29.1772H1.46024C1.26736 29.1818 1.07556 29.1473 0.896436 29.0756C0.717315 29.0039 0.554614 28.8966 0.418193 28.7602C0.281773 28.6238 0.174475 28.4611 0.102803 28.282C0.0311303 28.1028 -0.00342326 27.911 0.0012362 27.7182C-0.0148956 27.3064 0.127356 26.9041 0.398735 26.5941C0.670115 26.284 1.04999 26.0897 1.46024 26.0511H8.33724C8.55676 26.0485 8.77459 26.0898 8.97789 26.1726C9.18119 26.2555 9.36583 26.3782 9.52093 26.5336C9.67602 26.689 9.79843 26.8738 9.88092 27.0773C9.96342 27.2807 10.0043 27.4986 10.0012 27.7182C9.9627 28.1279 9.76883 28.5073 9.4594 28.7786C9.14998 29.0499 8.74847 29.1925 8.33724 29.1772Z" fill="#CFD0D1"/>
<path fill-rule="evenodd" clip-rule="evenodd" d="M8.33722 43.7651H1.46022C1.07327 43.7651 0.702168 43.6114 0.428552 43.3378C0.154936 43.0642 0.0012207 42.6931 0.0012207 42.3061C0.0012207 41.9192 0.154936 41.5481 0.428552 41.2745C0.702168 41.0009 1.07327 40.8471 1.46022 40.8471H8.33722C8.54452 40.8221 8.75477 40.8411 8.95425 40.9027C9.15374 40.9644 9.33799 41.0674 9.49499 41.2051C9.65199 41.3427 9.77822 41.512 9.86544 41.7017C9.95267 41.8914 9.99893 42.0973 10.0012 42.3061C9.96268 42.7158 9.76881 43.0953 9.45939 43.3666C9.14997 43.6379 8.74845 43.7805 8.33722 43.7651Z" fill="#CFD0D1"/>
<path fill-rule="evenodd" clip-rule="evenodd" d="M8.33724 58.3532H1.46024C1.26736 58.3578 1.07556 58.3233 0.896436 58.2516C0.717315 58.1799 0.554614 58.0726 0.418193 57.9362C0.281773 57.7998 0.174475 57.6371 0.102803 57.458C0.0311303 57.2789 -0.00342326 57.087 0.0012362 56.8942C-0.0148956 56.4824 0.127356 56.0802 0.398735 55.7701C0.670115 55.46 1.04999 55.2657 1.46024 55.2272H8.33724C8.55676 55.2245 8.77459 55.2658 8.97789 55.3486C9.18119 55.4315 9.36583 55.5543 9.52093 55.7096C9.67602 55.865 9.79843 56.0498 9.88092 56.2533C9.96342 56.4567 10.0043 56.6747 10.0012 56.8942C9.9627 57.3039 9.76883 57.6833 9.4594 57.9546C9.14998 58.2259 8.74847 58.3685 8.33724 58.3532Z" fill="#CFD0D1"/>
<path fill-rule="evenodd" clip-rule="evenodd" d="M8.33724 73.1501H1.46024C1.04999 73.1116 0.670115 72.9173 0.398735 72.6072C0.127356 72.2971 -0.0148956 71.8949 0.0012362 71.4832C-0.00342326 71.2903 0.0311303 71.0985 0.102803 70.9193C0.174475 70.7402 0.281773 70.5775 0.418193 70.4411C0.554614 70.3047 0.717315 70.1974 0.896436 70.1257C1.07556 70.054 1.26736 70.0195 1.46024 70.0241H8.33724C8.54454 69.9991 8.75478 70.0181 8.95427 70.0797C9.15375 70.1414 9.338 70.2444 9.495 70.3821C9.652 70.5198 9.77823 70.6889 9.86546 70.8787C9.95268 71.0684 9.99895 71.2744 10.0012 71.4832C9.97186 71.9151 9.7872 72.3218 9.48135 72.6282C9.1755 72.9346 8.76911 73.12 8.33724 73.1501Z" fill="#CFD0D1"/>
<path fill-rule="evenodd" clip-rule="evenodd" d="M24.1762 79.6101H15.4232C14.8708 79.6091 14.3413 79.3891 13.9507 78.9985C13.5601 78.6079 13.3402 78.0785 13.3392 77.5261V50.8501C13.3347 50.276 13.5467 49.7213 13.933 49.2966C14.3192 48.8718 14.8513 48.6081 15.4232 48.5581H24.1762C24.7481 48.6081 25.2802 48.8718 25.6664 49.2966C26.0526 49.7213 26.2646 50.276 26.2602 50.8501V77.3181C26.2646 77.8922 26.0526 78.4469 25.6664 78.8716C25.2802 79.2964 24.7481 79.5601 24.1762 79.6101Z" fill="#ED7465"/>
<path fill-rule="evenodd" clip-rule="evenodd" d="M41.6822 79.6102H33.1372C32.8484 79.6305 32.5584 79.5921 32.2849 79.4973C32.0113 79.4024 31.7598 79.2531 31.5456 79.0583C31.3313 78.8635 31.1588 78.6273 31.0385 78.364C30.9181 78.1006 30.8523 77.8156 30.8452 77.5262V43.1392C30.8507 42.533 31.0939 41.9532 31.5226 41.5245C31.9512 41.0959 32.531 40.8526 33.1372 40.8472H41.6822C41.9717 40.8543 42.2567 40.92 42.52 41.0404C42.7834 41.1608 43.0196 41.3333 43.2143 41.5475C43.4091 41.7617 43.5585 42.0133 43.6533 42.2868C43.7482 42.5604 43.7866 42.8503 43.7662 43.1392V77.3172C43.8053 77.6097 43.78 77.9072 43.6921 78.189C43.6042 78.4707 43.4559 78.7298 43.2574 78.9482C43.0589 79.1666 42.8151 79.339 42.543 79.4534C42.2709 79.5677 41.9771 79.6212 41.6822 79.6102Z" fill="#E6E6E7"/>
<path fill-rule="evenodd" clip-rule="evenodd" d="M59.1882 79.6101H50.6432C50.3652 79.6269 50.0867 79.5845 49.8263 79.4857C49.5659 79.3869 49.3293 79.234 49.1324 79.037C48.9354 78.8401 48.7825 78.6035 48.6837 78.3431C48.5849 78.0826 48.5425 77.8042 48.5592 77.5262V35.2201C48.5425 34.9421 48.5849 34.6636 48.6837 34.4032C48.7825 34.1428 48.9354 33.9062 49.1324 33.7093C49.3293 33.5123 49.5659 33.3594 49.8263 33.2606C50.0867 33.1618 50.3652 33.1194 50.6432 33.1361H59.1882C59.7623 33.1317 60.317 33.3437 60.7418 33.7299C61.1665 34.1161 61.4302 34.6482 61.4802 35.2201V77.3201C61.4742 77.926 61.2308 78.5053 60.8022 78.9335C60.3736 79.3617 59.7941 79.6047 59.1882 79.6101Z" fill="#ED7465"/>
<path fill-rule="evenodd" clip-rule="evenodd" d="M76.9022 79.6112H68.3572C68.0683 79.6316 67.7784 79.5932 67.5048 79.4983C67.2313 79.4035 66.9798 79.2541 66.7655 79.0593C66.5513 78.8646 66.3788 78.6284 66.2584 78.365C66.138 78.1017 66.0723 77.8167 66.0652 77.5272V27.3012C66.0723 27.0118 66.138 26.7268 66.2584 26.4634C66.3788 26.2001 66.5513 25.9639 66.7655 25.7691C66.9798 25.5743 67.2313 25.425 67.5048 25.3301C67.7784 25.2353 68.0683 25.1969 68.3572 25.2172H76.9022C77.191 25.1969 77.481 25.2353 77.7545 25.3301C78.0281 25.425 78.2796 25.5743 78.4938 25.7691C78.7081 25.9639 78.8806 26.2001 79.0009 26.4634C79.1213 26.7268 79.1871 27.0118 79.1942 27.3012V77.3172C79.2095 77.6224 79.1607 77.9273 79.051 78.2124C78.9413 78.4976 78.773 78.7565 78.5571 78.9726C78.3411 79.1888 78.0823 79.3572 77.7973 79.4672C77.5122 79.5772 77.2073 79.6263 76.9022 79.6112Z" fill="#E6E6E7"/>
<path fill-rule="evenodd" clip-rule="evenodd" d="M94.4082 79.6112H85.8632C85.5743 79.6315 85.2844 79.5931 85.0108 79.4983C84.7372 79.4034 84.4857 79.2541 84.2715 79.0593C84.0573 78.8645 83.8848 78.6283 83.7644 78.365C83.644 78.1016 83.5783 77.8166 83.5712 77.5272V13.3382C83.5783 13.0487 83.644 12.7637 83.7644 12.5004C83.8848 12.237 84.0573 12.0008 84.2715 11.806C84.4857 11.6112 84.7372 11.4619 85.0108 11.3671C85.2844 11.2722 85.5743 11.2338 85.8632 11.2542H94.4082C94.7004 11.2163 94.9974 11.2424 95.2786 11.3308C95.5597 11.4191 95.8183 11.5676 96.0363 11.7659C96.2544 11.9641 96.4267 12.2074 96.5413 12.4789C96.6559 12.7504 96.7102 13.0436 96.7002 13.3382V77.5272C96.7102 77.8217 96.6559 78.1149 96.5413 78.3864C96.4267 78.6579 96.2544 78.9012 96.0363 79.0994C95.8183 79.2977 95.5597 79.4462 95.2786 79.5345C94.9974 79.6229 94.7004 79.649 94.4082 79.6112Z" fill="#ED7465"/>
</svg>
