<svg width="42" height="127" viewBox="0 0 42 127" fill="none" xmlns="http://www.w3.org/2000/svg">
<mask id="mask0_13_64" style="mask-type:luminance" maskUnits="userSpaceOnUse" x="0" y="0" width="42" height="127">
<path d="M41.273 0H0V126.75H41.273V0Z" fill="white"/>
</mask>
<g mask="url(#mask0_13_64)">
<path d="M40.583 107.82L22.158 90.056C21.7404 89.6527 21.1825 89.4274 20.602 89.4274C20.0214 89.4274 19.4636 89.6527 19.046 90.056L0.685961 107.823C0.365569 108.133 0.145118 108.532 0.052848 108.969C-0.0394221 109.405 0.000690818 109.859 0.168048 110.272C0.335405 110.686 0.622385 111.04 0.992225 111.289C1.36206 111.539 1.79792 111.672 2.24396 111.672H2.25796C2.85205 111.672 3.4218 111.908 3.84188 112.328C4.26196 112.748 4.49796 113.318 4.49796 113.912V124.512C4.49796 125.106 4.73396 125.676 5.15404 126.096C5.57412 126.516 6.14388 126.752 6.73796 126.752H34.549C35.143 126.752 35.7128 126.516 36.1329 126.096C36.553 125.676 36.789 125.106 36.789 124.512V113.912C36.789 113.318 37.025 112.748 37.445 112.328C37.8651 111.908 38.4349 111.672 39.029 111.672C39.4754 111.672 39.9116 111.538 40.2816 111.289C40.6517 111.039 40.9387 110.684 41.1058 110.271C41.2729 109.857 41.3125 109.402 41.2195 108.965C41.1265 108.529 40.9042 108.13 40.583 107.82ZM20.034 118.843C20.034 119.138 19.9168 119.421 19.7083 119.629C19.4997 119.838 19.2169 119.955 18.922 119.955H15.084C14.789 119.955 14.5062 119.838 14.2977 119.629C14.0891 119.421 13.972 119.138 13.972 118.843V115.006C13.972 114.86 14.0007 114.715 14.0566 114.58C14.1125 114.446 14.1944 114.323 14.2977 114.22C14.4009 114.116 14.5235 114.035 14.6584 113.979C14.7933 113.923 14.9379 113.894 15.084 113.894H18.92C19.066 113.894 19.2106 113.923 19.3455 113.979C19.4804 114.035 19.603 114.116 19.7063 114.22C19.8095 114.323 19.8914 114.446 19.9473 114.58C20.0032 114.715 20.032 114.86 20.032 115.006L20.034 118.843ZM20.034 111.756C20.034 112.051 19.9168 112.334 19.7083 112.542C19.4997 112.751 19.2169 112.868 18.922 112.868H15.084C14.789 112.868 14.5062 112.751 14.2977 112.542C14.0891 112.334 13.972 112.051 13.972 111.756V107.919C13.972 107.624 14.0891 107.341 14.2977 107.133C14.5062 106.924 14.789 106.807 15.084 106.807H18.92C19.2149 106.807 19.4977 106.924 19.7063 107.133C19.9148 107.341 20.032 107.624 20.032 107.919L20.034 111.756ZM18.069 96.029C18.069 95.5213 18.2195 95.025 18.5016 94.6028C18.7836 94.1807 19.1846 93.8517 19.6536 93.6574C20.1227 93.4631 20.6388 93.4123 21.1368 93.5113C21.6347 93.6104 22.0921 93.8549 22.4511 94.2139C22.8101 94.5729 23.0546 95.0302 23.1536 95.5282C23.2527 96.0261 23.2018 96.5423 23.0076 97.0114C22.8133 97.4804 22.4842 97.8813 22.0621 98.1634C21.64 98.4455 21.1437 98.596 20.636 98.596C19.9552 98.5957 19.3025 98.3252 18.8211 97.8438C18.3398 97.3625 18.0692 96.7097 18.069 96.029ZM27.302 118.889C27.302 119.184 27.1848 119.467 26.9763 119.675C26.7677 119.884 26.4849 120.001 26.19 120.001H22.352C22.057 120.001 21.7742 119.884 21.5657 119.675C21.3571 119.467 21.24 119.184 21.24 118.889V115.053C21.24 114.758 21.3571 114.475 21.5657 114.267C21.7742 114.058 22.057 113.941 22.352 113.941H26.188C26.4829 113.941 26.7657 114.058 26.9743 114.267C27.1828 114.475 27.3 114.758 27.3 115.053L27.302 118.889ZM27.302 111.801C27.302 112.096 27.1848 112.379 26.9763 112.587C26.7677 112.796 26.4849 112.913 26.19 112.913H22.352C22.2059 112.913 22.0613 112.884 21.9264 112.828C21.7915 112.772 21.6689 112.691 21.5657 112.587C21.4624 112.484 21.3805 112.361 21.3246 112.227C21.2687 112.092 21.24 111.947 21.24 111.801V107.965C21.24 107.67 21.3571 107.387 21.5657 107.179C21.7742 106.97 22.057 106.853 22.352 106.853H26.188C26.4829 106.853 26.7657 106.97 26.9743 107.179C27.1828 107.387 27.3 107.67 27.3 107.965L27.302 111.801Z" fill="#ED7465"/>
<path d="M20.6 82.344C19.3988 82.3423 18.2178 82.653 17.173 83.2456C16.1281 83.8381 15.2552 84.6921 14.64 85.7238C14.0248 86.7555 13.6885 87.9295 13.6639 89.1304C13.6394 90.3313 13.9275 91.518 14.5 92.574H14.494C14.515 92.612 14.538 92.647 14.559 92.685C14.58 92.723 14.615 92.785 14.643 92.829C14.7097 92.9443 14.7817 93.0573 14.859 93.168C14.886 93.207 14.911 93.247 14.938 93.286C15.9744 94.7513 17.5375 95.759 19.3 96.098H19.312C19.4967 96.1327 19.6837 96.1597 19.873 96.179L19.994 96.192C20.194 96.209 20.394 96.221 20.602 96.221C21.4871 96.2218 22.3641 96.052 23.185 95.721C23.1438 95.3789 23.034 95.0487 22.8622 94.7501C22.6903 94.4514 22.46 94.1905 22.185 93.983C21.8561 94.0933 21.5166 94.169 21.172 94.209C21.094 94.218 21.015 94.226 20.937 94.233C20.826 94.241 20.714 94.247 20.601 94.247C20.0789 94.2469 19.5601 94.1638 19.064 94.001C18.1102 93.6875 17.2736 93.0927 16.664 92.295C16.611 92.226 16.564 92.155 16.511 92.084C16.484 92.044 16.456 92.005 16.43 91.965C16.389 91.902 16.352 91.838 16.314 91.773C16.276 91.708 16.251 91.667 16.222 91.613C16.193 91.559 16.171 91.513 16.146 91.46C16.111 91.389 16.075 91.317 16.046 91.244C16.033 91.214 16.022 91.183 16.009 91.152C15.97 91.052 15.932 90.961 15.899 90.862C15.7257 90.3532 15.6372 89.8195 15.637 89.282C15.635 88.4909 15.8221 87.7107 16.1828 87.0066C16.5435 86.3025 17.0672 85.6947 17.7103 85.234C18.3535 84.7734 19.0974 84.473 19.8802 84.3582C20.6629 84.2433 21.4618 84.3172 22.2102 84.5736C22.9586 84.8301 23.6349 85.2617 24.1826 85.8326C24.7304 86.4034 25.1338 87.0968 25.3592 87.8552C25.5846 88.6135 25.6255 89.4147 25.4785 90.1921C25.3315 90.9694 25.0008 91.7004 24.514 92.324L25.946 93.704C26.7864 92.6898 27.3206 91.4573 27.4863 90.1506C27.652 88.844 27.4423 87.5171 26.8816 86.3253C26.321 85.1334 25.4326 84.1258 24.3204 83.4203C23.2082 82.7147 21.9181 82.3404 20.601 82.341" fill="#59554D"/>
<path d="M32.729 47.39H27.421C26.5158 47.39 25.6477 47.0304 25.0076 46.3904C24.3675 45.7503 24.008 44.8822 24.008 43.977V25.19C24.008 24.9879 24.0882 24.7941 24.2311 24.6512C24.374 24.5083 24.5679 24.428 24.77 24.428H26.428C27.1456 24.428 27.8339 24.1429 28.3414 23.6354C28.8489 23.128 29.134 22.4397 29.134 21.722V21.357C29.134 20.6393 28.8489 19.951 28.3414 19.4436C27.8339 18.9361 27.1456 18.651 26.428 18.651H24.77C24.6676 18.6547 24.5656 18.6378 24.47 18.6012C24.3744 18.5646 24.2871 18.5091 24.2134 18.438C24.1397 18.3669 24.0811 18.2817 24.041 18.1875C24.001 18.0932 23.9804 17.9919 23.9804 17.8895C23.9804 17.7871 24.001 17.6858 24.041 17.5915C24.0811 17.4973 24.1397 17.4121 24.2134 17.341C24.2871 17.2699 24.3744 17.2144 24.47 17.1778C24.5656 17.1413 24.6676 17.1243 24.77 17.128H29.687C30.0423 17.128 30.3942 17.058 30.7225 16.922C31.0508 16.786 31.3491 16.5867 31.6004 16.3354C31.8517 16.0842 32.051 15.7859 32.187 15.4575C32.323 15.1292 32.393 14.7774 32.393 14.422V14.057C32.393 13.7016 32.323 13.3498 32.187 13.0215C32.051 12.6932 31.8517 12.3949 31.6004 12.1436C31.3491 11.8923 31.0508 11.693 30.7225 11.557C30.3942 11.421 30.0423 11.351 29.687 11.351H24.77C24.5728 11.3439 24.386 11.2605 24.2491 11.1185C24.1121 10.9764 24.0356 10.7868 24.0356 10.5895C24.0356 10.3922 24.1121 10.2026 24.2491 10.0605C24.386 9.91851 24.5728 9.83515 24.77 9.82801H26.428C27.1456 9.82801 27.8339 9.54291 28.3414 9.03544C28.8489 8.52796 29.134 7.83968 29.134 7.12201V6.75701C29.134 6.40165 29.064 6.04977 28.928 5.72147C28.792 5.39316 28.5927 5.09485 28.3414 4.84358C28.0901 4.5923 27.7918 4.39298 27.4635 4.25699C27.1352 4.121 26.7833 4.05101 26.428 4.05101H24.77C24.5679 4.05101 24.374 3.97073 24.2311 3.82782C24.0882 3.68492 24.008 3.4911 24.008 3.28901C24.0077 2.41688 23.6611 1.58057 23.0443 0.963979C22.4275 0.347388 21.5911 0.00100704 20.719 0.00100708L20.595 0.00100708C19.6898 0.00100708 18.8217 0.36059 18.1816 1.00065C17.5415 1.64071 17.182 2.50882 17.182 3.41401V43.977C17.182 44.882 16.8225 45.75 16.1827 46.39C15.5428 47.03 14.675 47.3897 13.77 47.39H8.69196C7.26986 47.39 5.90602 47.9549 4.90045 48.9605C3.89488 49.9661 3.32996 51.3299 3.32996 52.752V66.139C3.32996 67.5611 3.89488 68.9249 4.90045 69.9305C5.90602 70.9361 7.26986 71.501 8.69196 71.501H32.729C33.4331 71.501 34.1304 71.3623 34.7809 71.0928C35.4315 70.8234 36.0226 70.4284 36.5205 69.9305C37.0184 69.4326 37.4133 68.8415 37.6828 68.191C37.9523 67.5404 38.091 66.8432 38.091 66.139V52.752C38.091 52.0479 37.9523 51.3506 37.6828 50.7001C37.4133 50.0495 37.0184 49.4584 36.5205 48.9605C36.0226 48.4626 35.4315 48.0676 34.7809 47.7982C34.1304 47.5287 33.4331 47.39 32.729 47.39ZM20.71 68.85C19.763 68.85 18.8373 68.5692 18.0499 68.0431C17.2625 67.517 16.6488 66.7692 16.2864 65.8943C15.924 65.0194 15.8292 64.0567 16.014 63.1279C16.1987 62.1991 16.6547 61.346 17.3243 60.6764C17.9939 60.0068 18.8471 59.5508 19.7759 59.366C20.7046 59.1813 21.6674 59.2761 22.5422 59.6385C23.4171 60.0009 24.1649 60.6146 24.691 61.4019C25.2171 62.1893 25.498 63.115 25.498 64.062C25.498 65.3319 24.9935 66.5497 24.0956 67.4476C23.1977 68.3456 21.9798 68.85 20.71 68.85Z" fill="#FFC124"/>
<path d="M32.728 47.39H27.42C26.5148 47.39 25.6467 47.0304 25.0066 46.3904C24.3665 45.7503 24.007 44.8822 24.007 43.977V25.19C24.007 24.9879 24.0872 24.7941 24.2301 24.6512C24.3731 24.5083 24.5669 24.428 24.769 24.428H26.428C27.1456 24.428 27.8339 24.1429 28.3414 23.6354C28.8489 23.128 29.134 22.4397 29.134 21.722V21.357C29.134 20.6393 28.8489 19.951 28.3414 19.4436C27.8339 18.9361 27.1456 18.651 26.428 18.651H24.767C24.6646 18.6547 24.5626 18.6378 24.467 18.6012C24.3714 18.5646 24.2841 18.5091 24.2104 18.438C24.1367 18.3669 24.0781 18.2817 24.038 18.1875C23.998 18.0932 23.9774 17.9919 23.9774 17.8895C23.9774 17.7871 23.998 17.6858 24.038 17.5915C24.0781 17.4973 24.1367 17.4121 24.2104 17.341C24.2841 17.2699 24.3714 17.2144 24.467 17.1778C24.5626 17.1412 24.6646 17.1243 24.767 17.128H29.684C30.0393 17.128 30.3912 17.058 30.7195 16.922C31.0478 16.786 31.3461 16.5867 31.5974 16.3354C31.8487 16.0842 32.048 15.7858 32.184 15.4575C32.32 15.1292 32.39 14.7774 32.39 14.422V14.057C32.39 13.7016 32.32 13.3498 32.184 13.0215C32.048 12.6932 31.8487 12.3948 31.5974 12.1436C31.3461 11.8923 31.0478 11.693 30.7195 11.557C30.3912 11.421 30.0393 11.351 29.684 11.351H24.767C24.6646 11.3547 24.5626 11.3378 24.467 11.3012C24.3714 11.2646 24.2841 11.2091 24.2104 11.138C24.1367 11.0669 24.0781 10.9817 24.038 10.8875C23.998 10.7932 23.9774 10.6919 23.9774 10.5895C23.9774 10.4871 23.998 10.3858 24.038 10.2915C24.0781 10.1973 24.1367 10.1121 24.2104 10.041C24.2841 9.96994 24.3714 9.91444 24.467 9.87784C24.5626 9.84124 24.6646 9.82429 24.767 9.828H26.426C26.7813 9.828 27.1332 9.75801 27.4615 9.62202C27.7898 9.48603 28.0881 9.28671 28.3394 9.03543C28.5907 8.78416 28.79 8.48585 28.926 8.15754C29.062 7.82923 29.132 7.47736 29.132 7.122V6.757C29.132 6.40164 29.062 6.04977 28.926 5.72146C28.79 5.39315 28.5907 5.09484 28.3394 4.84357C28.0881 4.59229 27.7898 4.39297 27.4615 4.25698C27.1332 4.12099 26.7813 4.051 26.426 4.051H24.767C24.6669 4.051 24.5678 4.03129 24.4754 3.993C24.3829 3.9547 24.2989 3.89857 24.2281 3.82782C24.1574 3.75706 24.1013 3.67305 24.063 3.5806C24.0247 3.48815 24.005 3.38907 24.005 3.289C24.005 2.41722 23.6589 1.58111 23.0427 0.964386C22.4265 0.347665 21.5907 0.000795176 20.719 0L20.71 0V59.274C21.3387 59.274 21.9613 59.3978 22.5423 59.6385C23.1232 59.8791 23.651 60.2318 24.0956 60.6764C24.5402 61.121 24.8929 61.6488 25.1335 62.2297C25.3741 62.8106 25.498 63.4332 25.498 64.062C25.498 64.6908 25.3741 65.3134 25.1335 65.8943C24.8929 66.4752 24.5402 67.003 24.0956 67.4476C23.651 67.8922 23.1232 68.2449 22.5423 68.4855C21.9613 68.7262 21.3387 68.85 20.71 68.85V71.5H32.728C34.1501 71.5 35.5139 70.9351 36.5195 69.9295C37.525 68.9239 38.09 67.5601 38.09 66.138V52.752C38.09 51.3299 37.525 49.9661 36.5195 48.9605C35.5139 47.9549 34.1501 47.39 32.728 47.39Z" fill="#FAA010"/>
<path d="M31.4109 71.502H28.7369C29.5572 72.8585 30.0244 74.399 30.0956 75.9826C30.1668 77.5662 29.8397 79.1424 29.1444 80.567C28.4491 81.9916 27.4076 83.2191 26.1153 84.1373C24.8231 85.0554 23.3212 85.6349 21.7471 85.8226C20.1731 86.0104 18.577 85.8005 17.105 85.2121C15.6331 84.6237 14.3321 83.6756 13.3212 82.4545C12.3102 81.2335 11.6216 79.7784 11.3183 78.2225C11.015 76.6665 11.1066 75.0594 11.5849 73.548C11.6399 73.372 11.6999 73.198 11.7659 73.027C11.7899 72.964 11.8149 72.901 11.8409 72.839C11.9076 72.677 11.9776 72.5177 12.0509 72.361C12.0789 72.302 12.1059 72.242 12.1359 72.183C12.2209 72.012 12.3119 71.845 12.4069 71.683C12.4289 71.645 12.4489 71.605 12.4719 71.567C13.6079 69.6602 15.3743 68.21 17.4659 67.467C17.6059 67.418 17.7489 67.375 17.8919 67.332C18.0009 67.299 18.1099 67.264 18.2199 67.232C18.3729 67.192 18.5289 67.161 18.6839 67.132C18.7889 67.11 18.8929 67.084 18.9989 67.066C19.1749 67.036 19.3539 67.015 19.5329 66.994C19.6229 66.984 19.7109 66.969 19.8009 66.961C20.0719 66.938 20.3459 66.925 20.6219 66.925C21.7766 66.9243 22.9216 67.1359 23.9999 67.549C24.594 66.989 25.0349 66.2864 25.2809 65.508C23.8087 64.8759 22.2231 64.5506 20.6209 64.552C20.2769 64.552 19.9379 64.57 19.6009 64.599H19.5369C19.2369 64.626 18.9369 64.667 18.6479 64.716L18.5059 64.741C18.2219 64.793 17.9419 64.853 17.6649 64.924L17.5359 64.96C17.2799 65.0267 17.0276 65.104 16.7789 65.192L16.6719 65.227C16.4866 65.2937 16.3036 65.3637 16.1229 65.437C16.1228 65.4397 16.1228 65.4423 16.1229 65.445C13.3326 66.5965 11.0837 68.7647 9.8309 71.511C9.7239 71.747 9.6309 71.989 9.5309 72.233C9.5099 72.289 9.4899 72.345 9.4699 72.402C8.81332 74.2291 8.61574 76.1895 8.89454 78.1108C9.17334 80.0321 9.91997 81.8555 11.0688 83.4206C12.2176 84.9856 13.7333 86.2444 15.4828 87.0863C17.2322 87.9282 19.1617 88.3272 21.1015 88.2485C23.0414 88.1697 24.9321 87.6155 26.6076 86.6345C28.283 85.6536 29.6917 84.276 30.7098 82.6229C31.7279 80.9698 32.3242 79.0919 32.4463 77.1543C32.5684 75.2167 32.2125 73.2788 31.4099 71.511" fill="#59554D"/>
</g>
</svg>
