<svg width="120" height="95" viewBox="0 0 120 95" fill="none" xmlns="http://www.w3.org/2000/svg">
<mask id="mask0_1_999" style="mask-type:luminance" maskUnits="userSpaceOnUse" x="0" y="0" width="120" height="95">
<path d="M119.357 0H0V94.629H119.357V0Z" fill="white"/>
</mask>
<g mask="url(#mask0_1_999)">
<path d="M98.021 71.988H4.978C3.65824 71.9864 2.39299 71.4614 1.45978 70.5282C0.526564 69.595 0.00158784 68.3298 0 67.01L0 4.978C0.00158784 3.65824 0.526564 2.39299 1.45978 1.45978C2.39299 0.526564 3.65824 0.00158784 4.978 0L98.021 0C99.3409 0.00132322 100.606 0.526183 101.54 1.45942C102.473 2.39266 102.998 3.65807 103 4.978V67.01C102.998 68.3298 102.473 69.595 101.54 70.5282C100.607 71.4614 99.3408 71.9864 98.021 71.988ZM4.978 0.815C3.87431 0.816323 2.8162 1.25535 2.03578 2.03578C1.25535 2.8162 0.816323 3.87431 0.815 4.978V67.01C0.816323 68.1137 1.25535 69.1718 2.03578 69.9522C2.8162 70.7327 3.87431 71.1717 4.978 71.173H98.021C99.1247 71.1717 100.183 70.7327 100.963 69.9522C101.744 69.1718 102.183 68.1137 102.184 67.01V4.978C102.183 3.87431 101.744 2.8162 100.963 2.03578C100.183 1.25535 99.1247 0.816323 98.021 0.815H4.978Z" fill="#080717"/>
<path d="M6.24994 7.42505C5.84251 7.42505 5.44423 7.30424 5.10547 7.07788C4.7667 6.85153 4.50267 6.5298 4.34675 6.15338C4.19083 5.77697 4.15004 5.36277 4.22952 4.96317C4.30901 4.56357 4.50521 4.19651 4.7933 3.90841C5.0814 3.62032 5.44846 3.42412 5.84806 3.34464C6.24766 3.26515 6.66185 3.30595 7.03827 3.46186C7.41469 3.61778 7.73641 3.88181 7.96277 4.22058C8.18913 4.55935 8.30994 4.95762 8.30994 5.36505C8.30915 5.91116 8.09186 6.43466 7.70571 6.82082C7.31955 7.20697 6.79605 7.42426 6.24994 7.42505ZM6.24994 4.12505C6.00366 4.12505 5.76292 4.1981 5.55815 4.33494C5.35339 4.47179 5.19382 4.66629 5.09962 4.89384C5.00542 5.1214 4.98082 5.37178 5.02894 5.61331C5.07706 5.85484 5.19573 6.07668 5.36995 6.25076C5.54416 6.42483 5.7661 6.54333 6.00767 6.59125C6.24924 6.63918 6.4996 6.61438 6.72708 6.52C6.95455 6.42561 7.14893 6.26588 7.28561 6.06101C7.42229 5.85614 7.49514 5.61533 7.49494 5.36905C7.49441 5.03911 7.36304 4.72285 7.12965 4.48965C6.89625 4.25644 6.57988 4.12532 6.24994 4.12505Z" fill="#133C58"/>
<path d="M11.81 7.42505C11.4026 7.42505 11.0043 7.30424 10.6655 7.07788C10.3268 6.85153 10.0627 6.5298 9.90681 6.15338C9.75089 5.77697 9.7101 5.36277 9.78958 4.96317C9.86907 4.56357 10.0653 4.19651 10.3534 3.90841C10.6415 3.62032 11.0085 3.42412 11.4081 3.34464C11.8077 3.26515 12.2219 3.30595 12.5983 3.46186C12.9747 3.61778 13.2965 3.88181 13.5228 4.22058C13.7492 4.55935 13.87 4.95762 13.87 5.36505C13.8692 5.91116 13.6519 6.43466 13.2658 6.82082C12.8796 7.20697 12.3561 7.42426 11.81 7.42505ZM11.81 4.12505C11.5637 4.12486 11.3228 4.19773 11.1179 4.33446C10.913 4.47118 10.7533 4.66562 10.659 4.89315C10.5646 5.12069 10.5399 5.3711 10.5879 5.6127C10.6359 5.8543 10.7545 6.07622 10.9287 6.2504C11.1028 6.42458 11.3248 6.54317 11.5664 6.59118C11.808 6.63919 12.0584 6.61445 12.2859 6.52009C12.5134 6.42574 12.7079 6.26601 12.8446 6.06112C12.9813 5.85622 13.0542 5.61538 13.054 5.36905C13.0535 5.03929 12.9222 4.72318 12.6891 4.49C12.4559 4.25682 12.1398 4.12558 11.81 4.12505Z" fill="#133C58"/>
<path d="M17.3701 7.42505C16.9626 7.42505 16.5643 7.30424 16.2256 7.07788C15.8868 6.85153 15.6228 6.5298 15.4669 6.15338C15.311 5.77697 15.2702 5.36277 15.3496 4.96317C15.4291 4.56357 15.6253 4.19651 15.9134 3.90841C16.2015 3.62032 16.5686 3.42412 16.9682 3.34464C17.3678 3.26515 17.782 3.30595 18.1584 3.46186C18.5348 3.61778 18.8565 3.88181 19.0829 4.22058C19.3092 4.55935 19.4301 4.95762 19.4301 5.36505C19.4293 5.91116 19.212 6.43466 18.8258 6.82082C18.4397 7.20697 17.9162 7.42426 17.3701 7.42505ZM17.3701 4.12505C17.1237 4.12486 16.8829 4.19773 16.678 4.33446C16.4731 4.47118 16.3134 4.66562 16.219 4.89315C16.1247 5.12069 16.0999 5.3711 16.1479 5.6127C16.1959 5.8543 16.3145 6.07622 16.4887 6.2504C16.6629 6.42458 16.8848 6.54317 17.1264 6.59118C17.368 6.63919 17.6184 6.61445 17.846 6.52009C18.0735 6.42574 18.2679 6.26601 18.4047 6.06112C18.5414 5.85622 18.6143 5.61538 18.6141 5.36905C18.6135 5.03929 18.4823 4.72318 18.2491 4.49C18.0159 4.25682 17.6998 4.12558 17.3701 4.12505Z" fill="#133C58"/>
<path d="M14.241 60.285L14.231 59.47L15.862 59.45L15.872 60.265L14.241 60.285ZM17.502 60.245L17.492 59.43L19.126 59.41L19.136 60.225L17.502 60.245ZM20.763 60.205L20.753 59.39L22.384 59.37L22.394 60.185L20.763 60.205ZM24.024 60.165L24.014 59.35L25.644 59.33L25.654 60.145L24.024 60.165ZM12.535 60.136C11.971 60.022 11.4221 59.8435 10.899 59.604L11.238 58.863C11.7045 59.0764 12.1941 59.2354 12.697 59.337L12.535 60.136ZM27.285 60.126L27.275 59.311L28.906 59.291L28.916 60.106L27.285 60.126ZM30.546 60.086L30.536 59.271L32.167 59.251L32.177 60.066L30.546 60.086ZM33.807 60.046L33.797 59.231L35.428 59.211L35.438 60.026L33.807 60.046ZM37.068 60.006L37.058 59.191L38.689 59.171L38.699 59.986L37.068 60.006ZM40.329 59.966L40.319 59.151L41.949 59.131L41.959 59.946L40.329 59.966ZM43.59 59.926L43.58 59.111L45.211 59.091L45.221 59.906L43.59 59.926ZM46.636 59.756L46.474 58.956C46.9765 58.8543 47.4657 58.6952 47.932 58.482L48.271 59.223C47.7481 59.4623 47.1995 59.6418 46.636 59.756ZM9.42596 58.716C8.97077 58.3641 8.55711 57.9615 8.19296 57.516L8.82396 57C9.14908 57.3968 9.5181 57.7554 9.92396 58.069L9.42596 58.716ZM49.739 58.338L49.239 57.693C49.6449 57.3795 50.0139 57.0208 50.339 56.624L50.97 57.141C50.6057 57.5864 50.1921 57.989 49.737 58.341M7.26096 56.076C7.00649 55.5603 6.81189 55.0171 6.68096 54.457L7.47496 54.272C7.59132 54.7713 7.76479 55.2555 7.99196 55.715L7.26096 56.076ZM51.905 55.697L51.174 55.336C51.4009 54.8764 51.5744 54.3922 51.691 53.893L52.485 54.078C52.3542 54.6381 52.1596 55.1813 51.905 55.697ZM6.48296 52.752L6.46296 51.121L7.27796 51.111L7.29796 52.742L6.48296 52.752ZM51.868 52.368L51.849 50.742L52.664 50.732L52.683 52.355L51.868 52.368ZM6.44296 49.491L6.42296 47.86L7.23796 47.85L7.25796 49.481L6.44296 49.491ZM51.828 49.111L51.808 47.481L52.623 47.471L52.643 49.102L51.828 49.111ZM6.40396 46.23L6.38396 44.6L7.19896 44.59L7.21896 46.22L6.40396 46.23ZM51.789 45.851L51.769 44.22L52.584 44.21L52.604 45.84L51.789 45.851ZM6.36396 42.969L6.34396 41.338L7.15896 41.328L7.17896 42.959L6.36396 42.969ZM51.749 42.59L51.729 40.96L52.544 40.95L52.564 42.581L51.749 42.59ZM6.32596 39.709L6.30396 38.076L7.11896 38.066L7.13896 39.697L6.32596 39.709ZM51.711 39.33L51.691 37.699L52.506 37.689L52.526 39.32L51.711 39.33ZM6.28496 36.448L6.26496 34.817L7.07996 34.807L7.09996 36.438L6.28496 36.448ZM51.67 36.069L51.65 34.438L52.465 34.428L52.485 36.059L51.67 36.069ZM6.24496 33.187L6.22496 31.556L7.03996 31.546L7.05996 33.177L6.24496 33.187ZM51.626 32.808L51.606 31.178L52.421 31.168L52.441 32.799L51.626 32.808ZM6.20496 29.926L6.18496 28.296L6.99996 28.286L7.01996 29.917L6.20496 29.926ZM51.591 29.547L51.571 27.916L52.386 27.906L52.406 29.536L51.591 29.547ZM6.16596 26.666L6.14596 25.035L6.96096 25.025L6.98096 26.655L6.16596 26.666ZM51.551 26.287L51.531 24.657L52.346 24.647L52.366 26.278L51.551 26.287ZM6.12596 23.405L6.10596 21.776L6.92096 21.766L6.94096 23.397L6.12596 23.405ZM51.511 23.026L51.491 21.395L52.306 21.385L52.326 23.016L51.511 23.026ZM7.06696 20.236L6.26696 20.066C6.38645 19.5031 6.57033 18.9559 6.81496 18.435L7.55296 18.781C7.33483 19.2454 7.17075 19.7332 7.06396 20.235M51.338 19.855C51.2312 19.3536 51.0671 18.866 50.849 18.402L51.587 18.056C51.8313 18.5766 52.0152 19.1235 52.135 19.686L51.338 19.855ZM8.36296 17.476L7.72296 16.976C8.07859 16.5247 8.48417 16.1151 8.93196 15.755L9.44296 16.39C9.04306 16.7115 8.68076 17.0772 8.36296 17.48M50.048 17.103C49.7304 16.7 49.368 16.3343 48.968 16.013L49.479 15.378C49.9267 15.7381 50.3323 16.1477 50.688 16.599L50.048 17.103ZM10.739 15.567L10.385 14.832C10.903 14.5824 11.4479 14.3928 12.009 14.267L12.187 15.067C11.6865 15.1779 11.2003 15.3456 10.738 15.567M47.67 15.189C47.2077 14.9673 46.7215 14.7996 46.221 14.689L46.398 13.889C46.9595 14.0141 47.5047 14.2033 48.023 14.453L47.67 15.189ZM13.72 14.901L13.71 14.086L15.34 14.066L15.35 14.881L13.72 14.901ZM16.981 14.861L16.971 14.046L18.602 14.026L18.612 14.841L16.981 14.861ZM20.242 14.821L20.232 14.006L21.863 13.986L21.873 14.801L20.242 14.821ZM23.503 14.781L23.493 13.966L25.126 13.947L25.136 14.762L23.503 14.781ZM26.764 14.741L26.754 13.926L28.384 13.906L28.394 14.721L26.764 14.741ZM30.025 14.702L30.015 13.887L31.645 13.867L31.655 14.682L30.025 14.702ZM33.286 14.662L33.276 13.847L34.907 13.827L34.917 14.642L33.286 14.662ZM36.547 14.622L36.537 13.807L38.168 13.787L38.178 14.602L36.547 14.622ZM39.808 14.582L39.798 13.767L41.429 13.747L41.439 14.562L39.808 14.582ZM43.069 14.542L43.059 13.727L44.659 13.707L44.695 14.115V14.523L43.069 14.542Z" fill="#080717"/>
<path d="M67.408 76.356L56.074 61.498C55.9515 61.3363 55.8779 61.143 55.8619 60.9408C55.846 60.7387 55.8882 60.5362 55.9838 60.3573C56.0793 60.1784 56.2241 60.0306 56.401 59.9315C56.578 59.8324 56.7796 59.7861 56.982 59.798C58.2325 59.8745 59.4194 60.375 60.347 61.217L72.066 71.856C72.7351 72.463 73.5487 72.8881 74.4291 73.0905C75.3095 73.2929 76.2271 73.2659 77.094 73.012C77.0454 73.531 76.9693 74.047 76.866 74.558C76.4735 76.5115 75.6849 78.3639 74.549 80.001L72.649 79.633C70.5548 79.227 68.6855 78.0587 67.403 76.354" fill="#F68E6E"/>
<path d="M72.131 78.498L63.6219 61.867C63.5288 61.6858 63.4898 61.4815 63.5097 61.2788C63.5296 61.076 63.6075 60.8832 63.7341 60.7236C63.8608 60.5639 64.0307 60.4442 64.2236 60.3786C64.4166 60.3131 64.6243 60.3045 64.822 60.354C66.0389 60.6517 67.1179 61.3554 67.881 62.349L77.522 74.901C78.643 76.359 73.099 80.401 72.14 78.501" fill="#F68E6E"/>
<path d="M76.532 75.9619L70.208 63.6089C70.1394 63.4746 70.1108 63.3234 70.1256 63.1733C70.1404 63.0232 70.198 62.8805 70.2915 62.7621C70.385 62.6438 70.5105 62.5548 70.6531 62.5056C70.7957 62.4565 70.9494 62.4493 71.096 62.485C71.9999 62.7061 72.8013 63.2289 73.368 63.967L80.53 73.2899C81.362 74.3729 77.245 77.3779 76.53 75.9619" fill="#F68E6E"/>
<path d="M84.962 62.891L53.875 63.268C52.9363 63.2795 52.0045 63.106 51.1329 62.7573C50.2613 62.4087 49.4668 61.8918 48.795 61.2361C48.1231 60.5804 47.587 59.7988 47.2173 58.9359C46.8475 58.073 46.6514 57.1457 46.64 56.207L46.262 25.12C46.2505 24.1812 46.4241 23.2493 46.7728 22.3776C47.1215 21.5059 47.6385 20.7115 48.2943 20.0396C48.9501 19.3677 49.7318 18.8317 50.5948 18.462C51.4578 18.0923 52.3852 17.8962 53.324 17.885L84.41 17.507C85.3488 17.4956 86.2806 17.6693 87.1522 18.018C88.0239 18.3668 88.8183 18.8838 89.4901 19.5396C90.1619 20.1953 90.698 20.977 91.0678 21.84C91.4375 22.7029 91.6337 23.6302 91.645 24.569L92.022 55.655C92.045 57.5507 91.314 59.3779 89.9898 60.7347C88.6656 62.0915 86.8567 62.8668 84.961 62.89" fill="#1088C4"/>
<path d="M68.3871 31.9741C68.4028 33.2686 68.0343 34.5388 67.3281 35.624C66.622 36.7091 65.6099 37.5605 64.4198 38.0704C63.2298 38.5804 61.9153 38.726 60.6425 38.4888C59.3698 38.2517 58.1959 37.6425 57.2694 36.7382C56.3428 35.8339 55.7053 34.6751 55.4373 33.4085C55.1693 32.1419 55.2829 30.8242 55.7638 29.6221C56.2447 28.4201 57.0713 27.3876 58.1389 26.6553C59.2066 25.923 60.4675 25.5238 61.7621 25.5081C63.498 25.487 65.1713 26.1564 66.4137 27.369C67.6561 28.5816 68.366 30.2381 68.3871 31.9741Z" fill="white"/>
<path d="M46.64 56.207L46.554 49.151L49.689 45.939C50.2403 45.374 50.8976 44.9232 51.6233 44.6123C52.349 44.3015 53.1288 44.1367 53.9182 44.1274C54.7076 44.1181 55.4911 44.2645 56.2239 44.5582C56.9567 44.8519 57.6245 45.2871 58.189 45.839C58.7238 46.3607 59.3561 46.7719 60.0498 47.0493C60.7435 47.3266 61.4851 47.4645 62.2322 47.4552C62.9792 47.4459 63.7171 47.2896 64.4038 46.9951C65.0904 46.7007 65.7123 46.2738 66.234 45.739L78.546 33.123C79.9498 31.6848 81.8674 30.8631 83.877 30.8387C85.8867 30.8143 87.8237 31.5892 89.262 32.993L91.781 35.451L92.0259 55.651C92.0373 56.5898 91.8637 57.5216 91.5149 58.3932C91.1662 59.2649 90.6492 60.0593 89.9934 60.7311C89.3376 61.4029 88.5559 61.939 87.693 62.3088C86.83 62.6785 85.9027 62.8747 84.964 62.886L53.877 63.264C52.9382 63.2754 52.0064 63.1017 51.1348 62.753C50.2631 62.4042 49.4687 61.8872 48.7969 61.2314C48.125 60.5757 47.5889 59.794 47.2192 58.931C46.8495 58.0681 46.6533 57.1408 46.642 56.202" fill="#ED7465"/>
<path d="M93.41 94.633L89.36 79.804L74.324 81.014C71.9078 81.2088 69.5052 80.5004 67.581 79.026L50.643 66.226C50.457 66.088 50.315 65.899 50.234 65.6819C50.153 65.4649 50.1366 65.2291 50.1867 65.0029C50.2369 64.7767 50.3514 64.5699 50.5165 64.4074C50.6815 64.2449 50.8901 64.1336 51.117 64.087C52.5086 63.7892 53.9601 63.9747 55.232 64.613L71.305 72.68C72.4995 73.2759 73.8585 73.4563 75.1671 73.193C76.4757 72.9296 77.6591 72.2374 78.53 71.2259C79.401 70.2143 79.9098 68.9413 79.9759 67.6081C80.042 66.2749 79.6616 64.9578 78.895 63.865L73.746 56.565C73.0017 55.5094 72.5176 54.2927 72.3332 53.0143C72.1488 51.7359 72.2694 50.432 72.685 49.209C72.7483 49.0231 72.8578 48.8564 73.0033 48.7246C73.1488 48.5928 73.3255 48.5002 73.5167 48.4555C73.7079 48.4109 73.9074 48.4157 74.0962 48.4695C74.285 48.5233 74.4571 48.6243 74.596 48.763L78.863 53.017C82.1788 56.3226 86.2887 58.7204 90.798 59.98C96.1939 61.486 100.831 64.9561 103.798 69.708L119.356 94.633H93.41Z" fill="#F68E6E"/>
<path d="M73.993 73.72C72.997 73.721 72.0145 73.4892 71.124 73.043L59.698 67.3091L60.064 66.5811L71.49 72.315C72.3592 72.7477 73.3257 72.9474 74.2951 72.8948C75.2645 72.8423 76.2037 72.5391 77.021 72.015C77.6684 71.6002 78.2224 71.0554 78.648 70.4151L79.326 70.8671C78.7405 71.7443 77.9473 72.4632 77.0168 72.9599C76.0864 73.4566 75.0477 73.7157 73.993 73.7141" fill="#080717"/>
<path d="M66.1156 66.3139L65.51 66.86L71.0067 72.9556L71.6122 72.4095L66.1156 66.3139Z" fill="#080717"/>
<path d="M72.8502 68.7335L72.223 69.254L75.4909 73.1916L76.1181 72.6711L72.8502 68.7335Z" fill="#080717"/>
<path d="M40.51 34.427L29.01 30.689L17.51 26.951L21.249 38.451L24.987 49.951L29.028 42.083L35.165 48.2371L38.785 44.6161L32.643 38.4741L40.51 34.427Z" fill="#373737"/>
</g>
</svg>
