<svg width="92" height="98" viewBox="0 0 92 98" fill="none" xmlns="http://www.w3.org/2000/svg">
<mask id="mask0_13_23" style="mask-type:luminance" maskUnits="userSpaceOnUse" x="0" y="0" width="92" height="98">
<path d="M91.061 0H0V97.339H91.061V0Z" fill="white"/>
</mask>
<g mask="url(#mask0_13_23)">
<path d="M89.4 93.982H3.31404V12.248C3.31562 12.0289 3.274 11.8117 3.19156 11.6087C3.10912 11.4057 2.98748 11.221 2.83358 11.065C2.67969 10.9091 2.49657 10.785 2.29469 10.6999C2.0928 10.6148 1.87613 10.5703 1.65704 10.569C1.43796 10.5703 1.22128 10.6148 1.0194 10.6999C0.817522 10.785 0.634399 10.9091 0.480505 11.065C0.326612 11.221 0.204966 11.4057 0.122524 11.6087C0.0400827 11.8117 -0.00153762 12.0289 4.34098e-05 12.248V95.66C-0.00140563 95.879 0.0403121 96.0961 0.122813 96.299C0.205314 96.5019 0.326981 96.6865 0.480861 96.8423C0.634742 96.9982 0.81782 97.1221 1.01963 97.2072C1.22145 97.2923 1.43804 97.3367 1.65704 97.338H89.4C89.8452 97.338 90.2721 97.1612 90.5869 96.8464C90.9017 96.5316 91.0785 96.1047 91.0785 95.6595C91.0785 95.2143 90.9017 94.7874 90.5869 94.4726C90.2721 94.1578 89.8452 93.981 89.4 93.981" fill="#ED7465"/>
<path d="M11.73 52.634C11.9826 52.6343 12.2317 52.5761 12.458 52.464C32.751 42.419 53.658 23.057 65.774 7.315L65.284 14.271C65.2509 14.7124 65.3941 15.1489 65.6822 15.485C65.9702 15.8211 66.3798 16.0293 66.821 16.064C66.86 16.064 66.899 16.064 66.941 16.064C67.3624 16.0611 67.7669 15.8986 68.0733 15.6093C68.3796 15.3201 68.565 14.9255 68.592 14.505L69.485 1.79C69.485 1.778 69.485 1.766 69.485 1.754C69.485 1.703 69.485 1.654 69.485 1.603C69.485 1.589 69.485 1.576 69.485 1.562C69.4764 1.42931 69.4522 1.29808 69.413 1.171L69.403 1.139C69.385 1.08358 69.3639 1.02917 69.34 0.976L69.33 0.953C69.2736 0.831597 69.2028 0.717439 69.119 0.613L69.097 0.587C69.063 0.546334 69.0267 0.507001 68.988 0.469001L68.952 0.437001C68.914 0.402001 68.874 0.368001 68.832 0.337001L68.802 0.315001L68.793 0.309L68.78 0.300001C68.7324 0.266759 68.6829 0.23605 68.632 0.208001C68.61 0.196001 68.588 0.186 68.566 0.175001C68.544 0.164001 68.499 0.142001 68.466 0.128001C68.433 0.114001 68.403 0.100001 68.372 0.0920005L68.292 0.0670005C68.257 0.0570005 68.223 0.0470005 68.192 0.0390005L68.131 0.0280005C67.9992 0.00367993 67.8649 -0.00438022 67.731 0.0040005H67.68C67.639 0.0040005 67.599 0.0130005 67.558 0.0200005L67.502 0.0310005C67.4391 0.0440335 67.377 0.0607285 67.316 0.0810005C67.287 0.0910005 67.259 0.0990005 67.23 0.11L67.203 0.119001L55.367 5.056C54.9591 5.22954 54.6359 5.55677 54.4675 5.96683C54.299 6.3769 54.2989 6.83682 54.467 7.247C54.5476 7.45005 54.6677 7.63504 54.8205 7.79118C54.9732 7.94733 55.1555 8.07151 55.3567 8.15649C55.558 8.24146 55.7741 8.28554 55.9925 8.28614C56.211 8.28675 56.4273 8.24387 56.629 8.16L62.952 5.524C51.077 20.882 30.739 39.679 11.002 49.448C10.6058 49.6473 10.3039 49.9945 10.1615 50.4146C10.0192 50.8346 10.0477 51.2938 10.241 51.693C10.3756 51.974 10.5867 52.2114 10.85 52.3779C11.1134 52.5443 11.4185 52.6331 11.73 52.634Z" fill="#ED7465"/>
<path d="M24.8059 62.789H10.2339C10.0149 62.7903 9.79835 62.8348 9.59653 62.9198C9.39472 63.0049 9.21163 63.1289 9.05775 63.2847C8.90387 63.4405 8.78221 63.6252 8.69971 63.828C8.6172 64.0309 8.57549 64.248 8.57694 64.467V87.437C8.57549 87.656 8.6172 87.8731 8.69971 88.076C8.78221 88.2789 8.90387 88.4635 9.05775 88.6194C9.21163 88.7752 9.39472 88.8992 9.59653 88.9842C9.79835 89.0693 10.0149 89.1137 10.2339 89.115H24.8059C25.0249 89.1137 25.2415 89.0693 25.4433 88.9842C25.6452 88.8992 25.8282 88.7752 25.9821 88.6194C26.136 88.4635 26.2577 88.2789 26.3402 88.076C26.4227 87.8731 26.4644 87.656 26.4629 87.437V64.467C26.4644 64.248 26.4227 64.0309 26.3402 63.828C26.2577 63.6252 26.136 63.4405 25.9821 63.2847C25.8282 63.1289 25.6452 63.0049 25.4433 62.9198C25.2415 62.8348 25.0249 62.7903 24.8059 62.789Z" fill="#373737"/>
<path d="M45.365 48.868H30.7931C30.574 48.8692 30.3573 48.9135 30.1553 48.9985C29.9534 49.0835 29.7702 49.2075 29.6162 49.3633C29.4622 49.5192 29.3405 49.7038 29.2579 49.9068C29.1753 50.1097 29.1336 50.3269 29.135 50.546V87.438C29.1336 87.657 29.1753 87.8741 29.2578 88.077C29.3403 88.2799 29.462 88.4645 29.6159 88.6203C29.7697 88.7762 29.9528 88.9002 30.1546 88.9852C30.3565 89.0702 30.573 89.1147 30.792 89.116H45.365C45.584 89.1147 45.8006 89.0702 46.0025 88.9852C46.2043 88.9002 46.3874 88.7762 46.5412 88.6203C46.6951 88.4645 46.8168 88.2799 46.8993 88.077C46.9818 87.8741 47.0235 87.657 47.022 87.438V50.546C47.0235 50.327 46.9818 50.1099 46.8993 49.907C46.8168 49.7041 46.6951 49.5195 46.5412 49.3637C46.3874 49.2078 46.2043 49.0839 46.0025 48.9988C45.8006 48.9138 45.584 48.8693 45.365 48.868Z" fill="#1088C4"/>
<path d="M65.766 32.888H51.192C50.973 32.8893 50.7564 32.9337 50.5545 33.0188C50.3527 33.1038 50.1697 33.2278 50.0158 33.3837C49.8619 33.5395 49.7402 33.7241 49.6577 33.927C49.5752 34.1299 49.5335 34.347 49.535 34.566V87.438C49.5334 87.6571 49.575 87.8743 49.6575 88.0773C49.7399 88.2803 49.8615 88.465 50.0154 88.621C50.1693 88.7769 50.3525 88.901 50.5543 88.9861C50.7562 89.0712 50.9729 89.1157 51.192 89.117H65.763C65.982 89.1157 66.1986 89.0713 66.4004 88.9862C66.6022 88.9012 66.7853 88.7772 66.9392 88.6213C67.093 88.4655 67.2147 88.2809 67.2972 88.078C67.3797 87.8751 67.4214 87.658 67.42 87.439V34.566C67.4214 34.347 67.3797 34.1299 67.2972 33.927C67.2147 33.7241 67.093 33.5395 66.9392 33.3837C66.7853 33.2278 66.6022 33.1038 66.4004 33.0188C66.1986 32.9337 65.982 32.8893 65.763 32.888" fill="#133C58"/>
<path d="M86.487 16.978H71.915C71.696 16.9793 71.4794 17.0237 71.2776 17.1088C71.0757 17.1938 70.8927 17.3178 70.7388 17.4737C70.5849 17.6295 70.4633 17.8141 70.3808 18.017C70.2983 18.2199 70.2565 18.437 70.258 18.656V87.437C70.2565 87.656 70.2983 87.8731 70.3808 88.076C70.4633 88.2789 70.5849 88.4635 70.7388 88.6193C70.8927 88.7752 71.0757 88.8991 71.2776 88.9842C71.4794 89.0692 71.696 89.1137 71.915 89.115H86.486C86.705 89.1137 86.9216 89.0692 87.1234 88.9842C87.3252 88.8991 87.5083 88.7752 87.6621 88.6193C87.816 88.4635 87.9377 88.2789 88.0202 88.076C88.1027 87.8731 88.1444 87.656 88.143 87.437V18.656C88.1444 18.437 88.1027 18.2199 88.0202 18.017C87.9377 17.8141 87.816 17.6295 87.6621 17.4737C87.5083 17.3178 87.3252 17.1938 87.1234 17.1088C86.9216 17.0237 86.706 16.9793 86.487 16.978Z" fill="#ED7465"/>
</g>
</svg>
