<svg width="126" height="128" viewBox="0 0 126 128" fill="none" xmlns="http://www.w3.org/2000/svg">
<mask id="mask0_13_52" style="mask-type:luminance" maskUnits="userSpaceOnUse" x="0" y="0" width="126" height="128">
<path d="M77.2547 0L0 44.603L47.8565 127.493L125.111 82.8899L77.2547 0Z" fill="white"/>
</mask>
<g mask="url(#mask0_13_52)">
<path d="M14.0167 61.6506L42.9471 44.9476L49.7266 56.6901C49.6019 56.9655 49.414 57.2077 49.1781 57.3968C48.9422 57.586 48.665 57.7168 48.369 57.7787C47.3799 57.7413 46.3988 57.9697 45.5278 58.4401C44.6569 58.9106 43.928 59.6059 43.4169 60.4536C42.9059 61.3014 42.6314 62.2706 42.622 63.2604C42.6127 64.2502 42.8688 65.2245 43.3638 66.0817C43.8587 66.939 44.5743 67.6479 45.4362 68.1347C46.2981 68.6215 47.2747 68.8684 48.2644 68.8497C49.2541 68.831 50.2207 68.5474 51.0636 68.0284C51.9065 67.5093 52.5949 66.7739 53.057 65.8985C53.2586 65.6732 53.5105 65.4985 53.7923 65.3888C54.074 65.2791 54.3777 65.2374 54.6786 65.2672L61.4576 77.0087L49.7152 83.7882C49.6854 84.0891 49.7271 84.3928 49.8368 84.6746C49.9465 84.9563 50.1212 85.2082 50.3465 85.4098C51.2219 85.872 51.9573 86.5604 52.4764 87.4032C52.9954 88.2461 53.279 89.2127 53.2977 90.2024C53.3164 91.1921 53.0695 92.1687 52.5827 93.0306C52.0959 93.8925 51.387 94.6082 50.5297 95.1031C49.6725 95.598 48.6982 95.8542 47.7084 95.8448C46.7186 95.8355 45.7494 95.561 44.9016 95.0499C44.0539 94.5389 43.3586 93.81 42.8881 92.939C42.4177 92.0681 42.1893 91.087 42.2267 90.0978C42.1648 89.8018 42.034 89.5247 41.8448 89.2888C41.6557 89.0529 41.4135 88.8649 41.1381 88.7402L29.4519 95.4872L25.3064 88.307L12.6935 66.5888C12.2171 65.7578 12.0888 64.7721 12.3367 63.8468C12.5846 62.9216 13.1886 62.1321 14.0167 61.6506Z" fill="#373737"/>
<path d="M86.3772 89.639C86.5014 89.3641 86.6888 89.1223 86.9241 88.9335C87.1594 88.7447 87.436 88.6141 87.7313 88.5524C88.7179 88.5898 89.6964 88.3621 90.565 87.8929C91.4337 87.4238 92.1607 86.7304 92.6705 85.885C93.1802 85.0395 93.454 84.0729 93.4633 83.0857C93.4727 82.0985 93.2173 81.1268 92.7236 80.2718C92.23 79.4169 91.5163 78.7098 90.6566 78.2243C89.797 77.7388 88.823 77.4926 87.8359 77.5113C86.8489 77.53 85.8849 77.813 85.0443 78.3307C84.2037 78.8484 83.5172 79.582 83.0563 80.455C82.8549 80.6798 82.6033 80.8537 82.322 80.9628C82.0406 81.0719 81.7375 81.113 81.4372 81.0827L74.6782 69.3757L86.3886 62.6147C86.4184 62.3147 86.377 62.0119 86.2678 61.7309C86.1585 61.4498 85.9844 61.1986 85.7598 60.9975C84.8867 60.5366 84.1531 59.8502 83.6354 59.0096C83.1177 58.169 82.8348 57.205 82.8161 56.2179C82.7973 55.2308 83.0436 54.2568 83.5291 53.3972C84.0146 52.5376 84.7216 51.8238 85.5766 51.3302C86.4315 50.8366 87.4032 50.5812 88.3904 50.5905C89.3776 50.5999 90.3442 50.8737 91.1897 51.3834C92.0352 51.8931 92.7285 52.6201 93.1977 53.4888C93.6668 54.3575 93.8945 55.336 93.8571 56.3225C93.9189 56.6176 94.0495 56.894 94.2382 57.1291C94.4269 57.3643 94.6685 57.5516 94.9432 57.6757L106.652 50.9157L123.311 79.77C123.784 80.5987 123.911 81.5811 123.663 82.5029C123.416 83.4247 122.813 84.2111 121.988 84.6907L93.1372 101.348L86.3772 89.639Z" fill="#133C58"/>
<path d="M79.4717 87.9241C79.9654 88.7789 80.2209 89.7503 80.2116 90.7374C80.2024 91.7245 79.9287 92.691 79.4191 93.5364C78.9096 94.3818 78.1827 95.0751 77.3142 95.5442C76.4457 96.0134 75.4673 96.2411 74.4809 96.2037C74.1858 96.2654 73.9094 96.396 73.6742 96.5847C73.439 96.7735 73.2518 97.0151 73.1277 97.2899L79.8882 108.999L51.0348 125.658C50.2061 126.133 49.2229 126.261 48.3 126.014C47.3772 125.767 46.5896 125.165 46.1094 124.339L29.4519 95.4872L41.1623 88.7262C41.4372 88.8504 41.679 89.0378 41.8678 89.2731C42.0566 89.5084 42.1872 89.785 42.2489 90.0803C42.1982 91.3897 42.6147 92.6744 43.4239 93.7049C44.2331 94.7355 45.3823 95.4448 46.6663 95.7061C47.9502 95.9675 49.2853 95.7638 50.433 95.1315C51.5806 94.4992 52.4661 93.4795 52.9312 92.2545C52.9814 92.1216 53.0262 91.9871 53.0656 91.8513C53.078 91.8129 53.089 91.7719 53.0996 91.7323C53.1296 91.6203 53.1569 91.5075 53.1784 91.3947C53.3687 90.4609 53.3142 89.4938 53.0203 88.5873C52.7264 87.6808 52.203 86.8658 51.501 86.2213C51.4361 86.161 51.3693 86.1026 51.3005 86.0461C51.0065 85.802 50.6879 85.5893 50.3498 85.4114C50.1234 85.21 49.948 84.9578 49.8379 84.6754C49.7279 84.3931 49.6864 84.0887 49.7169 83.7872L61.4256 77.0272L68.1866 88.7376C68.4866 88.7674 68.7894 88.7259 69.0704 88.6166C69.3514 88.5074 69.6027 88.3334 69.8038 88.1088C70.2645 87.2355 70.9508 86.5017 71.7914 85.9837C72.632 85.4658 73.5961 85.1826 74.5832 85.1637C75.5704 85.1449 76.5446 85.391 77.4043 85.8765C78.2641 86.3619 78.978 87.069 79.4717 87.9241Z" fill="#1088C4"/>
<path d="M40.7213 37.1764C41.5953 36.6338 42.6054 36.3505 43.6341 36.3595C43.9237 36.2892 44.1928 36.1518 44.4195 35.9584C44.6462 35.7649 44.8242 35.5208 44.9391 35.2458L39.7793 26.9088L37.9071 23.872L40.9427 22.0039L59.552 10.4862L65.9175 6.5455C66.7224 6.05122 67.6902 5.89556 68.6095 6.11253C69.5288 6.32951 70.3249 6.90147 70.8238 7.70349L83.4519 28.1139L86.2828 32.6791L88.1586 35.7103L85.1275 37.5862L76.7905 42.746C76.5151 42.6317 76.2704 42.4542 76.0764 42.2278C75.8823 42.0015 75.7442 41.7326 75.6733 41.443C75.6804 40.4671 75.4259 39.5072 74.9362 38.663C74.4465 37.8189 73.7394 37.1215 72.8887 36.6433C72.038 36.1651 71.0747 35.9237 70.099 35.9441C69.1233 35.9646 68.1709 36.2462 67.341 36.7596C66.511 37.273 65.8339 37.9995 65.38 38.8634C64.9261 39.7273 64.712 40.6971 64.7601 41.6719C64.8081 42.6466 65.1166 43.5906 65.6533 44.4057C66.19 45.2207 66.9353 45.8771 67.8117 46.3063C68.0389 46.4984 68.2178 46.7412 68.334 47.0151C68.4502 47.2889 68.5004 47.5862 68.4807 47.8831L60.1437 53.0429L57.1125 54.9188L55.2375 51.8871L50.0777 43.5501C49.7808 43.5299 49.4833 43.5799 49.2094 43.6962C48.9354 43.8124 48.6927 43.9916 48.5009 44.2191C48.1287 44.979 47.585 45.6421 46.9127 46.1559C46.2403 46.6697 45.4577 47.0202 44.6267 47.1797C43.7957 47.3392 42.939 47.3034 42.1241 47.075C41.3093 46.8467 40.5588 46.4321 39.9316 45.864C39.3045 45.2959 38.818 44.5897 38.5106 43.8014C38.2031 43.013 38.0831 42.164 38.16 41.3213C38.237 40.4786 38.5087 39.6653 38.9538 38.9456C39.3989 38.226 40.0052 37.6196 40.7248 37.1744" fill="#ED7465"/>
</g>
</svg>
