<svg width="71" height="83" viewBox="0 0 71 83" fill="none" xmlns="http://www.w3.org/2000/svg">
<path d="M50.177 56.7339L48.268 60.4489L48.253 60.6239L47.889 60.5369L50.177 56.7339Z" fill="#E6E6E7"/>
<mask id="mask0_1_202" style="mask-type:luminance" maskUnits="userSpaceOnUse" x="0" y="0" width="71" height="83">
<path d="M70.75 0H0V82.901H70.75V0Z" fill="white"/>
</mask>
<g mask="url(#mask0_1_202)">
<path d="M17.4831 53.0191V55.0591C17.4822 55.8002 17.3174 56.5319 17.0006 57.2018C16.6838 57.8717 16.2227 58.4633 15.6505 58.9341C15.0782 59.405 14.4089 59.7435 13.6906 59.9253C12.9722 60.1072 12.2224 60.128 11.4951 59.9861C10.451 59.7814 9.51009 59.2211 8.83271 58.4006C8.15533 57.5801 7.78333 56.5501 7.78008 55.4861V53.4461C7.77395 52.7043 7.93438 51.9706 8.24955 51.2991C8.56471 50.6276 9.02657 50.0354 9.60108 49.5661C9.76899 49.4299 9.94426 49.3031 10.1261 49.1861C10.86 48.7199 11.7051 48.4582 12.5741 48.4281C12.9739 48.4015 13.3755 48.426 13.7691 48.5011C14.8161 48.7064 15.7591 49.2692 16.4368 50.0932C17.1146 50.9172 17.4848 51.9512 17.4841 53.0181" fill="#E6E6E7"/>
<path d="M70.7501 33.262C70.7502 34.9427 70.219 36.5804 69.2325 37.941C68.2459 39.3017 66.8545 40.3157 65.2571 40.838L64.3831 41.115L63.9461 41.261L61.1341 42.179L56.9531 43.549L42.2761 48.342L40.2361 49.012C39.1582 49.3598 38.2188 50.0414 37.5537 50.9581C36.8886 51.8749 36.5322 52.9794 36.5361 54.112C36.5334 54.5196 36.5825 54.9258 36.6821 55.321C36.9644 56.5292 37.6799 57.5919 38.6931 58.308C39.3579 58.7941 40.1301 59.1128 40.9442 59.2371C41.7584 59.3614 42.5905 59.2876 43.3701 59.022L46.4301 57.988L50.1761 56.734L48.2671 60.449L48.2521 60.624L46.9281 78.2L46.7971 79.992L46.5761 82.9H11.6701C10.7999 82.9012 9.93992 82.713 9.14972 82.3487C8.35953 81.9843 7.65804 81.4524 7.09391 80.7899C6.52977 80.1274 6.11648 79.3502 5.8827 78.512C5.64893 77.6738 5.60025 76.7949 5.74006 75.936L7.72106 63.786L7.77606 63.8L8.67606 58.205C9.35997 59.1262 10.3625 59.7597 11.4881 59.982C12.2153 60.1238 12.9648 60.1031 13.6831 59.9213C14.4013 59.7396 15.0705 59.4013 15.6427 58.9307C16.2149 58.46 16.676 57.8687 16.9929 57.199C17.3099 56.5294 17.4749 55.7979 17.4761 55.057V53.017C17.4771 51.9511 17.1078 50.9179 16.4315 50.094C15.7552 49.2701 14.8137 48.7067 13.7681 48.5C13.3745 48.4249 12.9729 48.4004 12.5731 48.427C11.7041 48.4571 10.859 48.7188 10.1251 49.185L11.3351 41.7L11.6561 39.689C11.7592 39.0738 11.9004 38.4656 12.0791 37.868C12.1521 37.649 12.2101 37.431 12.2981 37.212C12.3249 37.1175 12.3584 37.0249 12.3981 36.935C12.8501 36.061 15.1081 32.404 15.3851 31.952C15.3925 31.936 15.4023 31.9212 15.4141 31.908C18.0018 29.0281 21.5823 27.2325 25.4381 26.881C25.2654 26.6912 25.1047 26.4908 24.9571 26.281C22.7189 23.4312 21.5076 19.9096 21.5191 16.286C21.5227 15.0351 21.6693 13.7886 21.9561 12.571C21.9663 12.5534 21.9715 12.5334 21.9711 12.513C22.25 11.3518 22.654 10.2242 23.1761 9.15001L23.0891 9.10601C23.4918 8.21899 23.9744 7.37049 24.5311 6.57101C24.5891 6.60001 24.6311 6.62901 24.6911 6.65801C26.1979 4.59285 28.1716 2.91319 30.4512 1.75611C32.7308 0.599023 35.2516 -0.00271016 37.8081 9.17599e-06C38.1721 9.17599e-06 38.5364 0.0146758 38.9011 0.0440092C39.2023 0.0579684 39.5027 0.0870047 39.8011 0.131009C40.2437 0.173071 40.6827 0.246252 41.1151 0.350009C41.4361 0.408009 41.7561 0.481009 42.0621 0.569009C42.3971 0.656009 42.7321 0.758009 43.0531 0.875009C43.4738 1.0138 43.887 1.17435 44.2911 1.35601C44.5241 1.45601 44.7571 1.55601 44.9911 1.67701C46.3538 2.35032 47.6143 3.21322 48.7351 4.24001C48.9241 4.41501 49.1141 4.59001 49.3031 4.77901C49.6376 5.10589 49.9538 5.45109 50.2501 5.81301C50.3639 5.92385 50.4664 6.04579 50.5561 6.17701C50.7751 6.43901 50.9641 6.70201 51.1561 6.97701C51.3481 7.25201 51.5491 7.54501 51.7241 7.83701C51.8134 7.96603 51.8913 8.10254 51.9571 8.24501C52.1321 8.53601 52.2921 8.84501 52.4381 9.14501C52.5691 9.40701 52.6861 9.67001 52.8021 9.94501C52.9771 10.338 53.1231 10.745 53.2681 11.169C53.3551 11.431 53.4281 11.708 53.5011 11.985C53.6168 12.3744 53.7087 12.7704 53.7761 13.171C53.8341 13.462 53.8931 13.754 53.9221 14.045C53.9801 14.4677 54.0237 14.8903 54.0531 15.313C54.0681 15.634 54.0821 15.969 54.0821 16.289C54.078 19.6927 53.0079 23.0096 51.0221 25.774L62.4451 25.293C63.5184 25.2513 64.5892 25.4265 65.5933 25.8081C66.5974 26.1897 67.5143 26.7698 68.2891 27.5138C69.0639 28.2578 69.6808 29.1504 70.1027 30.1382C70.5247 31.1261 70.7432 32.1888 70.7451 33.263" fill="#ED7465"/>
<path d="M68.287 27.507C67.516 26.7586 66.5999 26.176 65.5952 25.795C64.5905 25.4141 63.5184 25.2429 62.445 25.292L51.022 25.773C53.0078 23.0086 54.0779 19.6917 54.082 16.288C54.082 15.967 54.067 15.632 54.053 15.312C54.0237 14.8893 53.98 14.4667 53.922 14.044C53.893 13.753 53.835 13.461 53.776 13.17C53.7077 12.7714 53.6152 12.3774 53.499 11.99C53.426 11.713 53.353 11.436 53.266 11.174C53.12 10.751 52.975 10.344 52.8 9.95001C52.683 9.67301 52.567 9.41101 52.436 9.15001C52.29 8.84401 52.13 8.53801 51.955 8.25001C51.8893 8.10753 51.8113 7.97102 51.722 7.84201C51.547 7.55101 51.358 7.25901 51.154 6.98201C50.95 6.70501 50.775 6.44301 50.554 6.18201C50.4644 6.05079 50.3619 5.92885 50.248 5.81801C49.9517 5.45608 49.6356 5.11088 49.301 4.78401C49.112 4.59501 48.922 4.42001 48.733 4.24501C47.6123 3.21787 46.3518 2.35463 44.989 1.68101C44.756 1.56401 44.523 1.46201 44.289 1.36001C43.8857 1.17671 43.4732 1.01449 43.053 0.874005C42.732 0.757005 42.397 0.655005 42.062 0.568005C41.756 0.481005 41.436 0.408005 41.115 0.350005C40.6837 0.246387 40.2456 0.173207 39.804 0.131005C39.5057 0.087001 39.2053 0.0579646 38.904 0.0440054C38.5373 0.0146721 38.172 5.41597e-06 37.808 5.41597e-06C35.2523 -0.00208321 32.7322 0.599952 30.4534 1.75701C28.1745 2.91407 26.2014 4.59339 24.695 6.65801C24.637 6.62901 24.595 6.60001 24.535 6.57101C23.9784 7.37049 23.4957 8.21899 23.093 9.10601L23.18 9.15001C22.6564 10.2249 22.251 11.3536 21.971 12.516C21.9715 12.5364 21.9663 12.5564 21.956 12.574C21.6692 13.7916 21.5226 15.0381 21.519 16.289C21.5076 19.9126 22.7189 23.4342 24.957 26.284C25.1047 26.4938 25.2654 26.6942 25.438 26.884C21.5823 27.2355 18.0018 29.0311 15.414 31.911C15.4022 31.9242 15.3925 31.939 15.385 31.955C15.108 32.407 12.85 36.064 12.398 36.938C12.3583 37.0279 12.3249 37.1205 12.298 37.215C12.211 37.434 12.152 37.652 12.079 37.871C11.9004 38.4686 11.7591 39.0768 11.656 39.692L11.335 41.7L10.125 49.187C10.8589 48.7208 11.7041 48.4591 12.573 48.429C12.9728 48.4024 13.3744 48.4269 13.768 48.502C14.815 48.7073 15.7581 49.2701 16.4358 50.0941C17.1135 50.9181 17.4837 51.9521 17.483 53.019V55.059C17.4818 55.7999 17.3169 56.5314 16.9999 57.201C16.683 57.8707 16.2219 58.462 15.6497 58.9327C15.0774 59.4033 14.4083 59.7416 13.69 59.9233C12.9718 60.1051 12.2222 60.1258 11.495 59.984C10.3694 59.7617 9.36693 59.1282 8.68302 58.207L7.77602 63.8L7.71802 63.785L5.74002 75.937C5.60037 76.7958 5.64917 77.6747 5.88302 78.5127C6.11687 79.3507 6.53018 80.1279 7.0943 80.7903C7.65842 81.4527 8.35985 81.9844 9.14997 82.3487C9.94008 82.713 10.8 82.9011 11.67 82.9H46.576L46.795 79.986L46.926 78.194L48.252 60.623L48.267 60.448L50.176 56.734L46.432 57.987L43.376 59.021C42.5964 59.2866 41.7643 59.3604 40.9502 59.2361C40.136 59.1118 39.3638 58.7931 38.699 58.307C37.6858 57.5909 36.9704 56.5282 36.688 55.32C36.5884 54.9248 36.5394 54.5186 36.542 54.111C36.5382 52.9784 36.8946 51.8739 37.5597 50.9571C38.2248 50.0404 39.1641 49.3588 40.242 49.011L42.282 48.341L56.954 43.548L61.135 42.178L63.947 41.26L64.384 41.114L65.258 40.837C66.8555 40.3147 68.2469 39.3007 69.2335 37.94C70.22 36.5794 70.7512 34.9417 70.751 33.261C70.7558 32.1844 70.5397 31.1183 70.1163 30.1284C69.6928 29.1386 69.0709 28.2461 68.289 27.506" fill="#ED7465"/>
<path d="M25.439 26.8811C21.5833 27.2326 18.0028 29.0282 15.415 31.9081C15.4033 31.9213 15.3935 31.9361 15.386 31.9521C15.109 32.4041 12.851 36.0611 12.399 36.9351C12.457 36.7601 12.516 36.6001 12.588 36.4251C12.53 36.4101 12.457 36.3961 12.399 36.3811V36.3661C11.8908 36.2443 11.39 36.0934 10.899 35.9141C7.27027 34.6464 4.20784 32.1343 2.25499 28.8235C0.302135 25.5126 -0.414892 21.6171 0.231098 17.828C0.877089 14.0388 2.84434 10.6009 5.78387 8.12416C8.7234 5.64741 12.4452 4.29191 16.289 4.29812C19.1928 4.29487 22.043 5.08051 24.535 6.57112C23.9784 7.3706 23.4958 8.2191 23.093 9.10612L23.18 9.15012C22.6564 10.2251 22.251 11.3537 21.971 12.5161C21.9715 12.5365 21.9663 12.5565 21.956 12.5741C21.6692 13.7917 21.5226 15.0382 21.519 16.2891C21.5076 19.9127 22.7189 23.4343 24.957 26.2841C25.1047 26.4939 25.2654 26.6943 25.438 26.8841" fill="#E6E6E7"/>
<path d="M57.5501 54.257L56.3701 54.65L56.7491 57.608L57.2881 62.678L58.7881 76.563C58.8387 76.9949 58.796 77.4328 58.6628 77.8468C58.5296 78.2609 58.3091 78.6415 58.0161 78.963C57.7261 79.2853 57.3714 79.5427 56.975 79.7185C56.5787 79.8943 56.1497 79.9844 55.7161 79.983H46.7981L46.9291 78.191L48.2551 60.629L48.2701 60.454L50.1791 56.739L46.4351 57.992L43.3751 59.026C42.5955 59.2916 41.7634 59.3654 40.9493 59.2411C40.1351 59.1168 39.3629 58.7981 38.6981 58.312C37.6849 57.5958 36.9695 56.5331 36.6871 55.325C36.5875 54.9297 36.5385 54.5235 36.5411 54.116C36.5373 52.9833 36.8937 51.8789 37.5588 50.9621C38.2239 50.0453 39.1632 49.3638 40.2411 49.016L42.2811 48.346L56.9531 43.549L61.1341 42.179L61.8621 47.264C62.0707 48.7495 61.7539 50.2613 60.9664 51.5381C60.1789 52.8149 58.9712 53.7765 57.5501 54.257Z" fill="#E6E6E7"/>
</g>
</svg>
