<svg width="43" height="135" viewBox="0 0 43 135" fill="none" xmlns="http://www.w3.org/2000/svg">
<mask id="mask0_1_725" style="mask-type:luminance" maskUnits="userSpaceOnUse" x="0" y="0" width="43" height="135">
<path d="M42.4351 0H0V134.019H42.4351V0Z" fill="white"/>
</mask>
<g mask="url(#mask0_1_725)">
<path d="M15.0848 123.829C15.0848 123.829 10.1539 128.352 9.91155 128.463C9.66916 128.574 5.15227 132.268 4.79809 132.566C4.44391 132.864 4.20373 133.696 7.17662 133.696C10.1495 133.696 12.8213 133.339 14.3111 131.436C15.8009 129.532 17.1645 128.285 18.1761 128.047C18.6233 127.986 19.0506 127.823 19.4246 127.571L19.0084 124.241L15.0848 123.829Z" fill="#103046"/>
<path d="M42.2291 132.889C41.8728 132.592 37.3537 128.905 37.1157 128.786C36.8777 128.668 31.9425 124.149 31.9425 124.149L28.0188 124.565L27.6027 127.894C27.9766 128.147 28.4039 128.309 28.8511 128.37C29.8617 128.608 31.2297 129.856 32.7161 131.759C34.2026 133.662 36.8777 134.019 39.8506 134.019C42.8235 134.019 42.5855 133.187 42.2291 132.889Z" fill="#103046"/>
<path d="M15.0847 123.829C14.9662 124.305 15.0249 124.305 16.0952 124.543C17.0762 124.629 18.0649 124.529 19.0083 124.246V122.046H14.7283C14.9525 122.614 15.0732 123.219 15.0847 123.83" fill="#FCD3BE"/>
<path d="M31.9424 124.149C31.8871 123.448 31.896 122.744 31.969 122.046L28.0177 122.367V124.567C28.9611 124.85 29.9498 124.95 30.9308 124.864C32.0011 124.626 32.0598 124.626 31.9413 124.15" fill="#FCD3BE"/>
<path d="M11.161 67.2851C11.1012 67.4633 13.3016 122.937 13.3016 122.937L15.3824 123.86L19.7675 122.937L21.9225 71.5663C21.9225 71.5663 23.2894 70.9719 23.7067 71.6847C24.1239 72.3975 26.9164 122.401 26.9164 122.401L31.5396 123.483L34.1107 122.341V67.8795L21.2086 62.5878L11.161 67.2851Z" fill="#103046"/>
<path d="M35.9989 61.9647C36.0157 62.4883 35.9707 63.0122 35.865 63.5253C35.6868 64.4617 34.6608 65.8031 34.7504 66.9475C34.8322 67.6095 34.9851 68.2608 35.2064 68.89C35.2418 69.2331 35.3747 69.6172 35.6425 68.89C35.9103 68.1628 35.6868 67.8507 35.9103 67.1368C36.1339 66.4229 36.3531 66.2303 36.5346 66.7505C36.8395 67.772 36.9752 68.8364 36.9364 69.9016C36.8467 71.0162 36.3121 72.0865 36.4936 72.6686C36.6751 73.2508 36.6718 73.1114 37.3403 72.6686C38.4026 71.855 39.1318 70.6819 39.3913 69.3692C39.4809 68.0765 39.1699 63.3925 39.0791 61.5651C38.9884 59.7378 36.0022 61.9669 36.0022 61.9669" fill="#FCD3BE"/>
<path d="M13.3006 122.937L15.3814 123.86V66.7484L11.1589 68.3433L13.3006 122.937Z" fill="#093047"/>
<path d="M29.8297 66.7505L31.5054 122.363L31.5397 123.483L34.1109 122.341V67.0472L29.8297 66.7505Z" fill="#103046"/>
<path d="M39.6104 49.6404C38.4505 34.4351 38.3708 25.5739 36.383 24.196C34.3952 22.818 27.1456 20.9043 24.9043 18.5269C24.9043 18.5269 22.9275 22.9198 21.2518 22.974C19.8771 23.0183 18.5512 18.5269 18.5512 18.5269C15.15 21.1533 8.34973 22.974 8.34973 22.974C8.43938 26.2591 9.75095 33.1135 9.9546 36.9309C10.4892 46.9199 10.2667 68.0566 10.2667 68.0566C18.4715 71.045 21.7034 63.6393 21.9081 63.8762C28.2845 71.2265 34.4804 68.3244 34.4804 68.3244L34.3575 62.6897L40.5446 61.7245C40.5446 61.7245 40.373 59.6747 39.6082 49.6404" fill="#063B52"/>
<path d="M18.7704 15.9159C19.0005 16.6109 19.0005 17.3615 18.7704 18.0565C18.3542 18.9486 18.176 19.3647 18.176 19.3647C18.176 19.3647 20.0045 22.7903 21.253 22.4118C22.1635 22.0353 22.9658 21.4376 23.5872 20.673C24.0207 20.2939 24.4186 19.876 24.7759 19.4245C24.7759 19.4245 24.1218 16.7493 24.0012 15.6193C23.8805 14.4892 18.7704 15.9159 18.7704 15.9159Z" fill="#F1B494"/>
<path d="M16.0664 7.29388C16.0664 7.29388 16.6906 13.5363 17.6713 15.1423C18.0129 15.799 18.5243 16.3522 19.1523 16.7442C19.7802 17.1363 20.5018 17.3528 21.2418 17.3714C21.932 17.3159 22.6038 17.1214 23.2169 16.7996C23.8299 16.4778 24.3715 16.0352 24.8091 15.4987C25.292 14.4828 25.6793 13.4242 25.9657 12.3365C27.3924 11.844 27.7499 11.2197 27.9281 10.5955C28.1063 9.97125 28.1959 7.82846 27.4854 8.09853C27.0423 8.28375 26.6899 8.63606 26.5047 9.07916L26.062 5.42669C26.062 5.42669 27.0426 3.37577 25.4378 3.10239C23.8329 2.82901 15.8185 5.18983 16.073 7.29388" fill="#FCD3BE"/>
<path d="M26.051 9.78641C26.2134 9.71308 26.3489 9.59079 26.4384 9.43666C26.7704 8.91313 27.253 8.03654 27.8031 8.17379C27.8031 8.17379 28.0598 3.09464 26.5003 2.53681C25.8185 2.29331 24.932 3.83841 25.0737 5.39016C25.2629 6.88236 25.5905 8.35373 26.0521 9.7853" fill="#4F423C"/>
<path d="M15.5375 8.36747C15.2492 7.66311 15.1352 6.89952 15.2054 6.14167C15.2724 4.47398 15.9961 2.90043 17.2187 1.76424C18.0698 1.0013 19.0996 0.465245 20.2127 0.205628C21.3259 -0.053989 22.4865 -0.0287862 23.5873 0.278907C24.9464 0.80629 26.1254 1.71292 26.9841 2.89098C27.5276 3.8871 25.0738 5.39236 25.0738 5.39236C25.0738 5.39236 23.8862 3.02158 20.3344 4.58993C17.988 5.6259 17.5253 5.58606 16.7926 6.36082C16.0599 7.13559 16.3333 9.44993 16.3333 9.44993C16.3333 9.44993 15.9204 9.25845 15.5452 8.36636" fill="#5D4E46"/>
<path d="M17.626 21.4787C17.7599 21.5684 22.0532 52.7383 22.0532 52.7383L25.9448 21.4787L21.253 22.4151L17.626 21.4787Z" fill="#F8FAFB"/>
<path d="M19.7676 62.5879L18.9209 63.1678L4.25012 55.4534V37.6337L19.7687 43.2785L19.7676 62.5879Z" fill="#BC594D"/>
<path d="M18.9198 63.1678L3.40125 56.0333V38.2137L18.9198 43.8584V63.1678Z" fill="#ED7465"/>
<path d="M15.4278 51.8861C15.4278 51.8861 17.8097 51.4843 18.4162 51.4434C18.7236 51.3856 19.0398 51.3953 19.3431 51.4717C19.6464 51.5482 19.9294 51.6895 20.1727 51.8861C20.4779 52.3076 20.6751 52.7974 20.7472 53.3128C20.8001 53.9836 20.7516 54.6586 20.6033 55.315C20.393 56.1573 20.2458 56.5192 19.7665 56.2956C18.8688 55.7473 17.8635 55.3989 16.8191 55.274C16.0341 55.3107 15.2473 55.2659 14.4716 55.1401C14.1849 55.0062 14.1152 52.0997 15.4278 51.8861Z" fill="#FCD3BE"/>
<path d="M10.135 36.4649C10.135 36.4649 10.6253 24.134 8.35083 22.9751C6.44382 24.7384 5.06887 27.0006 4.38181 29.5053C2.91086 34.0941 0.170404 48.2834 0.00548976 49.8352C-0.344262 53.1346 14.1671 57.3216 14.1671 57.3216L15.244 51.9392C15.244 51.9392 8.27114 48.3487 7.38569 47.3681C6.50025 46.3875 10.135 36.4649 10.135 36.4649Z" fill="#063B52"/>
<path d="M29.7555 26.0233C29.1932 23.3769 26.6343 21.5639 25.0117 20.1948C25.0117 20.1948 25.0416 24.0343 24.7616 27.5983C24.2978 33.5164 22.0554 52.7328 22.0554 52.7328C23.058 48.7026 24.2735 44.7284 25.6968 40.8268C27.7223 35.5352 30.3177 28.6686 29.7544 26.0222" fill="#1373A4"/>
<path d="M17.9347 19.0593C16.3121 20.4284 14.8489 23.554 14.2823 26.2004C13.7156 28.8468 16.3144 35.7123 18.3398 41.0051C20.3653 46.2978 22.0521 52.7373 22.0521 52.7373C22.0521 52.7373 19.7388 33.7001 19.2751 27.7798C18.9724 24.8534 18.5232 21.944 17.9292 19.0626" fill="#1373A4"/>
<path d="M18.5523 18.5269C18.5523 18.5269 18.3398 18.6099 17.2242 20.3675C16.1085 22.1251 16.4217 22.974 16.4217 22.974C16.6451 22.5592 17.0083 22.2369 17.4468 22.0644C17.8853 21.892 18.3707 21.8806 18.8169 22.0322C19.5802 22.3733 20.4209 22.504 21.2518 22.4107C21.2518 22.4107 18.1882 20.4782 18.5523 18.5269Z" fill="#E1EEF9"/>
<path d="M25.6083 19.7134C24.4937 17.9558 24.4683 18.0963 24.4683 18.0963C24.8324 20.0476 21.2585 22.4129 21.2585 22.4129C22.3446 22.4444 23.4273 22.2783 24.4539 21.9226C26.0145 21.3426 26.5502 22.4184 26.5502 22.4184C26.5594 21.4364 26.2285 20.4815 25.6138 19.7156" fill="#E1EEF9"/>
<path d="M26.0543 54.2491L31.4057 53.4312C31.4057 53.4312 32.0698 57.326 26.0543 54.2491Z" fill="#1373A4"/>
</g>
</svg>
