<svg width="67" height="128" viewBox="0 0 67 128" fill="none" xmlns="http://www.w3.org/2000/svg">
<mask id="mask0_1_802" style="mask-type:luminance" maskUnits="userSpaceOnUse" x="0" y="0" width="67" height="128">
<path d="M66.7342 0H0V127.657H66.7342V0Z" fill="white"/>
</mask>
<g mask="url(#mask0_1_802)">
<path d="M58.3092 120.92C59.3578 122.204 60.7431 123.171 62.3101 123.712C64.7221 124.438 66.9014 125.361 66.7249 126.813C66.7249 126.813 63.134 128.57 57.3096 126.615V127.23L53.0266 127.063V121.982L56.6623 122.205L56.4269 121.703L58.3092 120.92Z" fill="#0E1215"/>
<path d="M37.3835 120.125C36.3349 121.409 34.9495 122.376 33.3825 122.917C30.9706 123.643 28.525 124.566 28.7034 126.018C28.7034 126.018 32.5586 127.775 38.383 125.82L39.7898 126.516L43.6142 126.349V121.268L39.0304 121.409L39.2658 120.907L37.3835 120.125Z" fill="#0E1215"/>
<path d="M58.9808 67.5282C58.9808 67.5282 62.7585 108.669 57.7664 122.304C57.7664 122.304 54.8855 123.362 53.0611 122.304C53.0611 122.304 50.2765 93.9784 44.9958 80.5352C44.9958 80.5352 42.6912 75.2544 43.7477 70.453L58.9808 67.5282Z" fill="#133C58"/>
<path d="M31.9346 68.5015C31.9346 68.5015 33.5357 108.251 38.5287 121.887C38.5287 121.887 41.7982 122.547 43.6226 121.49C43.6226 121.49 41.6608 93.346 45.049 80.5352C45.049 80.5352 47.3535 75.2545 46.297 70.453L31.9346 68.5015Z" fill="#133C58"/>
<path d="M60.3381 70.7435C44.396 78.8565 30.5259 69.9532 30.5259 69.9532L30.7174 25.3013C31.9159 23.8262 34.9472 21.8954 37.9542 20.5624C38.085 20.5054 38.2073 20.4475 38.3278 20.397C41.0088 19.2602 48.4904 19.7599 49.2891 19.9748C49.3825 20 51.9504 21.1023 54.1344 22.0131C55.1063 22.4135 55.9442 23.082 56.5506 23.9406C57.1569 24.7991 57.5067 25.8124 57.559 26.8622L60.3381 70.7435Z" fill="#DAE7FA"/>
<path d="M35.3022 55.5207L41.0163 56.9593L39.6889 62.8556C39.6889 62.8556 38.9192 64.7986 36.184 63.9439C33.4488 63.0891 33.6618 61.3862 33.7674 61.0135L35.3022 55.5207Z" fill="#A2BBE3"/>
<path d="M55.4451 55.5207L49.731 56.9593L51.0584 62.8556C51.0584 62.8556 51.8281 64.7986 54.5633 63.9439C57.2984 63.0891 57.0854 61.3862 56.9799 61.0135L55.4451 55.5207Z" fill="#A2BBE3"/>
<path d="M49.2909 19.9748C48.1046 24.5988 45.7767 29.5385 44.0597 29.6263C42.5773 29.7029 39.247 23.2088 37.9532 20.5651C38.084 20.5082 38.2064 20.4502 38.3269 20.3998C39.0062 20.1119 39.6578 19.7627 40.2737 19.3564C42.4315 19.1088 47.1424 19.2116 47.1424 19.2116C47.1424 19.2116 49.0892 19.9234 49.2909 19.9776" fill="#A66167"/>
<path d="M47.1452 14.4605V19.3563C47.1452 19.3563 43.5675 23.4479 40.2765 19.3563L40.5567 14.4633L47.1452 14.4605Z" fill="#A66167"/>
<path d="M26.9136 39.0041C26.9136 39.0041 27.3367 46.4773 36.4306 46.9733C45.5245 47.4693 50.2718 43.4086 50.2718 43.4086L32.9369 35.6683L26.9136 39.0041Z" fill="#A66167"/>
<path d="M35.7815 21.6655C35.7815 21.6655 33.8637 31.318 34.7539 37.7169C33.7302 38.6846 32.463 39.3562 31.0874 39.6601C29.7119 39.9639 28.2797 39.8887 26.9436 39.4422C26.9436 39.4422 25.7217 27.8299 33.2957 23.1144L35.7815 21.6655Z" fill="#DAE7FA"/>
<path d="M34.6165 36.4175C38.7277 39.116 43.0327 41.5067 47.4965 43.5702C53.2499 46.1158 55.773 46.4128 58.2204 45.871C63.3405 44.7388 62.6922 39.3759 62.6922 39.3759L55.8981 35.9859L55.049 37.5618C55.049 37.5618 34.7071 32.2036 34.6165 36.4175Z" fill="#A66167"/>
<path d="M53.7234 21.8393C53.7234 21.8393 55.5216 31.0621 54.6267 37.4609C54.6267 37.4609 58.1559 41.0658 62.7014 39.4656C62.7014 39.4656 63.6823 29.4413 57.9083 24.1849C57.1383 23.4961 56.2608 22.9379 55.3105 22.5324L53.7234 21.8393Z" fill="#DAE7FA"/>
<path d="M40.5941 16.056C40.5941 16.056 41.2265 19.1527 43.6086 19.0191C45.9906 18.8855 47.1453 15.843 47.1453 15.843L43.0061 15.5497L40.5941 16.056Z" fill="#965960"/>
<path d="M43.7514 1.77765C48.0083 1.90376 48.6164 6.64266 48.5492 10.6296C48.4819 14.6165 46.7043 17.6431 44.0018 17.8468C41.2993 18.0504 39.36 14.9509 38.5492 11.3078C37.7384 7.66461 36.9275 1.57775 43.7524 1.77952" fill="#A66167"/>
<path d="M47.9412 9.61886C47.9412 9.61886 47.9412 7.99439 49.2929 8.39981C50.6446 8.80523 49.4284 12.5894 47.9412 12.3232C46.4541 12.057 47.9412 9.62354 47.9412 9.62354" fill="#A66167"/>
<path d="M39.3217 10.7585C39.3217 10.7585 39.1115 9.14711 37.8271 9.72441C36.5426 10.3017 38.2344 13.8963 39.6739 13.4358C41.1134 12.9752 39.3245 10.7585 39.3245 10.7585" fill="#A66167"/>
<path d="M43.8589 1.6656C47.3442 1.85243 48.4969 5.04719 48.4969 8.42598C48.1935 9.01407 48.0534 9.67283 48.0915 10.3335L47.8159 10.4213L47.276 7.53855C47.243 6.72471 47.1607 5.91363 47.0294 5.10978C47.0294 5.10978 41.7916 6.02617 39.2265 5.29661L39.0593 10.5278H38.8145C38.8145 10.5278 38.6782 9.78049 38.226 9.60674C37.4544 6.09156 37.8477 1.35733 43.8645 1.6712" fill="#422E13"/>
<path d="M52.3502 32.6371C50.9987 32.7265 49.6527 32.3946 48.4978 31.687L48.6604 31.475C48.6762 31.4871 50.2811 32.6782 53.7047 32.2895L53.7346 32.5548C53.2735 32.608 52.8097 32.6351 52.3455 32.6361" fill="#070707"/>
<path d="M48.9957 44.3568L36.694 37.9112V37.8804C36.0603 37.7396 35.4043 37.7304 34.7669 37.8533L34.7435 37.5871C35.9803 37.4778 36.7052 37.5161 36.8995 37.6992C36.9102 37.7095 36.9198 37.7207 36.9285 37.7328L49.1172 44.1232L48.9957 44.3568Z" fill="#070707"/>
<path d="M59.2424 39.9234C55.7917 39.2695 54.5717 37.6095 54.5194 37.5394L54.4988 37.4937C54.3497 36.2951 54.3497 35.0827 54.4988 33.8841L54.7651 33.9028C54.6361 35.0665 54.6333 36.2407 54.7567 37.4049C54.9099 37.5992 56.1672 39.0723 59.2957 39.6609L59.2424 39.9234Z" fill="#070707"/>
<path d="M29.3162 40.0327C28.4825 40.0528 27.6542 39.8935 26.8875 39.5656L27.0098 39.3283C27.6915 39.6241 28.4265 39.777 29.1696 39.7777C31.0782 39.7651 32.9264 39.1066 34.4129 37.9094C34.5293 36.7512 34.5252 35.5842 34.4008 34.4269L34.667 34.4082C34.8162 35.6068 34.8162 36.8192 34.667 38.0177L34.6558 38.0635L34.6175 38.0925C33.1142 39.3057 31.2521 39.9881 29.3209 40.0336" fill="#070707"/>
<path d="M57.4788 76.2895C55.4722 76.2895 53.8356 73.9887 53.7637 73.8841L53.9823 73.7309C54 73.7571 55.8291 76.3287 57.859 75.9915L57.9029 76.2549C57.7627 76.2781 57.6208 76.2897 57.4788 76.2895Z" fill="#070707"/>
<path d="M33.8356 76.2914H33.7104L33.7179 76.0242C34.4355 76.0921 35.1507 75.8722 35.7061 75.4129C36.2616 74.9536 36.612 74.2924 36.6801 73.5749L36.9463 73.5982C36.8667 74.3582 36.5012 75.0595 35.9237 75.5599C35.3463 76.0603 34.6001 76.3225 33.8366 76.2932" fill="#070707"/>
<path d="M44.3998 78.9181L44.3484 78.6557C46.5539 78.225 46.3372 75.0284 46.3344 74.9957L46.6006 74.9752C46.6006 75.0097 46.8351 78.4418 44.3988 78.9172" fill="#070707"/>
<path d="M7.19564 20.3484C9.89649 20.1674 12.4169 18.9281 14.2092 16.8995C16.1709 14.6529 17.0452 11.6796 17.8617 8.80894L18.6912 5.89255C18.9111 5.24396 19.0351 4.56672 19.0592 3.88228C19.0126 3.08888 18.7348 2.32648 18.26 1.68907C17.7853 1.05166 17.1344 0.567117 16.3876 0.295176C15.6352 0.0411265 14.8365 -0.0455237 14.0471 0.0412839C13.2578 0.128092 12.4969 0.386262 11.8178 0.797744C10.462 1.636 9.37393 2.84427 8.68186 4.28022C7.99653 5.71017 7.49978 7.22305 7.20405 8.78092C7.08927 9.66872 6.77328 10.5186 6.28018 11.2657C5.19097 12.6361 3.03777 12.7314 1.88971 14.0532C1.52201 14.5101 1.28125 15.0558 1.1917 15.6354C1.10216 16.215 1.16699 16.8079 1.37967 17.3545C1.82745 18.4493 2.68525 19.3259 3.77014 19.7973C4.85024 20.2588 6.02716 20.4481 7.19751 20.3484" fill="#373737"/>
<path d="M16.8249 111.523C16.6582 114.176 16.3357 116.817 15.859 119.432C15.859 119.432 11.0865 126.571 15.2051 126.491C15.8525 126.479 16.3373 125.849 20.0571 118.917C20.6316 117.847 21.065 113.857 20.4419 113.583L16.8249 111.523Z" fill="#E79D7A"/>
<path d="M15.8589 119.431C15.8589 119.431 11.929 125.129 12.4269 127.365C12.4914 127.655 13.0061 127.77 13.759 127.52C15.2854 127.012 17.7954 124.998 19.5385 119.889C19.5385 119.889 17.4937 124.16 15.6198 123.787C13.7459 123.414 14.3886 122.402 15.8589 119.431Z" fill="#ED7465"/>
<path d="M20.0598 109.462C21.3076 111.293 22.4467 113.195 23.4713 115.16C23.4713 115.16 23.4115 120.34 26.6549 120.14C27.3041 120.1 26.5969 116.388 25.2994 108.703C24.765 105.443 23.982 102.228 22.9575 99.0872L20.0598 109.462Z" fill="#E79D7A"/>
<path d="M23.3947 115.202C23.3947 115.202 23.8001 120.923 25.2724 122.14C25.8506 122.617 28.3186 119.934 26.1271 113.579C26.1271 113.579 26.9678 117.437 25.5423 118.151C24.1168 118.866 23.9468 117.911 23.3938 115.203" fill="#ED7465"/>
<path d="M13.3218 18.4502L13.7552 21.8131L17.3199 25.0462L20.1541 20.8725L20.4493 17.6413L13.3218 18.4502Z" fill="#E79D7A"/>
<path d="M13.3218 18.4503C13.3218 18.4503 18.3166 20.9397 19.7674 19.0051L20.553 17.8468C20.0186 19.3667 19.7375 20.5894 18.5754 21.106C18.0153 21.3327 17.4137 21.4387 16.8099 21.4171C16.1869 21.3587 15.5934 21.1245 15.0985 20.7417L13.3218 18.4503Z" fill="#D3765E"/>
<path d="M5.46858 62.9733C5.46858 62.9733 4.78012 77.02 5.46858 80.6005C6.15704 84.1811 23.4882 115.664 23.4882 115.664C24.0169 115.664 24.5376 115.533 25.0041 115.285C25.4707 115.036 25.8689 114.676 26.1636 114.237L26.4354 113.14C26.4354 113.14 18.6895 68.069 18.8268 67.5179C18.9641 66.9668 17.1743 61.7346 17.1743 61.7346L5.46858 62.9733Z" fill="#1088C4"/>
<path d="M28.8799 58.3372H4.87437C4.83047 49.9803 7.86363 48.3288 9.87857 43.0042C11.8935 37.6796 6.7576 29.1424 6.7576 26.567C6.7576 23.9916 9.41524 24.2531 10.8865 23.702C12.3578 23.1508 13.5955 20.8659 13.5955 20.8659C14.5377 21.5914 15.6848 22.0011 16.8734 22.0364C18.0752 22.0222 19.2419 21.63 20.2083 20.9154C20.2083 20.9154 19.9281 23.0808 21.4003 23.6319C22.8725 24.1831 26.9958 23.9981 26.9958 26.5679C26.9958 29.1378 21.8561 37.6833 23.8748 43.0079C25.8935 48.3325 28.9257 49.9841 28.879 58.3409" fill="#ED7465"/>
<path d="M15.659 67.517C15.659 67.517 16.0719 79.9112 16.4848 82.1148C16.8977 84.3184 15.659 119.159 15.659 119.159C15.659 119.159 18.1382 120.95 20.3409 119.159C20.3409 119.159 24.7473 92.0298 25.4367 84.4558C26.1261 76.8817 28.879 71.9242 28.0523 65.176C27.2256 58.4278 17.5899 61.7328 17.1733 61.7328C16.7566 61.7328 15.5628 64.8883 15.659 67.517Z" fill="#1088C4"/>
<path d="M17.8486 6.64829C21.8514 7.17327 22.4913 11.7982 21.53 15.4535C20.8117 18.1803 19.1788 20.9351 16.6099 20.8715C14.041 20.808 12.4941 17.2947 12.0326 15.1406C11.2937 11.6758 11.4301 5.81036 17.8467 6.65109" fill="#E79D7A"/>
<path d="M6.64001 56.1559C6.64001 56.1559 7.64982 57.9579 15.8432 56.581C24.0365 55.204 28.881 57.8747 28.881 57.8747C28.881 57.8747 28.3065 69.261 27.8973 71.4787C27.4882 73.6963 5.17247 72.8799 5.17247 72.8799C5.17247 72.8799 4.98565 60.0055 6.64095 56.1494" fill="#1088C4"/>
<path d="M9.95992 58.8005C8.41485 58.8005 7.47324 58.722 7.45642 58.7201L7.47697 58.4754C9.94299 58.6254 12.4173 58.5673 14.8735 58.3016C18.7754 57.9009 21.4293 57.5599 21.4555 57.5543L21.4872 57.7981C21.4611 57.7981 18.8034 58.1428 14.8978 58.5454C13.2572 58.7136 11.6091 58.7984 9.95992 58.7995" fill="#070707"/>
<path d="M15.7824 119.163L15.5368 119.155C15.8674 108.693 16.243 83.9494 15.9805 82.551C15.5704 80.3633 15.1696 68.4455 15.1528 67.9355L15.3985 67.9271C15.3985 68.0513 15.8161 80.3371 16.2224 82.5062C16.4868 83.9158 16.1141 108.688 15.7824 119.163Z" fill="#070707"/>
<path d="M12.8595 21.8888C12.8595 21.8888 15.2742 42.169 15.5591 50.3353C15.844 58.5016 11.7291 90.4399 11.7291 90.4399C11.7291 90.4399 2.77352 87.6823 2.77352 85.9383C2.77352 84.1942 3.67684 59.2311 3.67684 59.2311C3.67684 59.2311 -0.175562 56.4091 0.0084644 51.9103C0.19249 47.4114 1.93466 40.8015 2.02621 38.6866C2.53313 34.4685 3.36195 30.2953 4.50542 26.2036C5.3312 23.7254 8.9893 24.1065 10.2784 23.6469C11.2391 23.2238 12.114 22.6279 12.8595 21.8888Z" fill="#DAE7FA"/>
<path d="M14.5643 43.1611C14.5419 43.0789 12.3364 34.9546 10.5971 31.5282C10.0576 30.6868 9.86343 29.6698 10.0548 28.6888C10.2462 27.7079 10.8085 26.8385 11.6246 26.2615L9.74231 24.1718L12.116 22.3904L12.2636 22.5866L10.1076 24.2101L12.0039 26.3129L11.8759 26.3895C11.7629 26.4577 9.12764 28.085 10.8184 31.4161C12.569 34.865 14.782 43.0135 14.8035 43.0929L14.5643 43.1611Z" fill="#070707"/>
<path d="M20.2149 21.9841C20.2149 21.9841 16.922 32.9136 19.4171 44.3502C21.3835 53.3647 15.3069 89.3348 14.8903 90.4399C14.8903 90.4399 22.8744 94.4716 28.199 87.2189C28.199 87.2189 29.6534 59.7029 28.8781 48.2176C28.5138 42.8183 28.2046 38.4091 28.2046 38.4091C28.2046 38.4091 29.9542 43.375 30.964 44.7519C31.9738 46.1289 22.1 60.8126 22.2831 61.0873C22.4661 61.3619 27.731 65.2694 28.1906 62.9742C28.6502 60.6791 39.6039 48.9294 35.9589 41.9673C34.1009 38.4175 29.6572 26.9425 27.3648 25.1985C25.0724 23.4544 22.3952 23.546 21.4797 23.0864C20.9634 22.8446 20.5243 22.4643 20.2111 21.9878" fill="#DAE7FA"/>
<path d="M19.6114 41.7879L19.3676 41.7636C19.3741 41.6954 20.0654 34.8743 21.8206 31.4161C23.5142 28.0794 20.8762 26.4568 20.7632 26.3895L20.6342 26.3129L22.5315 24.2092L20.3755 22.5838L20.5231 22.3876L22.8949 24.1718L21.0126 26.2587C21.5525 26.6492 23.6207 28.4072 22.0401 31.5245C20.3054 34.9425 19.6188 41.7169 19.6114 41.7851" fill="#070707"/>
<path d="M16.4923 4.54364C15.9775 4.61655 15.453 4.57897 14.9538 4.43341C14.7677 4.15889 14.6867 3.8265 14.7256 3.49712C14.7646 3.16774 14.9208 2.86341 15.1659 2.63986C15.4224 2.42906 15.7381 2.30324 16.0694 2.27981C16.4006 2.25638 16.7309 2.3365 17.0145 2.50908C17.2671 2.6449 17.4605 2.86946 17.5572 3.13943C17.654 3.4094 17.6474 3.70565 17.5386 3.97101C17.4182 4.13845 17.2618 4.27674 17.0809 4.37568C16.9 4.47463 16.6992 4.5317 16.4933 4.54271" fill="white"/>
<path d="M12.0337 13.5563C12.4065 13.1137 12.6746 12.5927 12.8179 12.0321C12.9612 11.4714 12.9761 10.8857 12.8614 10.3185L12.5998 8.9332C12.5998 8.9332 13.6404 7.43857 16.6045 7.53199C18.1384 7.4769 19.6454 7.94499 20.8782 8.8594C20.8782 8.8594 20.2243 12.5642 21.4882 13.2891L22.3588 12.2036C22.3588 12.2036 24.8427 3.70294 16.6923 3.70294C11.6797 3.70294 9.84968 8.39047 10.8959 12.4493L12.0337 13.5563Z" fill="#373737"/>
<path d="M22.5969 13.1359C22.2961 14.0579 21.7506 14.7062 21.3825 14.5848C21.0145 14.4633 20.9538 13.6179 21.2545 12.6969C21.5553 11.7758 22.1009 11.1266 22.4689 11.248C22.837 11.3694 22.8977 12.2148 22.5969 13.1359Z" fill="#E79D7A"/>
<path d="M11.1377 13.1359C11.4385 14.0579 11.9841 14.7062 12.3521 14.5848C12.7202 14.4633 12.7809 13.6179 12.4801 12.6969C12.1793 11.7758 11.6338 11.1266 11.2657 11.248C10.8976 11.3694 10.8369 12.2148 11.1377 13.1359Z" fill="#E79D7A"/>
<path d="M6.19238 54.2624L10.2942 60.2998C10.6158 60.6027 10.8621 60.9767 11.0135 61.3918C11.2134 61.7184 11.3352 62.0868 11.3692 62.4683C11.4032 62.8497 11.3486 63.2339 11.2097 63.5908L9.11998 64.8986L7.05272 65.6972C7.05272 65.6972 7.61321 61.7935 8.23628 61.4133L4.65198 58.0616L6.19238 54.2624Z" fill="#E79D7A"/>
<path d="M26.653 56.5371L22.5549 62.5754C22.2332 62.8782 21.9868 63.2522 21.8356 63.6674C21.6086 64.3091 21.4844 64.3512 21.8534 65.701L23.7282 67.177L25.7955 67.9756C25.7955 67.9756 25.235 64.0719 24.6119 63.6917L28.1962 60.34L26.653 56.5371Z" fill="#E79D7A"/>
<path d="M5.98694 60.9247C5.98694 60.9247 9.51613 59.1097 9.92155 57.0882C10.327 55.0667 4.75014 52.8444 4.75014 52.8444L1.15649 54.9322L4.75107 61.034L5.98694 60.9247Z" fill="#DAE7FA"/>
<path d="M6.17662 65.8243C5.9159 65.8249 5.6557 65.8012 5.39941 65.7533L5.44519 65.5123C8.38213 66.0653 11.8497 62.9116 11.8842 62.8799L12.0505 63.0602C11.9179 63.1826 9.01548 65.8243 6.17662 65.8243Z" fill="#070707"/>
<path d="M26.6315 68.0513C23.6488 68.0513 20.7577 64.8444 20.6306 64.7033L20.8174 64.5399C20.8483 64.5754 23.9786 68.0532 26.9669 67.7916L26.9884 68.0363C26.8707 68.0466 26.752 68.0522 26.6353 68.0522" fill="#070707"/>
<path d="M21.4712 60.3829C21.4712 60.3829 25.6655 64.2185 26.4352 63.9541C27.2049 63.6898 28.6323 59.0153 29.1031 58.679C29.5739 58.3428 28.2521 53.5179 27.772 53.6281C27.2918 53.7384 21.4712 60.3829 21.4712 60.3829Z" fill="#DAE7FA"/>
<path d="M6.02807 61.0396L5.94587 60.808C6.81489 60.5014 7.6078 60.0115 8.27074 59.3715C8.93368 58.7314 9.45114 57.9562 9.78799 57.0985C8.77258 55.2797 4.7156 52.0905 4.6745 52.0541L4.61938 52.0111L4.62779 51.942C5.18828 47.5712 6.14857 39.4591 6.34474 34.2456L6.59042 34.255C6.39519 39.4516 5.43956 47.5142 4.88095 51.9047C5.39846 52.3138 9.08458 55.2676 10.0299 57.0256L10.0542 57.0705L10.0393 57.12C9.69551 58.025 9.15854 58.8442 8.46578 59.5205C7.77302 60.1968 6.94113 60.714 6.02807 61.0359" fill="#070707"/>
<path d="M23.6152 97.3168L21.8066 109.6L22.0497 109.636L23.8583 97.3526L23.6152 97.3168Z" fill="#070707"/>
<path d="M26.4036 64.083C24.5353 63.616 22.284 61.2741 22.1896 61.1751L22.1187 61.1013L22.171 61.0144L27.8552 51.5058L28.0841 51.6431L22.4531 61.0639C22.8529 61.4665 24.8557 63.4189 26.4699 63.8252L26.4036 64.083Z" fill="#070707"/>
</g>
</svg>
