<svg width="117" height="112" viewBox="0 0 117 112" fill="none" xmlns="http://www.w3.org/2000/svg">
<mask id="mask0_1_1069" style="mask-type:luminance" maskUnits="userSpaceOnUse" x="0" y="0" width="117" height="112">
<path d="M116.358 0H0V111.815H116.358V0Z" fill="white"/>
</mask>
<g mask="url(#mask0_1_1069)">
<path d="M101.388 3.56002L60.749 -0.000976562L72.849 20.356L57.839 27.568L67.147 34.96L56.194 46.109L69.594 58.609L61.181 73.414L66.839 83.346L62.084 92.419C62.0835 92.4632 62.0718 92.5066 62.05 92.545L93.568 95.232C93.5822 95.2331 93.5964 95.2314 93.61 95.2269C93.6235 95.2225 93.636 95.2154 93.6468 95.2061C93.6575 95.1968 93.6664 95.1855 93.6728 95.1728C93.6791 95.1601 93.683 95.1462 93.684 95.132L99.017 32.578C99.2103 31.3714 99.3593 30.19 99.464 29.034L101.481 3.67502C101.482 3.66083 101.48 3.64657 101.476 3.63304C101.471 3.61952 101.464 3.60701 101.455 3.59623C101.446 3.58545 101.434 3.57662 101.422 3.57023C101.409 3.56384 101.395 3.56004 101.381 3.55902" stroke="black" stroke-width="0.5"/>
<path d="M63.276 57.457L47.948 46.543L58.384 34.372L48.094 28.236L61.594 19.765L51.962 6.85399L46.484 0.567993H45.838L36.59 0.953993L25.453 1.41499L17.948 1.72799C17.9336 1.72785 17.9193 1.73082 17.9062 1.7367C17.893 1.74257 17.8813 1.75122 17.8718 1.76204C17.8623 1.77287 17.8553 1.78562 17.8512 1.79941C17.847 1.81321 17.846 1.82774 17.848 1.84199L20.634 68.633L21.684 93.66L54.969 92.448L58.217 92.399L63.281 83.204L55.939 73.355L63.276 57.457Z" stroke="black" stroke-width="0.5"/>
<path d="M27.227 102.797C29.4165 100.344 31.1328 97.5076 32.289 94.4299C32.454 93.9459 32.625 93.4859 32.782 93.1299C33.735 90.9709 34.812 87.7299 36.397 85.9849L43.487 77.475C44.617 76.106 36.064 76.155 34.492 77.575C32.744 79.154 31.238 80.958 29.417 82.475C29.0271 82.8332 28.5799 83.1235 28.094 83.3339C27.5644 83.4753 27.0109 83.5025 26.4701 83.4137C25.9293 83.3249 25.4135 83.1222 24.957 82.819C23.3697 81.4124 22.1512 79.6383 21.408 77.652C20.591 74.717 20.1 65.3519 20.1 65.3519C20.1 65.3519 13.8 67.815 13.647 73.017C13.358 83.217 13.491 100.047 11.509 111.678H26.397C25.861 108.47 25.304 105.1 27.227 102.809" fill="#F68E6E"/>
<path d="M25.462 102.175C27.4705 100.161 29.0244 97.7399 30.019 95.075C30.219 94.604 30.419 94.1579 30.602 93.8149C31.709 91.7289 33.002 88.573 34.714 86.944L43.014 79.03C44.238 77.744 44.459 75.1469 42.885 74.0809C41.601 73.2099 39.622 73.6569 38.446 74.5469C36.7587 75.8243 35.0813 77.1159 33.414 78.4219C32.249 79.3339 27.904 83.556 26.45 83.799C25.4558 83.8874 24.4645 83.5998 23.672 82.9929C22.8363 82.458 22.1247 81.7506 21.585 80.918C21.4537 80.7006 21.3348 80.4758 21.229 80.2449C20.517 78.7233 20.1448 77.0649 20.138 75.3849C20.118 71.9509 20.107 65.3419 20.11 65.3419C20.113 65.3419 13.467 67.21 12.952 72.39C11.916 82.806 10.83 100.201 7.86499 111.665H23.452C23.42 108.129 23.333 104.376 25.459 102.179" fill="#F68E6E"/>
<path d="M28.582 111.815C29.471 108.326 30.367 104.882 31.116 102.151C28.092 97.0719 13.275 93.313 8.19501 96.338L4.26801 111.817L28.582 111.815Z" fill="#ED7465"/>
<path d="M30.658 111.814C31.067 110.264 31.458 108.801 31.822 107.484C28.013 101.532 9.74301 96.895 3.55301 100.312L0.63501 111.812L30.658 111.814Z" fill="#133C58"/>
<path d="M6.715 111.813L9.923 99.1671C7.52848 98.9455 5.11707 99.34 2.918 100.313L0 111.813H6.715Z" fill="#29293D"/>
<path d="M89.767 102.797C87.5775 100.344 85.8612 97.5076 84.705 94.4299C84.54 93.9459 84.369 93.4859 84.212 93.1299C83.259 90.9709 82.1821 87.7299 80.5971 85.9849L73.507 77.475C72.377 76.106 80.9301 76.155 82.5011 77.575C84.2491 79.154 85.7551 80.958 87.5761 82.475C87.966 82.8331 88.4132 83.1234 88.8991 83.3339C89.4286 83.4753 89.9821 83.5025 90.5229 83.4137C91.0637 83.3249 91.5795 83.1222 92.036 82.819C93.6233 81.4123 94.8418 79.6383 95.585 77.652C96.402 74.717 96.8941 65.3519 96.8941 65.3519C96.8941 65.3519 103.194 67.815 103.346 73.017C103.635 83.217 103.502 100.047 105.484 111.678H90.601C91.138 108.47 91.693 105.1 89.77 102.809" fill="#F68E6E"/>
<path d="M91.53 102.175C89.5215 100.161 87.9677 97.7398 86.973 95.075C86.773 94.604 86.573 94.1579 86.39 93.8149C85.283 91.7289 83.99 88.573 82.278 86.944L73.978 79.03C72.754 77.744 72.533 75.1469 74.107 74.0809C75.391 73.2099 77.37 73.6569 78.546 74.5469C80.2334 75.8243 81.9104 77.1159 83.577 78.4219C84.742 79.3339 89.087 83.556 90.542 83.799C91.5362 83.8873 92.5275 83.5997 93.32 82.9929C94.1557 82.458 94.8673 81.7506 95.407 80.918C95.5383 80.7005 95.6572 80.4758 95.763 80.2449C96.4749 78.7233 96.8472 77.0649 96.854 75.3849C96.874 71.9509 96.886 65.3419 96.882 65.3419C96.878 65.3419 103.525 67.21 104.04 72.39C105.076 82.806 106.162 100.201 109.127 111.665H93.538C93.569 108.129 93.657 104.376 91.531 102.179" fill="#F68E6E"/>
<path d="M88.409 111.815C87.519 108.326 86.624 104.882 85.875 102.151C88.899 97.0719 103.715 93.313 108.796 96.338L112.723 111.817L88.409 111.815Z" fill="#ED7465"/>
<path d="M86.336 111.814C85.927 110.264 85.536 108.801 85.172 107.484C88.981 101.532 107.255 96.895 113.441 100.312L116.359 111.812L86.336 111.814Z" fill="#133C58"/>
<path d="M90.2679 103.402C88.2572 104.321 86.5052 105.723 85.168 107.484C85.532 108.801 85.924 110.265 86.332 111.814H92.7319L90.2679 103.402Z" fill="#29293D"/>
</g>
</svg>
