<svg width="17" height="33" viewBox="0 0 17 33" fill="none" xmlns="http://www.w3.org/2000/svg">
<mask id="mask0_1_246" style="mask-type:luminance" maskUnits="userSpaceOnUse" x="0" y="0" width="17" height="33">
<path d="M17 0H0V33H17V0Z" fill="white"/>
</mask>
<g mask="url(#mask0_1_246)">
<path d="M15.5651 -0.2019H2.09009C1.53152 -0.202999 0.995063 0.0162868 0.597203 0.408343C0.199342 0.8004 -0.0278027 1.33357 -0.0349121 1.8921L-0.0349121 30.7981C-0.0278027 31.3566 0.199342 31.8898 0.597203 32.2819C0.995063 32.6739 1.53152 32.8932 2.09009 32.8921H15.5651C15.8384 32.8913 16.1088 32.8364 16.3607 32.7305C16.6126 32.6246 16.841 32.4698 17.0328 32.2751C17.2245 32.0804 17.3757 31.8496 17.4778 31.5961C17.5798 31.3426 17.6305 31.0713 17.6271 30.7981V1.8921C17.6305 1.61885 17.5798 1.34763 17.4778 1.09411C17.3757 0.840596 17.2245 0.609811 17.0328 0.415097C16.841 0.220383 16.6126 0.0656016 16.3607 -0.0403014C16.1088 -0.146205 15.8384 -0.201129 15.5651 -0.2019ZM7.04709 0.9151H10.6071C10.6999 0.9151 10.7889 0.951975 10.8546 1.01761C10.9202 1.08325 10.9571 1.17227 10.9571 1.2651C10.9571 1.35793 10.9202 1.44695 10.8546 1.51259C10.7889 1.57822 10.6999 1.6151 10.6071 1.6151H7.04709C6.95426 1.6151 6.86524 1.57822 6.7996 1.51259C6.73396 1.44695 6.69709 1.35793 6.69709 1.2651C6.69709 1.17227 6.73396 1.08325 6.7996 1.01761C6.86524 0.951975 6.95426 0.9151 7.04709 0.9151ZM8.82009 31.4281C8.51986 31.4281 8.22637 31.3391 7.97673 31.1723C7.7271 31.0055 7.53253 30.7684 7.41764 30.491C7.30274 30.2136 7.27268 29.9084 7.33126 29.614C7.38983 29.3195 7.5344 29.049 7.7467 28.8367C7.959 28.6244 8.22948 28.4798 8.52394 28.4213C8.8184 28.3627 9.12362 28.3928 9.401 28.5077C9.67838 28.6225 9.91546 28.8171 10.0823 29.0667C10.2491 29.3164 10.3381 29.6099 10.3381 29.9101C10.3381 30.3127 10.1782 30.6988 9.89348 30.9835C9.6088 31.2682 9.22269 31.4281 8.82009 31.4281ZM16.1651 9.6471V26.8151H1.43109V2.7981H16.1651V9.6471Z" fill="#ED7364"/>
</g>
</svg>
