<svg width="48" height="118" viewBox="0 0 48 118" fill="none" xmlns="http://www.w3.org/2000/svg">
<path d="M45.075 0H0V54.75H45.075V0Z" fill="#F3F3F3"/>
<mask id="mask0_1_770" style="mask-type:luminance" maskUnits="userSpaceOnUse" x="0" y="0" width="48" height="118">
<path d="M47.848 0H0V117.196H47.848V0Z" fill="white"/>
</mask>
<g mask="url(#mask0_1_770)">
<path d="M22.019 49.776C21.5422 49.7743 21.07 49.683 20.627 49.507C20.5995 49.4963 20.5744 49.4803 20.5532 49.4599C20.5319 49.4395 20.5149 49.4151 20.503 49.3881C20.4912 49.3612 20.4848 49.3321 20.4842 49.3027C20.4836 49.2732 20.4888 49.2439 20.4995 49.2165C20.5102 49.189 20.5262 49.164 20.5466 49.1427C20.5669 49.1214 20.5913 49.1044 20.6183 49.0926C20.6453 49.0807 20.6743 49.0743 20.7038 49.0737C20.7332 49.0731 20.7625 49.0783 20.79 49.089C21.25 49.2688 21.7435 49.347 22.2366 49.3184C22.7297 49.2897 23.2108 49.1549 23.647 48.923C28.373 46.6 31.875 35.123 32.069 34.479L32.077 34.45C32.0938 34.393 32.1326 34.345 32.1848 34.3166C32.2371 34.2882 32.2984 34.2816 32.3555 34.2985C32.4125 34.3153 32.4605 34.3541 32.4889 34.4064C32.5173 34.4586 32.5238 34.52 32.507 34.577L32.475 34.685C31.118 39.259 29.431 46.371 30.266 47.509C31.101 48.647 32.466 48.149 34.728 47.339C35.428 47.089 36.217 46.807 37.081 46.544C37.6129 46.3118 38.1889 46.1982 38.7691 46.211C39.3493 46.2238 39.9198 46.3626 40.441 46.618C40.7722 46.8371 41.0229 47.1584 41.155 47.533L43.883 46.119C43.936 46.0915 43.9978 46.0863 44.0547 46.1044C44.1116 46.1225 44.159 46.1624 44.1865 46.2155C44.2139 46.2685 44.2192 46.3303 44.2011 46.3872C44.183 46.4441 44.143 46.4915 44.09 46.519L41.111 48.064C41.0785 48.0808 41.0423 48.0895 41.0057 48.0891C40.9691 48.0888 40.9332 48.0794 40.901 48.062C40.8688 48.0445 40.8414 48.0194 40.8212 47.9889C40.801 47.9584 40.7885 47.9234 40.785 47.887C40.753 47.7035 40.6832 47.5287 40.5799 47.3737C40.4766 47.2187 40.3421 47.087 40.185 46.987C39.7176 46.778 39.2117 46.669 38.6997 46.6669C38.1878 46.6649 37.681 46.7698 37.212 46.975C36.359 47.234 35.573 47.515 34.88 47.763C32.588 48.583 30.931 49.175 29.905 47.776C29.194 46.806 29.891 42.976 30.684 39.653C29.153 43.332 26.754 47.896 23.845 49.326C23.2792 49.615 22.6542 49.7691 22.019 49.776Z" fill="#1F2640"/>
<path d="M41.269 15.136H3.98499V18.566H41.269V15.136Z" fill="#FAEADD"/>
<path d="M40.913 25.56H19.624V28.99H40.913V25.56Z" fill="#FAEADD"/>
<path d="M32.5189 57.599L36.5679 60.144C37.7499 61.044 43.4679 67.102 43.4679 67.102L39.7289 70.996C38.7949 72.187 34.1979 65.568 33.0159 64.672L29.3929 60.817C26.9089 58.91 29.5789 55.34 32.5159 57.599" fill="#F7C19B"/>
<path d="M25.223 60.328L30.123 62.158C31.596 62.846 40.372 67.22 39.709 68.58L36.287 72.473C35.624 73.833 29.074 68.018 27.601 67.33L22.801 64.11C19.701 62.641 21.555 58.586 25.221 60.327" fill="#F7C19B"/>
<path d="M38.573 106.489L43.873 95.252C45.17 92.5045 46.0417 89.5756 46.458 86.566L47.8409 76.566C47.9629 74.713 44.694 68.399 43.405 67.034L40.7849 66.896L25.873 78.736L25.444 79.546C22.5138 83.6668 21.235 88.7364 21.86 93.754C21.86 93.754 24.573 102.895 25.425 105.081L26.037 106.835L38.573 106.489Z" fill="#F7C19B"/>
<path d="M23.891 95.865C24.9851 99.4372 25.704 103.114 26.036 106.835C26.492 116.129 32.443 118.61 37.595 116.486C41.466 114.886 43.64 110.286 42.695 105.686L39.551 90.372L23.891 95.865Z" fill="#F7C19B"/>
<path d="M25.042 65.601L29.537 67.236C30.882 67.863 38.887 71.871 38.225 73.236L34.915 77.182C34.253 78.543 28.365 73.041 27.02 72.415L22.666 69.409C19.836 68.068 21.695 64.016 25.041 65.609" fill="#F7C19B"/>
<path d="M27.109 71.44L31.604 73.075C32.949 73.702 40.954 77.71 40.292 79.075L36.982 83.021C36.32 84.382 30.432 78.881 29.087 78.254L24.733 75.248C21.903 73.907 23.762 69.855 27.108 71.448" fill="#F7C19B"/>
<path d="M40.06 80.04C39.9868 80.04 39.9165 80.0117 39.8637 79.961C39.8109 79.9103 39.7799 79.8411 39.777 79.768C39.659 76.746 39.421 72.043 39.251 71.468C38.1374 69.6435 36.8988 67.8983 35.544 66.245C35.5197 66.2158 35.5016 66.1821 35.4906 66.1458C35.4796 66.1095 35.476 66.0714 35.48 66.0336C35.484 65.9959 35.4956 65.9594 35.5141 65.9262C35.5325 65.8931 35.5574 65.864 35.5873 65.8406C35.6172 65.8173 35.6515 65.8002 35.6881 65.7904C35.7248 65.7806 35.763 65.7782 35.8006 65.7835C35.8382 65.7887 35.8743 65.8015 35.9068 65.821C35.9394 65.8405 35.9677 65.8663 35.99 65.897C36.353 66.362 39.543 70.466 39.79 71.306C40.035 72.129 40.309 78.965 40.339 79.742C40.3405 79.7792 40.3346 79.8162 40.3218 79.8511C40.3089 79.886 40.2892 79.9181 40.264 79.9454C40.2387 79.9727 40.2083 79.9948 40.1745 80.0103C40.1407 80.0258 40.1042 80.0346 40.067 80.036H40.056" fill="#B34725"/>
<path d="M36.531 78.254C36.4718 78.2545 36.4133 78.2402 36.3609 78.2125C36.3086 78.1847 36.2639 78.1443 36.231 78.095C35.4669 77.187 34.5059 76.4651 33.421 75.984C33.3782 75.965 33.3394 75.9378 33.3071 75.9039C33.2747 75.8699 33.2494 75.8299 33.2325 75.7862C33.2156 75.7425 33.2075 75.6958 33.2086 75.649C33.2097 75.6021 33.2201 75.5559 33.239 75.513C33.258 75.4701 33.2853 75.4314 33.3192 75.3991C33.3531 75.3667 33.3931 75.3414 33.4369 75.3245C33.4806 75.3076 33.5272 75.2995 33.5741 75.3006C33.621 75.3017 33.6672 75.312 33.71 75.331C34.9205 75.8634 35.9878 76.6745 36.825 77.698C36.861 77.752 36.8816 77.8147 36.8846 77.8795C36.8876 77.9443 36.8729 78.0087 36.8421 78.0658C36.8112 78.1228 36.7654 78.1704 36.7095 78.2034C36.6537 78.2364 36.5899 78.2535 36.5251 78.253" fill="#B34725"/>
<path d="M21.735 59.857L37.798 89.309L45.998 86.439L29.249 55.695L21.735 59.857Z" fill="#ED7465"/>
<path d="M37.793 89.31L37.993 89.673C38.5581 90.6385 39.4774 91.3457 40.5555 91.6445C41.6336 91.9433 42.7858 91.8102 43.7673 91.2733C44.7489 90.7365 45.4825 89.8382 45.8126 88.7693C46.1426 87.7003 46.043 86.5448 45.535 85.548L45.314 85.148L37.793 89.31Z" fill="#ED7465"/>
<path d="M21.728 59.849L20.766 49.595L29.247 55.683C28.4636 56.9707 27.3582 58.0321 26.0397 58.7626C24.7212 59.4932 23.2352 59.8676 21.728 59.849Z" fill="#ED7465"/>
<path d="M20.968 52.359L20.714 49.552L23.061 51.232L20.968 52.359Z" fill="#172D59"/>
<path d="M25.557 79.249L28.098 83.474C27.678 82.289 33.035 81.164 33.035 81.164C33.2051 77.6959 33.1225 74.2201 32.788 70.764C32.225 67.104 31.266 63.073 30.71 62.841C28.51 61.923 26.985 64.878 27.135 68.834C27.261 72.146 25.273 78.088 25.558 79.245" fill="#F7C19B"/>
<path d="M24.4939 82.101C24.4468 82.1005 24.4006 82.0883 24.3594 82.0655C24.3182 82.0426 24.2833 82.0099 24.258 81.9701C24.2327 81.9304 24.2177 81.885 24.2143 81.838C24.211 81.791 24.2195 81.7439 24.2389 81.701C25.6623 78.0508 26.6215 74.2363 27.0939 70.347C27.0945 70.2723 27.1245 70.2008 27.1775 70.1482C27.2306 70.0955 27.3022 70.066 27.3769 70.066C27.4141 70.0664 27.4508 70.0741 27.485 70.0887C27.5192 70.1033 27.5502 70.1244 27.5762 70.151C27.6022 70.1776 27.6227 70.209 27.6366 70.2435C27.6504 70.278 27.6573 70.3148 27.6569 70.352C27.1888 74.3243 26.2107 78.2197 24.7469 81.942C24.7239 81.9903 24.6876 82.031 24.6423 82.0595C24.5969 82.088 24.5445 82.1031 24.4909 82.103" fill="#B34725"/>
<path d="M35.169 71.11L44.269 87.542C44.4277 87.8159 44.6875 88.0166 44.9926 88.101C45.2977 88.1854 45.6237 88.1468 45.9006 87.9934C46.1775 87.8401 46.3833 87.5843 46.4736 87.2809C46.564 86.9776 46.5318 86.6509 46.384 86.371L37.284 69.939C37.2089 69.7969 37.1062 69.6711 36.9819 69.5691C36.8576 69.4671 36.7143 69.391 36.5602 69.3451C36.4061 69.2992 36.2444 69.2845 36.0846 69.3018C35.9248 69.3191 35.77 69.3681 35.6294 69.446C35.4887 69.5239 35.365 69.6291 35.2655 69.7553C35.166 69.8816 35.0926 70.0264 35.0498 70.1813C35.0069 70.3363 34.9954 70.4982 35.0158 70.6577C35.0363 70.8171 35.0884 70.9709 35.169 71.11Z" fill="#172D59"/>
<path d="M24.507 59.132C24.4456 59.132 24.3858 59.112 24.3367 59.075C24.2876 59.038 24.2519 58.9861 24.235 58.927C24.218 58.8679 24.2208 58.805 24.2428 58.7476C24.2648 58.6902 24.3049 58.6416 24.357 58.609L28.857 55.798C28.8886 55.7783 28.9236 55.765 28.9603 55.7589C28.997 55.7527 29.0345 55.7539 29.0707 55.7622C29.1069 55.7706 29.1411 55.786 29.1714 55.8076C29.2016 55.8291 29.2273 55.8565 29.247 55.888C29.2667 55.9195 29.28 55.9546 29.2862 55.9913C29.2923 56.0279 29.2912 56.0654 29.2828 56.1016C29.2745 56.1379 29.259 56.1721 29.2375 56.2023C29.2159 56.2326 29.1886 56.2583 29.157 56.278L24.657 59.089C24.6121 59.1171 24.5601 59.132 24.507 59.132Z" fill="#1F2640"/>
<path d="M38.171 90.251C38.1087 90.2511 38.0481 90.2306 37.9986 90.1927C37.9492 90.1548 37.9136 90.1017 37.8974 90.0415C37.8812 89.9813 37.8854 89.9175 37.9092 89.8599C37.933 89.8023 37.9751 89.7542 38.029 89.723L44.203 86.154C44.268 86.1164 44.3453 86.1061 44.4179 86.1254C44.4904 86.1447 44.5524 86.192 44.59 86.257C44.6277 86.322 44.638 86.3993 44.6187 86.4718C44.5994 86.5444 44.552 86.6064 44.487 86.644L38.312 90.213C38.2692 90.2378 38.2206 90.2509 38.171 90.251Z" fill="#1F2640"/>
</g>
</svg>
