<svg width="93" height="93" viewBox="0 0 93 93" fill="none" xmlns="http://www.w3.org/2000/svg">
<mask id="mask0_1_1021" style="mask-type:luminance" maskUnits="userSpaceOnUse" x="0" y="0" width="93" height="93">
<path d="M92.191 0H0V93H92.191V0Z" fill="white"/>
</mask>
<g mask="url(#mask0_1_1021)">
<path fill-rule="evenodd" clip-rule="evenodd" d="M82.65 62.323C82.612 61.9717 82.4388 61.6489 82.167 61.423L82.133 61.398C81.8456 61.1767 81.4835 61.0756 81.123 61.116C80.7798 61.1525 80.4642 61.321 80.243 61.586L80.218 61.618L70.595 74.012C70.5576 74.0669 70.5154 74.1184 70.469 74.166C70.2593 74.3806 69.973 74.5031 69.673 74.5067C69.373 74.5102 69.0838 74.3945 68.869 74.185L63.288 68.738C63.0241 68.498 62.6774 68.3698 62.3208 68.3804C61.9643 68.391 61.6257 68.5395 61.3765 68.7947C61.1273 69.0499 60.9868 69.3918 60.9846 69.7485C60.9825 70.1052 61.1189 70.4488 61.365 70.707L68.817 77.98C68.9499 78.1136 69.1094 78.2178 69.285 78.286C69.4654 78.3535 69.6577 78.3835 69.85 78.374H69.94C70.1608 78.3809 70.3802 78.3368 70.581 78.245C70.768 78.1585 70.9315 78.0286 71.058 77.866L82.358 63.353C82.5866 63.0605 82.6911 62.6899 82.649 62.321L82.65 62.323Z" fill="#ED7465"/>
<path fill-rule="evenodd" clip-rule="evenodd" d="M49.147 65.784C49.096 61.626 49.847 55.755 51.461 51.93L51.854 50.991L60.716 47.968C60.1117 45.9013 58.8619 44.0821 57.1496 42.7766C55.4372 41.471 53.352 40.7476 51.199 40.712L9.49903 41.219C6.9518 41.2565 4.52292 42.3005 2.74306 44.1231C0.963192 45.9457 -0.0229719 48.3987 2.72254e-05 50.946L0.381027 82.298C0.418183 84.8456 1.46226 87.2749 3.2851 89.055C5.10793 90.8351 7.56129 91.8213 10.109 91.798L51.809 91.291C53.2046 91.2732 54.5795 90.9507 55.8375 90.3462C57.0954 89.7416 58.2062 88.8696 59.092 87.791C56.0218 84.9967 53.5555 81.6041 51.8446 77.8217C50.1337 74.0392 49.2143 69.9468 49.143 65.796M24.186 76.716L27.404 68.116L27.55 67.725C26.3349 67.0419 25.3792 65.977 24.8309 64.6954C24.2827 63.4138 24.1726 61.9872 24.5177 60.6366C24.8628 59.2861 25.6439 58.0871 26.7398 57.2257C27.8357 56.3643 29.1852 55.8884 30.579 55.872C31.9721 55.8549 33.3319 56.2977 34.4478 57.1316C35.5638 57.9656 36.3736 59.1443 36.7518 60.4851C37.1301 61.8259 37.0557 63.254 36.5401 64.5482C36.0245 65.8425 35.0966 66.9306 33.9 67.644L34.055 68.032L37.481 76.555L24.186 76.716Z" fill="#1088C4"/>
<path fill-rule="evenodd" clip-rule="evenodd" d="M29.9 2.44274e-05C36.1028 -0.0572178 42.0763 2.34265 46.5155 6.67539C50.9546 11.0081 53.4987 16.9216 53.592 23.124L53.782 38.724C52.9252 38.5292 52.0486 38.4353 51.17 38.444L46.727 38.498L46.541 23.185C46.4759 18.8576 44.7009 14.7319 41.6036 11.709C38.5064 8.68614 34.3387 7.0119 30.011 7.05202H29.961C25.6336 7.1171 21.5078 8.89214 18.485 11.9894C15.4621 15.0866 13.7879 19.2543 13.828 23.582L14.015 38.9L9.46798 38.955C8.62635 38.9658 7.78828 39.0664 6.96798 39.255L6.77298 23.693C6.71548 17.4895 9.11564 11.5153 13.4491 7.07585C17.7825 2.63639 23.6969 0.0925061 29.9 2.44274e-05Z" fill="#ED7465"/>
<path fill-rule="evenodd" clip-rule="evenodd" d="M89.738 52.368L71.826 46.568L53.545 52.805C52.0772 56.9622 51.3538 61.3456 51.408 65.754C51.56 78.269 60.142 88.854 72.133 92.997C84.014 88.569 92.342 77.773 92.19 65.258C92.137 60.8497 91.3073 56.4852 89.739 52.365M84.139 64.736L72.839 79.249C72.4899 79.6968 72.0387 80.0544 71.523 80.292C70.8178 80.6011 70.0385 80.7006 69.2783 80.5786C68.5181 80.4566 67.809 80.1182 67.236 79.604L59.783 72.331C59.0924 71.6571 58.6977 70.7364 58.6859 69.7715C58.6741 68.8067 59.0461 67.8766 59.72 67.186C60.3939 66.4954 61.3146 66.1007 62.2794 66.0889C63.2443 66.0771 64.1744 66.4491 64.865 67.123L69.541 71.687L78.429 60.233L78.484 60.165C79.0789 59.4375 79.9358 58.9728 80.87 58.871C81.8135 58.7638 82.7615 59.0294 83.512 59.611L83.58 59.666C84.3135 60.2637 84.7829 61.1256 84.887 62.066C84.9972 63.0204 84.7282 63.9799 84.138 64.738" fill="#133C58"/>
</g>
</svg>
