<svg width="112" height="92" viewBox="0 0 112 92" fill="none" xmlns="http://www.w3.org/2000/svg">
<mask id="mask0_1_1030" style="mask-type:luminance" maskUnits="userSpaceOnUse" x="0" y="0" width="112" height="92">
<path d="M111.652 0H0V91.461H111.652V0Z" fill="white"/>
</mask>
<g mask="url(#mask0_1_1030)">
<path d="M74.863 55.087H3.882C2.85214 55.0857 1.86491 54.6757 1.13706 53.9471C0.409217 53.2185 0.000264097 52.2308 0 51.201L0 3.88198C0.00158751 2.85299 0.411124 1.86661 1.13883 1.1391C1.86653 0.411582 2.85301 0.00229897 3.882 0.000976563L74.862 0.000976562C75.8912 0.00229957 76.8778 0.41172 77.6055 1.13945C78.3333 1.86718 78.7427 2.85381 78.744 3.88298V51.201C78.7427 52.2301 78.3333 53.2168 77.6055 53.9445C76.8778 54.6722 75.8912 55.0817 74.862 55.083M3.882 0.790977C3.06295 0.793351 2.27812 1.11977 1.69896 1.69893C1.11979 2.27809 0.793374 3.06292 0.791 3.88198V51.201C0.790211 51.6075 0.869559 52.0103 1.02451 52.3862C1.17945 52.762 1.40696 53.1037 1.69403 53.3916C1.98109 53.6795 2.32209 53.908 2.69751 54.064C3.07294 54.2201 3.47544 54.3006 3.882 54.301H74.862C75.6828 54.2989 76.4692 53.9713 77.0489 53.3902C77.6285 52.809 77.954 52.0218 77.954 51.201V3.88198C77.9516 3.06292 77.6252 2.27809 77.046 1.69893C76.4669 1.11977 75.6821 0.793351 74.863 0.790977H3.882Z" fill="#080717"/>
<path d="M4.85205 5.833C4.52448 5.833 4.20427 5.73585 3.93192 5.55384C3.65957 5.37183 3.44731 5.11314 3.32201 4.81049C3.1967 4.50784 3.16396 4.17482 3.22794 3.85356C3.29192 3.5323 3.44973 3.23723 3.68143 3.00567C3.91313 2.77412 4.20829 2.61648 4.52959 2.55269C4.85089 2.48891 5.18389 2.52185 5.48646 2.64734C5.78904 2.77283 6.0476 2.98524 6.22945 3.2577C6.41129 3.53016 6.50824 3.85043 6.50805 4.178C6.50725 4.61686 6.33249 5.03751 6.02208 5.34773C5.71166 5.65796 5.29091 5.83247 4.85205 5.833ZM4.85205 3.312C4.68101 3.312 4.51381 3.3627 4.37158 3.45771C4.22935 3.55271 4.11849 3.68774 4.05299 3.84574C3.98749 4.00374 3.9703 4.17762 4.00359 4.34538C4.03689 4.51315 4.11917 4.66728 4.24005 4.78829C4.36092 4.9093 4.51495 4.99176 4.68268 5.02525C4.85041 5.05874 5.0243 5.04176 5.18237 4.97644C5.34045 4.91112 5.47561 4.80041 5.57078 4.65829C5.66595 4.51618 5.71685 4.34904 5.71705 4.178C5.71705 3.94849 5.62594 3.72837 5.46375 3.566C5.30156 3.40362 5.08155 3.31226 4.85205 3.312Z" fill="#080717"/>
<path d="M9.09399 5.833C8.76642 5.833 8.44621 5.73585 8.17386 5.55384C7.90151 5.37183 7.68926 5.11314 7.56395 4.81049C7.43864 4.50784 7.4059 4.17482 7.46988 3.85356C7.53386 3.5323 7.69168 3.23723 7.92337 3.00567C8.15507 2.77412 8.45023 2.61648 8.77153 2.55269C9.09283 2.48891 9.42583 2.52185 9.72841 2.64734C10.031 2.77283 10.2895 2.98524 10.4714 3.2577C10.6532 3.53016 10.7502 3.85043 10.75 4.178C10.7492 4.61686 10.5744 5.03751 10.264 5.34773C9.9536 5.65796 9.53285 5.83247 9.09399 5.833ZM9.09399 3.312C8.92295 3.312 8.75575 3.3627 8.61353 3.45771C8.4713 3.55271 8.36043 3.68774 8.29493 3.84574C8.22943 4.00374 8.21224 4.17762 8.24554 4.34538C8.27883 4.51315 8.36112 4.66728 8.48199 4.78829C8.60286 4.9093 8.7569 4.99176 8.92462 5.02525C9.09235 5.05874 9.26624 5.04176 9.42432 4.97644C9.58239 4.91112 9.71756 4.80041 9.81273 4.65829C9.90789 4.51618 9.95879 4.34904 9.95899 4.178C9.95872 3.94857 9.86754 3.72861 9.7054 3.56629C9.54327 3.40397 9.32341 3.31253 9.09399 3.312Z" fill="#080717"/>
<path d="M13.3361 5.833C13.0085 5.833 12.6883 5.73585 12.4159 5.55384C12.1436 5.37183 11.9313 5.11314 11.806 4.81049C11.6807 4.50784 11.648 4.17482 11.7119 3.85356C11.7759 3.5323 11.9337 3.23723 12.1654 3.00567C12.3971 2.77412 12.6923 2.61648 13.0136 2.55269C13.3349 2.48891 13.6679 2.52185 13.9705 2.64734C14.273 2.77283 14.5316 2.98524 14.7135 3.2577C14.8953 3.53016 14.9923 3.85043 14.9921 4.178C14.9913 4.61686 14.8165 5.03751 14.5061 5.34773C14.1957 5.65796 13.7749 5.83247 13.3361 5.833ZM13.3361 3.312C13.165 3.312 12.9978 3.3627 12.8556 3.45771C12.7134 3.55271 12.6025 3.68774 12.537 3.84574C12.4715 4.00374 12.4543 4.17762 12.4876 4.34538C12.5209 4.51315 12.6032 4.66728 12.7241 4.78829C12.8449 4.9093 12.999 4.99176 13.1667 5.02525C13.3344 5.05874 13.5083 5.04176 13.6664 4.97644C13.8245 4.91112 13.9596 4.80041 14.0548 4.65829C14.15 4.51618 14.2009 4.34904 14.2011 4.178C14.2008 3.94857 14.1096 3.72861 13.9475 3.56629C13.7853 3.40397 13.5655 3.31253 13.3361 3.312Z" fill="#080717"/>
<path d="M43.103 26.839L35.863 31.628L36.331 32.336C36.5349 32.6443 36.7975 32.9095 37.1038 33.1163C37.4102 33.3231 37.7543 33.4675 38.1165 33.5412C38.4787 33.615 38.8519 33.6166 39.2147 33.546C39.5775 33.4755 39.9229 33.3341 40.231 33.13L44.495 30.31L43.103 26.839Z" fill="#F68E6E"/>
<path d="M38.684 33.993C38.1527 33.9933 37.6297 33.862 37.1615 33.6109C36.6934 33.3598 36.2947 32.9967 36.001 32.5541L35.533 31.8461C35.4747 31.7577 35.4538 31.6498 35.475 31.5461C35.4853 31.4951 35.5057 31.4466 35.5349 31.4035C35.564 31.3605 35.6015 31.3236 35.645 31.2951L42.885 26.506C42.9342 26.4745 42.9897 26.4542 43.0476 26.4464C43.1055 26.4387 43.1644 26.4437 43.2201 26.4611C43.2759 26.4786 43.3272 26.508 43.3703 26.5474C43.4135 26.5868 43.4475 26.6351 43.47 26.689L44.86 30.16C44.893 30.2447 44.8962 30.338 44.8691 30.4247C44.842 30.5114 44.7863 30.5863 44.711 30.6371L40.447 33.4571C39.9242 33.8044 39.3106 33.9898 38.683 33.9901M36.41 31.7361L36.66 32.1141C37.0137 32.6488 37.5653 33.0211 38.1935 33.1492C38.8218 33.2772 39.4751 33.1506 40.01 32.797L44.01 30.1541L42.92 27.4331L36.41 31.7361Z" fill="#080717"/>
<path d="M44.93 47.138L40.6301 40.638C39.1011 38.3266 38.5529 35.5025 39.1061 32.787L41.194 22.52L34.1041 21.075C33.7114 20.9949 33.3383 20.8383 33.0061 20.6141C32.674 20.3898 32.3893 20.1023 32.1683 19.768C31.9472 19.4337 31.7943 19.0591 31.718 18.6657C31.6418 18.2722 31.6439 17.8676 31.724 17.475L31.9071 16.575L46.234 19.495L53.747 26.921L53.975 42.074L60.5751 52.0569L51.9521 57.757L44.93 47.138Z" fill="#F68E6E"/>
<path d="M41.706 25.105L33.2 23.37L33.031 24.202C32.8821 24.9329 33.0295 25.6931 33.441 26.3153C33.8524 26.9375 34.4941 27.3709 35.225 27.52L40.235 28.541L41.706 25.105Z" fill="#F68E6E"/>
<path d="M40.235 28.9369C40.2085 28.937 40.182 28.9343 40.156 28.9289L35.146 27.9079C34.3132 27.7365 33.5823 27.2417 33.1137 26.5322C32.645 25.8227 32.4768 24.9563 32.646 24.1229L32.816 23.2909C32.8382 23.189 32.8993 23.0997 32.9863 23.0421C33.0734 22.9846 33.1795 22.9634 33.282 22.9829L41.788 24.7169C41.8451 24.7294 41.8988 24.7541 41.9454 24.7896C41.9919 24.825 42.0301 24.8702 42.0572 24.9219C42.0844 24.9737 42.0999 25.0308 42.1026 25.0892C42.1054 25.1476 42.0952 25.2059 42.073 25.2599L40.595 28.6969C40.5641 28.7677 40.5134 28.828 40.449 28.8706C40.3846 28.9132 40.3092 28.9363 40.232 28.9369M33.505 23.8369L33.414 24.2809C33.2868 24.9092 33.4139 25.5622 33.7675 26.0968C34.121 26.6314 34.6721 27.0041 35.3 27.1329L39.994 28.0889L41.147 25.3939L33.505 23.8369Z" fill="#080717"/>
<path d="M42.33 26.505L33.715 27.579L33.815 28.421C33.9081 29.1613 34.2914 29.8343 34.8806 30.292C35.4698 30.7498 36.2166 30.9548 36.957 30.862L42.03 30.232L42.33 26.505Z" fill="#F68E6E"/>
<path d="M36.605 31.283C35.8238 31.2809 35.0702 30.9941 34.4854 30.4763C33.9005 29.9585 33.5246 29.2451 33.428 28.47L33.328 27.628C33.315 27.5251 33.3425 27.4212 33.4046 27.3382C33.4667 27.2552 33.5586 27.1995 33.661 27.183L42.275 26.113C42.3331 26.106 42.3921 26.1119 42.4478 26.1302C42.5034 26.1485 42.5544 26.1788 42.597 26.219C42.6396 26.2596 42.6726 26.3092 42.6936 26.3642C42.7145 26.4193 42.7229 26.4783 42.718 26.537L42.418 30.264C42.4099 30.3545 42.3712 30.4396 42.3083 30.5052C42.2455 30.5708 42.1621 30.6131 42.072 30.625L36.999 31.255C36.8663 31.2716 36.7327 31.28 36.599 31.28M34.15 27.92L34.206 28.37C34.2453 28.6852 34.3463 28.9895 34.5033 29.2657C34.6603 29.5418 34.8702 29.7844 35.1209 29.9794C35.3716 30.1744 35.6583 30.3181 35.9646 30.4023C36.2709 30.4864 36.5908 30.5095 36.906 30.47L41.661 29.883L41.895 26.961L34.15 27.92Z" fill="#080717"/>
<path d="M63.95 26.782L33.722 21.309L28.452 22.63L32.662 25.667L62.89 31.14L63.113 30.888C63.5773 30.3637 63.9025 29.7312 64.0587 29.0486C64.2149 28.3659 64.1971 27.655 64.007 26.981L63.95 26.782Z" fill="#ED7465"/>
<path d="M61.4311 31.392C61.4032 31.3921 61.3754 31.3894 61.3481 31.384C61.2469 31.3601 61.1591 31.2978 61.1031 31.2103C61.0471 31.1227 61.0274 31.0168 61.0481 30.915L61.9261 26.794C61.9293 26.7364 61.9449 26.6801 61.9719 26.629C61.9989 26.578 62.0367 26.5334 62.0826 26.4983C62.1284 26.4633 62.1814 26.4385 62.2377 26.4259C62.2941 26.4132 62.3525 26.4129 62.409 26.4249C62.4654 26.437 62.5186 26.4611 62.5649 26.4957C62.6112 26.5303 62.6494 26.5745 62.6769 26.6252C62.7045 26.676 62.7208 26.7321 62.7246 26.7897C62.7284 26.8473 62.7197 26.9051 62.6991 26.959L61.8211 31.08C61.8015 31.1681 61.7526 31.2469 61.6826 31.3037C61.6125 31.3605 61.5253 31.392 61.4351 31.393" fill="#080717"/>
<path d="M45.309 30.8189L38.478 20.4919L38.427 20.5309C37.641 21.136 37.0883 21.9942 36.8627 22.9602C36.6371 23.9261 36.7524 24.9403 37.189 25.8309L39.46 31.2309L45.309 30.8189Z" fill="#F68E6E"/>
<path d="M39.4611 31.629C39.3833 31.6285 39.3073 31.6054 39.2425 31.5624C39.1777 31.5194 39.1268 31.4584 39.0961 31.387L36.8251 25.987C36.3545 25.015 36.2331 23.9106 36.4811 22.8596C36.7292 21.8086 37.3316 20.875 38.1871 20.216L38.2381 20.177C38.2816 20.1447 38.3313 20.1217 38.3841 20.1092C38.4368 20.0968 38.4916 20.0952 38.545 20.1045C38.5984 20.1139 38.6493 20.134 38.6947 20.1636C38.7401 20.1933 38.779 20.2318 38.8091 20.277L45.6391 30.604C45.6799 30.6909 45.6881 30.7896 45.6622 30.8821C45.6363 30.9746 45.578 31.0547 45.4979 31.1077C45.4178 31.1607 45.3213 31.1831 45.2261 31.1709C45.1308 31.1587 45.0431 31.1125 44.9791 31.041L38.3921 21.076C37.7791 21.6487 37.366 22.403 37.2135 23.2279C37.061 24.0529 37.1772 24.905 37.5451 25.659L39.8221 31.076C39.8462 31.1361 39.8554 31.2012 39.8488 31.2657C39.8422 31.3302 39.8201 31.3921 39.7842 31.4461C39.7484 31.5001 39.7 31.5446 39.6432 31.5758C39.5864 31.6069 39.5229 31.6238 39.4581 31.625" fill="#080717"/>
<path d="M64.3121 83.5711L51.9561 57.7601L60.58 52.0601L95.8701 81.9931L64.3121 83.5711Z" fill="#1088C4"/>
<path d="M85.7361 29.436C85.7361 33.961 81.3081 37.629 75.8461 37.629C70.3841 37.629 65.9561 33.961 65.9561 29.436C65.9561 24.911 70.3841 21.244 75.8461 21.244C81.3081 21.244 85.7361 24.912 85.7361 29.436Z" fill="#373737"/>
<path d="M92.3979 83.2321L72.8979 75.4831L72.45 55.8721L90.6559 55.4561L92.3979 83.2321Z" fill="#F68E6E"/>
<path d="M92.3979 83.624C92.3479 83.6239 92.2984 83.6144 92.2519 83.596L72.7519 75.847C72.6801 75.8178 72.6183 75.7683 72.5741 75.7045C72.5299 75.6408 72.5052 75.5656 72.5029 75.488L72.0549 55.877C72.0549 55.7733 72.0951 55.6737 72.1671 55.599C72.2391 55.5244 72.3373 55.4807 72.4409 55.477L90.6469 55.061C90.7482 55.0608 90.8458 55.0989 90.92 55.1678C90.9942 55.2366 91.0396 55.3311 91.0469 55.432L92.7919 83.208C92.7946 83.2618 92.7864 83.3156 92.7679 83.3661C92.7493 83.4166 92.7207 83.4629 92.6838 83.5021C92.6469 83.5413 92.6025 83.5727 92.5532 83.5943C92.5039 83.616 92.4508 83.6274 92.3969 83.628M73.2839 75.213L91.9639 82.635L90.2819 55.861L72.8509 56.261L73.2839 75.213Z" fill="#080717"/>
<path d="M86.179 62.622C90.5552 61.2172 94.2208 58.1782 96.412 54.138C98.6455 50.1316 99.215 45.4079 97.9977 40.9855C96.7805 36.5631 93.874 32.7962 89.905 30.497C76.52 22.769 67.812 33.77 66.856 36.478C66.632 37.1126 66.4123 37.726 66.197 38.318C65.7252 39.2522 65.3351 40.2255 65.031 41.227C64.104 43.26 63.08 44.719 61.663 45.204C59.493 45.946 60.668 62.767 73.246 61.531L86.179 62.622Z" fill="#F68E6E"/>
<path d="M86.1789 63.017C86.088 63.0113 86.0017 62.9747 85.9344 62.9133C85.867 62.8518 85.8227 62.7693 85.8087 62.6792C85.7947 62.5892 85.8119 62.497 85.8574 62.4181C85.9029 62.3391 85.974 62.278 86.0589 62.245C90.3411 60.8745 93.9268 57.9001 96.0649 53.945C98.2615 50.0319 98.8258 45.4104 97.6355 41.0838C96.4451 36.7571 93.596 33.0747 89.7069 30.836C84.8659 28.036 80.1879 27.445 75.8069 29.064C74.0649 29.707 68.5719 32.813 67.2319 36.606C67.0069 37.242 66.7889 37.856 66.5719 38.45C66.5664 38.4643 66.5601 38.4784 66.5529 38.492C66.092 39.4062 65.7106 40.3584 65.4129 41.338C65.4078 41.3547 65.4014 41.3711 65.3939 41.387C64.2939 43.809 63.1789 45.101 61.7939 45.574C61.3079 45.74 60.8389 48.174 61.5579 51.484C62.0959 53.963 64.5269 61.99 73.2109 61.134C73.3064 61.139 73.397 61.1781 73.4662 61.2441C73.5353 61.3102 73.5786 61.3988 73.588 61.494C73.5974 61.5892 73.5724 61.6846 73.5176 61.7629C73.4627 61.8412 73.3816 61.8973 73.2889 61.921C71.6913 62.1451 70.0634 61.9924 68.5354 61.4749C67.0074 60.9575 65.6216 60.0897 64.4889 58.941C62.6035 56.9018 61.3225 54.3785 60.7889 51.653C60.1509 48.712 60.2569 45.267 61.5419 44.827C62.6989 44.427 63.6639 43.276 64.6669 41.084C64.9744 40.0772 65.3668 39.0983 65.8399 38.158C66.0533 37.5733 66.2696 36.9683 66.4889 36.343C67.1519 34.467 70.4889 30.188 75.5359 28.323C80.1519 26.623 85.0559 27.234 90.1099 30.152C94.1788 32.4938 97.1596 36.3463 98.4051 40.8727C99.6505 45.3992 99.0601 50.2343 96.7619 54.328C94.5255 58.46 90.7778 61.567 86.3029 62.999C86.2641 63.0114 86.2237 63.0178 86.1829 63.018" fill="#080717"/>
<path d="M92.954 27.5529C90.3051 26.1191 87.3433 25.3609 84.3312 25.3453C81.3191 25.3298 78.3497 26.0575 75.686 27.4639C77.3663 27.8605 78.986 28.48 80.502 29.3059C90.988 35.0449 94.253 49.2659 87.793 61.0679C87.434 61.7239 87.05 62.3549 86.648 62.9679C89.4608 62.4338 92.1194 61.2802 94.431 59.5908C96.7425 57.9015 98.649 55.7187 100.012 53.2009C105.078 43.9439 101.918 32.4619 92.953 27.5549" fill="#080717"/>
<path d="M74.4951 26.268C74.4951 26.268 75.9631 31.257 80.1321 33.676C82.3321 34.955 78.1101 34.554 78.4321 37.176C80.8621 56.819 82.4321 60.534 82.4321 60.534C82.6113 61.3555 83.0487 62.0981 83.6802 62.6532C84.3118 63.2083 85.1044 63.5467 85.9421 63.619L91.1221 64.065L92.7491 59.312L95.3911 38.832C95.3911 38.832 84.7631 23.497 74.4971 26.268" fill="#373737"/>
<path d="M86.732 45.475C86.215 44.9308 85.5577 44.5401 84.8326 44.3459C84.1074 44.1518 83.3428 44.1619 82.623 44.375C83.8912 46.8317 84.2401 49.6607 83.607 52.352C84.4175 52.3858 85.2197 52.1769 85.9107 51.7521C86.6017 51.3273 87.1502 50.7058 87.4859 49.9673C87.8216 49.2289 87.9291 48.407 87.7948 47.607C87.6605 46.807 87.2905 46.0653 86.732 45.477" fill="#F68E6E"/>
<path d="M79.0929 35.415C79.0929 35.415 72.0079 40.581 72.8929 44.271C73.7779 47.961 80.2739 48.7 79.5359 55.047C78.7979 61.394 77.7429 64.508 70.0539 64.903C59.7969 65.429 56.0659 74.827 56.0659 80.584C56.0659 86.341 82.3409 72.17 82.3409 72.17C82.3409 72.17 91.3409 62.87 79.0939 35.415" fill="#373737"/>
<path d="M44.532 91.461C47.48 79.889 66.043 72.7169 72.732 71.9989L101.771 70.9659L111.657 91.4659L44.532 91.461Z" fill="#1088C4"/>
<path d="M84.2589 24.7871C89.1299 22.2781 106.253 27.4441 104.334 44.8621C103.379 53.5231 101.382 66.562 104.034 70.9891C106.686 75.4161 113.629 80.1411 110.234 83.6841C106.839 87.2271 88.2399 89.293 85.7339 86.636C83.2279 83.979 74.8119 75.2691 84.4069 59.1801C94.0019 43.0911 84.1119 35.1201 83.0789 34.5291C82.0459 33.9381 77.1139 28.4681 84.2589 24.7871Z" fill="#373737"/>
<path d="M16.4981 28.0769H12.4471C11.4148 28.0769 10.4249 27.6669 9.69499 26.937C8.9651 26.2071 8.55505 25.2172 8.55505 24.1849V20.1339C8.55505 19.1017 8.9651 18.1118 9.69499 17.3819C10.4249 16.652 11.4148 16.2419 12.4471 16.2419H16.4981C17.5303 16.2419 18.5202 16.652 19.2501 17.3819C19.98 18.1118 20.3901 19.1017 20.3901 20.1339V24.1849C20.3901 25.2172 19.98 26.2071 19.2501 26.937C18.5202 27.6669 17.5303 28.0769 16.4981 28.0769Z" fill="white"/>
<path d="M16.498 28.474H12.448C11.3112 28.4727 10.2213 28.0205 9.41742 27.2167C8.61355 26.4128 8.16136 25.3229 8.16003 24.186V20.135C8.16136 18.9982 8.61355 17.9083 9.41742 17.1044C10.2213 16.3006 11.3112 15.8484 12.448 15.847H16.499C17.6359 15.8484 18.7258 16.3006 19.5296 17.1044C20.3335 17.9083 20.7857 18.9982 20.787 20.135V24.186C20.7857 25.3231 20.3334 26.4131 19.5293 27.217C18.7252 28.0209 17.635 28.473 16.498 28.474ZM12.448 16.638C11.5198 16.638 10.6295 17.0068 9.97316 17.6632C9.31678 18.3195 8.94803 19.2098 8.94803 20.138V24.189C8.94803 25.1173 9.31678 26.0075 9.97316 26.6639C10.6295 27.3203 11.5198 27.689 12.448 27.689H16.499C17.4273 27.689 18.3175 27.3203 18.9739 26.6639C19.6303 26.0075 19.999 25.1173 19.999 24.189V20.135C19.999 19.2068 19.6303 18.3165 18.9739 17.6602C18.3175 17.0038 17.4273 16.635 16.499 16.635L12.448 16.638Z" fill="#080717"/>
<path d="M13.946 25.252C13.6836 25.2522 13.4318 25.1483 13.246 24.963L11.007 22.727C10.9151 22.6351 10.8421 22.5259 10.7924 22.4058C10.7426 22.2857 10.717 22.157 10.717 22.027C10.717 21.897 10.7426 21.7683 10.7924 21.6482C10.8421 21.5281 10.9151 21.4189 11.007 21.327C11.0989 21.2351 11.208 21.1622 11.3282 21.1124C11.4483 21.0627 11.577 21.037 11.707 21.037C11.837 21.037 11.9657 21.0627 12.0858 21.1124C12.2059 21.1622 12.3151 21.2351 12.407 21.327L13.944 22.864L23.239 13.564C23.4246 13.3783 23.6764 13.274 23.939 13.274C24.2015 13.274 24.4533 13.3783 24.639 13.564C24.8246 13.7497 24.9289 14.0014 24.9289 14.264C24.9289 14.5266 24.8246 14.7783 24.639 14.964L14.645 24.958C14.4592 25.1433 14.2074 25.2472 13.945 25.247" fill="#ED7465"/>
<path d="M16.4981 43.857H12.4471C11.4148 43.857 10.4249 43.4469 9.69499 42.717C8.9651 41.9871 8.55505 40.9972 8.55505 39.965V35.914C8.55505 34.8818 8.9651 33.8918 9.69499 33.1619C10.4249 32.432 11.4148 32.022 12.4471 32.022H16.4981C17.5303 32.022 18.5202 32.432 19.2501 33.1619C19.98 33.8918 20.3901 34.8818 20.3901 35.914V39.965C20.3901 40.9972 19.98 41.9871 19.2501 42.717C18.5202 43.4469 17.5303 43.857 16.4981 43.857Z" fill="white"/>
<path d="M16.498 44.25H12.448C11.3112 44.2486 10.2213 43.7964 9.41742 42.9926C8.61355 42.1887 8.16136 41.0988 8.16003 39.962V35.915C8.16136 34.7781 8.61355 33.6882 9.41742 32.8843C10.2213 32.0805 11.3112 31.6283 12.448 31.627H16.499C17.6359 31.6283 18.7258 32.0805 19.5296 32.8843C20.3335 33.6882 20.7857 34.7781 20.787 35.915V39.966C20.7847 41.1023 20.3319 42.1913 19.5279 42.9943C18.7239 43.7974 17.6344 44.2489 16.498 44.25ZM12.448 32.418C11.5198 32.418 10.6295 32.7867 9.97316 33.4431C9.31678 34.0995 8.94803 34.9897 8.94803 35.918V39.969C8.94803 40.8972 9.31678 41.7875 9.97316 42.4438C10.6295 43.1002 11.5198 43.469 12.448 43.469H16.499C17.4273 43.469 18.3175 43.1002 18.9739 42.4438C19.6303 41.7875 19.999 40.8972 19.999 39.969V35.915C19.999 34.9867 19.6303 34.0965 18.9739 33.4401C18.3175 32.7837 17.4273 32.415 16.499 32.415L12.448 32.418Z" fill="#080717"/>
<path d="M13.946 41.032C13.816 41.0324 13.6873 41.007 13.5671 40.9574C13.447 40.9078 13.3379 40.835 13.246 40.743L11.007 38.507C10.8213 38.3214 10.717 38.0696 10.717 37.807C10.717 37.5445 10.8213 37.2927 11.007 37.107C11.1926 36.9214 11.4444 36.8171 11.707 36.8171C11.9695 36.8171 12.2213 36.9214 12.407 37.107L13.944 38.644L23.239 29.349C23.4246 29.1634 23.6764 29.0591 23.939 29.0591C24.2015 29.0591 24.4533 29.1634 24.639 29.349C24.8246 29.5347 24.9289 29.7865 24.9289 30.049C24.9289 30.3116 24.8246 30.5634 24.639 30.749L14.645 40.743C14.5531 40.835 14.444 40.9078 14.3238 40.9574C14.2037 41.007 14.075 41.0324 13.945 41.032" fill="#ED7465"/>
</g>
</svg>
