<svg width="63" height="83" viewBox="0 0 63 83" fill="none" xmlns="http://www.w3.org/2000/svg">
<mask id="mask0_1_14" style="mask-type:luminance" maskUnits="userSpaceOnUse" x="0" y="0" width="63" height="83">
<path d="M62.535 0H0V82.341H62.535V0Z" fill="white"/>
</mask>
<g mask="url(#mask0_1_14)">
<path d="M2.10495 27.3921C7.54195 30.8501 21.477 30.8481 26.932 27.3921C33.1259 23.8461 24.098 19.9331 14.519 19.9031C4.91895 19.9331 -4.12205 23.8581 2.10495 27.3921Z" fill="#ED7465"/>
<path d="M34.454 10.371C38.1099 12.6876 42.3844 13.8362 46.709 13.664C52.252 13.596 60.46 11.954 61.228 6.824C61.228 3.594 55.259 0 46.709 0C36.756 0 27.924 5.323 34.454 10.371Z" fill="#ED7465"/>
<path d="M34.454 29.5461C39.774 33.8811 53.63 33.8801 58.949 29.5621C59.5739 29.1834 60.1042 28.6671 60.4993 28.0524C60.8944 27.4377 61.144 26.7409 61.229 26.0151V22.1831C59.7792 23.3165 58.1533 24.2043 56.416 24.8111C48.764 27.5051 38.454 26.9811 32.19 22.1831C32.215 22.9831 32.146 25.2581 32.19 26.0151C32.2737 26.7372 32.5212 27.4306 32.9135 28.0425C33.3059 28.6544 33.8327 29.1687 34.454 29.5461Z" fill="#ED7465"/>
<path d="M2.122 34.9611C7.501 38.4161 21.515 38.4211 26.902 34.9611C28.248 34.1691 29.024 33.2831 29.024 32.5231V29.8151C25.503 32.0621 20.33 33.1451 14.524 33.1881C8.682 33.1381 3.513 32.0701 0 29.7991V32.5221C0 33.2821 0.776 34.1701 2.122 34.9611Z" fill="#E6E6E7"/>
<path d="M2.106 42.5449C7.477 45.9949 21.539 46.0089 26.906 42.5449C28.268 41.7529 29.028 40.8819 29.028 40.1069V37.3669C28.87 37.4779 28.695 37.5729 28.521 37.6839C21.928 41.7859 6.438 41.7879 0 37.3669V40.1059C0 40.8819 0.776 41.7539 2.106 42.5449Z" fill="#ED7465"/>
<path d="M2.106 50.1289C6.745 53.0679 17.547 53.5289 23.406 51.5699C24.8452 49.0513 26.7596 46.836 29.043 45.0469C24.5655 47.3708 19.5659 48.5048 14.524 48.3399C8.555 48.2979 3.542 47.2369 0 44.9509V47.7059C0 48.4659 0.776 49.3529 2.106 50.1289Z" fill="#E6E6E7"/>
<path d="M2.09 57.6979C5.94764 59.6033 10.2195 60.5168 14.519 60.3559C16.5467 60.3663 18.5712 60.1913 20.567 59.8329C20.7693 58.2755 21.1464 56.7459 21.691 55.2729C15.281 56.6759 0.158 52.6469 0 52.5359V55.2909C0 56.0349 0.76 56.9219 2.09 57.6979Z" fill="#ED7465"/>
<path d="M2.106 65.2981C6.159 67.8311 15.159 68.5581 20.837 67.3561C20.5411 65.9501 20.3874 64.5179 20.378 63.0811C13.831 64.1811 4.578 63.2651 0 60.1201V62.8591C0 63.6191 0.744 64.4751 2.106 65.2981Z" fill="#E6E6E7"/>
<path d="M14.519 71.0921C8.682 71.0441 3.513 69.9601 0 67.7041V70.4441C0 72.5181 5.653 75.5111 14.519 75.5111C17.5477 75.5439 20.5655 75.1439 23.481 74.3231C22.7525 73.0818 22.1479 71.7718 21.676 70.4121C19.3179 70.8698 16.9211 71.0968 14.519 71.0921Z" fill="#ED7465"/>
<path d="M34.4699 19.95C39.7769 24.28 53.6409 24.282 58.9489 19.95C59.5721 19.5693 60.101 19.0524 60.4959 18.4381C60.8908 17.8238 61.1414 17.128 61.2289 16.403V12.619C61.1179 12.719 61.0069 12.809 60.8959 12.888C54.2439 18.118 38.6659 18.153 32.1899 12.603V16.403C32.2775 17.128 32.5281 17.8238 32.923 18.4381C33.3179 19.0524 33.8468 19.5693 34.4699 19.95Z" fill="#E6E6E7"/>
<path d="M55.877 44.223C57.3874 45.2648 58.7644 46.4879 59.977 47.865C60.7178 47.1769 61.1657 46.2302 61.228 45.221V41.405C59.6283 42.6591 57.8162 43.6138 55.877 44.223Z" fill="#ED7465"/>
<path d="M61.2289 31.7939C54.8529 37.3099 39.0869 37.3309 32.5539 32.0789C32.4269 31.9789 32.3009 31.8889 32.1899 31.7939V35.6259C32.2733 36.3362 32.5141 37.0189 32.8947 37.6244C33.2752 38.2299 33.7861 38.7428 34.3899 39.1259C35.3952 39.8478 36.4853 40.4433 37.6359 40.8989C39.3933 40.438 41.2032 40.2077 43.0199 40.2139C46.0131 40.2058 48.9763 40.8092 51.7279 41.9869C55.6279 41.1969 60.7389 39.5719 61.2279 35.6219L61.2289 31.7939Z" fill="#E6E6E7"/>
<path d="M41.4721 72.3589V72.3269C41.4611 72.3369 41.4441 72.3519 41.4721 72.3589Z" fill="#ED7465"/>
<path d="M61.3869 56.3199C60.4468 53.6891 58.9518 51.2912 57.0034 49.2889C55.055 47.2867 52.6988 45.7268 50.0946 44.7153C47.4904 43.7037 44.6991 43.264 41.91 43.4261C39.1209 43.5882 36.3993 44.3482 33.9298 45.6546C31.4603 46.961 29.3006 48.7833 27.5972 50.9977C25.8939 53.2122 24.6867 55.7671 24.0576 58.4891C23.4285 61.2112 23.3922 64.0367 23.9511 66.774C24.51 69.5113 25.6511 72.0964 27.2969 74.3539C40.8569 92.1699 68.4859 77.5439 61.3869 56.3199ZM50.5249 57.5699C50.5249 57.9899 50.3581 58.3927 50.0611 58.6896C49.7642 58.9866 49.3614 59.1534 48.9414 59.1534C48.5215 59.1534 48.1187 58.9866 47.8217 58.6896C47.5248 58.3927 47.3579 57.9899 47.3579 57.5699C47.4786 56.5085 47.1837 55.4416 46.5349 54.5929C46.0382 53.9939 45.3601 53.5727 44.6029 53.3929V61.9849C45.8573 62.1717 47.0359 62.7006 48.0093 63.5135C48.9827 64.3264 49.7132 65.3918 50.1207 66.5928C50.5281 67.7937 50.5967 69.0837 50.3189 70.3211C50.0411 71.5585 49.4277 72.6954 48.5459 73.6069C47.487 74.6823 46.0993 75.3732 44.6029 75.5699V78.4549C44.6029 78.8749 44.4361 79.2777 44.1391 79.5746C43.8422 79.8716 43.4394 80.0384 43.0194 80.0384C42.5995 80.0384 42.1967 79.8716 41.8997 79.5746C41.6028 79.2777 41.4359 78.8749 41.4359 78.4549V75.5729C40.4097 75.4306 39.4292 75.0575 38.568 74.4816C37.7068 73.9057 36.9874 73.142 36.4639 72.2479C35.7931 71.0747 35.4692 69.735 35.5299 68.3849C35.5299 67.965 35.6968 67.5622 35.9937 67.2652C36.2907 66.9683 36.6935 66.8014 37.1134 66.8014C37.5334 66.8014 37.9362 66.9683 38.2331 67.2652C38.5301 67.5622 38.6969 67.965 38.6969 68.3849C38.6421 69.1658 38.8125 69.946 39.1879 70.6329C39.6878 71.4723 40.4936 72.0853 41.4359 72.3429V65.0279C39.58 64.7377 37.9153 63.7224 36.8078 62.2052C35.7003 60.6879 35.2407 58.793 35.5299 56.9369C35.5299 55.2845 36.1279 53.6879 37.2136 52.4422C38.2992 51.1965 39.799 50.3858 41.4359 50.1599V47.2599C41.4359 46.8399 41.6028 46.4372 41.8997 46.1402C42.1967 45.8433 42.5995 45.6764 43.0194 45.6764C43.4394 45.6764 43.8422 45.8433 44.1391 46.1402C44.4361 46.4372 44.6029 46.8399 44.6029 47.2599V50.1599C46.3482 50.4084 47.9328 51.3135 49.0333 52.6906C50.1339 54.0677 50.6674 55.8129 50.5249 57.5699Z" fill="#ED7465"/>
<path d="M44.603 72.359C45.3868 72.146 46.0788 71.681 46.5721 71.0357C47.0654 70.3904 47.3327 69.6008 47.3327 68.7885C47.3327 67.9763 47.0654 67.1866 46.5721 66.5413C46.0788 65.896 45.3868 65.431 44.603 65.218V72.359Z" fill="#ED7465"/>
<path d="M38.697 56.9381V58.2521C38.6985 59.0626 38.9679 59.8499 39.4633 60.4914C39.9587 61.1329 40.6522 61.5927 41.436 61.7991V53.3911C40.647 53.588 39.9474 54.0452 39.4503 54.6888C38.9533 55.3325 38.6879 56.1249 38.697 56.9381Z" fill="#ED7465"/>
</g>
</svg>
