<svg width="79" height="82" viewBox="0 0 79 82" fill="none" xmlns="http://www.w3.org/2000/svg">
<path d="M75.2988 56.7184C69.7887 48.5747 60.1208 45.5589 53.7126 49.9762C51.6133 51.4226 50.1205 53.4901 49.2611 55.8994L46.5225 51.8544L63.5766 26.6578C66.6307 22.142 68.7507 17.134 69.866 11.9548C70.567 8.68202 70.8689 5.34472 70.751 2.02377C70.679 0.000783658 68.0862 -0.753297 66.9546 0.918301L39.4983 41.4784L37.3036 38.2346C36.5662 37.9886 35.8315 37.7425 35.0941 37.4937C30.0802 35.8103 24.9358 34.0851 19.6367 32.8848L32.4773 51.8548L29.7387 55.8999C28.8793 53.4906 27.3865 51.4231 25.2872 49.9767C18.879 45.5598 9.21115 48.5752 3.70099 56.7189C-1.81231 64.8594 -1.08075 75.0438 5.32745 79.4607C11.7356 83.8776 21.4035 80.8622 26.9137 72.7185C27.2763 72.1846 27.6155 71.6384 27.9219 71.0859L39.5015 53.9854L51.0783 71.0859C51.3847 71.638 51.7235 72.1841 52.0835 72.7185C57.5968 80.8622 67.2615 83.8781 73.6728 79.4607C80.081 75.0438 80.8126 64.8594 75.2993 56.7189L75.2988 56.7184ZM22.7978 69.8792C22.6552 70.0894 22.5125 70.2901 22.3605 70.4885C18.7472 75.2804 12.8384 76.9669 8.86876 74.2303C4.7322 71.3797 4.26249 64.8081 7.81595 59.5573C11.3726 54.3032 17.6116 52.3556 21.745 55.2062C24.0675 56.8056 25.2332 59.5813 25.1797 62.6358C25.1378 65.0183 24.3559 67.5779 22.7978 69.8792ZM70.1306 74.2298C66.1605 76.9665 60.249 75.2799 56.6389 70.488C56.4873 70.2901 56.3446 70.089 56.2016 69.8788C54.6435 67.5775 53.8584 65.0179 53.8197 62.6353C53.763 59.5809 54.9287 56.8052 57.2544 55.2057C61.3878 52.3551 67.6268 54.3027 71.1803 59.5568C74.7369 64.8081 74.2672 71.3792 70.1306 74.2298Z" fill="#1088C4"/>
</svg>
