<svg width="73" height="127" viewBox="0 0 73 127" fill="none" xmlns="http://www.w3.org/2000/svg">
<mask id="mask0_1_511" style="mask-type:luminance" maskUnits="userSpaceOnUse" x="0" y="0" width="73" height="127">
<path d="M72.785 0H0V126.75H72.785V0Z" fill="white"/>
</mask>
<g mask="url(#mask0_1_511)">
<path d="M5.46497 33.506L7.86497 34.092C10.2844 34.8856 12.8384 35.1858 15.376 34.975C21.976 34.275 25.076 29.193 27.525 25.96C30.763 21.692 34.338 22.429 34.338 22.429L32.15 31.847C27.25 39.647 20.25 40.019 15.544 39.127C13.7907 38.8051 12.0881 38.2513 10.481 37.48C4.96997 35.88 5.46497 33.505 5.46497 33.505" fill="#7D97F4"/>
</g>
<mask id="mask1_1_511" style="mask-type:luminance" maskUnits="userSpaceOnUse" x="0" y="32" width="9" height="7">
<path d="M3.367 33.341C4.431 33.462 4.51 34.027 4.51 34.027L0.683 36.857C0.489054 36.9999 0.329869 37.1847 0.217321 37.3977C0.104772 37.6106 0.0417653 37.8463 0.033 38.087L0 38.933C2.76716 38.5808 5.43141 37.6594 7.825 36.227L8.549 34.494C7.89123 33.6405 6.95912 33.04 5.91 32.794C3.726 32.341 2.247 32.081 2.247 32.081C2.25827 32.3888 2.37612 32.6832 2.58042 32.9138C2.78471 33.1443 3.06275 33.2968 3.367 33.345" fill="white"/>
</mask>
<g mask="url(#mask1_1_511)">
<path d="M3.15588 27.9512L-3.30896 36.402L5.39279 43.0588L11.8576 34.6081L3.15588 27.9512Z" fill="#F7C19B"/>
</g>
<mask id="mask2_1_511" style="mask-type:luminance" maskUnits="userSpaceOnUse" x="38" y="82" width="20" height="9">
<path d="M38.126 83.994V90.94L57.126 90.205L54.17 82.525L38.126 83.994Z" fill="white"/>
</mask>
<g mask="url(#mask2_1_511)">
<path d="M50.8055 73.5702L34.1599 85.326L44.4519 99.8988L61.0974 88.143L50.8055 73.5702Z" fill="#AE554A"/>
</g>
<mask id="mask3_1_511" style="mask-type:luminance" maskUnits="userSpaceOnUse" x="33" y="0" width="37" height="56">
<path d="M33.434 12.297L35.42 42.42C35.42 42.42 45.112 59.672 54.82 54.551C59.151 52.266 59.897 49.376 59.397 46.877C59.1656 45.617 59.4289 44.3163 60.1319 43.2454C60.835 42.1744 61.9238 41.4157 63.172 41.127C66.687 40.265 70.036 37.774 69.103 31.204C67.881 22.597 60.241 20.023 55.284 19.263C54.3226 19.1102 53.4381 18.6457 52.7665 17.941C52.0949 17.2364 51.6735 16.3306 51.567 15.363C51.088 11.493 46.442 11.158 45.586 9.27101C42.457 2.37101 37.626 0.76001 37.626 0.76001L33.434 12.297Z" fill="white"/>
</mask>
<g mask="url(#mask3_1_511)">
<path d="M65.0121 -11.832L13.168 8.836L38.4527 72.2608L90.2968 51.5928L65.0121 -11.832Z" fill="url(#paint0_linear_1_511)"/>
</g>
<mask id="mask4_1_511" style="mask-type:luminance" maskUnits="userSpaceOnUse" x="65" y="120" width="8" height="7">
<path d="M66.9979 120.888C66.8421 120.888 66.6879 120.921 66.5458 120.985C66.4036 121.049 66.2766 121.142 66.1733 121.259C66.0699 121.375 65.9926 121.513 65.9463 121.661C65.9 121.81 65.8859 121.967 65.9049 122.122L66.2969 125.343C66.3324 125.64 66.4669 125.916 66.6786 126.127C66.8903 126.339 67.1669 126.472 67.4639 126.507C68.8946 126.68 70.3395 126.703 71.7749 126.575C72.0511 126.544 72.3063 126.412 72.4924 126.206C72.6785 125.999 72.7825 125.732 72.7849 125.454V125.43C72.7835 125.317 72.7654 125.205 72.7309 125.097C72.3038 123.562 71.5685 122.13 70.5699 120.889L66.9979 120.888Z" fill="white"/>
</mask>
<g mask="url(#mask4_1_511)">
<path d="M72.7859 120.888H65.8259V126.745H72.7859V120.888Z" fill="#ED7465"/>
</g>
<mask id="mask5_1_511" style="mask-type:luminance" maskUnits="userSpaceOnUse" x="35" y="84" width="10" height="42">
<path d="M37.317 87.938C37.317 87.938 39.337 108.394 39.696 116.577C39.7515 117.859 39.4209 119.129 38.747 120.221L35.235 125.921L44.16 120.655L44.338 119.566L42.877 117.557L44.791 94.641C44.9034 93.2947 44.6257 91.9446 43.991 90.752L42.145 87.284L37.921 84.384L37.317 87.938Z" fill="white"/>
</mask>
<g mask="url(#mask5_1_511)">
<path d="M35.3048 83.5696L31.707 125.622L44.8321 126.745L48.4299 84.6925L35.3048 83.5696Z" fill="#F7C19B"/>
</g>
<mask id="mask6_1_511" style="mask-type:luminance" maskUnits="userSpaceOnUse" x="33" y="118" width="13" height="9">
<path d="M41.637 121.169C40.169 122.054 35.664 125.225 35.664 125.225C35.2785 125.18 34.8886 125.191 34.506 125.256C34.3216 125.291 34.1568 125.393 34.0439 125.543C33.931 125.693 33.8781 125.879 33.8956 126.066C33.9131 126.253 33.9998 126.427 34.1386 126.553C34.2774 126.679 34.4584 126.749 34.646 126.749H37.494C37.7568 126.75 38.0162 126.69 38.2522 126.574C38.4882 126.458 38.6944 126.29 38.855 126.082C39.743 124.928 41.582 122.682 42.462 122.619C43.646 122.54 43.495 126.749 43.495 126.749H44.159L45 121.518C45.1025 120.876 45.0007 120.219 44.7091 119.638C44.4175 119.057 43.9508 118.583 43.375 118.282C43.2904 118.854 43.0932 119.404 42.7949 119.899C42.4966 120.395 42.1031 120.826 41.637 121.169Z" fill="white"/>
</mask>
<g mask="url(#mask6_1_511)">
<path d="M45.212 118.282H33.608V126.75H45.212V118.282Z" fill="#ED7465"/>
</g>
<mask id="mask7_1_511" style="mask-type:luminance" maskUnits="userSpaceOnUse" x="50" y="84" width="22" height="41">
<path d="M50.144 86.075C50.144 86.075 61.975 108.518 63.856 113.642C65.0458 116.812 65.9054 120.096 66.4211 123.442C66.4611 124.075 67.247 124.681 69.416 124.681C69.7882 124.722 70.1644 124.661 70.5049 124.506C70.8455 124.35 71.1378 124.106 71.351 123.798C71.4621 123.615 71.5248 123.406 71.5332 123.192C71.5416 122.978 71.4954 122.765 71.399 122.574C70.715 121.189 68.5431 116.763 67.7381 114.755C66.7781 112.355 64.712 101.496 63.579 97.719C62.446 93.942 61.1651 89.845 56.2321 86.072C55.3298 85.2171 54.1621 84.6969 52.9231 84.598C52.3771 84.6107 51.8417 84.7506 51.3593 85.0064C50.8769 85.2623 50.4608 85.6272 50.144 86.072" fill="white"/>
</mask>
<g mask="url(#mask7_1_511)">
<path d="M50.2993 82.779L46.739 124.393L71.4358 126.506L74.9961 84.8919L50.2993 82.779Z" fill="#F7C19B"/>
</g>
<mask id="mask8_1_511" style="mask-type:luminance" maskUnits="userSpaceOnUse" x="26" y="22" width="22" height="30">
<path d="M31.263 24.175C28.833 26.392 25.452 30.131 26.109 33.297C26.699 36.142 32.071 50.335 32.071 50.335C33.795 51.006 35.6527 51.2622 37.494 51.0829C39.3353 50.9036 41.1087 50.2939 42.671 49.303C39.619 36.371 47.351 29.057 47.351 29.057C44.227 26.057 39.46 24.107 36.434 23.09C35.5536 22.7934 34.6099 22.7376 33.7007 22.9284C32.7915 23.1192 31.9499 23.5496 31.263 24.175Z" fill="white"/>
</mask>
<g mask="url(#mask8_1_511)">
<path d="M34.7751 11.9889L10.682 39.968L38.0254 63.5136L62.1184 35.5345L34.7751 11.9889Z" fill="url(#paint1_linear_1_511)"/>
</g>
<mask id="mask9_1_511" style="mask-type:luminance" maskUnits="userSpaceOnUse" x="31" y="49" width="26" height="40">
<path d="M32.068 50.335C31.4195 53.0248 31.3023 55.8153 31.723 58.55C32.492 62.507 37.316 87.938 37.316 87.938C44.916 89.478 56.607 86.389 56.607 86.389C51.766 77.789 50.678 59.447 49.436 55.705C48.194 51.963 42.67 49.305 42.67 49.305C41.1077 50.2959 39.3343 50.9056 37.493 51.0849C35.6517 51.2642 33.794 51.008 32.07 50.337" fill="white"/>
</mask>
<g mask="url(#mask9_1_511)">
<path d="M49.8513 38.0039L13.2589 59.884L37.7107 100.777L74.3031 78.897L49.8513 38.0039Z" fill="#ED7465"/>
</g>
<mask id="mask10_1_511" style="mask-type:luminance" maskUnits="userSpaceOnUse" x="34" y="12" width="8" height="14">
<path d="M37.214 12.754L35.157 13.666C34.8815 13.788 34.6531 13.9963 34.5065 14.2595C34.3598 14.5227 34.3028 14.8265 34.344 15.125L35.41 22.854C35.4261 23.0006 35.4692 23.143 35.537 23.274C36.237 24.539 38.337 25.174 39.958 25.474C40.951 25.661 41.845 25.822 41.608 24.84L39.127 13.695C39.0794 13.4971 38.9889 13.312 38.8618 13.153C38.7347 12.994 38.5742 12.8649 38.3916 12.7749C38.209 12.6849 38.0089 12.6362 37.8053 12.6323C37.6018 12.6283 37.3999 12.6692 37.214 12.752" fill="white"/>
</mask>
<g mask="url(#mask10_1_511)">
<path d="M34.4001 11.6159L32.491 25.582L41.7073 26.8419L43.6164 12.8757L34.4001 11.6159Z" fill="#F7C19B"/>
</g>
<mask id="mask11_1_511" style="mask-type:luminance" maskUnits="userSpaceOnUse" x="30" y="3" width="11" height="15">
<path d="M32.6321 4.812C32.6321 4.812 30.5381 7.218 30.6091 11.912C30.6801 16.606 32.8831 17.712 34.6851 17.128C36.0235 16.7188 37.2446 15.9953 38.2464 15.018C39.2483 14.0407 40.0018 12.8379 40.4441 11.51C41.6241 8.46099 37.6001 3.994 34.5441 3.994C34.1851 3.98634 33.8287 4.05545 33.4986 4.1967C33.1685 4.33794 32.8724 4.54806 32.6301 4.813" fill="white"/>
</mask>
<g mask="url(#mask11_1_511)">
<path d="M30.5733 3.36417L29.759 17.664L41.5879 18.3376L42.4021 4.03772L30.5733 3.36417Z" fill="#F7C19B"/>
</g>
<mask id="mask12_1_511" style="mask-type:luminance" maskUnits="userSpaceOnUse" x="29" y="0" width="15" height="14">
<path d="M30.095 2.391C27.838 5.326 31.1669 7.532 31.1669 7.532L31.933 6.149C36.913 3.794 37.6519 10.349 37.6519 10.349L38.0399 10.357C38.0399 10.357 38.5559 8.669 39.4949 9.4C40.4339 10.131 40.1629 12.491 40.1629 12.491C40.1629 12.491 42.098 14.243 43.263 11.291C44.428 8.339 42.9009 5.757 39.6689 2.363C39.0516 1.65117 38.2943 1.07403 37.4443 0.667497C36.5942 0.260968 35.6696 0.0337551 34.728 0C33.8231 0.011645 32.9334 0.233758 32.1293 0.648756C31.3252 1.06375 30.6287 1.66024 30.095 2.391Z" fill="white"/>
</mask>
<g mask="url(#mask12_1_511)">
<path d="M35.3276 -8.25701L20.7549 7.819L36.9517 22.5012L51.5244 6.42521L35.3276 -8.25701Z" fill="url(#paint2_linear_1_511)"/>
</g>
<mask id="mask13_1_511" style="mask-type:luminance" maskUnits="userSpaceOnUse" x="38" y="7" width="3" height="5">
<path d="M38.516 10.698L39.516 11.964C40.23 11.008 41.926 8.30601 40.022 7.81901C39.9061 7.78825 39.7868 7.77212 39.667 7.77101C38.167 7.77101 38.518 10.699 38.518 10.699" fill="white"/>
</mask>
<g mask="url(#mask13_1_511)">
<path d="M38.1807 7.5588L37.9299 11.95L41.909 12.1773L42.1598 7.78606L38.1807 7.5588Z" fill="#F7C19B"/>
</g>
<mask id="mask14_1_511" style="mask-type:luminance" maskUnits="userSpaceOnUse" x="0" y="0" width="73" height="127">
<path d="M72.785 0H0V126.75H72.785V0Z" fill="white"/>
</mask>
<g mask="url(#mask14_1_511)">
<path d="M35.3099 1.119C36.4635 1.53756 37.5305 2.16428 38.4579 2.968C40.3421 4.54134 41.7614 6.59887 42.5629 8.919C42.7579 9.49666 42.913 10.0871 43.0269 10.686C43.127 11.2995 43.2605 11.9071 43.4269 12.506C43.5998 13.125 43.9192 13.6933 44.3579 14.163C44.8083 14.6084 45.3264 14.9797 45.8929 15.263C46.4419 15.563 47.0019 15.814 47.5289 16.113C48.3195 16.5503 49.0138 17.1426 49.5702 17.8545C50.1265 18.5664 50.5336 19.3832 50.7669 20.256C50.9329 20.84 51.0599 21.449 51.2799 22.047C51.4858 22.6671 51.8555 23.2199 52.3499 23.647C52.8562 24.0477 53.4407 24.3379 54.0659 24.499C54.6687 24.6578 55.2796 24.784 55.8959 24.877C57.1017 25.0604 58.2809 25.3888 59.4079 25.855C60.5322 26.3213 61.5799 26.954 62.5159 27.732C63.4528 28.5052 64.2213 29.4622 64.7739 30.544C65.3308 31.6209 65.5527 32.8399 65.4109 34.044C65.2652 35.2483 64.7056 36.3646 63.8279 37.202C63.3889 37.6122 62.8612 37.9157 62.2859 38.089C61.703 38.2482 61.0921 38.2765 60.4969 38.172C59.8949 38.0904 59.324 37.8552 58.839 37.4892C58.3541 37.1232 57.9715 36.6386 57.7279 36.082L57.6379 36.115C57.8789 36.6973 58.2656 37.2078 58.7609 37.5974C59.2562 37.9871 59.8433 38.2428 60.4659 38.34C61.0866 38.4617 61.7266 38.4446 62.3399 38.29C62.9525 38.1193 63.5175 37.8096 63.9909 37.385C64.9228 36.5163 65.5211 35.3488 65.6819 34.085C65.8396 32.8256 65.6171 31.5479 65.0429 30.416C64.4791 29.292 63.6909 28.2955 62.7269 27.488C61.7703 26.6809 60.6976 26.0226 59.5449 25.535C58.3958 25.0506 57.1924 24.7065 55.9609 24.51C55.3592 24.4148 54.763 24.2873 54.1749 24.128C53.6039 23.9783 53.0705 23.7109 52.6089 23.343C52.1691 22.9575 51.8387 22.4629 51.6509 21.909C51.4399 21.351 51.3099 20.751 51.1349 20.151C50.8826 19.2343 50.4481 18.3779 49.8574 17.6329C49.2667 16.8879 48.5319 16.2697 47.6969 15.815C47.1499 15.515 46.5859 15.258 46.0479 14.973C45.5093 14.7086 45.0159 14.3606 44.5859 13.942C44.1768 13.51 43.8783 12.9854 43.7159 12.413C43.5486 11.8257 43.4131 11.2299 43.3099 10.628C43.1892 10.0175 43.0265 9.41608 42.8229 8.828C42.0059 6.46206 40.5279 4.37985 38.5639 2.828C37.608 2.03437 36.5146 1.42291 35.3379 1.024L35.3099 1.119Z" fill="#91B3FA"/>
<path d="M41.861 9.55901C41.8851 10.3567 41.963 11.1518 42.094 11.939C42.2185 12.7423 42.4897 13.5158 42.894 14.221C43.1078 14.5739 43.3685 14.8962 43.669 15.179C43.969 15.453 44.2892 15.7041 44.627 15.93C45.2887 16.3539 45.9233 16.8188 46.527 17.322C47.7476 18.2746 48.6181 19.605 49.002 21.105C49.356 22.605 49.26 24.254 49.924 25.817C50.2712 26.585 50.8047 27.2543 51.476 27.764C52.1315 28.2617 52.8601 28.6551 53.636 28.93C55.1656 29.3932 56.7226 29.7606 58.298 30.03C59.8345 30.2974 61.2596 31.0078 62.398 32.074C62.9623 32.5962 63.3138 33.3084 63.385 34.074C63.326 34.8543 63.0863 35.6102 62.685 36.282L62.77 36.327C63.229 35.6565 63.5151 34.8829 63.603 34.075C63.6077 33.6583 63.5117 33.2466 63.323 32.875C63.1396 32.5073 62.9087 32.1653 62.636 31.858C61.4763 30.7039 60.0034 29.9157 58.3999 29.591C56.8522 29.2871 55.321 28.905 53.812 28.446C53.0907 28.1847 52.414 27.8137 51.806 27.346C51.2098 26.8866 50.7376 26.2858 50.432 25.598C49.816 24.213 49.88 22.582 49.502 20.998C49.3157 20.1911 48.9732 19.4284 48.494 18.753C48.0196 18.0881 47.4533 17.4939 46.812 16.988C46.1825 16.4912 45.5225 16.0343 44.836 15.62C44.168 15.2316 43.5948 14.6994 43.158 14.062C42.7413 13.4035 42.4491 12.6741 42.296 11.91C42.1361 11.1357 42.0189 10.3532 41.945 9.56601L41.861 9.55901Z" fill="#91B3FA"/>
<path d="M36.556 33.408L41.222 23.108C43.212 23.618 47.402 29.174 47.402 29.174C47.402 29.174 43.36 45.885 47.35 50.337C50.892 54.289 59.771 83.219 61.721 89.669C61.7673 89.8238 61.7789 89.9868 61.7551 90.1466C61.7312 90.3063 61.6725 90.4589 61.5831 90.5934C61.4936 90.7279 61.3757 90.841 61.2376 90.9248C61.0995 91.0085 60.9446 91.0608 60.784 91.078L51.074 92.078C50.8149 92.1039 50.555 92.037 50.3405 91.8892C50.1261 91.7414 49.9711 91.5224 49.903 91.271L36.061 39.422C35.5268 37.4213 35.7017 35.2974 36.556 33.411" fill="#BDD0FB"/>
<path d="M26.0249 34.839C26.0249 34.839 24.3839 29.182 31.8249 23.729C31.8249 23.729 35.0339 21.286 35.4129 22.853L32.7639 35.539L40.9859 91.619C41.011 91.7969 40.9921 91.9782 40.9309 92.1471C40.8697 92.316 40.7681 92.4673 40.6349 92.5879C40.5017 92.7084 40.341 92.7945 40.1669 92.8387C39.9928 92.8828 39.8105 92.8836 39.636 92.841L37.6119 92.335C37.4128 92.2849 37.2317 92.18 37.0891 92.0323C36.9464 91.8845 36.848 91.6998 36.8049 91.499C35.6539 86.085 28.0049 49.632 30.2509 47.229C30.2509 47.229 25.8429 35.962 26.0249 34.839Z" fill="#7D97F4"/>
<path d="M47.401 29.17C47.401 29.17 52.264 48.783 41.89 52.511C31.516 56.239 18.225 46.676 18.225 46.676C18.225 46.676 15.956 45.541 14.659 45.866C13.362 46.191 13.524 41.327 15.959 40.031C18.394 38.735 21.146 44.245 21.146 44.245C21.146 44.245 43.946 55.602 41.864 36.065C41.864 36.065 38.814 29.495 47.405 29.171" fill="#BDD0FB"/>
</g>
<mask id="mask15_1_511" style="mask-type:luminance" maskUnits="userSpaceOnUse" x="6" y="36" width="27" height="23">
<path d="M7.50796 36.46C7.4142 36.4674 7.32369 36.4977 7.24433 36.5482C7.16497 36.5987 7.09919 36.6679 7.05272 36.7496C7.00626 36.8314 6.98053 36.9233 6.97778 37.0174C6.97504 37.1114 6.99535 37.2046 7.03696 37.289C8.66196 40.577 15.347 53.95 18.694 58.332C18.7484 58.4036 18.8188 58.4614 18.8995 58.501C18.9802 58.5406 19.0691 58.5608 19.159 58.56L32.245 58.438C32.3338 58.4373 32.4213 58.416 32.5005 58.3759C32.5798 58.3358 32.6487 58.2779 32.7018 58.2067C32.755 58.1355 32.791 58.053 32.8069 57.9657C32.8229 57.8783 32.8185 57.7884 32.794 57.703L27.154 38.003C27.1229 37.8938 27.0601 37.7963 26.9736 37.7228C26.8871 37.6493 26.7807 37.6031 26.668 37.59C25.646 37.471 22.685 37.136 19.268 36.847C16.217 36.589 12.802 36.367 10.075 36.367C9.12096 36.367 8.25097 36.394 7.50997 36.456" fill="white"/>
</mask>
<g mask="url(#mask15_1_511)">
<path d="M25.2271 24.4975L-3.26404 42.915L14.5333 70.4468L43.0245 52.0294L25.2271 24.4975Z" fill="#ED7465"/>
</g>
<mask id="mask16_1_511" style="mask-type:luminance" maskUnits="userSpaceOnUse" x="14" y="34" width="6" height="3">
<path d="M14.2639 34.843L14.6639 36.07C14.6811 36.1225 14.7127 36.1691 14.7552 36.2045C14.7976 36.2399 14.8492 36.2626 14.9039 36.27L18.8389 36.796C18.8861 36.8023 18.934 36.797 18.9786 36.7806C19.0233 36.7643 19.0633 36.7374 19.0952 36.7022C19.1272 36.667 19.1501 36.6246 19.1621 36.5785C19.1741 36.5325 19.1747 36.4843 19.1639 36.438L18.9129 35.367C18.8997 35.3105 18.87 35.2592 18.8277 35.2195C18.7853 35.1798 18.7322 35.1535 18.6749 35.144L14.5859 34.463C14.5693 34.4617 14.5526 34.4617 14.5359 34.463C14.4895 34.4632 14.4439 34.4744 14.4026 34.4956C14.3614 34.5168 14.3257 34.5475 14.2986 34.5852C14.2715 34.6228 14.2537 34.6664 14.2466 34.7122C14.2395 34.7581 14.2434 34.8049 14.2579 34.849" fill="white"/>
</mask>
<g mask="url(#mask16_1_511)">
<path d="M14.2615 33.9068L13.9409 36.792L19.1538 37.3712L19.4744 34.486L14.2615 33.9068Z" fill="url(#paint3_linear_1_511)"/>
</g>
<mask id="mask17_1_511" style="mask-type:luminance" maskUnits="userSpaceOnUse" x="12" y="35" width="10" height="5">
<path d="M12.3541 36.184L12.8791 38.37C12.8996 38.4551 12.9472 38.5312 13.0146 38.5871C13.082 38.643 13.1656 38.6755 13.2531 38.68L21.3241 39.086C21.3854 39.0892 21.4468 39.0784 21.5034 39.0545C21.56 39.0305 21.6104 38.9939 21.6507 38.9476C21.6911 38.9012 21.7204 38.8463 21.7364 38.7869C21.7524 38.7276 21.7547 38.6654 21.7431 38.605L21.4061 36.85C21.3895 36.7642 21.3457 36.6861 21.2812 36.6272C21.2167 36.5683 21.135 36.5317 21.0481 36.523L12.7891 35.685H12.7471C12.6859 35.6853 12.6256 35.6994 12.5707 35.7262C12.5158 35.7531 12.4676 35.792 12.4298 35.8401C12.392 35.8882 12.3656 35.9442 12.3525 36.0039C12.3394 36.0636 12.3399 36.1255 12.3541 36.185" fill="white"/>
</mask>
<g mask="url(#mask17_1_511)">
<path d="M12.4069 34.6402L11.916 39.058L21.676 40.1424L22.1668 35.7246L12.4069 34.6402Z" fill="url(#paint4_linear_1_511)"/>
</g>
<mask id="mask18_1_511" style="mask-type:luminance" maskUnits="userSpaceOnUse" x="24" y="46" width="8" height="7">
<path d="M28.921 46.275C27.4055 46.5563 25.9141 46.9541 24.46 47.465C24.4675 47.6591 24.5233 47.8483 24.6221 48.0156C24.7209 48.1828 24.8598 48.3229 25.0262 48.4232C25.1926 48.5234 25.3814 48.5807 25.5754 48.59C25.7695 48.5992 25.9628 48.56 26.138 48.476L25.173 49.222C25.173 49.222 25.311 50.422 26.625 49.779L25.725 50.769C25.7956 50.8998 25.8933 51.014 26.0116 51.1041C26.1299 51.1941 26.266 51.2579 26.4109 51.2912C26.5557 51.3245 26.706 51.3266 26.8518 51.2972C26.9975 51.2679 27.1353 51.2078 27.256 51.121C27.756 50.795 28.122 51.4 28.74 52.005C29.0736 52.374 29.4946 52.6533 29.9642 52.8174C30.4338 52.9814 30.9371 53.025 31.428 52.944C31.428 52.944 32.214 49.714 31.897 48.567C31.611 47.531 31.082 46.228 29.472 46.228C29.2867 46.2287 29.1018 46.2441 28.919 46.274" fill="white"/>
</mask>
<g mask="url(#mask18_1_511)">
<path d="M32.216 46.229H24.46V53.132H32.216V46.229Z" fill="#F7C19B"/>
</g>
<mask id="mask19_1_511" style="mask-type:luminance" maskUnits="userSpaceOnUse" x="39" y="48" width="8" height="5">
<path d="M39.446 52.753C39.446 52.842 39.497 52.797 39.567 52.753L39.556 52.746C39.5293 52.7255 39.4992 52.7099 39.467 52.7C39.452 52.7 39.444 52.715 39.446 52.756M39.725 52.696H39.712C39.6588 52.7003 39.609 52.7201 39.567 52.753C39.6071 52.7784 39.6525 52.7919 39.7 52.792C40.263 52.768 40.8219 52.6839 41.367 52.541C40.826 52.6456 40.276 52.6975 39.725 52.696ZM45.789 49.107C45.3215 49.9481 44.6888 50.6859 43.9289 51.2763C43.169 51.8666 42.2976 52.2971 41.367 52.542C42.3845 52.3526 43.3491 51.9457 44.1948 51.3491C45.0405 50.7524 45.7474 49.9801 46.267 49.085C46.33 48.952 46.274 48.961 46.14 48.898C46.1184 48.8879 46.0948 48.8828 46.071 48.883C46.0079 48.8934 45.9486 48.9195 45.8984 48.959C45.8482 48.9985 45.8088 49.0501 45.784 49.109" fill="white"/>
</mask>
<g mask="url(#mask19_1_511)">
<path d="M44.0411 45.6302L37.5759 50.198L41.7392 56.0906L48.2044 51.5229L44.0411 45.6302Z" fill="url(#paint5_linear_1_511)"/>
</g>
<mask id="mask20_1_511" style="mask-type:luminance" maskUnits="userSpaceOnUse" x="37" y="35" width="6" height="12">
<path d="M41.644 35.365C41.5745 35.3776 41.5127 35.4174 41.4724 35.4755C41.4321 35.5336 41.4165 35.6054 41.429 35.675C41.443 35.752 42.769 43.437 37.866 45.993C37.8349 46.0092 37.8073 46.0314 37.7847 46.0583C37.7622 46.0852 37.7452 46.1163 37.7346 46.1497C37.7241 46.1832 37.7202 46.2184 37.7233 46.2534C37.7264 46.2884 37.7363 46.3224 37.7525 46.3535C37.7688 46.3846 37.791 46.4123 37.8178 46.4348C37.8447 46.4573 37.8758 46.4744 37.9093 46.4849C37.9428 46.4955 37.978 46.4993 38.0129 46.4962C38.0479 46.4931 38.0819 46.4832 38.113 46.467C43.365 43.728 42.013 35.912 41.954 35.58C41.948 35.5454 41.9352 35.5124 41.9163 35.4828C41.8974 35.4532 41.8728 35.4277 41.844 35.4077C41.8152 35.3877 41.7826 35.3736 41.7483 35.3663C41.714 35.359 41.6785 35.3585 41.644 35.365Z" fill="white"/>
</mask>
<g mask="url(#mask20_1_511)">
<path d="M41.4749 32.6826L32.437 39.068L39.5772 49.1741L48.615 42.7887L41.4749 32.6826Z" fill="url(#paint6_linear_1_511)"/>
</g>
<mask id="mask21_1_511" style="mask-type:luminance" maskUnits="userSpaceOnUse" x="35" y="23" width="9" height="23">
<path d="M35.758 34.973C34.858 37.845 37.58 45.11 37.58 45.11L38.165 36.09C38.1729 35.968 38.2269 35.8537 38.3161 35.7701C38.4052 35.6865 38.5228 35.64 38.645 35.64C38.8773 35.6393 39.1034 35.5652 39.291 35.4281C39.4785 35.291 39.6179 35.0981 39.689 34.877L43.067 24.291L41.222 23.103C41.222 23.103 36.658 32.104 35.758 34.973Z" fill="white"/>
</mask>
<g mask="url(#mask21_1_511)">
<path d="M43.0669 23.104H34.8569V45.11H43.0669V23.104Z" fill="url(#paint7_linear_1_511)"/>
</g>
<mask id="mask22_1_511" style="mask-type:luminance" maskUnits="userSpaceOnUse" x="0" y="0" width="73" height="127">
<path d="M72.785 0H0V126.75H72.785V0Z" fill="white"/>
</mask>
<g mask="url(#mask22_1_511)">
<path d="M30.6691 32.306C30.5233 31.9566 30.5066 31.5666 30.6221 31.206L33.4311 22.382L35.1551 21.005L35.3451 22.382L33.7851 30.627L34.3371 45.654L31.4191 37.584C31.2765 37.19 31.2948 36.7556 31.4701 36.375L31.6471 35.989C31.7379 35.7899 31.7868 35.5741 31.7906 35.3553C31.7944 35.1364 31.753 34.9192 31.6691 34.717L30.6691 32.306Z" fill="#BDD0FB"/>
</g>
<defs>
<linearGradient id="paint0_linear_1_511" x1="39.4254" y1="139.056" x2="39.5809" y2="138.994" gradientUnits="userSpaceOnUse">
<stop stop-color="#1373A4"/>
<stop offset="1" stop-color="#1A0F91"/>
</linearGradient>
<linearGradient id="paint1_linear_1_511" x1="80.0732" y1="123.402" x2="80.1937" y2="123.262" gradientUnits="userSpaceOnUse">
<stop stop-color="#FF928E"/>
<stop offset="1" stop-color="#FE7062"/>
</linearGradient>
<linearGradient id="paint2_linear_1_511" x1="100.49" y1="114.246" x2="100.607" y2="114.117" gradientUnits="userSpaceOnUse">
<stop stop-color="#1373A4"/>
<stop offset="1" stop-color="#1A0F91"/>
</linearGradient>
<linearGradient id="paint3_linear_1_511" x1="105.411" y1="62.3042" x2="105.43" y2="62.1369" gradientUnits="userSpaceOnUse">
<stop stop-color="#1373A4"/>
<stop offset="1" stop-color="#1A0F91"/>
</linearGradient>
<linearGradient id="paint4_linear_1_511" x1="103.975" y1="64.1973" x2="103.994" y2="64.0294" gradientUnits="userSpaceOnUse">
<stop stop-color="#1373A4"/>
<stop offset="1" stop-color="#1A0F91"/>
</linearGradient>
<linearGradient id="paint5_linear_1_511" x1="51.6554" y1="137.593" x2="51.7912" y2="137.498" gradientUnits="userSpaceOnUse">
<stop stop-color="#DAE3FE"/>
<stop offset="1" stop-color="#E9EFFD"/>
</linearGradient>
<linearGradient id="paint6_linear_1_511" x1="56.9466" y1="134.398" x2="57.0822" y2="134.302" gradientUnits="userSpaceOnUse">
<stop stop-color="#DAE3FE"/>
<stop offset="1" stop-color="#E9EFFD"/>
</linearGradient>
<linearGradient id="paint7_linear_1_511" x1="0.00548343" y1="126.752" x2="0.169683" y2="126.752" gradientUnits="userSpaceOnUse">
<stop stop-color="#DAE3FE"/>
<stop offset="1" stop-color="#E9EFFD"/>
</linearGradient>
</defs>
</svg>
