<svg width="138" height="85" viewBox="0 0 138 85" fill="none" xmlns="http://www.w3.org/2000/svg">
<mask id="mask0_1_1333" style="mask-type:luminance" maskUnits="userSpaceOnUse" x="0" y="0" width="138" height="85">
<path d="M137.643 0H0V84.429H137.643V0Z" fill="white"/>
</mask>
<g mask="url(#mask0_1_1333)">
<mask id="mask1_1_1333" style="mask-type:luminance" maskUnits="userSpaceOnUse" x="0" y="56" width="138" height="29">
<path d="M137.643 56.093H0V84.429H137.643V56.093Z" fill="white"/>
</mask>
<g mask="url(#mask1_1_1333)">
<path d="M5.03699 66.756C4.12134 66.7734 3.21885 66.5362 2.42999 66.071C1.67583 65.6162 1.05978 64.9645 0.647987 64.186C0.222901 63.3278 0.00115789 62.3831 -5.6024e-05 61.4254C-0.00126993 60.4676 0.218078 59.5224 0.640987 58.663C1.04718 57.8854 1.65819 57.2336 2.40799 56.778C3.18892 56.3131 4.0843 56.0758 4.99299 56.093C5.60254 56.0911 6.20702 56.2038 6.77499 56.425C7.33655 56.6413 7.85527 56.9555 8.30699 57.353C8.7468 57.7348 9.10263 58.2037 9.35199 58.73L8.27699 59.275C8.08228 58.8654 7.80676 58.4994 7.46699 58.199C7.12747 57.8973 6.73887 57.6558 6.31799 57.485C5.89718 57.3142 5.44715 57.2269 4.99299 57.228C4.3114 57.2177 3.64129 57.4041 3.06299 57.765C2.49102 58.1261 2.03003 58.6383 1.73099 59.245C1.41439 59.9309 1.25101 60.6774 1.25222 61.4328C1.25343 62.1882 1.4192 62.9342 1.73799 63.619C2.03939 64.2326 2.50585 64.7499 3.08499 65.113C3.67068 65.4758 4.34815 65.6628 5.03699 65.652C5.49921 65.6539 5.95636 65.5557 6.37699 65.364C6.80127 65.1715 7.1877 64.9046 7.51799 64.576C7.85329 64.2461 8.12454 63.8568 8.31799 63.428L9.40799 63.973C9.1506 64.5158 8.79338 65.0053 8.35499 65.416C7.91025 65.8368 7.39108 66.1712 6.82399 66.402C6.25642 66.6366 5.64813 66.7569 5.03399 66.756" fill="#1A1818"/>
<path d="M13.373 56.27H14.625V66.58H13.373V56.27ZM14.473 56.27H19.47V57.4H14.477L14.473 56.27ZM14.473 60.733H19.038V61.852H14.477L14.473 60.733ZM14.473 65.446H19.5V66.58H14.477L14.473 65.446Z" fill="#1A1818"/>
<path d="M24.154 56.269H25.406V66.579H24.154V56.269ZM25.332 62.529V61.38H27.688C28.0384 61.3853 28.3839 61.2962 28.688 61.122C28.9819 60.9508 29.2275 60.7079 29.402 60.416C29.5866 60.1067 29.6811 59.7521 29.675 59.392C29.684 59.1224 29.6339 58.8542 29.5281 58.6061C29.4224 58.3581 29.2636 58.1361 29.063 57.956C28.6251 57.5767 28.0588 57.3792 27.48 57.404H25.33V56.269L27.51 56.255C28.1248 56.2332 28.735 56.3674 29.284 56.645C29.7827 56.8991 30.201 57.2868 30.492 57.765C30.7857 58.2562 30.9364 58.8197 30.927 59.392C30.9365 59.9672 30.772 60.5319 30.455 61.012C30.1339 61.4894 29.6918 61.8731 29.174 62.124C28.6048 62.3988 27.9789 62.5358 27.347 62.524L25.332 62.529ZM29.971 66.579L27.5 62.352L28.487 61.704L31.344 66.579H29.971Z" fill="#1A1818"/>
<path d="M35.435 56.27H36.687V66.58H35.435V56.27ZM36.613 62.794V61.66H39.113C39.3657 61.6657 39.6165 61.6147 39.847 61.5109C40.0775 61.4071 40.2818 61.253 40.445 61.06C40.7364 60.6897 40.9145 60.2431 40.9578 59.774C41.001 59.3049 40.9077 58.8332 40.689 58.416C40.5058 58.0965 40.238 57.8339 39.915 57.657C39.5642 57.4716 39.1704 57.3829 38.774 57.4H36.613V56.27L38.793 56.255C39.4106 56.243 40.0212 56.3875 40.568 56.675C41.0694 56.9414 41.4871 57.3415 41.775 57.831C42.0722 58.3503 42.2225 58.9407 42.21 59.539C42.22 60.1234 42.0825 60.7008 41.81 61.218C41.5582 61.695 41.1814 62.0946 40.72 62.374C40.2358 62.6594 39.6819 62.8048 39.12 62.794H36.613Z" fill="#1A1818"/>
<path d="M56.068 66.756C55.1523 66.7733 54.2499 66.5362 53.461 66.071C52.7068 65.6161 52.0908 64.9645 51.679 64.186C51.2539 63.3277 51.0322 62.3831 51.0309 61.4253C51.0297 60.4675 51.2491 59.5223 51.672 58.663C52.0782 57.8853 52.6892 57.2335 53.439 56.778C54.0951 56.3989 54.8274 56.1706 55.5827 56.1095C56.338 56.0484 57.0975 56.1562 57.806 56.425C58.3676 56.6412 58.8863 56.9554 59.338 57.353C59.7778 57.7348 60.1336 58.2037 60.383 58.73L59.308 59.275C59.1138 58.8659 58.8389 58.5003 58.5 58.2C58.1605 57.8983 57.7719 57.6568 57.351 57.486C56.9302 57.3152 56.4802 57.2279 56.026 57.229C55.3444 57.2186 54.6743 57.4051 54.096 57.766C53.524 58.1271 53.063 58.6393 52.764 59.246C52.4474 59.9318 52.284 60.6784 52.2852 61.4338C52.2864 62.1891 52.4522 62.9352 52.771 63.62C53.0724 64.2335 53.5389 64.7509 54.118 65.114C54.7037 65.4767 55.3812 65.6638 56.07 65.653C56.5322 65.6549 56.9894 65.5566 57.41 65.365C57.8343 65.1725 58.2207 64.9056 58.551 64.577C58.8863 64.247 59.1575 63.8578 59.351 63.429L60.441 63.974C60.1836 64.5168 59.8264 65.0063 59.388 65.417C58.9433 65.8378 58.4241 66.1722 57.857 66.403C57.2894 66.6376 56.6811 66.7579 56.067 66.757" fill="#1A1818"/>
<path d="M64.4 56.27H65.652V66.58H64.4V56.27ZM65.505 56.27H70.5V57.4H65.508L65.505 56.27ZM65.505 60.733H70.07V61.852H65.508L65.505 60.733ZM65.505 65.446H70.53V66.58H65.508L65.505 65.446Z" fill="#1A1818"/>
<path d="M75.1849 56.269H76.4369V66.579H75.1849V56.269ZM76.3629 62.529V61.38H78.7179C79.0684 61.3853 79.4138 61.2962 79.7179 61.122C80.0121 60.9508 80.2581 60.7079 80.4329 60.416C80.6172 60.1066 80.7114 59.752 80.7049 59.392C80.7142 59.1224 80.6641 58.8541 80.5584 58.606C80.4526 58.3579 80.2938 58.136 80.0929 57.956C79.655 57.5767 79.0887 57.3792 78.5099 57.404H76.3629V56.269L78.5419 56.255C79.1567 56.2332 79.767 56.3674 80.3159 56.645C80.8147 56.8991 81.2329 57.2868 81.5239 57.765C81.8177 58.2562 81.9683 58.8197 81.9589 59.392C81.9685 59.9672 81.804 60.5319 81.4869 61.012C81.1661 61.4896 80.724 61.8734 80.2059 62.124C79.6371 62.3988 79.0116 62.5358 78.3799 62.524L76.3629 62.529ZM80.9999 66.579L78.5249 62.352L79.5119 61.704L82.3689 66.579H80.9999Z" fill="#1A1818"/>
<path d="M85.213 56.27H93.019V57.4H85.213V56.27ZM88.498 57.124H89.735V66.579H88.5L88.498 57.124Z" fill="#1A1818"/>
<path d="M97.8639 56.27H96.6119V66.58H97.8639V56.27Z" fill="#1A1818"/>
<path d="M102.666 56.27H103.918V66.58H102.666V56.27ZM103.8 56.27H108.793V57.4H103.8V56.27ZM103.8 60.924H108.218V62.058H103.8V60.924Z" fill="#1A1818"/>
<path d="M113.976 56.27H112.724V66.58H113.976V56.27Z" fill="#1A1818"/>
<path d="M118.777 56.27H120.029V66.58H118.777V56.27ZM119.882 56.27H124.875V57.4H119.882V56.27ZM119.882 60.733H124.447V61.852H119.882V60.733ZM119.882 65.446H124.9V66.58H119.878L119.882 65.446Z" fill="#1A1818"/>
<path d="M129.558 56.269H130.81V66.579H129.558V56.269ZM130.558 56.269H132.7V57.418H130.564L130.558 56.269ZM130.558 65.431H132.7V66.579H130.564L130.558 65.431ZM132.694 66.579V65.431C133.191 65.4363 133.683 65.334 134.137 65.131C134.583 64.9271 134.981 64.6333 135.308 64.268C136.009 63.4874 136.397 62.4752 136.397 61.426C136.397 60.3769 136.009 59.3647 135.308 58.584C134.981 58.2197 134.582 57.9266 134.137 57.723C133.683 57.5196 133.191 57.4173 132.694 57.423V56.273C133.594 56.2548 134.483 56.4815 135.264 56.929C136.002 57.3631 136.606 57.9926 137.009 58.748C137.425 59.5776 137.642 60.4929 137.642 61.421C137.642 62.3492 137.425 63.2645 137.009 64.094C136.605 64.8509 136.002 65.4825 135.264 65.92C134.484 66.3722 133.595 66.6015 132.694 66.583" fill="#1A1818"/>
<path d="M17.084 84.429C16.1683 84.4463 15.2658 84.2092 14.477 83.744C13.7228 83.2891 13.1068 82.6375 12.695 81.859C12.2699 81.0007 12.0482 80.056 12.0469 79.0983C12.0457 78.1405 12.2651 77.1953 12.688 76.336C13.0942 75.5583 13.7052 74.9065 14.455 74.4509C15.1111 74.0719 15.8434 73.8435 16.5987 73.7825C17.354 73.7214 18.1135 73.8292 18.822 74.098C19.3835 74.3142 19.9023 74.6284 20.354 75.026C20.7938 75.4068 21.15 75.8746 21.4 76.4L20.325 76.945C20.1303 76.5354 19.8548 76.1694 19.515 75.869C19.1755 75.5672 18.7869 75.3258 18.366 75.155C17.9447 74.9847 17.4943 74.8981 17.04 74.9C16.3584 74.8896 15.6883 75.0761 15.11 75.4369C14.538 75.798 14.077 76.3102 13.778 76.917C13.4614 77.6028 13.298 78.3494 13.2992 79.1047C13.3004 79.8601 13.4662 80.6061 13.785 81.291C14.0864 81.9045 14.5528 82.4218 15.132 82.785C15.7177 83.1477 16.3951 83.3348 17.084 83.3239C17.5462 83.3259 18.0034 83.2276 18.424 83.036C18.8483 82.8434 19.2347 82.5766 19.565 82.248C19.9003 81.918 20.1715 81.5288 20.365 81.1L21.455 81.6449C21.1976 82.1877 20.8404 82.6772 20.402 83.0879C19.9572 83.5088 19.4381 83.8431 18.871 84.0739C18.3034 84.3086 17.6951 84.4289 17.081 84.428" fill="#1A1818"/>
<path d="M25.42 73.943H26.672V84.253H25.42V73.943ZM26.52 73.943H31.513V75.078H26.524L26.52 73.943ZM26.52 78.406H31.085V79.525H26.524L26.52 78.406ZM26.52 83.118H31.542V84.252H26.524L26.52 83.118Z" fill="#1A1818"/>
<path d="M41.9 73.943H43.152V84.253H41.9V73.943ZM43.078 80.4671V79.333H45.578C45.8307 79.3388 46.0815 79.2878 46.312 79.184C46.5424 79.0802 46.7468 78.9261 46.91 78.733C47.2013 78.3628 47.3794 77.9162 47.4227 77.4471C47.466 76.978 47.3727 76.5063 47.154 76.089C46.9708 75.7696 46.7029 75.507 46.38 75.33C46.0292 75.1447 45.6354 75.056 45.239 75.073H43.078V73.943L45.258 73.928C45.8756 73.9161 46.4862 74.0606 47.033 74.348C47.5338 74.6134 47.9515 75.0121 48.24 75.5C48.5371 76.0194 48.6875 76.6098 48.675 77.208C48.685 77.7925 48.5474 78.3699 48.275 78.887C48.0231 79.3641 47.6464 79.7637 47.185 80.043C46.7008 80.3285 46.1469 80.4739 45.585 80.463L43.078 80.4671Z" fill="#1A1818"/>
<path d="M52.49 73.9419H53.742V84.2519H52.49V73.9419ZM53.668 80.2019V79.0529H56.024C56.3744 79.0583 56.7199 78.9692 57.024 78.7949C57.3179 78.6238 57.5635 78.3809 57.738 78.0889C57.9226 77.7797 58.0171 77.425 58.011 77.0649C58.02 76.7954 57.9699 76.5272 57.8641 76.2791C57.7584 76.031 57.5996 75.8091 57.399 75.6289C56.9611 75.2497 56.3948 75.0522 55.816 75.0769H53.666V73.9419L55.846 73.9279C56.4608 73.9062 57.071 74.0403 57.62 74.3179C58.1187 74.572 58.537 74.9598 58.828 75.4379C59.1217 75.9292 59.2724 76.4927 59.263 77.0649C59.2725 77.6402 59.108 78.2049 58.791 78.6849C58.4708 79.1632 58.0295 79.548 57.512 79.7999C56.9432 80.0765 56.3173 80.2152 55.685 80.2049L53.668 80.2019ZM58.307 84.2519L55.833 80.0249L56.82 79.3769L59.677 84.2519H58.307Z" fill="#1A1818"/>
<path d="M68.159 84.429C67.2351 84.4466 66.3238 84.2122 65.523 83.751C64.7588 83.3031 64.1352 82.6501 63.723 81.866C63.298 81.0038 63.0763 80.0556 63.0751 79.0943C63.0739 78.133 63.2931 77.1843 63.716 76.321C64.1227 75.5433 64.7367 74.8933 65.49 74.443C66.2937 73.9975 67.1977 73.7644 68.1166 73.7658C69.0354 73.7672 69.9388 74.003 70.741 74.451C71.4968 74.9014 72.1113 75.5543 72.515 76.336C72.9323 77.198 73.1491 78.1433 73.1491 79.101C73.1491 80.0587 72.9323 81.004 72.515 81.866C72.1168 82.6466 71.5073 83.2997 70.756 83.751C69.9686 84.2127 69.0687 84.4473 68.156 84.429M68.156 83.295C68.8426 83.3086 69.5182 83.1216 70.1 82.757C70.6655 82.3924 71.1211 81.8808 71.418 81.277C71.7347 80.5951 71.8982 79.8521 71.897 79.1002C71.8958 78.3484 71.7299 77.6059 71.411 76.925C71.1102 76.3174 70.6493 75.8033 70.078 75.438C69.484 75.0858 68.8061 74.8999 68.1155 74.8999C67.4249 74.8999 66.7471 75.0858 66.153 75.438C65.5788 75.8018 65.1153 76.3161 64.813 76.925C64.493 77.6058 64.327 78.3487 64.327 79.101C64.327 79.8532 64.493 80.5962 64.813 81.277C65.1216 81.8957 65.5997 82.4139 66.1916 82.7713C66.7835 83.1286 67.4648 83.3102 68.156 83.295Z" fill="#1A1818"/>
<path d="M80.162 84.252L75.891 73.942H77.2L81.4 84.252H80.162ZM80.295 84.252L84.507 73.942H85.818L81.547 84.252H80.295Z" fill="#1A1818"/>
<path d="M90.648 73.943H89.396V84.253H90.648V73.943Z" fill="#1A1818"/>
<path d="M95.449 73.9421H96.7V84.2521H95.449V73.9421ZM96.449 73.9421H98.585V75.0911H96.45L96.449 73.9421ZM96.449 83.1041H98.585V84.2521H96.45L96.449 83.1041ZM98.585 84.2521V83.1001C99.082 83.1053 99.5743 83.003 100.028 82.8001C100.474 82.5961 100.872 82.3023 101.199 81.9371C101.9 81.1564 102.288 80.1442 102.288 79.0951C102.288 78.0459 101.9 77.0337 101.199 76.2531C100.872 75.8887 100.473 75.5956 100.028 75.3921C99.5744 75.1887 99.082 75.0853 98.585 75.0911V73.9421C99.4853 73.9238 100.374 74.1505 101.155 74.5981C101.893 75.0321 102.497 75.6616 102.9 76.4171C103.316 77.2466 103.533 78.1619 103.533 79.0901C103.533 80.0182 103.316 80.9335 102.9 81.7631C102.496 82.5199 101.893 83.1515 101.155 83.5891C100.375 84.0412 99.4862 84.2705 98.585 84.2521Z" fill="#1A1818"/>
<path d="M107.644 73.943H108.9V84.253H107.648L107.644 73.943ZM108.744 73.943H113.737V75.078H108.744V73.943ZM108.744 78.406H113.309V79.525H108.744V78.406ZM108.744 83.118H113.766V84.252H108.744V83.118Z" fill="#1A1818"/>
<path d="M118.424 73.9419H119.676V84.2519H118.424V73.9419ZM119.6 80.1999V79.0529H121.956C122.306 79.0583 122.652 78.9692 122.956 78.7949C123.25 78.6238 123.495 78.3809 123.67 78.0889C123.855 77.7797 123.949 77.425 123.943 77.0649C123.952 76.7954 123.902 76.5272 123.796 76.2791C123.69 76.031 123.532 75.8091 123.331 75.6289C122.893 75.2497 122.327 75.0522 121.748 75.0769H119.6V73.9419L121.78 73.9279C122.395 73.9062 123.005 74.0403 123.554 74.3179C124.053 74.572 124.471 74.9598 124.762 75.4379C125.056 75.9292 125.206 76.4927 125.197 77.0649C125.207 77.6402 125.042 78.2049 124.725 78.6849C124.404 79.1624 123.962 79.5461 123.444 79.7969C122.875 80.0735 122.249 80.2122 121.617 80.2019L119.6 80.1999ZM124.239 84.2499L121.765 80.0229L122.752 79.3749L125.609 84.2499H124.239Z" fill="#1A1818"/>
</g>
</g>
<mask id="mask2_1_1333" style="mask-type:luminance" maskUnits="userSpaceOnUse" x="1" y="0" width="135" height="47">
<path d="M135.997 0H1.64502V46.75H135.997V0Z" fill="white"/>
</mask>
<g mask="url(#mask2_1_1333)">
<path d="M47.957 46.345H37.965L34.712 36.805H14.889L11.7 46.345H1.646L19.193 0H26.446C28.901 0 30.481 0.769 31.128 2.552C31.775 4.335 39.759 24.942 39.759 24.942H30.411L24.746 9.286L17.554 29H37.62C40.313 29 41.792 29.882 42.5 32.1L47.957 46.345Z" fill="#319B47"/>
<path d="M135.592 46.345H125.6L122.347 36.805H102.529L99.3379 46.345H89.2839L106.827 0H114.077C116.531 0 118.111 0.769 118.758 2.552C119.405 4.335 127.392 24.942 127.392 24.942H118.043L112.375 9.286L105.186 29H125.256C127.946 29 129.424 29.882 130.134 32.1L136 46.743" fill="#319B47"/>
<path d="M51.127 0H69.3C83.485 0 90.445 7.54 90.445 23.2C90.445 31.839 87.739 38.353 82.902 42.217C78.391 45.827 73.363 46.337 66.727 46.337H51.127V0ZM68.141 37.965C76.976 37.965 80.714 33.646 80.714 23.203C80.714 12.888 77.169 8.124 69.303 8.124H60.476V37.965H68.141Z" fill="#319B47"/>
</g>
</svg>
