<svg width="179" height="82" viewBox="0 0 179 82" fill="none" xmlns="http://www.w3.org/2000/svg">
<mask id="mask0_1_1201" style="mask-type:luminance" maskUnits="userSpaceOnUse" x="0" y="0" width="179" height="82">
<path d="M178.262 0.000976562H0V81.619H178.262V0.000976562Z" fill="white"/>
</mask>
<g mask="url(#mask0_1_1201)">
<path d="M70.01 67.3417C70.7175 67.676 71.3081 68.2154 71.705 68.8897C72.1007 69.597 72.2996 70.3975 72.281 71.2077C72.3051 72.0291 72.1079 72.8418 71.71 73.5607C71.3175 74.2256 70.7259 74.7503 70.019 75.0607C69.1575 75.4301 68.2259 75.6075 67.289 75.5807H63.489V81.6237H62.236V66.7857H67.29C68.2274 66.7587 69.1584 66.949 70.01 67.3417ZM70.101 73.6067C70.4126 73.2957 70.656 72.9232 70.8156 72.5129C70.9752 72.1026 71.0475 71.6635 71.028 71.2237C71.0363 70.6309 70.899 70.0451 70.628 69.5177C70.3491 68.9969 69.9174 68.5739 69.391 68.3057C68.7394 67.9827 68.0178 67.8267 67.291 67.8517H63.491V74.5037H67.291C68.3098 74.5847 69.3196 74.2614 70.102 73.6037" fill="#040504"/>
<path d="M86.424 77.4619H79.6789L78.1509 81.6239H76.851L82.451 66.7899H83.643L89.256 81.6239H87.9559L86.424 77.4619ZM86.0239 76.3929L83.0519 68.3139L80.0789 76.3929H86.0239Z" fill="#040504"/>
<path d="M106.843 81.4869V81.6239H105.498L101.922 75.4359H97.602V81.6239H96.35V66.7859H101.169C102.087 66.7625 102.999 66.9329 103.847 67.2859C104.566 67.5916 105.175 68.1106 105.59 68.7729C106.015 69.4921 106.227 70.317 106.202 71.1519C106.208 71.7672 106.078 72.3763 105.82 72.9349C105.569 73.4734 105.2 73.9484 104.74 74.3249C104.265 74.7137 103.716 75 103.125 75.1659L106.843 81.4869ZM101.443 74.3759C102.107 74.3957 102.765 74.243 103.353 73.9329C103.854 73.662 104.267 73.2541 104.545 72.7569C104.813 72.2665 104.95 71.7157 104.945 71.1569C104.961 70.5405 104.809 69.9314 104.507 69.3939C104.207 68.8908 103.759 68.4924 103.224 68.2529C102.576 67.9702 101.873 67.8336 101.166 67.8529H97.603V74.3719L101.443 74.3759Z" fill="#040504"/>
<path d="M123.931 67.856H118.847V81.619H117.604V67.856H112.521V66.786H123.931V67.856Z" fill="#040504"/>
<path d="M141.043 81.619L132.523 68.924V81.619H131.26V66.785H132.523L141.05 79.48V66.785H142.303V81.619H141.043Z" fill="#040504"/>
<path d="M160.226 80.56V81.619H151.007V66.786H160.175V67.855H152.26V73.438H159.188V74.508H152.26V80.559L160.226 80.56Z" fill="#040504"/>
<path d="M178.261 81.4869V81.6239H176.916L173.34 75.4399H169.02V81.6239H167.767V66.7859H172.586C173.504 66.7625 174.416 66.9329 175.264 67.2859C175.984 67.5916 176.592 68.1106 177.007 68.7729C177.432 69.4921 177.644 70.317 177.619 71.1519C177.625 71.7672 177.495 72.3763 177.237 72.9349C176.986 73.4734 176.617 73.9484 176.157 74.3249C175.683 74.7137 175.133 75 174.542 75.1659L178.261 81.4869ZM172.861 74.3759C173.525 74.3957 174.183 74.243 174.771 73.9329C175.272 73.662 175.685 73.2541 175.963 72.7569C176.231 72.2665 176.369 71.7157 176.363 71.1569C176.379 70.5405 176.227 69.9314 175.925 69.3939C175.625 68.8908 175.177 68.4924 174.642 68.2529C173.994 67.9702 173.291 67.8336 172.584 67.8529H169.018V74.3719L172.861 74.3759Z" fill="#040504"/>
</g>
<mask id="mask1_1_1201" style="mask-type:luminance" maskUnits="userSpaceOnUse" x="0" y="0" width="179" height="59">
<path d="M178.261 0H0V58.427H178.261V0Z" fill="white"/>
</mask>
<g mask="url(#mask1_1_1201)">
<path d="M0 28.081V11.552C0 3.76098 4.2 0.000976562 14.734 0.000976562C25.268 0.000976562 29.434 3.76098 29.434 11.552V15.685H21.2V7.21598H8.231V32.416H21.2V23.987H29.429V28.087C29.429 35.878 25.263 39.638 14.729 39.638C4.195 39.638 0 35.872 0 28.081Z" fill="#53AB34"/>
<path d="M37.9321 28.759V0.51001H46.1631V32.424H59.1701V0.51001H67.4021V39.124H59.1701V35.195C56.8701 38.107 53.5141 39.632 48.8701 39.632C41.8921 39.632 37.9301 36.008 37.9301 28.759" fill="#53AB34"/>
<path d="M76.985 0.509977H85.216V4.54098C87.344 1.38998 90.63 0.000976562 94.695 0.000976562C101.164 0.000976562 104.179 3.35298 104.179 9.31698V21.473H95.985V7.21598H85.211V39.123H76.985V0.509977Z" fill="#53AB34"/>
<path d="M109.698 0.51001H118.198L123.648 24.224L125.448 32.424H127.107L128.907 24.224L134.356 0.51001H142.856L132.9 39.124H119.661L109.698 0.51001Z" fill="#53AB34"/>
<path d="M147.866 28.081V11.552C147.866 3.76198 152.066 0.000976562 162.596 0.000976562C173.126 0.000976562 177.296 3.76198 177.296 11.552V21.712H156.102V32.418H169.075V26.082H177.306V28.082C177.306 35.873 173.14 39.633 162.606 39.633C152.072 39.633 147.872 35.873 147.872 28.082M169.072 7.18198H156.102V16.531H169.075L169.072 7.18198Z" fill="#53AB34"/>
<path d="M72.839 47.413V58.336H71.731V49.929L67.759 58.336H67.108L63.138 49.956V58.335H62.031V47.413H63.06L67.443 56.735L71.808 47.413H72.839Z" fill="#040504"/>
<path d="M87.035 58.335L86.117 55.788H81.017L80.083 58.335H78.976L82.9949 47.416H84.1359L88.142 58.335H87.035ZM81.335 54.902H85.781L83.5659 48.793L81.335 54.902Z" fill="#040504"/>
<path d="M95.389 53.759V58.336H94.282V47.413H97.621C98.627 47.3408 99.6227 47.6552 100.405 48.292C100.714 48.5725 100.959 48.9164 101.123 49.3002C101.287 49.6841 101.366 50.0988 101.355 50.516C101.391 51.3096 101.125 52.0874 100.611 52.693C100.022 53.2917 99.234 53.6544 98.396 53.713L101.496 58.334H100.056L97.099 53.76L95.389 53.759ZM95.389 48.312V52.854H97.62C99.3606 52.854 100.231 52.0973 100.23 50.584C100.229 49.0707 99.3593 48.3137 97.62 48.313L95.389 48.312Z" fill="#040504"/>
<path d="M109.05 58.336H107.943V47.413H109.05V52.523L113.781 47.413H115.221L109.921 52.951L115.221 58.332H113.721L109.054 53.427L109.05 58.336Z" fill="#040504"/>
<path d="M126.547 47.413V48.313H122.101V52.398H126.073V53.284H122.101V57.447H126.547V58.337H120.996V47.413H126.547Z" fill="#040504"/>
<path d="M132.402 48.315V47.415H139.222V48.315H136.358V58.336H135.266V48.315H132.402Z" fill="#040504"/>
<path d="M146.406 47.415H145.299V58.333H146.406V47.415Z" fill="#040504"/>
<path d="M160.122 47.413H161.229V58.336H160.122L153.998 49.19V58.336H152.891V47.413H153.998L160.122 56.559V47.413Z" fill="#040504"/>
<path d="M168.774 56.861C167.743 55.7881 167.167 54.3577 167.167 52.8695C167.167 51.3813 167.743 49.9509 168.774 48.878C169.292 48.3637 169.909 47.9594 170.588 47.6895C171.266 47.4195 171.992 47.2894 172.722 47.307C173.766 47.2878 174.797 47.55 175.705 48.066C176.579 48.5775 177.269 49.353 177.675 50.281H176.33C176.005 49.6502 175.498 49.132 174.874 48.794C174.213 48.439 173.472 48.2586 172.722 48.27C172.136 48.2518 171.552 48.3549 171.007 48.5727C170.463 48.7905 169.969 49.1185 169.557 49.536C168.751 50.4615 168.307 51.6473 168.307 52.8745C168.307 54.1017 168.751 55.2875 169.557 56.213C169.965 56.629 170.455 56.9561 170.996 57.174C171.536 57.3918 172.116 57.4957 172.699 57.479C173.826 57.5284 174.927 57.1305 175.762 56.372C176.573 55.5684 177.053 54.4901 177.107 53.35H172.202V52.464H178.262V53.35C178.173 54.7589 177.538 56.0777 176.493 57.0262C175.447 57.9748 174.073 58.4783 172.662 58.43C171.942 58.4427 171.227 58.3101 170.559 58.0401C169.892 57.7702 169.286 57.3685 168.777 56.859" fill="#040504"/>
</g>
</svg>
