<svg width="209" height="81" viewBox="0 0 209 81" fill="none" xmlns="http://www.w3.org/2000/svg">
<path d="M207.835 80.4297V80.5312H206.803L204.061 75.7891H200.749V80.5312H199.788V69.1562H203.483C204.275 69.1562 204.96 69.2865 205.538 69.5469C206.116 69.8021 206.561 70.1823 206.874 70.6875C207.186 71.1875 207.343 71.7943 207.343 72.5078C207.343 73.0026 207.244 73.4583 207.046 73.875C206.853 74.2917 206.577 74.6484 206.218 74.9453C205.863 75.237 205.452 75.4505 204.983 75.5859L207.835 80.4297ZM203.694 74.9766C204.267 74.9766 204.754 74.8646 205.155 74.6406C205.561 74.4115 205.866 74.1094 206.069 73.7344C206.277 73.3594 206.382 72.9505 206.382 72.5078C206.382 71.987 206.27 71.5365 206.046 71.1562C205.822 70.776 205.494 70.4844 205.061 70.2812C204.629 70.0781 204.103 69.9766 203.483 69.9766H200.749V74.9766H203.694Z" fill="black"/>
<path d="M194.252 79.7188V80.5312H187.854H187.182V69.1562H188.143H194.213V69.9766H188.143V74.2578H193.455V75.0781H188.143V79.7188H194.252Z" fill="black"/>
<path d="M179.787 80.5312L173.256 70.7969V80.5312H172.287V69.1562H173.256L179.795 78.8906V69.1562H180.756V80.5312H179.787Z" fill="black"/>
<path d="M166.915 69.9766H163.017V80.5312H162.064V69.9766H158.165V69.1562H163.017H166.915V69.9766Z" fill="black"/>
<path d="M154.067 80.4297V80.5312H153.036L150.294 75.7891H146.981V80.5312H146.02V69.1562H149.716C150.507 69.1562 151.192 69.2865 151.77 69.5469C152.348 69.8021 152.794 70.1823 153.106 70.6875C153.419 71.1875 153.575 71.7943 153.575 72.5078C153.575 73.0026 153.476 73.4583 153.278 73.875C153.085 74.2917 152.809 74.6484 152.45 74.9453C152.096 75.237 151.684 75.4505 151.216 75.5859L154.067 80.4297ZM149.927 74.9766C150.499 74.9766 150.986 74.8646 151.387 74.6406C151.794 74.4115 152.098 74.1094 152.302 73.7344C152.51 73.3594 152.614 72.9505 152.614 72.5078C152.614 71.987 152.502 71.5365 152.278 71.1562C152.054 70.776 151.726 70.4844 151.294 70.2812C150.861 70.0781 150.335 69.9766 149.716 69.9766H146.981V74.9766H149.927Z" fill="black"/>
<path d="M138.664 77.3438H133.492L132.321 80.5312H131.321L135.617 69.1562H136.321H136.531L140.836 80.5312H139.836L138.664 77.3438ZM138.36 76.5234L136.078 70.3281L133.797 76.5234H138.36Z" fill="black"/>
<path d="M124.238 69.1562C125.056 69.1562 125.751 69.2995 126.324 69.5859C126.897 69.8672 127.329 70.263 127.621 70.7734C127.918 71.2786 128.066 71.8698 128.066 72.5469C128.066 73.25 127.92 73.8516 127.629 74.3516C127.337 74.8516 126.905 75.2344 126.332 75.5C125.759 75.7656 125.061 75.8984 124.238 75.8984H121.324V80.5312H120.363V69.1562H124.238ZM124.238 75.0781C125.202 75.0781 125.92 74.849 126.394 74.3906C126.868 73.9271 127.105 73.3177 127.105 72.5625C127.105 72.0781 127.004 71.6432 126.801 71.2578C126.598 70.8672 126.28 70.5573 125.848 70.3281C125.42 70.0938 124.884 69.9766 124.238 69.9766H121.324V75.0781H124.238Z" fill="black"/>
<path d="M102.112 69.1562C103.05 69.1562 103.886 69.3698 104.62 69.7969C105.36 70.224 105.935 70.8307 106.347 71.6172C106.758 72.3984 106.964 73.2995 106.964 74.3203V75.3672C106.964 76.3932 106.758 77.2969 106.347 78.0781C105.935 78.8594 105.357 79.4635 104.612 79.8906C103.867 80.3177 103.011 80.5312 102.042 80.5312H99.4637H98.9325V69.1562H99.8934H102.112ZM106.011 74.3047C106.011 73.4401 105.849 72.6823 105.526 72.0312C105.203 71.375 104.748 70.8698 104.159 70.5156C103.571 70.1562 102.888 69.9766 102.112 69.9766H99.8934V79.7188H102.042C102.844 79.7188 103.544 79.5365 104.143 79.1719C104.742 78.8073 105.203 78.2969 105.526 77.6406C105.849 76.9844 106.011 76.2266 106.011 75.3672V74.3047Z" fill="black"/>
<path d="M91.5375 80.5312L85.0062 70.7969V80.5312H84.0375V69.1562H85.0062L91.5453 78.8906V69.1562H92.5062V80.5312H91.5375Z" fill="black"/>
<path d="M78.0723 75.4531C78.0723 76.5052 77.89 77.4271 77.5254 78.2188C77.166 79.0052 76.653 79.6146 75.9863 80.0469C75.3197 80.474 74.541 80.6875 73.6504 80.6875C72.7754 80.6875 72.002 80.474 71.3301 80.0469C70.6582 79.6146 70.1374 79.0026 69.7676 78.2109C69.3978 77.4193 69.2129 76.5 69.2129 75.4531V74.2344C69.2129 73.1875 69.3952 72.2682 69.7598 71.4766C70.1296 70.6849 70.6478 70.0755 71.3145 69.6484C71.9863 69.2161 72.7598 69 73.6348 69C74.5254 69 75.304 69.2161 75.9707 69.6484C76.6426 70.0755 77.1608 70.6849 77.5254 71.4766C77.89 72.263 78.0723 73.1823 78.0723 74.2344V75.4531ZM77.1191 74.2188C77.1191 73.3229 76.9811 72.5469 76.7051 71.8906C76.429 71.2344 76.028 70.7292 75.502 70.375C74.9811 70.0208 74.3587 69.8438 73.6348 69.8438C72.9264 69.8438 72.3118 70.0208 71.791 70.375C71.2702 70.7292 70.8691 71.237 70.5879 71.8984C70.3118 72.5547 70.1738 73.3281 70.1738 74.2188V75.4531C70.1738 76.349 70.3145 77.1276 70.5957 77.7891C70.877 78.4453 71.278 78.9531 71.7988 79.3125C72.3249 79.6667 72.9421 79.8438 73.6504 79.8438C74.3796 79.8438 75.0046 79.6667 75.5254 79.3125C76.0462 78.9583 76.4421 78.4531 76.7129 77.7969C76.9837 77.1354 77.1191 76.3542 77.1191 75.4531V74.2188Z" fill="black"/>
<path d="M63.2632 80.5312H62.3022V75.5547L62.3882 70.5L58.146 80.5312H57.4038L53.1851 70.5312L53.271 75.5547V80.5312H52.3101V69.1562H53.1616H53.5757L57.7788 79.1875L61.9819 69.1562H63.2632V80.5312Z" fill="black"/>
<path d="M44.9307 77.3438H39.7588L38.5869 80.5312H37.5869L41.8838 69.1562H42.5869H42.7979L47.1025 80.5312H46.1025L44.9307 77.3438ZM44.626 76.5234L42.3447 70.3281L40.0635 76.5234H44.626Z" fill="black"/>
<path d="M31.2153 80.5312V69.1562H32.1763V80.5312H31.2153Z" fill="black"/>
<path d="M20.1797 69.1562C21.1172 69.1562 21.9531 69.3698 22.6875 69.7969C23.4271 70.224 24.0026 70.8307 24.4141 71.6172C24.8255 72.3984 25.0312 73.2995 25.0312 74.3203V75.3672C25.0312 76.3932 24.8255 77.2969 24.4141 78.0781C24.0026 78.8594 23.4245 79.4635 22.6797 79.8906C21.9349 80.3177 21.0781 80.5312 20.1094 80.5312H17.5312H17V69.1562H17.9609H20.1797ZM24.0781 74.3047C24.0781 73.4401 23.9167 72.6823 23.5938 72.0312C23.2708 71.375 22.8151 70.8698 22.2266 70.5156C21.638 70.1562 20.9557 69.9766 20.1797 69.9766H17.9609V79.7188H20.1094C20.9115 79.7188 21.612 79.5365 22.2109 79.1719C22.8099 78.8073 23.2708 78.2969 23.5938 77.6406C23.9167 76.9844 24.0781 76.2266 24.0781 75.3672V74.3047Z" fill="black"/>
<path d="M85.412 25.234C85.429 25.3718 85.417 25.5115 85.377 25.6444C85.337 25.7773 85.2698 25.9004 85.1796 26.0059C85.0894 26.1114 84.9782 26.197 84.8531 26.2572C84.7281 26.3174 84.5919 26.3509 84.4531 26.3555C84.3144 26.3602 84.1762 26.3359 84.0474 26.2843C83.9186 26.2326 83.8019 26.1548 83.7048 26.0556C83.6077 25.9564 83.5324 25.8381 83.4835 25.7082C83.4347 25.5782 83.4134 25.4396 83.421 25.301C83.4199 25.2787 83.4199 25.2563 83.421 25.234V23.425C82.9002 24.3183 82.1564 25.0611 81.2625 25.5808C80.3685 26.1005 79.355 26.3793 78.321 26.39C77.4649 26.3736 76.6204 26.1888 75.8358 25.846C75.0511 25.5032 74.3417 25.0093 73.7479 24.3923C73.1542 23.7753 72.6878 23.0475 72.3754 22.2503C72.0629 21.453 71.9106 20.6021 71.927 19.746C71.9256 19.6515 71.9293 19.5571 71.938 19.463V19.406C71.8347 17.6707 72.4245 15.9654 73.5779 14.6648C74.7313 13.3643 76.3538 12.5748 78.089 12.47H78.315C79.3387 12.4702 80.3455 12.7311 81.2404 13.2282C82.1353 13.7252 82.8889 14.442 83.43 15.311V8.137C83.4255 8.00915 83.4462 7.88167 83.4909 7.76182C83.5356 7.64196 83.6035 7.5321 83.6907 7.4385C83.7779 7.34489 83.8827 7.26938 83.9991 7.21628C84.1155 7.16317 84.2412 7.13352 84.369 7.129H84.415C84.6772 7.12681 84.9297 7.22766 85.1182 7.40983C85.3068 7.592 85.4162 7.84093 85.423 8.103V25.235L85.412 25.234ZM73.972 19.4V19.457C73.8804 20.7284 74.2971 21.9842 75.1308 22.9485C75.9644 23.9128 77.1467 24.5068 78.418 24.6H78.679C79.9978 24.5595 81.2465 23.9968 82.1504 23.0357C83.0543 22.0746 83.5394 20.7938 83.499 19.475V19.385C83.5468 18.0712 83.0709 16.7921 82.1758 15.8292C81.2807 14.8662 80.0398 14.2982 78.726 14.25H78.679C78.0613 14.2474 77.4491 14.3665 76.8775 14.6007C76.3059 14.8348 75.786 15.1793 75.3476 15.6146C74.9093 16.0498 74.561 16.5671 74.3227 17.1371C74.0844 17.707 73.9608 18.3183 73.959 18.936V18.944C73.9554 19.0914 73.9631 19.2388 73.982 19.385M94.408 26.412C92.6508 26.4224 90.9615 25.7343 89.7116 24.4993C88.4617 23.2642 87.7536 21.5832 87.743 19.826V19.419C87.6951 18.5559 87.8176 17.6917 88.1037 16.876C88.3897 16.0602 88.8336 15.3088 89.4101 14.6646C89.9866 14.0204 90.6843 13.4961 91.4635 13.1216C92.2426 12.7471 93.0879 12.5298 93.951 12.482H94.151C98.1 12.482 100.351 15.707 100.351 19.249C100.351 19.3705 100.328 19.4908 100.282 19.6032C100.236 19.7156 100.168 19.8178 100.082 19.904C99.9966 19.9901 99.8948 20.0586 99.7828 20.1054C99.6707 20.1523 99.5505 20.1766 99.429 20.177H89.758C89.7943 21.3952 90.3069 22.5505 91.1857 23.3949C92.0645 24.2392 93.2394 24.7053 94.458 24.693C95.8931 24.6994 97.2736 24.143 98.303 23.143C98.4245 23.0295 98.5765 22.9539 98.7403 22.9256C98.9041 22.8972 99.0727 22.9173 99.2253 22.9833C99.3778 23.0494 99.5078 23.1585 99.5993 23.2974C99.6907 23.4362 99.7396 23.5987 99.74 23.765C99.7384 23.8897 99.7104 24.0126 99.6579 24.1257C99.6053 24.2388 99.5293 24.3394 99.435 24.421C98.7784 25.0837 97.9925 25.6044 97.1262 25.9507C96.2598 26.297 95.3316 26.4615 94.399 26.434M98.348 18.717C98.148 16.296 96.748 14.168 94.094 14.168C92.9296 14.2356 91.8344 14.7431 91.03 15.5876C90.2256 16.4321 89.772 17.5507 89.761 18.717H98.348ZM102.573 13.659C102.592 13.4106 102.703 13.1783 102.884 13.0075C103.065 12.8366 103.304 12.7396 103.553 12.7354C103.802 12.7311 104.044 12.8199 104.231 12.9845C104.418 13.149 104.537 13.3774 104.564 13.625V15.108C105.015 14.2972 105.679 13.6258 106.486 13.1673C107.292 12.7088 108.209 12.4807 109.136 12.508C112.361 12.508 114.251 14.68 114.251 17.849V25.261C114.237 25.5105 114.131 25.7458 113.952 25.9206C113.773 26.0953 113.536 26.1969 113.286 26.2053C113.036 26.2137 112.793 26.1284 112.603 25.966C112.413 25.8036 112.291 25.576 112.26 25.328C112.259 25.3057 112.259 25.2833 112.26 25.261V18.331C112.26 15.853 110.913 14.303 108.571 14.303C108.056 14.2918 107.544 14.3823 107.064 14.5691C106.584 14.7559 106.145 15.0354 105.773 15.3917C105.401 15.748 105.103 16.1741 104.896 16.6457C104.688 17.1172 104.576 17.625 104.565 18.14V25.254C104.57 25.3818 104.549 25.5093 104.504 25.6292C104.459 25.749 104.392 25.8589 104.304 25.9525C104.217 26.0461 104.112 26.1216 103.996 26.1747C103.88 26.2278 103.754 26.2575 103.626 26.262H103.58C103.318 26.2642 103.065 26.1633 102.877 25.9812C102.688 25.799 102.579 25.5501 102.572 25.288L102.573 13.659ZM117.891 22.6V14.541H116.804C116.573 14.5326 116.353 14.4369 116.19 14.2733C116.026 14.1097 115.93 13.8902 115.922 13.659C115.924 13.4258 116.018 13.2028 116.183 13.0379C116.348 12.873 116.571 12.7793 116.804 12.777H117.891V9.629C117.888 9.49964 117.91 9.37094 117.957 9.25027C118.004 9.12959 118.074 9.0193 118.163 8.92569C118.253 8.83208 118.359 8.75699 118.478 8.70471C118.596 8.65243 118.724 8.62399 118.853 8.621H118.864C119.131 8.62361 119.385 8.73064 119.574 8.91912C119.762 9.10759 119.869 9.36247 119.872 9.629V12.778H123.335C123.569 12.7824 123.793 12.8762 123.96 13.0402C124.128 13.2042 124.226 13.4259 124.235 13.66C124.23 13.8956 124.133 14.1199 123.965 14.2848C123.797 14.4497 123.571 14.542 123.335 14.542H119.871V22.342C119.801 22.8596 119.94 23.3837 120.256 23.7994C120.572 24.2152 121.04 24.4887 121.557 24.56C121.741 24.5826 121.927 24.5826 122.111 24.56C122.52 24.5451 122.926 24.4844 123.322 24.379C123.546 24.3806 123.761 24.4704 123.92 24.6291C124.079 24.7878 124.168 25.0026 124.17 25.227C124.169 25.3983 124.113 25.5648 124.012 25.7028C123.91 25.8409 123.768 25.9435 123.605 25.996C122.983 26.245 122.317 26.368 121.647 26.358C120.754 26.4634 119.855 26.2096 119.148 25.6525C118.442 25.0953 117.986 24.2804 117.88 23.387V23.381C117.846 23.1181 117.846 22.8519 117.88 22.589M125.326 22.25V22.2C125.326 19.382 127.645 17.889 131.026 17.889C132.415 17.8785 133.798 18.0688 135.133 18.454V18C135.133 15.6 133.663 14.356 131.161 14.356C129.97 14.3536 128.793 14.6081 127.71 15.102C127.595 15.1507 127.473 15.1774 127.348 15.181C127.12 15.1807 126.901 15.0923 126.737 14.9342C126.572 14.7762 126.475 14.5608 126.466 14.333C126.467 14.1575 126.518 13.986 126.615 13.8393C126.711 13.6927 126.848 13.5772 127.009 13.507C128.384 12.8989 129.873 12.592 131.376 12.607C132.156 12.5513 132.94 12.6527 133.68 12.9052C134.421 13.1577 135.103 13.5562 135.687 14.077C136.166 14.6012 136.535 15.2169 136.771 15.887C137.006 16.5572 137.104 17.2681 137.058 17.977V25.287C137.068 25.5367 136.979 25.7802 136.811 25.9646C136.642 26.1491 136.408 26.2596 136.158 26.272H136.113C135.872 26.2831 135.636 26.198 135.458 26.0354C135.28 25.8729 135.173 25.6461 135.162 25.405V24.126C134.598 24.8669 133.866 25.4622 133.025 25.8623C132.185 26.2624 131.26 26.4557 130.33 26.426C127.852 26.426 125.354 25 125.354 22.273M135.192 21.243V19.95C133.917 19.5761 132.595 19.3859 131.266 19.385C128.766 19.385 127.374 20.472 127.374 22.147V22.192C127.374 23.867 128.924 24.851 130.735 24.851C133.19 24.851 135.205 23.357 135.205 21.232M140.218 8.174C140.201 8.03624 140.213 7.89647 140.253 7.76357C140.293 7.63067 140.36 7.50756 140.45 7.40206C140.541 7.29657 140.652 7.21101 140.777 7.15082C140.902 7.09063 141.038 7.05714 141.177 7.05247C141.316 7.04781 141.454 7.07206 141.583 7.12371C141.711 7.17535 141.828 7.25325 141.925 7.35244C142.022 7.45163 142.098 7.56994 142.146 7.69985C142.195 7.82976 142.217 7.96842 142.209 8.107C142.21 8.12932 142.21 8.15168 142.209 8.174V25.274C142.214 25.4018 142.193 25.5293 142.148 25.6492C142.103 25.769 142.036 25.8789 141.948 25.9725C141.861 26.0661 141.756 26.1416 141.64 26.1947C141.524 26.2478 141.398 26.2775 141.27 26.282H141.224C140.962 26.2842 140.709 26.1833 140.521 26.0012C140.332 25.819 140.223 25.5701 140.216 25.308V8.173L140.218 8.174ZM72.199 32.93C72.2925 32.416 72.5634 31.951 72.9645 31.6163C73.3657 31.2815 73.8716 31.0982 74.394 31.0982C74.9165 31.0982 75.4224 31.2815 75.8235 31.6163C76.2246 31.951 76.4955 32.416 76.589 32.93V32.975C76.5003 33.4929 76.2313 33.9627 75.8296 34.3014C75.4279 34.6401 74.9194 34.8258 74.394 34.8258C73.8686 34.8258 73.3601 34.6401 72.9584 34.3014C72.5568 33.9627 72.2878 33.4929 72.199 32.975V32.93ZM72.425 38.045C72.4218 37.5307 72.6205 37.0356 72.9784 36.6662C73.3363 36.2968 73.8248 36.0825 74.339 36.0694C74.8531 36.0563 75.3519 36.2454 75.7282 36.5961C76.1044 36.9469 76.328 37.4312 76.351 37.945V48.274C76.3347 48.7838 76.1208 49.2672 75.7544 49.6221C75.3881 49.9769 74.898 50.1753 74.388 50.1753C73.878 50.1753 73.3879 49.9769 73.0216 49.6221C72.6552 49.2672 72.4413 48.7838 72.425 48.274V38.045ZM78.751 38.045C78.7387 37.7873 78.7772 37.5298 78.8644 37.287C78.9516 37.0443 79.0857 36.821 79.2592 36.6301C79.4327 36.4392 79.642 36.2843 79.8753 36.1743C80.1087 36.0643 80.3614 36.0013 80.619 35.989C80.8767 35.9767 81.1342 36.0152 81.377 36.1024C81.6198 36.1896 81.843 36.3237 82.0339 36.4972C82.2248 36.6706 82.3797 36.88 82.4897 37.1133C82.5997 37.3466 82.6627 37.5993 82.675 37.857C82.675 37.885 82.675 37.915 82.675 37.943V38.203C83.1172 37.53 83.7178 36.9758 84.4241 36.5891C85.1304 36.2024 85.9208 35.995 86.726 35.985C89.691 35.985 91.426 37.943 91.426 41.123V48.275C91.4097 48.7848 91.1958 49.2682 90.8294 49.6231C90.4631 49.9779 89.973 50.1763 89.463 50.1763C88.953 50.1763 88.463 49.9779 88.0966 49.6231C87.7302 49.2682 87.5163 48.7848 87.5 48.275V42.355C87.5 40.499 86.617 39.537 85.125 39.537C83.633 39.537 82.671 40.485 82.671 42.355V48.273C82.6547 48.7828 82.4408 49.2662 82.0744 49.6211C81.7081 49.9759 81.218 50.1743 80.708 50.1743C80.198 50.1743 79.7079 49.9759 79.3416 49.6211C78.9752 49.2662 78.7613 48.7828 78.745 48.273V38.043L78.751 38.045ZM94.197 46.145V39.58H94.061C93.6168 39.58 93.1907 39.4035 92.8766 39.0894C92.5625 38.7753 92.386 38.3492 92.386 37.905C92.386 37.4608 92.5625 37.0347 92.8766 36.7206C93.1907 36.4065 93.6168 36.23 94.061 36.23H94.2V34.5C94.1968 33.9857 94.3955 33.4906 94.7534 33.1212C95.1113 32.7518 95.5998 32.5375 96.114 32.5244C96.6281 32.5113 97.1269 32.7004 97.5032 33.0511C97.8794 33.4019 98.103 33.8862 98.126 34.4V36.233H99.861C100.293 36.2513 100.7 36.4356 100.999 36.7474C101.298 37.0593 101.465 37.4745 101.465 37.9065C101.465 38.3385 101.298 38.7537 100.999 39.0656C100.7 39.3774 100.293 39.5617 99.861 39.58H98.119V45.5C98.119 46.4 98.519 46.847 99.387 46.847C99.523 46.847 99.787 46.824 99.851 46.824C100.282 46.8277 100.695 47.0006 101 47.3055C101.304 47.6104 101.477 48.0228 101.481 48.454C101.478 48.7714 101.38 49.0806 101.201 49.3424C101.021 49.6041 100.768 49.8066 100.473 49.924C99.7558 50.2037 98.9907 50.3396 98.221 50.324C95.821 50.324 94.193 49.373 94.193 46.171M109.141 50.4C107.307 50.4836 105.515 49.8352 104.159 48.5975C102.803 47.3598 101.994 45.6341 101.91 43.8V43.194C101.829 41.3677 102.475 39.5837 103.708 38.2338C104.941 36.8838 106.659 36.0783 108.485 35.994H108.756C110.49 35.9619 112.167 36.6196 113.416 37.8226C114.666 39.0257 115.387 40.6756 115.421 42.41V42.647C115.448 43.1175 115.288 43.5796 114.974 43.9316C114.661 44.2836 114.221 44.4967 113.75 44.524H105.819C105.942 45.3173 106.358 46.0357 106.984 46.538C107.61 47.0403 108.402 47.29 109.203 47.238C110.208 47.2446 111.187 46.9183 111.987 46.31C112.257 46.0952 112.594 45.9829 112.938 45.993C113.136 45.9893 113.332 46.0247 113.516 46.0972C113.7 46.1696 113.868 46.2777 114.01 46.4153C114.152 46.5528 114.265 46.7171 114.343 46.8986C114.422 47.0801 114.463 47.2753 114.466 47.473V47.554C114.465 47.7738 114.418 47.9909 114.329 48.1917C114.239 48.3924 114.109 48.5723 113.946 48.72C112.604 49.8459 110.897 50.4417 109.146 50.395M111.669 42.078C111.664 41.3034 111.355 40.5617 110.809 40.0121C110.263 39.4625 109.524 39.1487 108.749 39.138C107.97 39.1591 107.228 39.4738 106.672 40.0191C106.115 40.5644 105.786 41.2998 105.749 42.078H111.669ZM117.304 33.048C117.279 32.5276 117.462 32.0187 117.812 31.6331C118.163 31.2476 118.652 31.0169 119.172 30.992C119.692 30.9671 120.201 31.1499 120.587 31.5002C120.972 31.8505 121.203 32.3396 121.228 32.86C121.228 32.888 121.228 32.918 121.228 32.946V48.288C121.212 48.7978 120.998 49.2812 120.631 49.6361C120.265 49.9909 119.775 50.1893 119.265 50.1893C118.755 50.1893 118.265 49.9909 117.899 49.6361C117.532 49.2812 117.318 48.7978 117.302 48.288L117.304 33.048ZM123.811 33.048C123.786 32.5276 123.969 32.0187 124.319 31.6331C124.67 31.2476 125.159 31.0169 125.679 30.992C126.199 30.9671 126.708 31.1499 127.094 31.5002C127.479 31.8505 127.71 32.3396 127.735 32.86C127.735 32.888 127.735 32.918 127.735 32.946V48.288C127.719 48.7978 127.505 49.2812 127.138 49.6361C126.772 49.9909 126.282 50.1893 125.772 50.1893C125.262 50.1893 124.772 49.9909 124.406 49.6361C124.039 49.2812 123.825 48.7978 123.809 48.288L123.811 33.048ZM130.092 32.948C130.185 32.434 130.456 31.969 130.858 31.6343C131.259 31.2995 131.765 31.1162 132.287 31.1162C132.809 31.1162 133.315 31.2995 133.716 31.6343C134.118 31.969 134.389 32.434 134.482 32.948V32.993C134.393 33.5109 134.124 33.9807 133.723 34.3194C133.321 34.6581 132.812 34.8438 132.287 34.8438C131.762 34.8438 131.253 34.6581 130.851 34.3194C130.45 33.9807 130.181 33.5109 130.092 32.993V32.948ZM130.318 38.063C130.315 37.5487 130.514 37.0536 130.871 36.6842C131.229 36.3148 131.718 36.1005 132.232 36.0874C132.746 36.0743 133.245 36.2634 133.621 36.6141C133.997 36.9649 134.221 37.4492 134.244 37.963V48.291C134.228 48.8008 134.014 49.2842 133.647 49.6391C133.281 49.9939 132.791 50.1923 132.281 50.1923C131.771 50.1923 131.281 49.9939 130.915 49.6391C130.548 49.2842 130.334 48.8008 130.318 48.291V38.063ZM137.782 53.317C137.419 53.2002 137.11 52.9579 136.91 52.6337C136.71 52.3094 136.633 51.9244 136.691 51.548C136.75 51.1715 136.941 50.8284 137.23 50.5802C137.519 50.332 137.887 50.195 138.268 50.194C138.494 50.1942 138.717 50.2405 138.924 50.33C140.122 50.8853 141.429 51.1674 142.749 51.156C145.43 51.156 146.698 49.866 146.698 47.388V46.721C146.185 47.435 145.506 48.013 144.719 48.4048C143.932 48.7965 143.061 48.9902 142.182 48.969C140.573 48.992 139.02 48.3749 137.866 47.2535C136.712 46.1321 136.05 44.5981 136.027 42.989V42.455C135.928 40.8472 136.471 39.2657 137.537 38.0584C138.604 36.8511 140.106 36.1168 141.714 36.017H141.741C141.888 36.017 142.024 36.006 142.171 36.017C143.025 35.9994 143.871 36.1768 144.645 36.5357C145.42 36.8946 146.103 37.4255 146.641 38.088V38.065C146.646 37.5444 146.857 37.0469 147.228 36.6819C147.599 36.317 148.1 36.1145 148.621 36.119C149.142 36.1235 149.639 36.3346 150.004 36.706C150.369 37.0773 150.572 37.5784 150.567 38.099V47C150.65 47.9799 150.538 48.9666 150.237 49.9028C149.935 50.839 149.452 51.7061 148.813 52.454C147.523 53.744 145.534 54.31 142.85 54.31C141.118 54.3245 139.4 54.0014 137.792 53.359M146.699 42.542V42.485C146.659 41.6187 146.288 40.801 145.661 40.2019C145.034 39.6028 144.2 39.2686 143.333 39.2686C142.465 39.2686 141.632 39.6028 141.004 40.2019C140.377 40.801 140.006 41.6187 139.966 42.485V42.542C139.955 43.3789 140.276 44.186 140.86 44.786C141.443 45.386 142.241 45.7299 143.078 45.742H143.315C143.734 45.7677 144.153 45.7108 144.55 45.5743C144.947 45.4379 145.312 45.2247 145.627 44.9469C145.941 44.669 146.197 44.332 146.381 43.9551C146.565 43.5781 146.673 43.1687 146.699 42.75V42.54M159.365 50.44C157.531 50.5236 155.739 49.8752 154.383 48.6375C153.027 47.3998 152.218 45.6741 152.134 43.84V43.234C152.053 41.4077 152.699 39.6237 153.932 38.2738C155.165 36.9238 156.883 36.1183 158.709 36.034H158.98C160.715 36.0019 162.391 36.6597 163.641 37.863C164.89 39.0662 165.611 40.7165 165.645 42.451V42.688C165.672 43.1585 165.512 43.6206 165.198 43.9726C164.885 44.3246 164.445 44.5377 163.974 44.565H156.043C156.166 45.3583 156.582 46.0767 157.208 46.579C157.834 47.0813 158.626 47.331 159.427 47.279C160.427 47.2867 161.402 46.9648 162.201 46.363C162.471 46.1482 162.807 46.0359 163.152 46.046C163.35 46.0423 163.546 46.0777 163.73 46.1502C163.914 46.2226 164.082 46.3307 164.224 46.4683C164.366 46.6058 164.479 46.7701 164.557 46.9516C164.636 47.1331 164.677 47.3283 164.68 47.526V47.607C164.679 47.8268 164.632 48.0439 164.543 48.2447C164.453 48.4454 164.323 48.6253 164.16 48.773C162.818 49.8989 161.111 50.4947 159.36 50.448M161.894 42.131C161.887 41.357 161.577 40.6166 161.032 40.0674C160.486 39.5182 159.748 39.2037 158.974 39.191C158.195 39.2121 157.453 39.5268 156.897 40.0721C156.34 40.6174 156.011 41.3528 155.974 42.131H161.894ZM167.348 38.103C167.345 37.5887 167.544 37.0936 167.901 36.7242C168.259 36.3548 168.748 36.1405 169.262 36.1274C169.776 36.1143 170.275 36.3034 170.651 36.6541C171.027 37.0049 171.251 37.4892 171.274 38.003V38.263C171.715 37.5885 172.315 37.0331 173.021 36.6462C173.728 36.2593 174.519 36.0528 175.325 36.045C178.29 36.045 180.025 38.003 180.025 41.182V48.334C180.009 48.8438 179.795 49.3272 179.428 49.6821C179.062 50.0369 178.572 50.2353 178.062 50.2353C177.552 50.2353 177.062 50.0369 176.696 49.6821C176.329 49.3272 176.115 48.8438 176.099 48.334V42.407C176.099 40.551 175.217 39.589 173.724 39.589C172.231 39.589 171.269 40.54 171.269 42.407V48.325C171.253 48.8348 171.039 49.3182 170.672 49.6731C170.306 50.0279 169.816 50.2263 169.306 50.2263C168.796 50.2263 168.306 50.0279 167.94 49.6731C167.573 49.3182 167.359 48.8348 167.343 48.325V38.1L167.348 38.103ZM181.485 43.3V43.243C181.471 42.3099 181.641 41.3832 181.985 40.5158C182.329 39.6484 182.841 38.8573 183.491 38.1879C184.141 37.5184 184.917 36.9837 185.774 36.6143C186.631 36.2449 187.552 36.048 188.485 36.035H188.737C190.451 35.947 192.137 36.4995 193.467 37.585C193.743 37.8187 193.941 38.132 194.032 38.482C194.124 38.832 194.105 39.2018 193.979 39.5409C193.853 39.88 193.625 40.1718 193.326 40.3765C193.028 40.5813 192.674 40.689 192.312 40.685C191.9 40.686 191.501 40.5447 191.181 40.285C190.491 39.7123 189.622 39.4001 188.726 39.403C187.79 39.4494 186.911 39.8649 186.281 40.5584C185.651 41.252 185.322 42.167 185.365 43.103V43.216C185.294 44.1533 185.597 45.0805 186.208 45.795C186.818 46.5095 187.687 46.9532 188.624 47.029H188.873C189.819 47.0295 190.733 46.6922 191.452 46.078C191.761 45.8517 192.133 45.7253 192.516 45.716C192.854 45.7191 193.182 45.8245 193.459 46.0184C193.735 46.2123 193.946 46.4856 194.064 46.802C194.182 47.1185 194.201 47.4632 194.119 47.7907C194.036 48.1181 193.856 48.4129 193.603 48.636C192.271 49.8576 190.509 50.5007 188.703 50.424C186.829 50.4618 185.017 49.7536 183.665 48.4553C182.313 47.157 181.533 45.3749 181.495 43.501V43.273M201.795 50.425C199.96 50.5067 198.167 49.8564 196.812 48.6172C195.456 47.3779 194.647 45.651 194.564 43.816V43.216C194.483 41.3897 195.129 39.6057 196.362 38.2558C197.595 36.9058 199.313 36.1003 201.139 36.016H201.41C203.143 35.9841 204.818 36.6411 206.068 37.8428C207.317 39.0445 208.039 40.6928 208.075 42.426V42.663C208.102 43.1335 207.942 43.5956 207.628 43.9476C207.315 44.2996 206.874 44.5127 206.404 44.54H198.473C198.596 45.3333 199.012 46.0517 199.638 46.554C200.264 47.0563 201.056 47.306 201.857 47.254C202.862 47.2606 203.841 46.9343 204.641 46.326C204.914 46.1101 205.255 45.9978 205.603 46.009C206.001 46.0015 206.385 46.1521 206.671 46.4278C206.958 46.7034 207.123 47.0815 207.131 47.479V47.558C207.13 47.7778 207.083 47.9949 206.994 48.1957C206.904 48.3964 206.774 48.5763 206.611 48.724C205.27 49.8519 203.562 50.448 201.811 50.399M204.345 42.082C204.338 41.308 204.028 40.5676 203.483 40.0184C202.937 39.4692 202.199 39.1547 201.425 39.142C200.646 39.1631 199.904 39.4778 199.348 40.0231C198.791 40.5684 198.462 41.3038 198.425 42.082H204.345ZM29.217 33.529C29.2156 33.6008 29.2193 33.6727 29.228 33.744C29.2702 34.8752 28.8625 35.9771 28.094 36.8083C27.3256 37.6396 26.2591 38.1324 25.128 38.179C25.0638 38.181 24.9996 38.1773 24.936 38.168C23.8044 38.07 22.7575 37.5281 22.0239 36.6608C21.2904 35.7935 20.9299 34.6712 21.021 33.539V33.473C21.021 33.394 21.01 33.315 21.01 33.236C20.9725 32.1053 21.3851 31.0059 22.1574 30.1791C22.9296 29.3523 23.9984 28.8656 25.129 28.826C25.2009 28.824 25.2727 28.8277 25.344 28.837C26.4697 28.9409 27.5086 29.486 28.2337 30.3533C28.9588 31.2207 29.3113 32.3397 29.214 33.466V33.529H29.217ZM62.554 31.277C62.554 37.463 60.7197 43.51 57.283 48.6535C53.8462 53.7969 48.9615 57.8058 43.2464 60.1731C37.5314 62.5404 31.2427 63.1598 25.1755 61.9531C19.1084 60.7463 13.5354 57.7676 9.16119 53.3935C4.78698 49.0195 1.80806 43.4465 0.601115 37.3795C-0.605828 31.3124 0.0134182 25.0236 2.38055 19.3085C4.74768 13.5934 8.75637 8.70849 13.8997 5.27161C19.0431 1.83473 25.09 0.000197796 31.276 1.59877e-08C35.3835 -0.000131309 39.4507 0.808775 43.2455 2.38053C47.0403 3.95229 50.4884 6.25612 53.3928 9.16047C56.2973 12.0648 58.6012 15.5128 60.1731 19.3076C61.745 23.1023 62.554 27.1696 62.554 31.277ZM33.926 39.718V21.206C33.926 20.5727 33.6744 19.9653 33.2266 19.5174C32.7787 19.0696 32.1713 18.818 31.538 18.818C30.9047 18.818 30.2973 19.0696 29.8494 19.5174C29.4016 19.9653 29.15 20.5727 29.15 21.206V27.293C28.5332 26.4947 27.7381 25.8518 26.8284 25.4156C25.9188 24.9795 24.9197 24.7621 23.911 24.781C19.928 24.781 16.262 27.859 16.262 33.472V33.54C16.262 39.152 19.994 42.231 23.911 42.231C24.9429 42.2496 25.963 42.0094 26.8781 41.5323C27.7933 41.0553 28.5744 40.3566 29.15 39.5V39.715C29.15 40.3483 29.4016 40.9557 29.8494 41.4036C30.2973 41.8514 30.9047 42.103 31.538 42.103C32.1713 42.103 32.7787 41.8514 33.2266 41.4036C33.6744 40.9557 33.926 40.3483 33.926 39.715M40.826 27.29C40.826 26.6567 40.5744 26.0493 40.1266 25.6014C39.6787 25.1536 39.0714 24.902 38.438 24.902C37.8047 24.902 37.1973 25.1536 36.7494 25.6014C36.3016 26.0493 36.05 26.6567 36.05 27.29V39.718C36.05 40.3513 36.3016 40.9587 36.7494 41.4066C37.1973 41.8544 37.8047 42.106 38.438 42.106C39.0714 42.106 39.6787 41.8544 40.1266 41.4066C40.5744 40.9587 40.826 40.3513 40.826 39.718V27.29ZM41.026 21.112C41.0236 20.5067 40.7821 19.9269 40.3541 19.4989C39.9261 19.0709 39.3463 18.8294 38.741 18.827H38.176C37.5688 18.827 36.9865 19.0682 36.5571 19.4976C36.1277 19.9269 35.8865 20.5093 35.8865 21.1165C35.8865 21.7237 36.1277 22.3061 36.5571 22.7354C36.9865 23.1648 37.5688 23.406 38.176 23.406H38.741C39.3463 23.4036 39.9261 23.1621 40.3541 22.7341C40.7821 22.3061 41.0236 21.7263 41.026 21.121V21.112Z" fill="#072143"/>
</svg>
