<svg width="225" height="66" viewBox="0 0 225 66" fill="none" xmlns="http://www.w3.org/2000/svg">
<mask id="mask0_1_1257" style="mask-type:luminance" maskUnits="userSpaceOnUse" x="0" y="0" width="225" height="47">
<path d="M224.827 0.000976562H0V46.041H224.827V0.000976562Z" fill="white"/>
</mask>
<g mask="url(#mask0_1_1257)">
<path d="M93.243 25.512C93.243 23.336 92.514 21.577 89.313 21.577C86.112 21.577 85.381 23.336 85.381 25.512V26.733H93.243V25.512ZM90.1 46.04C79.964 46.04 75.938 40.719 75.938 33.032V26.732C75.938 20.012 78.925 14.502 89.308 14.502C99.691 14.502 102.678 19.948 102.678 26.735V33.035H85.38V33.67C85.38 37.261 86.654 38.191 90.88 38.191C94.5742 38.219 98.2618 37.8749 101.887 37.164V44.83C98.0206 45.7038 94.0633 46.1111 90.1 46.043" fill="#325E99"/>
<path d="M154.157 34.2541C154.157 36.4331 153.028 38.1891 149.827 38.1891C146.626 38.1891 145.507 36.4331 145.507 34.2541V26.3011C145.507 24.1251 146.623 22.3741 149.827 22.3741C153.031 22.3741 154.157 24.1251 154.157 26.3011V34.2541ZM149.857 14.5251C138.763 14.5251 136.067 20.7411 136.067 27.1531V33.3461C136.067 39.7461 138.767 45.9661 149.857 45.9661C160.947 45.9661 163.6 39.7481 163.6 33.3461V27.1461C163.6 20.7341 160.949 14.5181 149.863 14.5181" fill="#325E99"/>
<path d="M184.381 34.2541C184.381 36.4331 183.252 38.1891 180.046 38.1891C176.84 38.1891 175.731 36.4331 175.731 34.2541V26.3011C175.731 24.1251 176.842 22.3741 180.046 22.3741C183.25 22.3741 184.381 24.1241 184.381 26.3011V34.2541ZM180.081 14.5251C168.987 14.5251 166.291 20.7411 166.291 27.1531V33.3461C166.291 39.7461 168.991 45.9661 180.081 45.9661C191.171 45.9661 193.818 39.7481 193.818 33.3461V27.1461C193.818 20.7341 191.165 14.5181 180.081 14.5181" fill="#325E99"/>
<path d="M58.987 33.667C58.987 37.258 60.264 38.188 64.487 38.188C66.842 38.188 68.249 38.002 73.142 37.161V44.83C70.0513 45.593 66.8833 45.9993 63.7 46.041C53.569 46.041 49.54 40.722 49.54 33.033V27.525C49.54 19.833 53.569 14.502 63.7 14.502C66.8829 14.5456 70.0503 14.9543 73.14 15.72V23.381C68.247 22.548 66.84 22.362 64.485 22.362C60.257 22.362 58.985 23.295 58.985 26.881L58.987 33.667Z" fill="#325E99"/>
<path d="M21.237 0V7.862H17.3C14.356 7.862 14.158 8.962 14.158 11.007V14.945H21.286L20.45 22.805H14.16V45.617H4.717V22.8H0V14.94H4.717V10.227C4.717 3.815 7.378 0 14.942 0H21.237Z" fill="#325E99"/>
<path d="M36.964 34.601H32.749C30.761 34.601 29.882 34.973 29.882 36.701C29.828 37.0568 29.8583 37.4203 29.9703 37.7622C30.0824 38.1042 30.2731 38.415 30.5271 38.6699C30.7812 38.9247 31.0915 39.1164 31.4331 39.2295C31.7747 39.3426 32.1381 39.3739 32.494 39.321C34.066 39.2698 35.6012 38.8323 36.964 38.047V34.601ZM33.2 14.946C44.034 14.946 46.407 18.361 46.407 27.013V45.677H38.537L38.2 43.689C35.4788 45.2181 32.4073 46.0147 29.286 46.001C23.516 46.001 20.448 42.155 20.448 36.831C20.448 30.556 24.031 28.316 30.441 28.316H36.964V26.95C36.964 23.75 36.594 22.806 31.658 22.806H23.592L24.377 14.946H33.2Z" fill="#325E99"/>
<path d="M123.919 33.238C123.919 36.192 123.289 38.305 118.669 38.305C117.537 38.3257 116.404 38.2813 115.277 38.172V23.646C116.728 22.8613 118.343 22.4258 119.992 22.374C123.201 22.374 123.919 24.122 123.919 26.301V33.238ZM122.352 14.5C119.946 14.4789 117.554 14.864 115.277 15.639V0.790039L105.837 2.35704V44.827C109.965 45.5953 114.154 45.9968 118.353 46.027C131.233 46.027 133.353 40.611 133.353 33.18V25.514C133.353 18.725 131.781 14.502 122.353 14.502" fill="#325E99"/>
<path d="M196.513 45.618V2.35902L205.953 0.791016V45.618H196.513Z" fill="#325E99"/>
<path d="M214.605 14.946H224.827L215.385 29.882L224.827 45.617H214.605L205.163 29.882L214.605 14.946Z" fill="#325E99"/>
</g>
<mask id="mask1_1_1257" style="mask-type:luminance" maskUnits="userSpaceOnUse" x="0" y="0" width="225" height="66">
<path d="M224.827 0H0V65.6H224.827V0Z" fill="white"/>
</mask>
<g mask="url(#mask1_1_1257)">
<path d="M20.389 55.291H21.332V65.601H20.389V55.291ZM21.332 61.683V60.815H23.953C24.2248 60.8218 24.4945 60.7669 24.742 60.6545C24.9895 60.5421 25.2083 60.3751 25.382 60.166C25.7689 59.6947 25.9679 59.0972 25.941 58.488C25.9501 58.0611 25.8467 57.6393 25.641 57.265C25.4433 56.9154 25.1525 56.6275 24.801 56.433C24.42 56.2264 23.99 56.1272 23.557 56.146H21.332V55.291L23.556 55.277C24.1561 55.2653 24.7492 55.4071 25.279 55.689C25.7671 55.9515 26.1725 56.3445 26.45 56.824C26.7364 57.3312 26.8814 57.9058 26.87 58.488C26.8804 59.0601 26.7513 59.626 26.494 60.137C26.2594 60.6015 25.9031 60.9934 25.463 61.271C25.0096 61.5504 24.4855 61.6934 23.953 61.683H21.332Z" fill="#1A1818"/>
<path d="M30.845 55.2911H31.788V65.6011H30.845V55.2911ZM31.788 61.3911V60.5221H34.262C34.6367 60.5271 35.0059 60.4303 35.33 60.2421C35.6607 60.0489 35.9339 59.771 36.1215 59.437C36.309 59.103 36.4041 58.7251 36.397 58.3421C36.407 58.0455 36.3524 57.7503 36.2368 57.4769C36.1213 57.2036 35.9477 56.9586 35.728 56.7591C35.2557 56.3426 34.6412 56.1238 34.012 56.1481H31.788V55.2911L34.012 55.2771C34.6096 55.2559 35.2026 55.3878 35.735 55.6601C36.218 55.9085 36.6232 56.2853 36.906 56.7491C37.191 57.2301 37.3365 57.7811 37.326 58.3401C37.3346 58.9005 37.1724 59.4502 36.861 59.9161C36.5455 60.3843 36.11 60.759 35.6 61.0011C35.0439 61.2676 34.4335 61.4014 33.817 61.3921L31.788 61.3911ZM36.707 65.6011L34.207 61.3301L34.988 60.8731L37.738 65.6011H36.707Z" fill="#1A1818"/>
<path d="M42.009 55.291H42.952V65.601H42.009V55.291ZM42.952 55.291H47.945V56.145H42.952V55.291ZM42.952 59.857H47.591V60.711H42.952V59.857ZM42.952 64.747H47.945V65.601H42.952V64.747Z" fill="#1A1818"/>
<path d="M52.8 55.291H53.743V65.601H52.8V55.291ZM57.5131 62.491L53.0401 55.836L53.3791 55.572L53.7471 55.291L57.973 61.551L57.5131 62.491ZM57.5131 62.491L57.086 61.548L61.3 55.291L61.668 55.572L61.9921 55.822L57.5131 62.491ZM61.298 55.291H62.2401V65.601H61.3L61.298 55.291Z" fill="#1A1818"/>
<path d="M68.1951 55.29H67.2521V65.6H68.1951V55.29Z" fill="#1A1818"/>
<path d="M73.2001 55.291H74.1431V65.601H73.2001V55.291ZM74.1431 55.291H79.1361V56.145H74.1441L74.1431 55.291ZM74.1431 59.857H78.7821V60.711H74.1441L74.1431 59.857ZM74.1431 64.747H79.1361V65.601H74.1431V64.747Z" fill="#1A1818"/>
<path d="M84 55.2911H84.943V65.6011H84V55.2911ZM84.943 61.3911V60.5221H87.417C87.7918 60.5271 88.1609 60.4303 88.485 60.2421C88.8157 60.0489 89.0889 59.771 89.2765 59.437C89.464 59.103 89.5591 58.7251 89.552 58.3421C89.562 58.0455 89.5074 57.7503 89.3919 57.4769C89.2763 57.2036 89.1027 56.9586 88.883 56.7591C88.4107 56.3426 87.7963 56.1238 87.167 56.1481H84.939V55.2911L87.163 55.2771C87.7606 55.2559 88.3537 55.3878 88.886 55.6601C89.3691 55.9085 89.7743 56.2853 90.057 56.7491C90.3421 57.2301 90.4875 57.7811 90.477 58.3401C90.4856 58.9005 90.3234 59.4502 90.012 59.9161C89.6973 60.3839 89.2629 60.7586 88.754 61.0011C88.1979 61.2676 87.5876 61.4014 86.971 61.3921L84.943 61.3911ZM89.858 65.6011L87.358 61.3301L88.139 60.8731L90.889 65.6011H89.858Z" fill="#1A1818"/>
<path d="M99.578 65.601L103.82 55.291H104.792L100.58 65.601H99.578ZM101.578 61.551H107.027V62.401H101.578V61.551ZM108.029 65.601L103.82 55.291H104.792L109.033 65.601H108.029Z" fill="#1A1818"/>
<path d="M112.715 55.2909H113.658V65.6009H112.715V55.2909ZM113.658 55.2909H115.793V56.1449H113.658V55.2909ZM113.658 64.7469H115.793V65.6009H113.658V64.7469ZM115.793 65.6009V64.7469C116.307 64.7501 116.816 64.6366 117.28 64.4149C117.746 64.1912 118.162 63.876 118.503 63.4879C118.86 63.0833 119.14 62.6165 119.328 62.1109C119.72 61.0358 119.72 59.8569 119.328 58.7819C119.139 58.2746 118.859 57.8065 118.5 57.4009C118.159 57.0128 117.743 56.6972 117.277 56.4729C116.813 56.2515 116.304 56.1383 115.79 56.1419V55.2909C116.66 55.2742 117.517 55.5015 118.264 55.9469C118.983 56.3865 119.567 57.0159 119.951 57.7659C120.353 58.5996 120.562 59.5133 120.562 60.4389C120.562 61.3645 120.353 62.2782 119.951 63.1119C119.564 63.8775 118.967 64.5177 118.231 64.9582C117.494 65.3987 116.648 65.6216 115.79 65.6009" fill="#1A1818"/>
<path d="M130.579 55.291H131.522V65.601H130.579V55.291ZM131.522 61.683V60.815H134.143C134.415 60.8218 134.684 60.7669 134.932 60.6545C135.179 60.5421 135.398 60.3751 135.572 60.166C135.959 59.6947 136.158 59.0972 136.131 58.488C136.14 58.0611 136.037 57.6393 135.831 57.265C135.633 56.9154 135.342 56.6275 134.991 56.433C134.61 56.2264 134.18 56.1272 133.747 56.146H131.523L131.522 55.291L133.747 55.277C134.347 55.2653 134.94 55.4071 135.47 55.689C135.958 55.9515 136.363 56.3445 136.641 56.824C136.927 57.3312 137.072 57.9058 137.061 58.488C137.071 59.0601 136.942 59.626 136.685 60.137C136.45 60.6015 136.094 60.9934 135.654 61.271C135.201 61.5504 134.676 61.6934 134.144 61.683H131.522Z" fill="#1A1818"/>
<path d="M139.71 65.601L143.952 55.291H144.924L140.712 65.601H139.71ZM141.71 61.551H147.159V62.401H141.71V61.551ZM148.161 65.601L143.949 55.291H144.921L149.162 65.601H148.161Z" fill="#1A1818"/>
<path d="M152.847 55.2911H153.79V65.6011H152.847V55.2911ZM153.79 61.3911V60.5221H156.264C156.639 60.5271 157.008 60.4303 157.332 60.2421C157.663 60.0489 157.936 59.771 158.124 59.437C158.311 59.103 158.406 58.7251 158.399 58.3421C158.409 58.0455 158.354 57.7503 158.239 57.4769C158.123 57.2036 157.95 56.9586 157.73 56.7591C157.258 56.3426 156.643 56.1238 156.014 56.1481H153.79V55.2911L156.014 55.2771C156.612 55.2559 157.205 55.3877 157.737 55.6601C158.22 55.9085 158.625 56.2853 158.908 56.7491C159.193 57.2301 159.339 57.7811 159.328 58.3401C159.337 58.9005 159.174 59.4502 158.863 59.9161C158.548 60.3839 158.114 60.7586 157.605 61.0011C157.049 61.2676 156.439 61.4015 155.822 61.3921L153.79 61.3911ZM158.709 65.6031L156.209 61.3321L156.99 60.8751L159.74 65.6011L158.709 65.6031Z" fill="#1A1818"/>
<path d="M162.685 55.291H170.343V56.145H162.685V55.291ZM166.043 56.146H166.985V65.601H166.043V56.146Z" fill="#1A1818"/>
<path d="M174.025 65.601V55.291H174.968V65.601H174.025ZM181.536 65.601L174.246 55.822L174.968 55.291L182.258 65.056L181.536 65.601ZM181.536 55.291H182.478V65.601H181.536V55.291Z" fill="#1A1818"/>
<path d="M187.486 55.291H188.429V65.601H187.486V55.291ZM188.429 55.291H193.422V56.145H188.429V55.291ZM188.429 59.857H193.068V60.711H188.429V59.857ZM188.429 64.747H193.422V65.601H188.429V64.747Z" fill="#1A1818"/>
<path d="M198.281 55.2911H199.224V65.6011H198.281V55.2911ZM199.224 61.3911V60.5221H201.7C202.075 60.5271 202.444 60.4303 202.768 60.2421C203.099 60.0489 203.372 59.771 203.559 59.437C203.747 59.103 203.842 58.7251 203.835 58.3421C203.845 58.0455 203.79 57.7503 203.675 57.4769C203.559 57.2036 203.386 56.9586 203.166 56.7591C202.694 56.3426 202.079 56.1238 201.45 56.1481H199.226V55.2911L201.45 55.2771C202.048 55.2559 202.641 55.3878 203.173 55.6601C203.656 55.9085 204.061 56.2853 204.344 56.7491C204.629 57.2301 204.774 57.7811 204.764 58.3401C204.773 58.9005 204.61 59.4502 204.299 59.9161C203.984 60.3841 203.549 60.7589 203.039 61.0011C202.483 61.2676 201.873 61.4014 201.256 61.3921L199.224 61.3911ZM204.143 65.6031L201.643 61.3321L202.424 60.8751L205.178 65.6031H204.143Z" fill="#1A1818"/>
</g>
</svg>
