<svg width="195" height="67" viewBox="0 0 195 67" fill="none" xmlns="http://www.w3.org/2000/svg">
<mask id="mask0_1_1087" style="mask-type:luminance" maskUnits="userSpaceOnUse" x="0" y="0" width="195" height="67">
<path d="M194.07 0H0V66.922H194.07V0Z" fill="white"/>
</mask>
<g mask="url(#mask0_1_1087)">
<path d="M-0.000976562 0.1C0.0160234 0.067 0.0310234 0.007 0.0500234 0.005C0.182023 0 0.316023 0 0.449023 0H194.069V66.922C129.529 66.922 64.989 66.922 0.449023 66.922C0.296234 66.9047 0.14572 66.8712 2.34375e-05 66.822C0.231023 66.807 0.461023 66.777 0.692023 66.777C6.11736 66.777 11.5424 66.7813 16.967 66.79C17.407 66.79 17.567 66.69 17.567 66.214C17.5517 44.3653 17.546 22.5163 17.55 0.667C17.55 0.491 17.535 0.315 17.524 0.101L-0.000976562 0.1ZM35.044 47.025H35.699C37.513 47.025 39.328 47.041 41.141 47.007C42.7139 46.974 44.2461 46.5011 45.564 45.642C46.6021 44.9883 47.4719 44.0995 48.103 43.0475C48.7341 41.9955 49.1089 40.8098 49.1971 39.5862C49.2853 38.3626 49.0844 37.1354 48.6107 36.0038C48.1369 34.8722 47.4036 33.8678 46.47 33.072C44.8417 31.7199 42.7864 30.9895 40.67 31.011C37.891 31.003 35.111 31.011 32.332 31.011C31.632 31.011 31.632 31.011 31.632 31.711C31.632 40.215 31.632 48.7193 31.632 57.224C31.6161 57.3727 31.6222 57.523 31.65 57.67C31.68 57.77 31.804 57.905 31.888 57.906C32.929 57.922 33.971 57.916 35.047 57.916L35.044 47.025ZM63.532 57.89H66.754C66.7751 57.8348 66.7902 57.7775 66.799 57.719C66.799 53.792 66.858 49.865 66.762 45.94C66.7555 44.8079 66.4612 43.6961 65.9066 42.7091C65.3521 41.7221 64.5556 40.8924 63.592 40.298C61.7191 39.1419 59.4992 38.6817 57.321 38.998C56.1624 39.0947 55.0425 39.4617 54.0514 40.0695C53.0603 40.6774 52.2255 41.5091 51.614 42.498C51.4461 42.7845 51.2945 43.0803 51.16 43.384L54.242 44.702C55.559 41.889 59.049 41.62 60.974 42.523C62.779 43.37 63.915 45.377 63.446 47.031C62.2854 46.4482 61.0199 46.1035 59.724 46.017C57.746 45.7926 55.7444 46.1189 53.94 46.96C53.1737 47.3021 52.4881 47.8019 51.9281 48.4269C51.368 49.0518 50.946 49.7879 50.6896 50.587C50.4332 51.386 50.3482 52.2302 50.4401 53.0644C50.532 53.8985 50.7988 54.7039 51.223 55.428C51.7509 56.3023 52.483 57.0355 53.3565 57.5648C54.2299 58.0941 55.2187 58.4037 56.238 58.467C57.5407 58.7076 58.885 58.5713 60.1128 58.0741C61.3406 57.5768 62.4009 56.7393 63.169 55.66C63.2299 55.5443 63.2746 55.4208 63.302 55.293L63.533 55.457L63.532 57.89ZM135.975 49.337C135.922 48.443 135.925 47.612 135.816 46.796C135.697 45.4216 135.252 44.0953 134.519 42.9265C133.787 41.7578 132.786 40.78 131.601 40.074C129.945 39.1519 128.045 38.7641 126.16 38.964C124.262 39.0595 122.462 39.8413 121.097 41.164C119.974 42.237 119.108 43.5497 118.564 45.0042C118.019 46.4588 117.811 48.0175 117.953 49.564C118 51.7906 118.857 53.9237 120.364 55.5638C121.871 57.2039 123.923 58.2385 126.138 58.474C127.452 58.6717 128.793 58.5709 130.063 58.1794C131.332 57.7878 132.497 57.1154 133.471 56.212C134.282 55.4582 134.918 54.5368 135.336 53.512L132.33 52.269C130.63 55.109 128.03 56.141 125.219 55.041C124.163 54.6534 123.242 53.9691 122.566 53.0704C121.889 52.1717 121.487 51.0969 121.407 49.975C121.326 49.338 121.319 49.337 121.961 49.337H135.975ZM98.615 39.561V57.881H101.999V57.194C101.999 54.131 101.99 51.068 102.007 48.005C102.008 47.4065 102.068 46.8096 102.186 46.223C102.349 45.1772 102.843 44.2112 103.596 43.4674C104.348 42.7235 105.32 42.241 106.368 42.091C108.892 41.834 110.862 42.87 111.322 45.633C111.412 46.1744 111.459 46.7222 111.461 47.271C111.473 50.6 111.467 53.929 111.467 57.259V57.888H114.842C114.853 57.707 114.869 57.56 114.869 57.413C114.869 53.751 114.869 50.089 114.869 46.427C114.867 45.8949 114.825 45.3637 114.743 44.838C114.652 43.8549 114.341 42.9046 113.835 42.0568C113.329 41.209 112.64 40.4851 111.818 39.938C110.269 39.0123 108.432 38.6909 106.661 39.0354C104.889 39.3799 103.307 40.3661 102.218 41.805C102.159 41.9195 102.117 42.0417 102.092 42.168L101.865 42.002V39.561H98.615ZM95.05 42.647C95.05 41.711 95.038 40.833 95.057 39.956C95.064 39.623 94.943 39.523 94.623 39.527C93.508 39.54 92.393 39.527 91.279 39.527H90.516V33.91H87.108V39.5C86.879 39.513 86.7 39.532 86.521 39.532C85.789 39.532 85.057 39.547 84.321 39.532C83.978 39.523 83.846 39.639 83.854 39.989C83.872 40.737 83.871 41.489 83.854 42.235C83.847 42.568 83.982 42.664 84.298 42.657C85.013 42.64 85.729 42.652 86.444 42.657C87.105 42.657 87.106 42.657 87.106 43.296C87.106 46.308 87.106 49.32 87.106 52.332C87.1006 52.8308 87.1371 53.3293 87.215 53.822C87.3208 54.7557 87.6976 55.6379 88.2989 56.36C88.9003 57.082 89.6999 57.6121 90.599 57.885C91.7627 58.2491 92.9947 58.3395 94.199 58.149C94.727 58.075 95.245 57.921 95.808 57.793L94.608 54.844C94.388 54.904 94.201 54.967 94.008 55.004C92.044 55.377 90.608 54.738 90.563 52.519C90.5 49.359 90.546 46.196 90.535 43.035C90.535 42.717 90.67 42.642 90.956 42.644C92.004 42.654 93.056 42.644 94.101 42.644H95.047M45.113 10.607C45.0817 10.5537 45.0459 10.5032 45.006 10.456C44.906 10.364 44.806 10.275 44.706 10.19C43.8378 9.45845 42.824 8.91969 41.7319 8.60938C40.6398 8.29906 39.4942 8.22429 38.371 8.39C37.1954 8.5405 36.0657 8.9414 35.0582 9.56564C34.0507 10.1899 33.1888 11.023 32.5307 12.0087C31.8725 12.9944 31.4334 14.1098 31.2431 15.2796C31.0527 16.4494 31.1154 17.6465 31.427 18.79C31.7666 19.9437 32.3483 21.0117 33.1333 21.9228C33.9183 22.8339 34.8884 23.5672 35.9792 24.0737C37.0699 24.5803 38.2561 24.8485 39.4586 24.8604C40.6612 24.8724 41.8525 24.6278 42.953 24.143C46.601 22.565 47.628 18.902 47.053 15.828H39.503V18.1H44.838C44.8051 19.1951 44.3559 20.2365 43.582 21.012C42.922 21.6516 42.1164 22.1212 41.2346 22.3804C40.3528 22.6396 39.4212 22.6807 38.52 22.5C37.32 22.3062 36.2094 21.7455 35.3409 20.895C34.4725 20.0444 33.8888 18.9458 33.67 17.75C33.4293 16.5331 33.5677 15.2716 34.0666 14.1359C34.5655 13.0002 35.4009 12.0449 36.46 11.399C37.5038 10.7778 38.7129 10.4917 39.9244 10.5791C41.1358 10.6665 42.2913 11.1234 43.235 11.888C43.346 11.978 43.464 12.059 43.573 12.14L45.113 10.611M150.537 39.459C147.056 38.539 144.353 39.375 142.421 42.48V39.58H139.181V57.892H142.589C142.589 57.648 142.589 57.435 142.589 57.223C142.595 53.894 142.553 50.565 142.625 47.238C142.653 46.0598 143.105 44.9314 143.899 44.0606C144.693 43.1897 145.775 42.6352 146.946 42.499C147.719 42.4754 148.492 42.5088 149.26 42.599L150.536 39.458M74.194 57.892V57.282C74.194 54.121 74.188 50.96 74.194 47.799C74.1341 46.51 74.569 45.2468 75.4098 44.2678C76.2506 43.2889 77.4337 42.6683 78.717 42.533C79.531 42.413 80.368 42.444 81.23 42.403V39.127C78.206 38.918 75.644 39.583 74.108 42.516C74.0573 42.3541 74.031 42.1856 74.03 42.016C74.03 41.351 74.011 40.684 74.03 40.016C74.043 39.653 73.93 39.508 73.552 39.524C72.952 39.55 72.352 39.531 71.752 39.531H70.777V57.924C71.777 57.924 72.734 57.924 73.696 57.924C73.841 57.924 73.986 57.906 74.184 57.893M80.684 15.387C80.554 15.28 80.484 15.224 80.41 15.163C79.9886 14.7811 79.4858 14.5002 78.9396 14.3417C78.3935 14.1832 77.8184 14.1511 77.258 14.248C76.126 14.4262 75.0811 14.9634 74.2774 15.7803C73.4737 16.5972 72.9537 17.6507 72.794 18.7855C72.6342 19.9203 72.8432 21.0764 73.3902 22.0835C73.9372 23.0905 74.7932 23.8952 75.832 24.379C76.5779 24.7845 77.4328 24.9437 78.2747 24.834C79.1165 24.7242 79.902 24.3511 80.519 23.768C80.571 23.736 80.6277 23.7124 80.687 23.698C80.832 25.669 80.287 26.858 79.028 27.334C77.547 27.894 76.484 27.443 75.128 25.659L73.194 26.469C73.523 27.2244 74.026 27.8914 74.6619 28.4154C75.2978 28.9394 76.0486 29.3056 76.853 29.4841C77.6574 29.6627 78.4927 29.6485 79.2905 29.4427C80.0884 29.2369 80.8263 28.8453 81.444 28.3C81.9544 27.7597 82.3484 27.1205 82.6018 26.4218C82.8551 25.7231 82.9624 24.9798 82.917 24.238C82.927 21.176 82.917 18.114 82.917 15.053C82.917 14.892 82.901 14.73 82.892 14.553H80.739C80.723 14.833 80.709 15.073 80.691 15.388M59.231 19.51C59.2275 18.4649 58.9145 17.4442 58.3317 16.5767C57.7488 15.7092 56.9221 15.0337 55.9559 14.6354C54.9896 14.2371 53.9271 14.1338 52.9022 14.3386C51.8773 14.5434 50.9361 15.047 50.197 15.786C49.458 16.525 48.9544 17.4663 48.7496 18.4912C48.5449 19.5161 48.6481 20.5786 49.0464 21.5449C49.4447 22.5111 50.1202 23.3378 50.9877 23.9206C51.8552 24.5035 52.8759 24.8164 53.921 24.82C54.6225 24.835 55.3197 24.7079 55.9707 24.4464C56.6217 24.1848 57.2131 23.7942 57.7092 23.2981C58.2053 22.802 58.5958 22.2107 58.8574 21.5597C59.1189 20.9086 59.246 20.2114 59.231 19.51ZM98.856 22.492L97.116 21.34C95.791 22.664 94.855 23.019 93.592 22.662C93.202 22.5553 92.8421 22.3593 92.5408 22.0896C92.2396 21.8199 92.0051 21.4839 91.856 21.108L98.928 18.178C98.828 17.891 98.744 17.641 98.642 17.401C98.3615 16.6116 97.8789 15.9096 97.2421 15.3651C96.6054 14.8206 95.837 14.4527 95.0136 14.2981C94.1902 14.1436 93.3407 14.2078 92.5499 14.4843C91.7591 14.7608 91.0547 15.24 90.507 15.874C89.8936 16.5729 89.4707 17.4182 89.2794 18.3282C89.0882 19.2383 89.1349 20.1823 89.415 21.069C89.6757 22.0223 90.21 22.8784 90.9518 23.5315C91.6935 24.1846 92.6104 24.6061 93.589 24.744C94.5907 24.9121 95.6195 24.7892 96.5533 24.3898C97.4872 23.9905 98.2867 23.3314 98.857 22.491M66.063 24.774C66.7638 24.7874 67.4598 24.6574 68.1085 24.3919C68.7571 24.1265 69.3447 23.7313 69.835 23.2305C70.3254 22.7298 70.7082 22.1341 70.9599 21.48C71.2117 20.8259 71.3271 20.1273 71.299 19.427C71.2609 18.0409 70.6783 16.7255 69.6773 15.766C68.6763 14.8064 67.3375 14.2798 65.951 14.3003C64.5645 14.3209 63.2419 14.8868 62.2697 15.8756C61.2975 16.8644 60.7541 18.1963 60.757 19.583C60.7533 20.275 60.8887 20.9606 61.1551 21.5993C61.4215 22.2379 61.8135 22.8165 62.3079 23.3007C62.8022 23.7849 63.3889 24.1648 64.0329 24.4179C64.6769 24.671 65.3653 24.7921 66.057 24.774M85.234 24.49C85.82 24.49 86.381 24.46 86.934 24.499C87.401 24.532 87.516 24.364 87.515 23.913C87.5 19.09 87.506 14.266 87.504 9.443C87.504 9.269 87.482 9.095 87.472 8.937H85.24L85.234 24.49Z" fill="white"/>
<path d="M0 0.100952H17.525C17.535 0.315952 17.551 0.490952 17.551 0.666952C17.551 22.5163 17.555 44.3653 17.563 66.214C17.563 66.693 17.407 66.792 16.963 66.79C11.5403 66.776 6.11667 66.772 0.692 66.778C0.461 66.778 0.23 66.807 0 66.823V0.100952ZM4.28 28.659C4.28 29.121 4.299 29.52 4.274 29.915C4.254 30.226 4.4 30.358 4.669 30.451C5.643 30.7889 6.612 31.139 7.581 31.488C8.261 31.733 8.94 31.9879 9.713 32.2649C9.513 32.3569 9.413 32.409 9.308 32.445C7.99067 32.9076 6.673 33.3686 5.355 33.828C4.265 34.21 4.285 34.213 4.271 35.365C4.271 35.792 4.414 35.894 4.817 35.891C6.83 35.874 8.844 35.8839 10.857 35.881C11.001 35.881 11.145 35.86 11.278 35.85C11.486 34.804 11.447 34.75 10.461 34.75H5.966C6.112 34.693 6.259 34.6289 6.41 34.577C7.932 34.046 9.448 33.501 10.979 32.996C11.353 32.873 11.356 32.64 11.35 32.349C11.344 32.058 11.402 31.763 10.993 31.638C10.326 31.438 9.676 31.176 9.02 30.938L6.046 29.869L6.065 29.781H11.311V28.659H4.28ZM11.342 44.579L8.279 46.526C8.212 46.434 8.171 46.382 8.136 46.326C7.93946 45.917 7.60847 45.5879 7.19838 45.3936C6.78828 45.1994 6.32394 45.1519 5.883 45.259C5.45823 45.3294 5.0723 45.5484 4.79407 45.877C4.51584 46.2056 4.36342 46.6224 4.364 47.053C4.274 47.825 4.324 48.6119 4.272 49.3899C4.242 49.8369 4.404 49.956 4.837 49.951C6.682 49.931 8.527 49.943 10.372 49.943C11.452 49.943 11.507 49.8719 11.272 48.702H8.641C8.492 47.6969 8.492 47.702 9.261 47.239C9.845 46.89 10.434 46.546 11.008 46.18C11.1599 46.095 11.2739 45.9557 11.327 45.79C11.3559 45.3883 11.3609 44.9852 11.342 44.583M8.286 11.511C8.208 11.403 8.157 11.34 8.113 11.271C7.9104 10.8635 7.57203 10.5395 7.1562 10.3548C6.74038 10.1701 6.27314 10.1362 5.835 10.259C5.41983 10.3359 5.04492 10.5563 4.77584 10.8817C4.50676 11.2071 4.36062 11.6167 4.363 12.039C4.273 12.794 4.322 13.565 4.273 14.327C4.245 14.773 4.373 14.927 4.847 14.927C6.56 14.898 8.273 14.916 9.985 14.916H11.261C11.53 13.799 11.442 13.68 10.393 13.68H8.666C8.59718 13.5442 8.55856 13.3951 8.55278 13.243C8.54701 13.0909 8.57423 12.9393 8.63256 12.7987C8.69089 12.6581 8.77896 12.5318 8.89072 12.4284C9.00247 12.3251 9.13527 12.2471 9.28 12.2C9.76743 11.9484 10.2405 11.67 10.697 11.366C11.41 10.938 11.544 10.53 11.233 9.64095L8.286 11.511ZM11.265 55.8899C10.597 55.8899 9.933 55.8689 9.272 55.8969C8.866 55.9139 8.73 55.79 8.721 55.368C8.72122 54.8388 8.64682 54.3123 8.5 53.804C8.35236 53.3191 8.02791 52.9073 7.59097 52.6504C7.15403 52.3935 6.6365 52.3102 6.141 52.417C5.69378 52.4305 5.26741 52.6092 4.94409 52.9185C4.62078 53.2277 4.42339 53.6458 4.39 54.092C4.266 55.057 4.29 56.041 4.241 57.063C4.536 57.083 4.746 57.108 4.957 57.108C6.76967 57.108 8.58267 57.108 10.396 57.108C11.446 57.108 11.446 57.108 11.329 56.057C11.3121 55.999 11.2907 55.9425 11.265 55.888M11.339 21.488C11.339 20.217 11.361 18.973 11.327 17.73C11.315 17.31 10.915 17.525 10.687 17.488C10.435 17.447 10.278 17.5459 10.287 17.843C10.297 18.525 10.277 19.208 10.293 19.89C10.3 20.19 10.186 20.307 9.887 20.297C9.472 20.283 9.055 20.281 8.639 20.297C8.323 20.31 8.191 20.2059 8.204 19.871C8.226 19.271 8.222 18.671 8.204 18.071C8.20148 17.9966 8.18218 17.9238 8.14755 17.858C8.11291 17.7922 8.06384 17.7351 8.004 17.691C7.449 17.491 7.175 17.698 7.173 18.285C7.173 18.501 7.173 18.717 7.173 18.934C7.173 20.342 7.173 20.334 5.779 20.297C5.424 20.289 5.322 20.164 5.334 19.825C5.356 19.177 5.321 18.525 5.347 17.879C5.364 17.467 5.124 17.472 4.838 17.479C4.552 17.486 4.267 17.445 4.284 17.895C4.31 18.56 4.29 19.226 4.29 19.895V21.495L11.339 21.488ZM11.349 42.459C11.349 41.2589 11.332 40.0799 11.358 38.903C11.368 38.4459 11.122 38.449 10.793 38.443C10.464 38.437 10.26 38.5 10.276 38.9039C10.301 39.5519 10.296 40.204 10.271 40.851C10.266 40.987 10.126 41.228 10.037 41.233C9.446 41.268 8.852 41.2509 8.205 41.2509C8.205 40.4889 8.18 39.792 8.214 39.099C8.236 38.64 7.984 38.645 7.655 38.6329C7.301 38.6209 7.14 38.712 7.155 39.104C7.182 39.797 7.162 40.492 7.162 41.257C6.643 41.257 6.182 41.2449 5.722 41.257C5.416 41.268 5.316 41.1479 5.322 40.847C5.339 40.165 5.314 39.482 5.331 38.8C5.341 38.4 5.077 38.441 4.831 38.448C4.585 38.455 4.27 38.361 4.277 38.804C4.289 39.6189 4.277 40.435 4.277 41.2509V42.451L11.349 42.459ZM11.314 25.703C11.328 25.492 11.345 25.329 11.348 25.166C11.361 24.471 11.359 24.466 10.684 24.466C8.72 24.466 6.756 24.485 4.792 24.454C4.236 24.445 4.282 24.745 4.272 25.114C4.261 25.499 4.3 25.72 4.793 25.714C6.573 25.684 8.355 25.702 10.135 25.702H11.313" fill="#E45C51"/>
<path d="M35.0439 47.025V57.92C33.9679 57.92 32.9269 57.926 31.8859 57.91C31.8019 57.91 31.6779 57.771 31.6479 57.674C31.6205 57.527 31.6144 57.3767 31.6299 57.228C31.6299 48.7233 31.6299 40.219 31.6299 31.715C31.6299 31.015 31.6299 31.01 32.3299 31.01C35.1089 31.01 37.8879 31.004 40.6679 31.01C42.7843 30.9887 44.8396 31.719 46.4679 33.071C47.4015 33.8669 48.1347 34.8713 48.6084 36.0029C49.0821 37.1346 49.2828 38.3618 49.1946 39.5855C49.1063 40.8091 48.7314 41.9948 48.1001 43.0467C47.4689 44.0986 46.5991 44.9873 45.5609 45.641C44.2429 46.4986 42.7111 46.9701 41.1389 47.002C39.3249 47.036 37.5109 47.017 35.6969 47.02H35.0429M35.0919 34.33C35.0733 34.3934 35.0599 34.4583 35.0519 34.524C35.0519 37.468 35.0519 40.413 35.0409 43.358C35.0409 43.683 35.1849 43.745 35.4649 43.745C37.3649 43.738 39.2589 43.78 41.1539 43.73C42.3608 43.6821 43.503 43.1721 44.3442 42.3055C45.1855 41.4389 45.6613 40.282 45.6733 39.0742C45.6852 37.8665 45.2324 36.7004 44.4084 35.8173C43.5845 34.9342 42.4526 34.4017 41.2469 34.33C39.3029 34.257 37.3549 34.299 35.4089 34.292C35.3025 34.299 35.1966 34.3127 35.0919 34.333" fill="#767777"/>
<path d="M63.5319 57.891V55.451L63.3019 55.287C63.2743 55.4148 63.2296 55.5383 63.1689 55.654C62.4008 56.7333 61.3405 57.5708 60.1127 58.0681C58.8849 58.5654 57.5406 58.7017 56.2379 58.461C55.2186 58.3978 54.2298 58.0882 53.3563 57.5589C52.4829 57.0296 51.7508 56.2964 51.2229 55.422C50.7987 54.6979 50.532 53.8924 50.4402 53.0582C50.3483 52.224 50.4334 51.3798 50.6899 50.5807C50.9464 49.7817 51.3685 49.0456 51.9287 48.4207C52.4889 47.7958 53.1745 47.296 53.9409 46.954C55.7452 46.1126 57.7469 45.7863 59.7249 46.011C61.0205 46.0974 62.2857 46.4422 63.4459 47.025C63.9159 45.37 62.7799 43.364 60.9739 42.516C59.0489 41.616 55.5589 41.882 54.2429 44.695L51.1599 43.378C51.2943 43.074 51.4459 42.7779 51.6139 42.491C52.2254 41.5024 53.0601 40.6708 54.051 40.063C55.0419 39.4552 56.1615 39.088 57.3199 38.991C59.4984 38.6747 61.7187 39.1349 63.5919 40.291C64.5554 40.8855 65.3518 41.7153 65.9063 42.7022C66.4608 43.6892 66.7553 44.801 66.7619 45.933C66.8619 49.857 66.7959 53.785 66.7989 57.712C66.7901 57.7706 66.7747 57.828 66.7529 57.883L63.5319 57.891ZM57.8769 55.415C59.1545 55.3789 60.3862 54.9311 61.3886 54.1382C62.391 53.3454 63.1105 52.2499 63.4399 51.015C63.6399 49.945 63.6239 49.855 62.6039 49.434C60.6677 48.6239 58.5035 48.5426 56.5119 49.205C56.0502 49.3528 55.6226 49.5914 55.2542 49.9067C54.8859 50.2219 54.5842 50.6076 54.3669 51.041C54.1856 51.3511 54.0685 51.6944 54.0227 52.0506C53.9769 52.4068 54.0032 52.7687 54.1002 53.1145C54.1971 53.4603 54.3627 53.7831 54.587 54.0635C54.8114 54.344 55.0899 54.5765 55.4059 54.747C56.1559 55.1859 57.0091 55.4171 57.8779 55.417" fill="#767777"/>
<path d="M135.974 49.337H121.957C121.314 49.337 121.322 49.337 121.403 49.975C121.483 51.0967 121.885 52.1714 122.562 53.0699C123.238 53.9684 124.159 54.6525 125.215 55.0399C128.022 56.1399 130.626 55.109 132.326 52.268L135.332 53.5109C134.914 54.5357 134.277 55.457 133.467 56.211C132.493 57.1143 131.328 57.7867 130.058 58.1783C128.789 58.5699 127.448 58.6706 126.134 58.473C123.919 58.2375 121.867 57.2028 120.36 55.5627C118.853 53.9226 117.996 51.7895 117.949 49.563C117.807 48.0164 118.015 46.4577 118.56 45.0032C119.104 43.5487 119.97 42.2359 121.093 41.1629C122.458 39.8404 124.257 39.0587 126.156 38.963C128.041 38.7629 129.941 39.1506 131.597 40.073C132.782 40.779 133.782 41.7567 134.515 42.9255C135.248 44.0943 135.693 45.4206 135.812 46.795C135.922 47.611 135.919 48.442 135.971 49.336M132.225 46.506C132.43 44.242 129.864 42.0789 126.976 42.0389C124.393 42.0039 121.56 44.383 121.676 46.506H132.225Z" fill="#767777"/>
<path d="M98.616 39.561H101.858V42.005L102.084 42.171C102.109 42.0448 102.151 41.9226 102.21 41.808C103.299 40.3692 104.881 39.383 106.653 39.0385C108.424 38.6939 110.261 39.0153 111.81 39.941C112.632 40.4883 113.321 41.2123 113.827 42.0601C114.333 42.9079 114.643 43.858 114.734 44.841C114.816 45.3667 114.859 45.8979 114.86 46.43C114.871 50.092 114.866 53.754 114.86 57.416C114.86 57.563 114.844 57.71 114.833 57.891H111.458V57.262C111.458 53.933 111.464 50.604 111.452 47.275C111.45 46.7262 111.403 46.1784 111.313 45.637C110.852 42.874 108.882 41.837 106.358 42.095C105.31 42.2451 104.339 42.7276 103.586 43.4715C102.833 44.2154 102.339 45.1813 102.177 46.227C102.058 46.8137 101.998 47.4106 101.997 48.009C101.98 51.072 101.989 54.134 101.989 57.197V57.884H98.61L98.616 39.561Z" fill="#767777"/>
<path d="M95.0509 42.647H94.1049C93.0569 42.647 92.0049 42.654 90.9599 42.647C90.6739 42.647 90.5379 42.719 90.5389 43.037C90.5489 46.199 90.5039 49.361 90.5669 52.522C90.6119 54.74 92.0489 55.38 94.0119 55.007C94.2039 54.97 94.392 54.907 94.612 54.848L95.8119 57.797C95.2479 57.924 94.7309 58.079 94.2029 58.152C92.9987 58.3428 91.7667 58.2528 90.6029 57.889C89.7046 57.6134 88.9065 57.0809 88.3071 56.3572C87.7077 55.6334 87.3333 54.7501 87.2299 53.816C87.1524 53.3232 87.1159 52.8249 87.1209 52.326C87.1109 49.314 87.1209 46.302 87.1159 43.29C87.1159 42.652 87.1159 42.652 86.4549 42.651C85.7389 42.651 85.023 42.639 84.308 42.651C83.992 42.658 83.857 42.562 83.864 42.229C83.88 41.481 83.881 40.729 83.864 39.983C83.855 39.633 83.9879 39.517 84.3309 39.526C85.0629 39.545 85.7949 39.533 86.5309 39.526C86.7099 39.526 86.8879 39.506 87.1169 39.493V33.91H90.5269V39.529H91.2899C92.4049 39.529 93.5199 39.537 94.6339 39.529C94.9529 39.529 95.0739 39.629 95.0669 39.958C95.0469 40.835 95.0599 41.713 95.0599 42.649" fill="#767777"/>
<path d="M45.113 10.608L43.573 12.137C43.464 12.056 43.345 11.975 43.234 11.885C42.2905 11.1205 41.1351 10.6637 39.9239 10.5762C38.7126 10.4888 37.5036 10.7749 36.46 11.396C35.4008 12.0418 34.5654 12.9971 34.0664 14.1328C33.5675 15.2686 33.4291 16.5301 33.67 17.747C33.8888 18.9428 34.4725 20.0414 35.3409 20.892C36.2094 21.7425 37.32 22.3032 38.52 22.497C39.422 22.6792 40.3548 22.6392 41.2379 22.3805C42.121 22.1217 42.9279 21.6521 43.589 21.012C44.3627 20.2367 44.8121 19.1958 44.846 18.101H39.51V15.823H47.06C47.63 18.897 46.603 22.56 42.96 24.137C41.8595 24.6218 40.6682 24.8664 39.4656 24.8544C38.2631 24.8425 37.0769 24.5743 35.9862 24.0677C34.8954 23.5612 33.9253 22.8279 33.1403 21.9168C32.3553 21.0057 31.7737 19.9377 31.434 18.784C31.1226 17.6405 31.06 16.4435 31.2504 15.2737C31.4409 14.104 31.88 12.9886 32.5381 12.003C33.1962 11.0173 34.058 10.1842 35.0655 9.55996C36.0729 8.93567 37.2025 8.53467 38.378 8.38402C39.5012 8.2185 40.6467 8.29337 41.7388 8.60367C42.8309 8.91397 43.8447 9.45263 44.713 10.184C44.813 10.269 44.913 10.358 45.013 10.45C45.0528 10.4976 45.0886 10.5485 45.12 10.602" fill="#008CCF"/>
<path d="M150.537 39.459L149.261 42.6C148.493 42.5098 147.72 42.4764 146.947 42.5C145.776 42.6359 144.694 43.1905 143.9 44.0613C143.106 44.9322 142.654 46.0608 142.626 47.239C142.554 50.566 142.596 53.896 142.59 57.224C142.59 57.436 142.59 57.649 142.59 57.893H139.183V39.577H142.422V42.477C144.354 39.372 147.057 38.535 150.538 39.456" fill="#767777"/>
<path d="M74.1961 57.892C73.9961 57.905 73.8531 57.922 73.7071 57.923C72.7451 57.923 71.7841 57.923 70.7891 57.923V39.531H71.7641C72.3641 39.531 72.9641 39.5509 73.5641 39.5249C73.9441 39.5079 74.0541 39.654 74.0411 40.017C74.0181 40.682 74.0331 41.348 74.0411 42.017C74.0428 42.1866 74.0694 42.355 74.1201 42.517C75.6561 39.584 78.2201 38.917 81.2421 39.128V42.403C80.3791 42.443 79.5421 42.413 78.7291 42.533C77.4458 42.6683 76.2627 43.2889 75.4219 44.2678C74.5811 45.2467 74.1461 46.5099 74.2061 47.799C74.1981 50.96 74.2061 54.121 74.2061 57.282V57.892" fill="#767777"/>
<path d="M80.691 15.386C80.709 15.071 80.723 14.83 80.739 14.551H82.894C82.904 14.728 82.92 14.889 82.92 15.051C82.92 18.113 82.928 21.175 82.92 24.236C82.9653 24.9777 82.8581 25.7209 82.6049 26.4195C82.3518 27.1182 81.958 27.7575 81.448 28.298C80.8303 28.8429 80.0926 29.2342 79.295 29.4399C78.4974 29.6456 77.6625 29.6599 76.8583 29.4816C76.0541 29.3033 75.3034 28.9374 74.6675 28.4139C74.0316 27.8904 73.5284 27.2239 73.199 26.469L75.133 25.659C76.492 27.443 77.556 27.894 79.033 27.334C80.289 26.859 80.833 25.67 80.692 23.698C80.633 23.7123 80.5766 23.7359 80.525 23.768C79.9078 24.3512 79.1221 24.7243 78.2801 24.834C77.4381 24.9438 76.583 24.7845 75.837 24.379C74.7981 23.8951 73.9421 23.0903 73.3952 22.0832C72.8483 21.0761 72.6394 19.9199 72.7992 18.7851C72.9591 17.6503 73.4792 16.5968 74.2831 15.7799C75.0869 14.9631 76.1319 14.426 77.264 14.248C77.8244 14.1511 78.3994 14.1831 78.9456 14.3417C79.4917 14.5002 79.9946 14.7811 80.416 15.163C80.486 15.225 80.56 15.281 80.69 15.387M80.897 19.431C80.8762 19.196 80.8428 18.9624 80.797 18.731C80.7145 18.2004 80.4865 17.7032 80.1381 17.2946C79.7897 16.8861 79.3348 16.5822 78.824 16.417C78.3376 16.254 77.8145 16.2351 77.3177 16.3627C76.8209 16.4903 76.3716 16.7588 76.024 17.136C75.4434 17.742 75.1023 18.538 75.0641 19.3764C75.0258 20.2148 75.293 21.0386 75.816 21.695C76.0568 21.9997 76.3589 22.2505 76.7028 22.4313C77.0466 22.612 77.4245 22.7187 77.8121 22.7443C78.1997 22.7699 78.5883 22.714 78.9529 22.5801C79.3176 22.4462 79.6501 22.2373 79.929 21.967C80.2509 21.6302 80.5018 21.2322 80.6669 20.7965C80.832 20.3609 80.9079 19.8965 80.89 19.431" fill="#008CCF"/>
<path d="M59.231 19.51C59.2319 20.5556 58.9232 21.578 58.3437 22.4482C57.7641 23.3184 56.9398 23.9975 55.9747 24.3997C55.0096 24.8019 53.947 24.9092 52.921 24.7081C51.895 24.507 50.9515 24.0064 50.2097 23.2696C49.4679 22.5328 48.9609 21.5928 48.7528 20.5681C48.5448 19.5435 48.6448 18.4802 49.0405 17.5124C49.4361 16.5446 50.1096 15.7157 50.9759 15.1303C51.8422 14.5448 52.8624 14.2291 53.908 14.223C54.6079 14.2087 55.3035 14.3354 55.9534 14.5956C56.6033 14.8558 57.1942 15.2441 57.6909 15.7375C58.1876 16.2308 58.5799 16.819 58.8445 17.4672C59.1091 18.1153 59.2405 18.81 59.231 19.51ZM56.964 19.148C56.9435 18.6047 56.7732 18.0776 56.4719 17.625C56.1707 17.1723 55.7502 16.8117 55.257 16.583C54.7781 16.3213 54.2329 16.206 53.689 16.2515C53.1452 16.297 52.6267 16.5013 52.198 16.839C51.4933 17.3967 51.0351 18.2081 50.9214 19.0995C50.8078 19.9909 51.0478 20.8914 51.59 21.608C52.0542 22.2277 52.7454 22.6377 53.5118 22.7479C54.2781 22.8582 55.0569 22.6597 55.677 22.196C56.1336 21.8401 56.4916 21.3733 56.7169 20.84C56.9422 20.3066 57.0272 19.7245 56.964 19.149" fill="#EF4937"/>
<path d="M98.857 22.492C98.2867 23.3322 97.4873 23.991 96.5536 24.3904C95.62 24.7897 94.5914 24.9128 93.59 24.745C92.6115 24.6076 91.6946 24.1867 90.9527 23.5341C90.2107 22.8816 89.6761 22.026 89.415 21.073C89.1333 20.1856 89.0858 19.2405 89.2771 18.3294C89.4685 17.4183 89.8921 16.5721 90.507 15.873C91.0546 15.239 91.759 14.7598 92.5498 14.4833C93.3407 14.2068 94.1902 14.1426 95.0136 14.2972C95.837 14.4517 96.6054 14.8196 97.2421 15.3641C97.8788 15.9086 98.3615 16.6106 98.642 17.4C98.742 17.641 98.823 17.89 98.928 18.177L91.856 21.107C92.0052 21.483 92.2398 21.819 92.5413 22.0887C92.8427 22.3584 93.2028 22.5544 93.593 22.661C94.855 23.018 95.793 22.661 97.116 21.339L98.856 22.491M91.514 19.373L96.243 17.404C96.0092 16.946 95.6215 16.5852 95.1479 16.3849C94.6744 16.1846 94.1454 16.1577 93.654 16.309C92.9919 16.4829 92.4132 16.8863 92.021 17.4473C91.6288 18.0084 91.4488 18.6905 91.513 19.372" fill="#EB4435"/>
<path d="M66.065 24.774C65.0297 24.7766 64.0168 24.4732 63.1534 23.9018C62.2901 23.3305 61.6148 22.5168 61.2126 21.5629C60.8103 20.609 60.6989 19.5575 60.8923 18.5404C61.0858 17.5234 61.5756 16.5863 62.3 15.8467C63.0245 15.1072 63.9514 14.5983 64.9642 14.3839C65.977 14.1695 67.0306 14.2592 67.9926 14.6418C68.9546 15.0243 69.782 15.6827 70.371 16.5341C70.96 17.3854 71.2842 18.3919 71.3029 19.427C71.3278 20.1267 71.2102 20.8241 70.9572 21.4769C70.7042 22.1297 70.321 22.7242 69.8311 23.2243C69.3412 23.7244 68.7547 24.1197 68.1073 24.3861C67.4598 24.6525 66.765 24.7845 66.065 24.774ZM62.994 19.494C63.0293 20.0892 63.2374 20.6612 63.593 21.1398C63.9486 21.6185 64.4361 21.983 64.9958 22.1886C65.5554 22.3943 66.163 22.4322 66.7438 22.2976C67.3247 22.1631 67.8537 21.862 68.266 21.4313C68.6783 21.0005 68.956 20.4589 69.065 19.8726C69.1739 19.2864 69.1095 18.6812 68.8796 18.131C68.6496 17.5809 68.2641 17.1098 67.7704 16.7755C67.2767 16.4412 66.6961 16.2582 66.1 16.249C65.6792 16.2453 65.2621 16.3277 64.8743 16.4913C64.4866 16.6549 64.1365 16.8961 63.8455 17.2001C63.5545 17.5041 63.3289 17.8644 63.1824 18.259C63.036 18.6535 62.9718 19.0738 62.994 19.494Z" fill="#FEBA12"/>
<path d="M85.241 24.49V8.93701H87.483C87.493 9.09601 87.515 9.26901 87.515 9.44301C87.515 14.266 87.515 19.09 87.526 23.913C87.526 24.364 87.412 24.532 86.945 24.499C86.388 24.46 85.826 24.49 85.245 24.49" fill="#3BB34B"/>
<path d="M4.28102 28.661H11.31V29.781H6.06502L6.04602 29.869C7.03735 30.2277 8.02868 30.5863 9.02002 30.945C9.67702 31.182 10.327 31.44 10.994 31.645C11.403 31.77 11.345 32.062 11.351 32.356C11.357 32.65 11.351 32.88 10.979 33.003C9.44902 33.503 7.93102 34.052 6.41002 34.584C6.25902 34.637 6.11002 34.7 5.96602 34.758H10.46C11.446 34.758 11.485 34.809 11.277 35.858C11.144 35.868 11 35.889 10.856 35.89C8.84302 35.89 6.82902 35.882 4.81602 35.899C4.41602 35.899 4.26502 35.799 4.27002 35.373C4.28402 34.221 4.26402 34.219 5.35402 33.836C6.67135 33.3733 7.98902 32.9124 9.30702 32.453C9.40702 32.416 9.50702 32.364 9.71202 32.272C8.93902 31.99 8.26102 31.739 7.58102 31.495C6.61102 31.146 5.64202 30.795 4.66902 30.458C4.40002 30.365 4.25402 30.233 4.27402 29.922C4.29902 29.522 4.28002 29.128 4.28002 28.666" fill="white"/>
<path d="M11.341 44.579C11.3599 44.9813 11.3548 45.3843 11.326 45.786C11.2732 45.9516 11.1595 46.091 11.008 46.176C10.434 46.542 9.84596 46.886 9.26096 47.235C8.49296 47.694 8.49196 47.693 8.64096 48.698H11.27C11.507 49.869 11.452 49.939 10.37 49.939C8.52496 49.939 6.67996 49.927 4.83496 49.948C4.40196 49.948 4.23996 49.834 4.26996 49.386C4.32196 48.608 4.26996 47.821 4.36196 47.049C4.36138 46.6184 4.5138 46.2016 4.79203 45.873C5.07026 45.5444 5.45619 45.3254 5.88096 45.255C6.32222 45.1485 6.78668 45.1967 7.19662 45.3917C7.60656 45.5866 7.93711 45.9165 8.13296 46.326C8.16796 46.382 8.20996 46.433 8.27596 46.526L11.338 44.58M6.41096 48.708C7.65096 48.708 7.65096 48.708 7.48296 47.463C7.47669 47.3209 7.44133 47.1816 7.37908 47.0537C7.31682 46.9258 7.22899 46.812 7.12102 46.7194C7.01304 46.6268 6.88722 46.5573 6.75133 46.5153C6.61543 46.4732 6.47236 46.4595 6.33096 46.475C5.59896 46.528 5.28996 47.096 5.32596 48.298C5.34796 49.039 5.91196 48.583 6.21296 48.704C6.27911 48.7157 6.34681 48.7157 6.41296 48.704" fill="white"/>
<path d="M8.28502 11.511L11.232 9.64001C11.544 10.529 11.41 10.94 10.696 11.365C10.2395 11.669 9.7664 11.9474 9.27902 12.199C9.13451 12.2463 9.00194 12.3243 8.89039 12.4277C8.77884 12.531 8.69095 12.6572 8.63273 12.7977C8.57451 12.9382 8.54734 13.0895 8.55309 13.2415C8.55883 13.3934 8.59735 13.5423 8.66602 13.678H10.393C11.442 13.678 11.53 13.797 11.261 14.914H9.98502C8.27202 14.914 6.55902 14.897 4.84702 14.925C4.37202 14.933 4.24702 14.775 4.27302 14.325C4.32202 13.563 4.27302 12.792 4.36302 12.037C4.36064 11.6148 4.50677 11.2052 4.77585 10.8798C5.04494 10.5544 5.41985 10.3339 5.83502 10.257C6.27278 10.1343 6.73962 10.1681 7.1552 10.3524C7.57078 10.5368 7.90912 10.8602 8.11202 11.267C8.15602 11.335 8.20702 11.399 8.28502 11.507M5.31102 13.677H6.47102C7.64702 13.677 7.64702 13.677 7.49102 12.477C7.49209 12.3473 7.46726 12.2187 7.41799 12.0986C7.36872 11.9786 7.296 11.8697 7.20408 11.7781C7.11216 11.6866 7.00289 11.6143 6.88268 11.5655C6.76247 11.5167 6.63374 11.4924 6.50402 11.494C5.84202 11.462 5.52902 11.694 5.40902 12.385C5.33902 12.785 5.34402 13.2 5.30902 13.679" fill="white"/>
<path d="M11.265 55.89C11.2907 55.9445 11.3121 56.001 11.329 56.059C11.446 57.11 11.446 57.11 10.396 57.11C8.5833 57.11 6.7703 57.11 4.95697 57.11C4.74597 57.11 4.53597 57.084 4.24097 57.064C4.28597 56.041 4.26597 55.058 4.38997 54.093C4.42346 53.6459 4.62155 53.2272 4.94592 52.9178C5.27028 52.6084 5.69787 52.4303 6.14597 52.418C6.6416 52.3112 7.15923 52.3947 7.5962 52.6518C8.03316 52.9089 8.35753 53.3209 8.50497 53.806C8.65022 54.3149 8.72293 54.8417 8.72097 55.371C8.72897 55.793 8.86497 55.917 9.27197 55.9C9.93397 55.872 10.598 55.893 11.265 55.893M7.72097 55.893C7.70502 55.4356 7.6606 54.9798 7.58797 54.528C7.54921 54.2684 7.41143 54.034 7.20355 53.8738C6.99566 53.7136 6.73382 53.6402 6.47297 53.669C6.34321 53.6567 6.21231 53.6704 6.08786 53.7091C5.96342 53.7479 5.8479 53.8109 5.748 53.8947C5.64811 53.9784 5.56582 54.0811 5.5059 54.1968C5.44599 54.3126 5.40964 54.4391 5.39897 54.569C5.33946 54.9115 5.31833 55.2597 5.33597 55.607C5.33597 55.707 5.48997 55.882 5.57797 55.885C6.25497 55.908 6.93297 55.898 7.71997 55.898" fill="white"/>
<path d="M11.3381 21.49H4.28005V19.896C4.28005 19.23 4.30005 18.564 4.27405 17.896C4.25705 17.447 4.53705 17.484 4.82805 17.481C5.11905 17.478 5.35305 17.472 5.33705 17.881C5.31105 18.529 5.34605 19.181 5.32405 19.827C5.31205 20.167 5.41405 20.291 5.76905 20.299C7.16205 20.332 7.16205 20.343 7.16205 18.936C7.16205 18.72 7.16205 18.503 7.16205 18.287C7.16205 17.7 7.43805 17.487 7.99305 17.694C8.05287 17.7379 8.10194 17.7948 8.13658 17.8605C8.17122 17.9261 8.19053 17.9988 8.19305 18.073C8.21505 18.673 8.21905 19.273 8.19305 19.873C8.18105 20.209 8.31205 20.313 8.62805 20.3C9.04305 20.282 9.46005 20.284 9.87605 20.3C10.1761 20.31 10.2891 20.2 10.2821 19.893C10.2671 19.211 10.2821 18.528 10.2761 17.846C10.2761 17.546 10.4291 17.446 10.6761 17.491C10.9051 17.528 11.3051 17.313 11.3161 17.734C11.3511 18.977 11.3281 20.221 11.3281 21.492" fill="white"/>
<path d="M11.349 42.461H4.27999V41.261C4.27999 40.445 4.28999 39.63 4.27999 38.814C4.27399 38.372 4.57999 38.465 4.83399 38.458C5.08799 38.451 5.34599 38.408 5.33399 38.811C5.31699 39.493 5.34199 40.176 5.32499 40.858C5.31799 41.158 5.41699 41.279 5.72499 41.268C6.18499 41.252 6.64599 41.268 7.16499 41.268C7.16499 40.503 7.18499 39.808 7.15699 39.115C7.14199 38.723 7.30299 38.631 7.65699 38.644C7.98599 38.656 8.23799 38.651 8.21599 39.11C8.18199 39.803 8.20699 40.499 8.20699 41.262C8.85499 41.262 9.44799 41.279 10.04 41.245C10.129 41.24 10.269 40.999 10.274 40.863C10.299 40.215 10.305 39.563 10.279 38.916C10.263 38.516 10.459 38.449 10.796 38.455C11.133 38.461 11.371 38.455 11.361 38.915C11.335 40.092 11.352 41.269 11.352 42.47" fill="white"/>
<path d="M11.315 25.7049H10.137C8.35605 25.7049 6.57505 25.6859 4.79505 25.7169C4.30105 25.7259 4.26205 25.5049 4.27405 25.1169C4.28405 24.7479 4.23905 24.4489 4.79405 24.4569C6.75805 24.4879 8.72205 24.4689 10.686 24.4689C11.361 24.4689 11.363 24.4689 11.35 25.1689C11.35 25.3319 11.33 25.4949 11.316 25.7059" fill="white"/>
<path d="M35.093 34.335C35.1977 34.3146 35.3036 34.3009 35.41 34.294C37.356 34.301 39.304 34.259 41.248 34.332C42.4536 34.4037 43.5856 34.9362 44.4095 35.8193C45.2334 36.7024 45.6863 37.8685 45.6743 39.0762C45.6624 40.284 45.1865 41.4408 44.3453 42.3075C43.5041 43.1741 42.3618 43.6841 41.155 43.732C39.255 43.782 37.362 43.74 35.466 43.747C35.186 43.747 35.041 43.685 35.042 43.36C35.053 40.416 35.05 37.471 35.053 34.526C35.061 34.4603 35.0743 34.3954 35.093 34.332" fill="white"/>
<path d="M57.877 55.414C57.0081 55.4148 56.1548 55.1839 55.405 54.745C55.0889 54.5744 54.8104 54.342 54.5861 54.0615C54.3618 53.781 54.1962 53.4583 54.0992 53.1124C54.0023 52.7666 53.9759 52.4048 54.0217 52.0486C54.0676 51.6924 54.1847 51.349 54.366 51.039C54.5833 50.6056 54.8849 50.2199 55.2533 49.9046C55.6216 49.5893 56.0492 49.3508 56.511 49.203C58.5026 48.5405 60.6667 48.6219 62.603 49.432C63.623 49.853 63.636 49.943 63.439 51.013C63.1097 52.248 62.3903 53.3435 61.3878 54.1364C60.3854 54.9293 59.1536 55.377 57.876 55.413" fill="white"/>
<path d="M132.228 46.508H121.683C121.564 44.385 124.396 42.008 126.983 42.041C129.872 42.081 132.437 44.241 132.232 46.508" fill="white"/>
<path d="M80.898 19.43C80.9159 19.8955 80.84 20.3599 80.6749 20.7956C80.5098 21.2312 80.2589 21.6292 79.937 21.966C79.6581 22.2364 79.3256 22.4452 78.961 22.5791C78.5963 22.713 78.2077 22.769 77.8201 22.7433C77.4325 22.7177 77.0546 22.6111 76.7108 22.4303C76.367 22.2496 76.0649 21.9987 75.824 21.694C75.301 21.0376 75.0338 20.2138 75.0721 19.3755C75.1103 18.5371 75.4514 17.741 76.032 17.135C76.3796 16.7579 76.8289 16.4893 77.3257 16.3618C77.8226 16.2342 78.3456 16.253 78.832 16.416C79.3428 16.5813 79.7978 16.8851 80.1461 17.2937C80.4945 17.7022 80.7226 18.1995 80.805 18.73C80.8508 18.9614 80.8842 19.1951 80.905 19.43" fill="white"/>
<path d="M56.964 19.1481C57.0272 19.7235 56.9422 20.3057 56.7169 20.839C56.4916 21.3723 56.1336 21.8392 55.677 22.1951C55.0569 22.6587 54.2781 22.8572 53.5118 22.747C52.7454 22.6367 52.0542 22.2267 51.59 21.6071C51.0478 20.8904 50.8078 19.99 50.9214 19.0986C51.0351 18.2071 51.4933 17.3957 52.198 16.8381C52.6267 16.5004 53.1452 16.2961 53.689 16.2505C54.2329 16.205 54.7781 16.3203 55.257 16.5821C55.7502 16.8108 56.1707 17.1713 56.4719 17.624C56.7732 18.0766 56.9435 18.6047 56.964 19.1481Z" fill="white"/>
<path d="M91.5139 19.3741C91.4498 18.6926 91.6298 18.0104 92.022 17.4494C92.4141 16.8884 92.9929 16.4849 93.6549 16.3111C94.1464 16.1598 94.6754 16.1867 95.1489 16.3869C95.6225 16.5872 96.0102 16.9481 96.2439 17.4061L91.5149 19.3751" fill="white"/>
<path d="M62.9919 19.493C62.9698 19.0728 63.0339 18.6525 63.1804 18.258C63.3268 17.8634 63.5525 17.5031 63.8435 17.1991C64.1345 16.8951 64.4846 16.6539 64.8723 16.4903C65.26 16.3267 65.6771 16.2443 66.0979 16.248C66.7569 16.2113 67.4116 16.3737 67.977 16.7141C68.5424 17.0545 68.9923 17.5571 69.2683 18.1565C69.5443 18.756 69.6335 19.4246 69.5245 20.0755C69.4154 20.7264 69.113 21.3294 68.6567 21.8062C68.2004 22.2829 67.6112 22.6114 66.9657 22.7488C66.3202 22.8862 65.6483 22.8263 65.0373 22.5768C64.4264 22.3274 63.9046 21.8998 63.5398 21.3499C63.175 20.7999 62.9841 20.1529 62.9919 19.493Z" fill="white"/>
<path d="M6.41403 48.706C6.34788 48.7178 6.28017 48.7178 6.21403 48.706C5.91403 48.585 5.34903 49.041 5.32703 48.3C5.29103 47.1 5.60003 46.53 6.33203 46.477C6.47343 46.4615 6.6165 46.4752 6.75239 46.5173C6.88829 46.5593 7.01411 46.6288 7.12208 46.7214C7.23006 46.814 7.31789 46.9278 7.38014 47.0557C7.4424 47.1836 7.47775 47.3229 7.48402 47.465C7.65202 48.71 7.65203 48.71 6.41203 48.71" fill="#EB4435"/>
<path d="M5.30798 13.68C5.34198 13.201 5.33698 12.787 5.40798 12.386C5.52798 11.696 5.83998 11.463 6.50298 11.495C6.63271 11.4934 6.76144 11.5177 6.88165 11.5665C7.00186 11.6153 7.11113 11.6876 7.20304 11.7791C7.29496 11.8707 7.36769 11.9797 7.41696 12.0997C7.46623 12.2197 7.49106 12.3483 7.48998 12.478C7.64598 13.678 7.64598 13.678 6.46998 13.678H5.30998" fill="#EB4435"/>
<path d="M7.719 55.885C6.932 55.885 6.254 55.895 5.577 55.872C5.489 55.872 5.338 55.693 5.335 55.594C5.31737 55.2467 5.3385 54.8986 5.398 54.556C5.40867 54.4261 5.44502 54.2996 5.50494 54.1838C5.56485 54.0681 5.64714 53.9654 5.74704 53.8817C5.84694 53.798 5.96245 53.7349 6.0869 53.6962C6.21134 53.6574 6.34224 53.6438 6.472 53.656C6.7329 53.627 6.99487 53.7003 7.20282 53.8605C7.41076 54.0207 7.54848 54.2553 7.587 54.515C7.65963 54.9668 7.70405 55.4227 7.72 55.88" fill="#EB4435"/>
</g>
</svg>
