<svg width="212" height="103" viewBox="0 0 212 103" fill="none" xmlns="http://www.w3.org/2000/svg">
<mask id="mask0_1_1125" style="mask-type:luminance" maskUnits="userSpaceOnUse" x="0" y="0" width="212" height="103">
<path d="M211.997 0H0V102.582H211.997V0Z" fill="white"/>
</mask>
<g mask="url(#mask0_1_1125)">
<path d="M154.896 48.4261C154.898 48.149 154.853 47.8736 154.761 47.6121C154.674 47.3695 154.538 47.1475 154.361 46.9601C154.183 46.7734 153.97 46.6244 153.734 46.5221C153.474 46.4106 153.193 46.3554 152.91 46.3601C152.628 46.3551 152.349 46.4103 152.091 46.5221C151.857 46.6256 151.646 46.7745 151.47 46.9601C151.293 47.1474 151.157 47.3694 151.07 47.6121C150.889 48.14 150.889 48.7131 151.07 49.2411C151.155 49.4826 151.289 49.7039 151.465 49.8907C151.64 50.0775 151.852 50.2257 152.088 50.3261C152.347 50.4343 152.626 50.4877 152.907 50.4831C153.189 50.4874 153.47 50.434 153.731 50.3261C153.968 50.2269 154.181 50.0794 154.358 49.8931C154.535 49.7057 154.671 49.4837 154.758 49.2411C154.85 48.9796 154.895 48.7042 154.893 48.4271M155.478 48.4271C155.481 48.777 155.418 49.1243 155.29 49.4501C155.17 49.7539 154.991 50.0307 154.763 50.2641C154.531 50.4974 154.254 50.6805 153.949 50.8021C153.618 50.9334 153.265 50.9989 152.91 50.9951C152.556 50.9993 152.205 50.9337 151.877 50.8021C151.573 50.6804 151.298 50.4976 151.068 50.265C150.838 50.0324 150.659 49.755 150.541 49.4501C150.29 48.7912 150.29 48.063 150.541 47.4041C150.659 47.1011 150.839 46.8257 151.068 46.5951C151.3 46.3657 151.575 46.1849 151.877 46.0631C152.205 45.9314 152.556 45.8659 152.91 45.8701C153.265 45.8662 153.618 45.9318 153.949 46.0631C154.253 46.184 154.53 46.3649 154.763 46.5951C154.992 46.826 155.171 47.1013 155.29 47.4041C155.418 47.7299 155.481 48.0772 155.478 48.4271Z" fill="#0091D7"/>
<path d="M157.904 46.473H156.714V50.857H156.14V46.473H155.127V45.993H156.14V44.542C156.105 44.0809 156.251 43.6244 156.547 43.269C156.694 43.1226 156.871 43.0088 157.065 42.9351C157.259 42.8614 157.467 42.8293 157.674 42.841C157.772 42.8409 157.869 42.8463 157.966 42.857C158.055 42.8654 158.143 42.8845 158.227 42.914L158.133 43.384C157.979 43.3477 157.821 43.3302 157.663 43.332C157.501 43.3251 157.339 43.3595 157.194 43.432C157.074 43.4968 156.973 43.5924 156.902 43.709C156.829 43.8322 156.78 43.9678 156.756 44.109C156.727 44.2707 156.713 44.4347 156.714 44.599V45.987H157.904V46.473Z" fill="#0091D7"/>
<path d="M37.423 25.144H47.543L69.372 77.385L60.572 77.438L42.456 33.833L33.184 55.874L23.704 58.259L37.423 25.144Z" fill="#525257"/>
<path d="M0 77.3851H8.325C8.325 77.3851 26.415 46.3311 70.394 52.8101C70.394 52.8101 27.263 37.6581 0 77.3851Z" fill="#6F6D71"/>
<path d="M12.594 77.385C12.594 77.385 34.701 46.097 70.394 52.81C70.394 52.81 41.415 49.519 20.74 77.385H12.594Z" fill="#0091D7"/>
<path d="M25.525 77.386C25.525 77.386 47.401 48.967 70.395 52.81C70.395 52.81 53.195 52.296 32.909 77.385L25.525 77.386Z" fill="#F36A10"/>
<path d="M76.918 102.582V0" stroke="#6F6D71" stroke-width="0.428" stroke-miterlimit="10"/>
<path d="M88.477 44.2009L87.321 47.3219H89.607L88.477 44.2009ZM90.917 50.8669L90.21 49.0819H86.691L86.023 50.8669H83.635L87.449 41.7739H89.581L93.357 50.8669H90.917Z" fill="#0091D7"/>
<path d="M99.894 50.7099C99.2501 50.9889 98.5535 51.1253 97.852 51.1099C97.1874 51.117 96.5273 50.9997 95.906 50.7639C95.328 50.5465 94.8011 50.2123 94.358 49.7822C93.915 49.352 93.5653 48.8352 93.331 48.2639C92.8321 47.001 92.8343 45.5953 93.337 44.3339C93.5761 43.7629 93.9329 43.2488 94.384 42.8249C94.8372 42.4045 95.37 42.0792 95.951 41.8679C97.1902 41.4202 98.5474 41.4227 99.785 41.8749C100.364 42.0755 100.883 42.4195 101.294 42.8749L99.804 44.3649C99.5992 44.083 99.3187 43.8649 98.995 43.7359C98.6695 43.6003 98.3205 43.5303 97.968 43.5299C97.6037 43.5255 97.2425 43.5977 96.908 43.7419C96.5949 43.8778 96.3131 44.0766 96.08 44.3259C95.8451 44.5816 95.662 44.8804 95.541 45.2059C95.4093 45.5613 95.3438 45.9379 95.348 46.3169C95.3435 46.7021 95.4089 47.085 95.541 47.4469C95.6588 47.7725 95.8399 48.0716 96.074 48.3269C96.3027 48.5724 96.5803 48.7673 96.889 48.8989C97.2181 49.0383 97.5725 49.1081 97.93 49.1039C98.3263 49.1135 98.7189 49.0253 99.073 48.8469C99.383 48.6891 99.6515 48.4606 99.857 48.1799L101.385 49.6179C100.974 50.0879 100.465 50.4632 99.895 50.7179" fill="#0091D7"/>
<path d="M106.419 44.2009L105.263 47.3219H107.549L106.419 44.2009ZM108.86 50.8669L108.153 49.0819H104.634L103.966 50.8669H101.578L105.392 41.7739H107.524L111.3 50.8669H108.86Z" fill="#0091D7"/>
<path d="M118.261 46.3021C118.276 45.8626 118.191 45.4255 118.011 45.0241C117.858 44.7036 117.629 44.4258 117.343 44.2151C117.057 44.0113 116.735 43.8652 116.393 43.7851C116.033 43.6993 115.663 43.6563 115.293 43.6571H114.201V48.9741H115.241C115.624 48.9754 116.005 48.9301 116.377 48.8391C116.724 48.7569 117.052 48.6063 117.34 48.3961C117.626 48.1806 117.856 47.8984 118.008 47.5741C118.186 47.1745 118.272 46.7395 118.258 46.3021M120.544 46.3021C120.562 47.0146 120.411 47.7212 120.101 48.3631C119.823 48.9199 119.423 49.4072 118.932 49.7891C118.443 50.1641 117.887 50.443 117.294 50.6111C116.693 50.7856 116.07 50.8742 115.444 50.8741H112.054V41.7771H115.342C115.982 41.7771 116.62 41.8526 117.242 42.0021C117.841 42.1405 118.408 42.3935 118.911 42.7471C119.412 43.1092 119.818 43.5876 120.093 44.1411C120.412 44.8145 120.566 45.5543 120.542 46.2991" fill="#0091D7"/>
<path d="M121.744 50.8701V41.7771H127.857V43.6261H123.863V45.3481H127.639V47.1071H123.863V48.9951H128.089V50.8701H121.744Z" fill="#0091D7"/>
<path d="M137.783 50.8701L137.834 44.4351H137.792L135.429 50.8701H133.892L131.592 44.4351H131.554L131.605 50.8701H129.538V41.7771H132.662L134.732 47.6081H134.784L136.764 41.7771H139.941V50.8701H137.783Z" fill="#0091D7"/>
<path d="M146.478 47.0171V50.8701H144.278V47.0171L140.861 41.7771H143.52L145.459 45.1421L147.399 41.7771H149.968L146.478 47.0171Z" fill="#0091D7"/>
<path d="M90.95 62.242C90.3124 62.3924 89.659 62.4656 89.004 62.46C88.3185 62.4675 87.6375 62.3503 86.994 62.114C86.4069 61.8984 85.8695 61.5665 85.414 61.138C84.9689 60.7118 84.6168 60.198 84.38 59.629C83.8818 58.3639 83.8844 56.9565 84.387 55.693C84.6259 55.122 84.9827 54.6078 85.434 54.184C85.8873 53.7639 86.4201 53.4385 87.001 53.227C87.6221 53.0005 88.2788 52.8874 88.94 52.893C89.6205 52.8871 90.297 52.9981 90.94 53.221C91.4966 53.4045 92.0078 53.7042 92.44 54.1L91.054 55.68C90.8193 55.4171 90.5299 55.2089 90.206 55.07C89.8295 54.9065 89.4224 54.8254 89.012 54.832C88.6455 54.8282 88.2821 54.9004 87.945 55.044C87.6252 55.1812 87.3367 55.3819 87.097 55.634C86.8527 55.894 86.6627 56.1999 86.538 56.534C86.4021 56.8972 86.3343 57.2823 86.338 57.67C86.3336 58.0627 86.3944 58.4533 86.518 58.826C86.6292 59.1625 86.8109 59.4714 87.051 59.732C87.295 59.9908 87.5931 60.1925 87.924 60.323C88.3025 60.4701 88.706 60.5421 89.112 60.535C89.3575 60.536 89.6026 60.5166 89.845 60.477C90.0658 60.4411 90.2814 60.3784 90.487 60.29V58.633H88.755V56.86H92.505V61.677C92.0093 61.9267 91.4856 62.1164 90.945 62.242" fill="#0091D7"/>
<path d="M93.796 62.229V53.136H99.909V54.986H95.915V56.707H99.691V58.466H95.915V60.354H100.141V62.229H93.796Z" fill="#0091D7"/>
<path d="M106.857 62.229L103.197 56.282H103.158L103.209 62.229H101.078V53.136H103.578L107.226 59.069H107.265L107.213 53.136H109.345V62.229H106.857Z" fill="#0091D7"/>
<path d="M110.71 62.229V53.136H116.823V54.986H112.829V56.707H116.605V58.466H112.829V60.354H117.055V62.229H110.71Z" fill="#0091D7"/>
<path d="M122.77 55.922C122.778 55.739 122.731 55.5578 122.634 55.402C122.546 55.2715 122.426 55.1655 122.285 55.094C122.135 55.019 121.974 54.9694 121.808 54.947C121.639 54.9215 121.469 54.9085 121.298 54.908H120.124V57.028H121.169C121.355 57.0279 121.541 57.0128 121.724 56.983C121.903 56.9566 122.077 56.9027 122.24 56.823C122.408 56.7431 122.548 56.6146 122.643 56.4542C122.737 56.2938 122.782 56.1078 122.77 55.922ZM122.86 62.229L120.886 58.62H120.138V62.228H117.993V53.135H121.46C121.89 53.1342 122.318 53.1795 122.738 53.27C123.135 53.3523 123.514 53.5068 123.855 53.726C124.184 53.9394 124.455 54.2307 124.645 54.574C124.854 54.9781 124.956 55.4293 124.94 55.884C124.959 56.4444 124.782 56.9938 124.44 57.438C124.082 57.8743 123.597 58.1887 123.053 58.338L125.429 62.23L122.86 62.229Z" fill="#0091D7"/>
<path d="M130.489 55.562L129.333 58.683H131.619L130.489 55.562ZM132.929 62.228L132.223 60.443H128.703L128.035 62.228H125.647L129.461 53.135H131.593L135.369 62.228H132.929Z" fill="#0091D7"/>
<path d="M135.614 62.229V53.136H137.823V60.315H141.342V62.229H135.614Z" fill="#0091D7"/>
<path d="M151.916 57.656C151.931 57.2165 151.846 56.7794 151.666 56.378C151.513 56.0576 151.284 55.7797 150.998 55.569C150.712 55.3652 150.39 55.2191 150.048 55.139C149.688 55.0531 149.319 55.0102 148.948 55.011H147.856V60.328H148.896C149.279 60.3293 149.66 60.284 150.032 60.193C150.379 60.111 150.707 59.9604 150.995 59.75C151.281 59.5343 151.51 59.2522 151.663 58.928C151.842 58.5284 151.927 58.0935 151.913 57.656M154.199 57.656C154.218 58.3685 154.066 59.0751 153.756 59.717C153.478 60.2739 153.079 60.7612 152.587 61.143C152.098 61.518 151.542 61.7969 150.949 61.965C150.348 62.1399 149.725 62.2288 149.099 62.229H145.708V53.135H148.996C149.636 53.1347 150.274 53.2102 150.896 53.36C151.495 53.4984 152.062 53.7514 152.565 54.105C153.066 54.4672 153.472 54.9455 153.747 55.499C154.066 56.1724 154.22 56.9122 154.196 57.657" fill="#0091D7"/>
<path d="M155.012 62.229V53.136H161.125V54.986H157.131V56.707H160.907V58.467H157.131V60.355H161.357V62.229H155.012Z" fill="#0091D7"/>
<path d="M167.944 62.229L164.284 56.282H164.245L164.297 62.229H162.165V53.136H164.665L168.313 59.07H168.352L168.3 53.136H170.432V62.229H167.944Z" fill="#0091D7"/>
<path d="M175.56 55.01V62.228H173.36V55.01H170.791V53.135H178.125V55.01H175.56Z" fill="#0091D7"/>
<path d="M180.697 53.136H178.488V62.23H180.697V53.136Z" fill="#0091D7"/>
<path d="M186.734 55.499C186.537 55.2522 186.283 55.056 185.995 54.927C185.721 54.7928 185.421 54.7204 185.116 54.715C184.968 54.7156 184.819 54.7286 184.673 54.754C184.532 54.7776 184.396 54.8278 184.273 54.902C184.155 54.9742 184.052 55.0702 183.973 55.184C183.887 55.3153 183.844 55.4702 183.851 55.627C183.847 55.7626 183.882 55.8964 183.951 56.013C184.023 56.1233 184.119 56.2154 184.233 56.282C184.373 56.3671 184.522 56.4381 184.676 56.494C184.847 56.558 185.04 56.625 185.254 56.694C185.562 56.7974 185.883 56.911 186.217 57.035C186.543 57.1547 186.85 57.3211 187.128 57.529C187.404 57.7358 187.635 57.9955 187.809 58.293C188 58.6408 188.093 59.0336 188.079 59.43C188.091 59.8982 187.992 60.3625 187.79 60.785C187.606 61.1548 187.341 61.4777 187.013 61.729C186.679 61.9821 186.299 62.1694 185.895 62.281C185.472 62.4017 185.035 62.4623 184.595 62.461C183.95 62.4622 183.311 62.347 182.707 62.121C182.135 61.9171 181.616 61.5853 181.191 61.151L182.63 59.687C182.871 59.9757 183.171 60.2099 183.509 60.374C183.844 60.5515 184.216 60.6464 184.595 60.651C184.755 60.651 184.914 60.6336 185.07 60.599C185.212 60.5683 185.348 60.5117 185.47 60.432C185.586 60.354 185.681 60.2481 185.746 60.124C185.817 59.9806 185.851 59.8219 185.846 59.662C185.851 59.5065 185.806 59.3534 185.718 59.225C185.619 59.0932 185.494 58.9821 185.352 58.898C185.166 58.7867 184.967 58.6961 184.761 58.628C184.526 58.5467 184.259 58.459 183.961 58.365C183.67 58.2711 183.385 58.1596 183.107 58.031C182.834 57.9064 182.583 57.7397 182.362 57.537C182.14 57.3304 181.96 57.0815 181.835 56.805C181.693 56.4746 181.625 56.1174 181.635 55.758C181.621 55.3051 181.728 54.8566 181.943 54.458C182.142 54.1053 182.419 53.8024 182.752 53.572C183.095 53.3367 183.478 53.165 183.882 53.065C184.297 52.9587 184.724 52.9049 185.153 52.905C185.69 52.9089 186.222 53.0043 186.727 53.187C187.248 53.367 187.726 53.6511 188.133 54.022L186.734 55.499Z" fill="#0091D7"/>
<path d="M193.284 55.01V62.228H191.084V55.01H188.515V53.135H195.856V55.01H193.284Z" fill="#0091D7"/>
<path d="M200.99 55.922C200.998 55.7391 200.951 55.5579 200.855 55.402C200.767 55.2715 200.647 55.1655 200.506 55.094C200.356 55.019 200.195 54.9694 200.029 54.947C199.86 54.9218 199.69 54.9088 199.519 54.908H198.345V57.028H199.39C199.576 57.0276 199.762 57.0126 199.945 56.983C200.124 56.9566 200.298 56.9027 200.461 56.823C200.629 56.7431 200.769 56.6146 200.864 56.4542C200.958 56.2938 201.003 56.1088 200.991 55.923M201.081 62.23L199.107 58.621H198.359V62.228H196.212V53.135H199.682C200.112 53.1342 200.54 53.1795 200.96 53.27C201.357 53.3528 201.736 53.5073 202.077 53.726C202.406 53.9396 202.677 54.2308 202.867 54.574C203.076 54.9781 203.178 55.4293 203.162 55.884C203.181 56.4443 203.004 56.9937 202.662 57.438C202.304 57.8741 201.819 58.1885 201.275 58.338L203.651 62.23H201.081Z" fill="#0091D7"/>
<path d="M208.504 58.375V62.228H206.304V58.375L202.888 53.135H205.547L207.486 56.5L209.426 53.135H211.995L208.504 58.375Z" fill="#0091D7"/>
<path d="M87.0861 69.6209C87.3258 69.6222 87.5652 69.6041 87.802 69.5669C88.0135 69.5354 88.2185 69.4699 88.4091 69.3729C88.582 69.285 88.7287 69.1528 88.8341 68.9899C88.9468 68.7994 89.0017 68.5801 88.9921 68.3589C89.0049 68.1562 88.9569 67.9543 88.854 67.7791C88.7512 67.6039 88.5983 67.4635 88.4151 67.3759C88.2283 67.2834 88.027 67.2239 87.8201 67.1999C87.5925 67.1717 87.3634 67.1577 87.134 67.1579H86.0171V69.6209H87.0861ZM84.4861 65.8709H87.2861C87.7346 65.8664 88.1822 65.911 88.621 66.0039C88.9868 66.0801 89.3336 66.2287 89.6411 66.4409C89.9219 66.6402 90.1477 66.9076 90.2971 67.2179C90.4595 67.5758 90.5382 67.966 90.5271 68.3589C90.541 68.7751 90.4491 69.1879 90.2601 69.5589C90.0886 69.8761 89.8404 70.1453 89.5381 70.3419C89.2133 70.5491 88.8534 70.6951 88.4761 70.7729C88.0531 70.8637 87.6216 70.9083 87.1891 70.9059H86.011V74.4619H84.4821L84.4861 65.8709Z" fill="#F36A10"/>
<path d="M94.674 69.5731C94.8936 69.5731 95.1129 69.5567 95.33 69.5241C95.535 69.4962 95.734 69.4347 95.919 69.3421C96.0928 69.2534 96.2411 69.1219 96.35 68.9601C96.47 68.7699 96.5292 68.5477 96.52 68.3231C96.5286 68.119 96.4734 67.9173 96.362 67.7461C96.2582 67.5974 96.1213 67.4748 95.962 67.3881C95.79 67.2957 95.6032 67.2341 95.41 67.2061C95.2116 67.1743 95.011 67.1579 94.81 67.1571H93.427V69.5721L94.674 69.5731ZM91.895 65.8731H94.88C95.2762 65.8722 95.6713 65.9152 96.058 66.0011C96.4183 66.0777 96.7615 66.2194 97.071 66.4191C97.3662 66.613 97.6101 66.8755 97.782 67.1841C97.9693 67.5388 98.0613 67.9361 98.049 68.3371C98.0727 68.8935 97.8835 69.4381 97.52 69.8601C97.1372 70.2704 96.6341 70.5487 96.083 70.6551L98.377 74.4661H96.533L94.543 70.8261H93.427V74.4661H91.898L91.895 65.8731Z" fill="#F36A10"/>
<path d="M100.779 70.142C100.774 70.5738 100.846 71.0032 100.991 71.4099C101.125 71.7804 101.331 72.1203 101.598 72.4099C101.861 72.6923 102.179 72.9174 102.533 73.0709C102.912 73.2327 103.321 73.3131 103.733 73.3069C104.145 73.3117 104.554 73.2313 104.933 73.0709C105.289 72.9185 105.61 72.6934 105.874 72.4099C106.141 72.12 106.347 71.7801 106.481 71.4099C106.626 71.0032 106.698 70.5738 106.693 70.142C106.697 69.7199 106.625 69.3007 106.481 68.9039C106.347 68.5366 106.143 68.1987 105.881 67.9089C105.619 67.624 105.301 67.3969 104.946 67.2419C104.563 67.0764 104.15 66.9936 103.733 66.9989C103.318 66.993 102.906 67.0759 102.525 67.2419C102.173 67.3977 101.857 67.6248 101.597 67.9089C101.334 68.1986 101.131 68.5365 100.997 68.9039C100.853 69.3007 100.781 69.7199 100.785 70.142M99.122 70.142C99.1122 69.5041 99.2298 68.8707 99.468 68.2789C99.684 67.7453 100.01 67.2634 100.426 66.8649C100.845 66.4694 101.341 66.1632 101.882 65.9649C102.471 65.7504 103.094 65.6437 103.721 65.6499C104.354 65.6434 104.983 65.75 105.578 65.9649C106.123 66.163 106.622 66.4691 107.046 66.8649C107.465 67.2622 107.794 67.7442 108.012 68.2789C108.249 68.8709 108.367 69.5042 108.357 70.142C108.365 70.7714 108.248 71.3962 108.012 71.9799C107.792 72.5185 107.463 73.006 107.046 73.4119C106.624 73.8183 106.125 74.1359 105.578 74.3459C104.986 74.5732 104.356 74.6866 103.721 74.6799C103.092 74.6862 102.468 74.5728 101.882 74.3459C101.339 74.1357 100.844 73.8181 100.426 73.4119C100.013 73.0048 99.6865 72.5175 99.468 71.9799C99.2313 71.3965 99.1137 70.7716 99.122 70.142Z" fill="#F36A10"/>
<path d="M117.353 74.0139C116.894 74.232 116.411 74.3967 115.914 74.5049C115.322 74.6296 114.719 74.6886 114.114 74.6809C113.464 74.6892 112.818 74.5763 112.209 74.3479C111.657 74.1398 111.153 73.8221 110.728 73.4139C110.312 73.0078 109.983 72.5204 109.763 71.9819C109.527 71.3983 109.409 70.7735 109.417 70.1439C109.408 69.5049 109.529 68.8708 109.775 68.2809C110 67.7459 110.335 67.2642 110.758 66.8669C111.185 66.4719 111.686 66.1659 112.232 65.9669C112.823 65.7524 113.448 65.6457 114.077 65.6519C114.718 65.6455 115.356 65.7469 115.964 65.9519C116.472 66.1147 116.941 66.3814 117.341 66.7349L116.289 67.8709C116.032 67.6009 115.719 67.3898 115.373 67.2519C114.969 67.0794 114.533 66.9926 114.093 66.9969C113.67 66.9911 113.25 67.0739 112.861 67.2399C112.504 67.394 112.184 67.6216 111.921 67.9079C111.658 68.1976 111.455 68.5355 111.321 68.9029C111.177 69.2997 111.105 69.7189 111.109 70.1409C111.104 70.5728 111.176 71.002 111.321 71.4089C111.455 71.7793 111.661 72.1193 111.928 72.4089C112.196 72.6957 112.524 72.9211 112.887 73.0699C113.294 73.2334 113.729 73.3137 114.167 73.3059C114.752 73.3199 115.333 73.2179 115.878 73.0059V70.8219H114.07V69.5599H117.353V74.0139Z" fill="#F36A10"/>
<path d="M121.993 69.5731C122.213 69.5731 122.432 69.5567 122.649 69.5241C122.854 69.4962 123.053 69.4347 123.238 69.3421C123.412 69.2534 123.56 69.1219 123.669 68.9601C123.789 68.7699 123.848 68.5477 123.839 68.3231C123.848 68.1188 123.792 67.9171 123.68 67.7461C123.576 67.5973 123.439 67.4748 123.28 67.3881C123.108 67.2957 122.921 67.2341 122.728 67.2061C122.53 67.1743 122.329 67.1579 122.128 67.1571H120.745V69.5721L121.993 69.5731ZM119.214 65.8731H122.199C122.595 65.8722 122.99 65.9152 123.377 66.0011C123.737 66.0777 124.08 66.2194 124.39 66.4191C124.685 66.613 124.929 66.8755 125.101 67.1841C125.288 67.5389 125.38 67.9362 125.367 68.3371C125.391 68.8934 125.202 69.4379 124.839 69.8601C124.456 70.2704 123.953 70.5487 123.402 70.6551L125.696 74.4661H123.851L121.861 70.8261H120.745V74.4661H119.214V65.8731Z" fill="#F36A10"/>
<path d="M131.483 71.1871L130.161 67.6871L128.814 71.1871H131.483ZM129.542 65.8711H130.864L134.564 74.4631H132.816L132.016 72.4971H128.291L127.514 74.4631H125.803L129.542 65.8711Z" fill="#F36A10"/>
<path d="M135.415 65.8711H137.804L140.038 71.9711H140.074L142.283 65.8711H144.683V74.4631H143.166V67.5581H143.142L140.533 74.4631H139.465L136.892 67.5581H136.868V74.4631H135.411L135.415 65.8711Z" fill="#F36A10"/>
<path d="M154.031 71.1871L152.709 67.6871L151.362 71.1871H154.031ZM152.09 65.8711H153.412L157.112 74.4631H155.364L154.564 72.4971H150.839L150.062 74.4631H148.351L152.09 65.8711Z" fill="#F36A10"/>
<path d="M160.563 69.6209C160.803 69.6222 161.042 69.6041 161.279 69.5669C161.491 69.5353 161.695 69.4698 161.886 69.3729C162.059 69.2845 162.205 69.1525 162.311 68.9899C162.424 68.7993 162.479 68.5801 162.469 68.3589C162.482 68.1562 162.434 67.9541 162.331 67.7789C162.229 67.6037 162.076 67.4633 161.892 67.3759C161.706 67.2835 161.505 67.2239 161.298 67.1999C161.071 67.1718 160.841 67.1577 160.612 67.1579H159.496V69.6209H160.563ZM157.963 65.8709H160.763C161.212 65.8664 161.659 65.911 162.098 66.0039C162.464 66.0801 162.811 66.2287 163.118 66.4409C163.398 66.6405 163.624 66.9078 163.773 67.2179C163.936 67.5757 164.015 67.966 164.004 68.3589C164.018 68.7751 163.925 69.188 163.736 69.5589C163.565 69.8761 163.316 70.1453 163.014 70.3419C162.69 70.549 162.33 70.6951 161.953 70.7729C161.53 70.8636 161.099 70.9082 160.666 70.9059H159.489V74.4619H157.96L157.963 65.8709Z" fill="#F36A10"/>
<path d="M167.965 69.6209C168.205 69.6222 168.444 69.6042 168.681 69.5669C168.892 69.5354 169.097 69.4698 169.288 69.3729C169.461 69.2848 169.607 69.1527 169.712 68.9899C169.825 68.7996 169.881 68.5802 169.871 68.3589C169.883 68.1563 169.835 67.9545 169.732 67.7794C169.63 67.6043 169.477 67.4638 169.294 67.3759C169.107 67.2835 168.906 67.224 168.699 67.1999C168.471 67.1717 168.242 67.1577 168.013 67.1579H166.896V69.6209H167.965ZM165.365 65.8709H168.165C168.613 65.8664 169.061 65.911 169.5 66.0039C169.866 66.0801 170.213 66.2287 170.52 66.4409C170.8 66.6405 171.026 66.9078 171.175 67.2179C171.337 67.5758 171.416 67.966 171.405 68.3589C171.419 68.7751 171.327 69.1879 171.138 69.5589C170.966 69.876 170.718 70.1452 170.416 70.3419C170.091 70.5491 169.731 70.6951 169.354 70.7729C168.931 70.8637 168.5 70.9083 168.067 70.9059H166.89V74.4619H165.361L165.365 65.8709Z" fill="#F36A10"/>
<path d="M175.549 69.5731C175.768 69.5731 175.988 69.5567 176.205 69.5241C176.41 69.4962 176.609 69.4347 176.794 69.3421C176.968 69.2535 177.116 69.122 177.225 68.9601C177.345 68.7699 177.404 68.5477 177.395 68.3231C177.404 68.119 177.348 67.9173 177.237 67.7461C177.133 67.5975 176.996 67.475 176.837 67.3881C176.665 67.2957 176.478 67.2341 176.285 67.2061C176.086 67.1743 175.886 67.1579 175.685 67.1571H174.302V69.5721L175.549 69.5731ZM172.77 65.8731H175.755C176.151 65.8722 176.546 65.9152 176.933 66.0011C177.293 66.0777 177.636 66.2194 177.946 66.4191C178.241 66.6132 178.484 66.8756 178.656 67.1841C178.843 67.5388 178.935 67.9361 178.923 68.3371C178.947 68.8935 178.757 69.4381 178.394 69.8601C178.011 70.2704 177.508 70.5487 176.957 70.6551L179.251 74.4661H177.406L175.416 70.8261H174.299V74.4661H172.77V65.8731Z" fill="#F36A10"/>
<path d="M181.654 70.142C181.649 70.5738 181.721 71.0032 181.866 71.4099C182 71.7804 182.206 72.1203 182.473 72.4099C182.736 72.6923 183.054 72.9174 183.408 73.0709C183.787 73.2327 184.196 73.3131 184.608 73.3069C185.02 73.3117 185.429 73.2313 185.808 73.0709C186.164 72.9186 186.485 72.6934 186.749 72.4099C187.015 72.12 187.222 71.7801 187.356 71.4099C187.501 71.0031 187.573 70.5738 187.568 70.142C187.571 69.72 187.5 69.3007 187.356 68.9039C187.222 68.5366 187.018 68.1987 186.756 67.9089C186.494 67.6241 186.176 67.3969 185.821 67.2419C185.438 67.0763 185.024 66.9935 184.607 66.9989C184.192 66.993 183.78 67.0759 183.399 67.2419C183.047 67.3977 182.731 67.6248 182.471 67.9089C182.208 68.1985 182.004 68.5364 181.871 68.9039C181.727 69.3007 181.655 69.7199 181.659 70.142M179.996 70.142C179.986 69.5041 180.104 68.8708 180.342 68.2789C180.558 67.7453 180.885 67.2634 181.301 66.8649C181.72 66.4694 182.216 66.1632 182.757 65.9649C183.346 65.7504 183.969 65.6437 184.596 65.6499C185.229 65.6434 185.858 65.75 186.453 65.9649C186.998 66.1631 187.497 66.4692 187.921 66.8649C188.34 67.2622 188.669 67.7442 188.887 68.2789C189.124 68.8709 189.242 69.5042 189.232 70.142C189.24 70.7714 189.123 71.3962 188.887 71.9799C188.667 72.5185 188.338 73.006 187.921 73.4119C187.499 73.8183 187 74.1359 186.453 74.3459C185.861 74.5732 185.231 74.6866 184.596 74.6799C183.967 74.6862 183.343 74.5728 182.757 74.3459C182.214 74.1358 181.719 73.8181 181.301 73.4119C180.887 73.0047 180.561 72.5175 180.342 71.9799C180.106 71.3964 179.988 70.7715 179.996 70.142Z" fill="#F36A10"/>
<path d="M189.493 65.8711H191.204L193.571 72.4861H193.619L196.011 65.8711H197.661L194.215 74.4631H192.892L189.493 65.8711Z" fill="#F36A10"/>
<path d="M202.758 71.1871L201.436 67.6871L200.089 71.1871H202.758ZM200.817 65.8711H202.139L205.839 74.4631H204.091L203.291 72.4971H199.565L198.789 74.4631H197.078L200.817 65.8711Z" fill="#F36A10"/>
<path d="M206.691 65.8711H208.22V73.1051H211.873V74.4641H206.691V65.8711Z" fill="#F36A10"/>
<path d="M84.493 76.49H90.039V77.825H86.022V80.179H89.809V81.466H86.022V85.083H84.493V76.49Z" fill="#F36A10"/>
<path d="M92.697 80.763C92.692 81.1949 92.7638 81.6243 92.909 82.031C93.0427 82.4014 93.2491 82.7414 93.516 83.031C93.7786 83.3136 94.097 83.5387 94.451 83.692C94.8285 83.8531 95.2355 83.9335 95.646 83.928C96.0579 83.9328 96.4665 83.8525 96.846 83.692C97.2023 83.5398 97.5229 83.3147 97.787 83.031C98.0534 82.7411 98.2598 82.4012 98.394 82.031C98.5388 81.6242 98.6106 81.1949 98.606 80.763C98.6096 80.341 98.5378 79.9218 98.394 79.525C98.2608 79.1559 98.057 78.8162 97.794 78.525C97.532 78.2401 97.2136 78.013 96.859 77.858C96.4759 77.6924 96.0622 77.6096 95.645 77.615C95.2299 77.6092 94.8184 77.6921 94.438 77.858C94.0858 78.0138 93.7698 78.2409 93.51 78.525C93.2466 78.816 93.0427 79.1557 92.91 79.525C92.7659 79.9217 92.6941 80.341 92.698 80.763M91.035 80.763C91.0254 80.1252 91.143 79.4919 91.381 78.9C91.5974 78.3664 91.9242 77.8845 92.34 77.486C92.7594 77.0906 93.2547 76.7844 93.796 76.586C94.3851 76.3715 95.008 76.2648 95.635 76.271C96.2675 76.2645 96.896 76.3712 97.491 76.586C98.0358 76.7843 98.5351 77.0904 98.959 77.486C99.3778 77.8834 99.7071 78.3654 99.925 78.9C100.162 79.492 100.28 80.1253 100.27 80.763C100.278 81.3925 100.161 82.0173 99.925 82.601C99.7045 83.1395 99.3757 83.6269 98.959 84.033C98.5366 84.4378 98.0374 84.754 97.491 84.963C96.8988 85.1902 96.2691 85.3035 95.635 85.297C95.0063 85.3032 94.3822 85.1899 93.796 84.963C93.2528 84.7527 92.7576 84.4351 92.34 84.029C91.9263 83.6218 91.6 83.1346 91.381 82.597C91.1445 82.0135 91.0269 81.3886 91.035 80.759" fill="#F36A10"/>
<path d="M104.53 80.192C104.75 80.192 104.969 80.1756 105.186 80.143C105.391 80.1153 105.59 80.0538 105.775 79.9609C105.949 79.8723 106.097 79.7408 106.206 79.5789C106.326 79.3888 106.385 79.1666 106.376 78.942C106.385 78.7377 106.329 78.536 106.217 78.365C106.113 78.2163 105.976 78.0937 105.817 78.007C105.645 77.9147 105.458 77.8531 105.265 77.8249C105.067 77.7931 104.866 77.7767 104.665 77.776H103.282V80.1909L104.53 80.192ZM101.751 76.492H104.736C105.132 76.4911 105.527 76.534 105.914 76.6199C106.274 76.6967 106.617 76.8384 106.927 77.0379C107.222 77.2321 107.465 77.4945 107.637 77.8029C107.824 78.1578 107.916 78.5551 107.903 78.9559C107.927 79.5123 107.738 80.0568 107.375 80.479C106.992 80.8891 106.489 81.1673 105.938 81.274L108.232 85.085H106.387L104.397 81.445H103.28V85.085H101.751V76.492Z" fill="#F36A10"/>
<path d="M118.62 78.504C118.396 78.1986 118.088 77.9645 117.734 77.8301C117.37 77.6849 116.982 77.6129 116.59 77.6182C116.198 77.6235 115.812 77.706 115.452 77.8611C115.096 78.017 114.776 78.244 114.511 78.528C114.245 78.8163 114.039 79.1545 113.904 79.523C113.76 79.9197 113.688 80.339 113.692 80.7611C113.687 81.1987 113.756 81.634 113.898 82.0481C114.025 82.4175 114.225 82.7576 114.486 83.0481C114.742 83.3271 115.054 83.5484 115.402 83.6971C115.782 83.8556 116.19 83.9342 116.602 83.928C117.026 83.9363 117.446 83.8426 117.827 83.655C118.168 83.486 118.463 83.2386 118.689 82.933L119.914 83.7941C119.538 84.2665 119.059 84.6466 118.514 84.905C117.908 85.179 117.249 85.3136 116.584 85.299C115.952 85.3063 115.324 85.1933 114.734 84.9661C114.192 84.7595 113.698 84.4424 113.285 84.0349C112.872 83.6274 112.548 83.1384 112.334 82.599C112.102 82.0145 111.986 81.39 111.994 80.7611C111.985 80.1221 112.106 79.488 112.352 78.898C112.577 78.363 112.913 77.8812 113.336 77.484C113.762 77.0888 114.264 76.7828 114.81 76.584C115.401 76.3696 116.025 76.2629 116.654 76.269C116.943 76.2706 117.232 76.297 117.516 76.3481C117.811 76.3995 118.099 76.4809 118.377 76.5911C118.649 76.6995 118.91 76.8358 119.154 76.9981C119.392 77.1555 119.601 77.3523 119.773 77.5801L118.62 78.504Z" fill="#F36A10"/>
<path d="M121.969 80.763C121.964 81.1949 122.036 81.6243 122.181 82.031C122.315 82.4015 122.521 82.7414 122.788 83.031C123.051 83.3136 123.369 83.5387 123.723 83.692C124.102 83.8538 124.511 83.9342 124.923 83.928C125.335 83.9328 125.743 83.8525 126.123 83.692C126.479 83.5399 126.8 83.3147 127.064 83.031C127.33 82.7412 127.537 82.4013 127.671 82.031C127.816 81.6242 127.888 81.1949 127.883 80.763C127.887 80.341 127.815 79.9218 127.671 79.525C127.538 79.1559 127.334 78.8163 127.071 78.525C126.809 78.2401 126.491 78.013 126.136 77.858C125.753 77.6925 125.34 77.6097 124.923 77.615C124.508 77.6091 124.096 77.692 123.715 77.858C123.363 78.0138 123.047 78.2409 122.787 78.525C122.524 78.8161 122.32 79.1558 122.187 79.525C122.043 79.9217 121.971 80.341 121.975 80.763M120.312 80.763C120.302 80.1252 120.42 79.4919 120.658 78.9C120.874 78.3664 121.201 77.8845 121.617 77.4861C122.036 77.0906 122.532 76.7844 123.073 76.586C123.662 76.3715 124.285 76.2648 124.912 76.271C125.545 76.2645 126.174 76.3711 126.769 76.586C127.314 76.7843 127.813 77.0904 128.237 77.4861C128.656 77.8833 128.985 78.3653 129.203 78.9C129.438 79.4926 129.552 80.1259 129.54 80.763C129.548 81.3925 129.431 82.0173 129.195 82.601C128.975 83.1396 128.646 83.6271 128.229 84.033C127.807 84.4393 127.308 84.7569 126.761 84.967C126.169 85.1943 125.538 85.3076 124.904 85.301C124.275 85.3073 123.651 85.1939 123.065 84.967C122.522 84.7567 122.027 84.4391 121.609 84.033C121.195 83.6258 120.869 83.1386 120.65 82.601C120.414 82.0175 120.296 81.3926 120.304 80.763" fill="#F36A10"/>
<path d="M131.022 76.49H133.049L137.042 82.922H137.066V76.49H138.595V85.082H136.658L132.58 78.444H132.556V85.082H131.027L131.022 76.49Z" fill="#F36A10"/>
<path d="M142.224 77.825H139.591V76.49H146.391V77.825H143.758V85.083H142.229L142.224 77.825Z" fill="#F36A10"/>
<path d="M148.911 76.49H147.382V85.082H148.911V76.49Z" fill="#F36A10"/>
<path d="M150.804 76.49H152.831L156.823 82.922H156.847V76.49H158.376V85.082H156.434L152.356 78.444H152.332V85.082H150.804V76.49Z" fill="#F36A10"/>
<path d="M167.115 81.926C167.122 82.406 167.031 82.8823 166.848 83.326C166.682 83.7266 166.434 84.0883 166.12 84.388C165.805 84.6839 165.433 84.9132 165.027 85.062C164.14 85.3772 163.172 85.3772 162.285 85.062C161.877 84.9127 161.503 84.6836 161.185 84.388C160.869 84.0904 160.62 83.7282 160.456 83.326C160.277 82.8812 160.189 82.4053 160.196 81.926V76.489H161.725V81.866C161.726 82.118 161.76 82.3687 161.825 82.612C161.886 82.8519 161.995 83.0769 162.146 83.273C162.307 83.4752 162.512 83.6371 162.746 83.746C163.333 83.9883 163.991 83.9883 164.578 83.746C164.81 83.6365 165.013 83.4745 165.172 83.273C165.323 83.0768 165.433 82.8519 165.494 82.612C165.559 82.3687 165.593 82.1179 165.594 81.866V76.489H167.123L167.115 81.926Z" fill="#F36A10"/>
<path d="M170.465 76.49H168.936V85.082H170.465V76.49Z" fill="#F36A10"/>
<path d="M172.358 76.49H174.385L178.377 82.922H178.397V76.49H179.926V85.082H177.984L173.907 78.444H173.883V85.082H172.354L172.358 76.49Z" fill="#F36A10"/>
<path d="M189.349 84.633C188.89 84.851 188.407 85.0157 187.91 85.124C187.318 85.2487 186.715 85.3078 186.11 85.3C185.46 85.3083 184.814 85.1954 184.205 84.967C183.653 84.759 183.149 84.4413 182.724 84.033C182.308 83.6269 181.979 83.1395 181.759 82.601C181.523 82.0175 181.405 81.3926 181.413 80.763C181.403 80.1241 181.525 79.49 181.771 78.9C181.996 78.3651 182.331 77.8833 182.754 77.486C183.181 77.0907 183.682 76.7846 184.229 76.586C184.82 76.3715 185.444 76.2648 186.073 76.271C186.714 76.2646 187.352 76.3661 187.96 76.571C188.468 76.7335 188.937 77.0002 189.337 77.354L188.281 78.495C188.024 78.2254 187.711 78.0143 187.365 77.876C186.961 77.7036 186.525 77.6168 186.085 77.621C185.662 77.6151 185.242 77.6979 184.853 77.864C184.496 78.0177 184.175 78.2454 183.912 78.532C183.649 78.8217 183.446 79.1597 183.312 79.527C183.168 79.9238 183.096 80.343 183.1 80.765C183.095 81.1969 183.167 81.6262 183.312 82.033C183.446 82.4035 183.652 82.7434 183.919 83.033C184.187 83.3198 184.515 83.5453 184.878 83.694C185.285 83.8576 185.72 83.9378 186.158 83.93C186.743 83.944 187.324 83.842 187.869 83.63V81.446H186.061V80.184H189.35L189.349 84.633Z" fill="#F36A10"/>
<path d="M84.493 87.1089H90.186V88.4439H86.023V90.6289H89.968V91.9149H86.023V94.3419H90.404V95.7009H84.494L84.493 87.1089Z" fill="#F36A10"/>
<path d="M94.698 94.3649C95.0986 94.3646 95.498 94.3179 95.8879 94.2259C96.2723 94.1375 96.6364 93.977 96.961 93.7529C97.2904 93.5201 97.5589 93.2114 97.7439 92.8529C97.96 92.4032 98.063 91.9075 98.0439 91.4089C98.0644 90.8922 97.9616 90.378 97.7439 89.9089C97.5633 89.5445 97.2941 89.2313 96.961 88.9979C96.6371 88.7776 96.2722 88.6249 95.8879 88.5489C95.4963 88.4689 95.0977 88.4283 94.698 88.4279H93.424V94.3739L94.698 94.3649ZM91.8979 87.1079H94.9439C95.5129 87.1091 96.0794 87.1824 96.6299 87.3259C97.182 87.465 97.7016 87.7103 98.1599 88.0479C98.6235 88.3985 98.9999 88.8512 99.2599 89.3709C99.5624 90.0048 99.7082 90.702 99.685 91.4039C99.7028 92.0761 99.557 92.7426 99.2599 93.3459C98.9961 93.8665 98.6204 94.3223 98.1599 94.6809C97.7028 95.0316 97.1838 95.2932 96.6299 95.4519C96.0828 95.6152 95.515 95.6991 94.9439 95.7009H91.8979V87.1079Z" fill="#F36A10"/>
<path d="M108.01 92.5449C108.017 93.0249 107.926 93.5012 107.743 93.9449C107.577 94.3458 107.329 94.7078 107.015 95.0079C106.7 95.3036 106.328 95.5329 105.922 95.6819C105.035 95.9971 104.067 95.9971 103.18 95.6819C102.772 95.5324 102.398 95.3033 102.08 95.0079C101.763 94.71 101.515 94.3475 101.351 93.9449C101.172 93.5001 101.084 93.0242 101.091 92.5449V87.1079H102.62V92.4879C102.621 92.7399 102.654 92.9906 102.72 93.2339C102.781 93.4738 102.89 93.6987 103.041 93.8949C103.201 94.0971 103.407 94.259 103.641 94.3679C104.228 94.6102 104.886 94.6102 105.473 94.3679C105.705 94.2584 105.908 94.0964 106.067 93.8949C106.218 93.6986 106.327 93.4738 106.389 93.2339C106.454 92.9906 106.488 92.7398 106.489 92.4879V87.1079H108.01V92.5449Z" fill="#F36A10"/>
<path d="M116.035 89.1241C115.811 88.8184 115.503 88.5843 115.149 88.4501C114.785 88.3045 114.397 88.2322 114.005 88.2374C113.613 88.2425 113.227 88.325 112.867 88.4801C112.511 88.6364 112.191 88.8637 111.926 89.1481C111.659 89.4378 111.453 89.7778 111.319 90.1481C111.175 90.5447 111.103 90.964 111.107 91.3861C111.102 91.8233 111.171 92.2583 111.313 92.6721C111.44 93.0415 111.64 93.3816 111.901 93.6721C112.157 93.9513 112.469 94.1725 112.817 94.3211C113.197 94.4797 113.605 94.5584 114.017 94.5521C114.441 94.5603 114.861 94.4667 115.242 94.2791C115.583 94.1102 115.878 93.8627 116.104 93.5571L117.33 94.4181C116.955 94.8907 116.476 95.2705 115.93 95.5281C115.324 95.8028 114.665 95.9378 114 95.9231C113.367 95.9303 112.739 95.8173 112.149 95.5901C111.607 95.3833 111.114 95.0662 110.701 94.6589C110.288 94.2517 109.964 93.7631 109.749 93.2241C109.517 92.6391 109.401 92.0144 109.409 91.3851C109.399 90.7461 109.521 90.1119 109.767 89.5221C109.992 88.987 110.328 88.5052 110.751 88.1081C111.177 87.7126 111.678 87.4066 112.225 87.2081C112.816 86.9935 113.44 86.8865 114.069 86.8921C114.358 86.8933 114.646 86.9198 114.931 86.9711C115.226 87.0222 115.514 87.1036 115.792 87.2141C116.064 87.3218 116.325 87.4582 116.568 87.6211C116.806 87.7782 117.015 87.9751 117.187 88.2031L116.035 89.1241Z" fill="#F36A10"/>
<path d="M122.769 92.4229L121.447 88.9279L120.1 92.4229H122.769ZM120.828 87.1079H122.15L125.85 95.6999H124.102L123.302 93.7339H119.577L118.8 95.6999H117.089L120.828 87.1079Z" fill="#F36A10"/>
<path d="M127.709 88.4429H125.076V87.1079H131.876V88.4429H129.243V95.7009H127.709V88.4429Z" fill="#F36A10"/>
<path d="M134.395 87.1079H132.866V95.6999H134.395V87.1079Z" fill="#F36A10"/>
<path d="M137.54 91.381C137.535 91.8128 137.607 92.2422 137.752 92.649C137.886 93.0194 138.092 93.3594 138.359 93.649C138.621 93.9319 138.94 94.157 139.294 94.31C139.673 94.4726 140.082 94.5537 140.494 94.548C140.906 94.5524 141.315 94.4713 141.694 94.31C142.051 94.1583 142.371 93.9331 142.635 93.649C142.901 93.3591 143.108 93.0192 143.242 92.649C143.387 92.2422 143.459 91.8128 143.454 91.381C143.458 90.9589 143.386 90.5396 143.242 90.143C143.109 89.7739 142.905 89.4342 142.642 89.143C142.38 88.8579 142.062 88.6304 141.707 88.475C141.324 88.3097 140.911 88.2269 140.494 88.232C140.079 88.2263 139.667 88.3092 139.286 88.475C138.934 88.6312 138.618 88.8587 138.358 89.143C138.095 89.4341 137.891 89.7738 137.758 90.143C137.614 90.5396 137.542 90.9589 137.546 91.381M135.883 91.381C135.873 90.7431 135.991 90.1097 136.229 89.518C136.445 88.9842 136.771 88.5022 137.187 88.104C137.606 87.7083 138.102 87.4021 138.643 87.204C139.232 86.9891 139.855 86.882 140.482 86.888C141.115 86.8817 141.743 86.9887 142.338 87.204C142.883 87.4017 143.382 87.7079 143.806 88.104C144.225 88.5011 144.554 88.9832 144.772 89.518C145.009 90.1099 145.127 90.7432 145.117 91.381C145.125 92.0104 145.008 92.6352 144.772 93.2189C144.552 93.7575 144.223 94.2449 143.806 94.651C143.384 95.0578 142.885 95.3757 142.338 95.586C141.746 95.8128 141.116 95.9258 140.482 95.919C139.853 95.9255 139.229 95.8125 138.643 95.586C138.098 95.3771 137.601 95.0604 137.182 94.655C136.769 94.2478 136.443 93.7605 136.224 93.2229C135.987 92.6394 135.87 92.0145 135.878 91.385" fill="#F36A10"/>
<path d="M146.592 87.1089H148.619L152.611 93.5409H152.635V87.1089H154.169V95.7009H152.227L148.15 89.0619H148.126V95.7009H146.597L146.592 87.1089Z" fill="#F36A10"/>
<path d="M92.063 20.351H96.54C97.1257 20.3527 97.71 20.295 98.284 20.179C98.8162 20.075 99.3259 19.8783 99.79 19.598C100.238 19.3222 100.608 18.9371 100.866 18.479C101.157 17.9297 101.298 17.3133 101.275 16.692C101.306 16.0258 101.116 15.3681 100.734 14.821C100.373 14.3454 99.8997 13.9673 99.356 13.721C98.764 13.4519 98.1314 13.2829 97.484 13.221C96.826 13.151 96.1648 13.115 95.5031 13.113H92.0591L92.063 20.351ZM85.347 7.43704H96.67C98.173 7.42961 99.673 7.57367 101.147 7.86704C102.459 8.11622 103.71 8.62077 104.828 9.35204C105.89 10.0707 106.75 11.0486 107.328 12.193C107.991 13.5978 108.308 15.1407 108.253 16.693C108.301 18.2306 108.008 19.7598 107.393 21.17C106.865 22.3193 106.049 23.313 105.025 24.055C103.951 24.8026 102.735 25.3226 101.452 25.583C99.9802 25.8939 98.4793 26.0454 96.9751 26.035H92.067V37.916H85.351L85.347 7.43704Z" fill="#525257"/>
<path d="M121.896 16.305L118.196 25.776H125.643L121.896 16.305ZM119.313 7.43701H124.867L138.126 37.916H130.548L127.922 31.459H116.084L113.544 37.916H106.144L119.313 7.43701Z" fill="#525257"/>
<path d="M161.114 15.359C160.459 14.5602 159.626 13.9262 158.682 13.508C157.628 13.059 156.491 12.8388 155.346 12.862C154.158 12.8493 152.98 13.0904 151.893 13.5693C150.805 14.0482 149.832 14.7538 149.039 15.639C148.227 16.5507 147.599 17.6104 147.188 18.76C146.298 21.3031 146.298 24.0729 147.188 26.616C147.601 27.7536 148.221 28.8047 149.017 29.716C149.776 30.5801 150.708 31.2766 151.751 31.761C152.81 32.2513 153.964 32.5009 155.131 32.492C156.404 32.5171 157.662 32.221 158.79 31.631C159.851 31.0572 160.753 30.2287 161.415 29.22L167.015 33.396C165.78 35.1568 164.082 36.5413 162.108 37.396C160.182 38.2456 158.1 38.6856 155.995 38.688C153.75 38.7115 151.519 38.3325 149.408 37.569C147.471 36.8671 145.698 35.7757 144.199 34.362C142.713 32.937 141.547 31.2126 140.777 29.303C139.935 27.1959 139.518 24.943 139.55 22.674C139.518 20.4047 139.935 18.1514 140.777 16.044C141.547 14.1344 142.713 12.41 144.199 10.985C145.698 9.57181 147.471 8.48042 149.408 7.77799C151.519 7.01444 153.75 6.63545 155.995 6.65899C156.897 6.66246 157.797 6.7414 158.686 6.89499C159.626 7.05533 160.549 7.30754 161.44 7.64799C162.361 8.00147 163.236 8.4641 164.046 9.02599C164.892 9.61421 165.647 10.325 166.284 11.135L161.114 15.359Z" fill="#525257"/>
<path d="M170.929 7.43701H191.636V13.637H177.644V19.321H190.861V25.521H177.644V31.721H192.411V37.921H170.929V7.43701Z" fill="#525257"/>
</g>
</svg>
