<svg width="188" height="76" viewBox="0 0 188 76" fill="none" xmlns="http://www.w3.org/2000/svg">
<path d="M4.727 65.953L6.8 71.021H2.657L4.727 65.953ZM4.241 64.762L0 75.071H1L2.306 71.876H7.146L8.452 75.071H9.452L5.214 64.762H4.241Z" fill="#1A1818"/>
<path d="M24.271 64.762L21.459 73.63L18.836 64.762H17.894L15.208 73.629L12.459 64.762H11.517L14.7 75.071H15.731L18.361 66.344L20.93 75.071H21.961L25.215 64.762H24.271Z" fill="#1A1818"/>
<path d="M32 65.953L34.072 71.021H29.932L32 65.953ZM31.514 64.762L27.275 75.071H28.275L29.581 71.876H34.421L35.727 75.071H36.727L32.489 64.762H31.514Z" fill="#1A1818"/>
<mask id="mask0_1_1293" style="mask-type:luminance" maskUnits="userSpaceOnUse" x="0" y="0" width="188" height="76">
<path d="M187.698 0H0V75.072H187.698V0Z" fill="white"/>
</mask>
<g mask="url(#mask0_1_1293)">
<path d="M40.412 64.762H41.355V75.072H40.412V64.762ZM41.355 70.862V69.993H43.829C44.2038 69.998 44.5729 69.9012 44.897 69.713C45.2277 69.5198 45.5009 69.2419 45.6885 68.9079C45.876 68.5739 45.9711 68.196 45.964 67.813C45.974 67.5164 45.9194 67.2212 45.8038 66.9478C45.6883 66.6745 45.5147 66.4295 45.295 66.23C44.8227 65.8135 44.2082 65.5947 43.579 65.619H41.355V64.764L43.579 64.75C44.1766 64.7288 44.7697 64.8607 45.302 65.133C45.785 65.3814 46.1902 65.7582 46.473 66.222C46.758 66.703 46.9035 67.254 46.893 67.813C46.9016 68.3734 46.7394 68.9231 46.428 69.389C46.1129 69.8557 45.6785 70.2293 45.17 70.471C44.6139 70.7375 44.0036 70.8713 43.387 70.862H41.355ZM46.274 75.074L43.77 70.8L44.551 70.343L47.305 75.071L46.274 75.074Z" fill="#1A1818"/>
<path d="M51.576 64.7621H52.519V75.0721H51.576V64.7621ZM52.519 64.7621H54.654V65.6161H52.519V64.7621ZM52.519 74.2181H54.654V75.0721H52.519V74.2181ZM54.654 75.0721V74.2181C55.1684 74.2213 55.6768 74.1078 56.141 73.8861C56.6068 73.6624 57.0228 73.3471 57.364 72.9591C57.721 72.5545 58.0006 72.0877 58.189 71.5821C58.581 70.507 58.581 69.3281 58.189 68.2531C58.0006 67.7474 57.721 67.2807 57.364 66.8761C57.0225 66.488 56.6067 66.1724 56.141 65.9481C55.6767 65.7267 55.1683 65.6125 54.654 65.6161V64.7621C55.5237 64.7454 56.3808 64.9726 57.128 65.4181C57.847 65.8577 58.4307 66.4871 58.815 67.2371C59.2172 68.0708 59.426 68.9845 59.426 69.9101C59.426 70.8357 59.2172 71.7494 58.815 72.5831C58.4275 73.3487 57.8309 73.9889 57.0945 74.4294C56.3581 74.8699 55.5119 75.0928 54.654 75.0721Z" fill="#1A1818"/>
<path d="M67.5249 70.271H63.1069V71.11H67.5249V70.271Z" fill="#1A1818"/>
<path d="M73.8 75.072L70.619 64.762H71.561L74.761 75.072H73.8ZM73.873 75.072L77 64.762H77.942L74.835 75.072H73.873ZM80.029 75.072L77 64.762H77.942L80.991 75.072H80.029ZM80.103 75.072L83.373 64.762H84.315L81.061 75.072H80.103Z" fill="#1A1818"/>
<path d="M88.9399 64.762H87.9969V75.072H88.9399V64.762Z" fill="#1A1818"/>
<path d="M93.947 75.072V64.762H94.89V75.072H93.947ZM101.458 75.072L94.168 65.293L94.89 64.762L102.18 74.527L101.458 75.072ZM101.458 64.762H102.4V75.072H101.458V64.762Z" fill="#1A1818"/>
<path d="M107.407 75.072V64.762H108.35V75.072H107.407ZM114.918 75.072L107.628 65.293L108.35 64.762L115.64 74.527L114.918 75.072ZM114.918 64.762H115.86V75.072H114.918V64.762Z" fill="#1A1818"/>
<path d="M120.868 64.762H121.811V75.072H120.868V64.762ZM121.811 64.762H126.8V65.616H121.807L121.811 64.762ZM121.811 69.328H126.45V70.182H121.811V69.328ZM121.811 74.218H126.8V75.072H121.807L121.811 74.218Z" fill="#1A1818"/>
<path d="M131.663 64.762H132.606V75.072H131.663V64.762ZM132.606 70.862V69.993H135.08C135.455 69.998 135.824 69.9012 136.148 69.713C136.479 69.5198 136.752 69.2419 136.939 68.9079C137.127 68.5739 137.222 68.196 137.215 67.813C137.225 67.5164 137.17 67.2212 137.055 66.9478C136.939 66.6745 136.766 66.4295 136.546 66.23C136.074 65.8135 135.459 65.5947 134.83 65.619H132.606V64.764L134.83 64.75C135.428 64.7288 136.021 64.8607 136.553 65.133C137.036 65.3814 137.441 65.7582 137.724 66.222C138.009 66.703 138.154 67.254 138.144 67.813C138.153 68.3734 137.99 68.9231 137.679 69.389C137.364 69.8557 136.929 70.2293 136.421 70.471C135.865 70.7375 135.255 70.8713 134.638 70.862H132.606ZM137.525 75.074L135.025 70.803L135.806 70.346L138.56 75.074H137.525Z" fill="#1A1818"/>
<path d="M8.97499 17.564C10.7119 17.564 12.4098 17.0489 13.854 16.084C15.2982 15.119 16.4238 13.7474 17.0885 12.1427C17.7532 10.538 17.9271 8.77226 17.5882 7.06872C17.2494 5.36518 16.413 3.80038 15.1848 2.57219C13.9566 1.34401 12.3918 0.507603 10.6883 0.168748C8.98474 -0.170108 7.21897 0.0038051 5.61427 0.668494C4.00957 1.33318 2.63801 2.45879 1.67303 3.90299C0.708048 5.34718 0.192993 7.04509 0.192993 8.782C0.192993 11.1111 1.11824 13.3449 2.76518 14.9918C4.41213 16.6388 6.64586 17.564 8.97499 17.564Z" fill="#1F2326"/>
<path d="M26.538 35.127C28.2749 35.127 29.9728 34.6119 31.417 33.647C32.8612 32.682 33.9868 31.3104 34.6515 29.7057C35.3162 28.101 35.4901 26.3353 35.1512 24.6317C34.8124 22.9282 33.976 21.3634 32.7478 20.1352C31.5196 18.907 29.9548 18.0706 28.2513 17.7317C26.5477 17.3929 24.782 17.5668 23.1773 18.2315C21.5726 18.8962 20.201 20.0218 19.236 21.466C18.271 22.9102 17.756 24.6081 17.756 26.345C17.756 28.6741 18.6812 30.9079 20.3282 32.5548C21.9751 34.2018 24.2088 35.127 26.538 35.127Z" fill="#1F2326"/>
<path d="M8.97499 52.691C10.7119 52.691 12.4098 52.1759 13.854 51.2109C15.2982 50.2459 16.4238 48.8744 17.0885 47.2697C17.7532 45.665 17.9271 43.8992 17.5882 42.1957C17.2494 40.4921 16.413 38.9273 15.1848 37.6991C13.9566 36.471 12.3918 35.6346 10.6883 35.2957C8.98474 34.9568 7.21897 35.1308 5.61427 35.7954C4.00957 36.4601 2.63801 37.5857 1.67303 39.0299C0.708048 40.4741 0.192993 42.172 0.192993 43.909C0.192993 46.2381 1.11824 48.4718 2.76518 50.1188C4.41213 51.7657 6.64586 52.691 8.97499 52.691Z" fill="#1F2326"/>
<path d="M44.1 17.564C45.8369 17.564 47.5348 17.0489 48.979 16.084C50.4232 15.119 51.5488 13.7474 52.2135 12.1427C52.8782 10.538 53.0521 8.77226 52.7132 7.06872C52.3744 5.36518 51.538 3.80038 50.3098 2.57219C49.0816 1.34401 47.5168 0.507603 45.8133 0.168748C44.1097 -0.170108 42.344 0.0038051 40.7393 0.668494C39.1346 1.33318 37.763 2.45879 36.798 3.90299C35.833 5.34718 35.318 7.04509 35.318 8.782C35.318 11.1111 36.2432 13.3449 37.8902 14.9918C39.5371 16.6388 41.7709 17.564 44.1 17.564Z" fill="#1F2326"/>
<path d="M44.1 52.691C45.8369 52.691 47.5348 52.1759 48.979 51.2109C50.4232 50.2459 51.5488 48.8744 52.2135 47.2697C52.8782 45.665 53.0521 43.8992 52.7132 42.1957C52.3744 40.4921 51.538 38.9273 50.3098 37.6991C49.0816 36.471 47.5168 35.6346 45.8133 35.2957C44.1097 34.9568 42.344 35.1308 40.7393 35.7954C39.1346 36.4601 37.763 37.5857 36.798 39.0299C35.833 40.4741 35.318 42.172 35.318 43.909C35.318 46.2381 36.2432 48.4718 37.8902 50.1188C39.5371 51.7657 41.7709 52.691 44.1 52.691Z" fill="#1F2326"/>
<path d="M84.285 16.2C84.285 20.438 81.634 23.089 77.385 23.089C73.136 23.089 70.5 20.436 70.5 16.2V4.52596L70.764 4.26196H71.822L72.085 4.52596V16.2C72.085 19.641 74.208 21.764 77.385 21.764C80.834 21.764 82.694 19.641 82.694 16.2V4.52596L82.957 4.26196H84.02L84.283 4.52596L84.285 16.2Z" fill="#1F2326"/>
<path d="M102.581 22.823H102.046L101.519 22.56L95.419 14.6H95.153L89.053 22.559L88.527 22.822H88.007L87.744 22.559V21.788L94.374 13.3V13.037L88.274 5.34499V4.57599L88.545 4.31299H89.072L89.599 4.57599L95.171 11.734H95.434L101.006 4.57599L101.533 4.31299H102.06L102.331 4.57599V5.34699L96.231 13.035V13.3L102.861 21.787V22.557L102.581 22.823Z" fill="#1F2326"/>
<path d="M119.011 22.823H113.974L113.711 22.56V4.52496L113.974 4.26196H119.011C125.645 4.26196 127.76 7.71096 127.76 13.562C127.76 19.413 125.652 22.823 119.011 22.823ZM119.011 5.58696H115.57L115.299 5.84996V21.233L115.57 21.496H119.011C124.32 21.496 126.169 18.845 126.169 13.545C126.18 8.50796 124.591 5.58696 119.011 5.58696Z" fill="#1F2326"/>
<path d="M132.014 16.7231L131.751 16.9871C131.751 18.5871 132.813 21.7601 136.251 21.7601C137.078 21.8206 137.9 21.5882 138.573 21.1038C139.246 20.6193 139.727 19.9136 139.932 19.1101L140.195 18.8461H141.257L141.52 19.1101C141.257 20.6591 139.931 23.0851 136.22 23.0851C131.98 23.0851 130.12 19.9081 130.12 16.1961V15.6611C130.12 11.9491 132.243 9.2981 135.957 9.2981C139.671 9.2981 141.793 11.9491 141.793 15.6611V16.4321L141.522 16.6951L132.014 16.7231ZM140.229 15.1741C140.297 14.0497 139.915 12.9444 139.168 12.1013C138.421 11.2583 137.37 10.7465 136.245 10.6786C135.121 10.6107 134.016 10.9922 133.173 11.7393C132.33 12.4863 131.818 13.5377 131.75 14.6621C131.74 14.8326 131.74 15.0036 131.75 15.1741L132.013 15.4371H139.934L140.229 15.1741Z" fill="#1F2326"/>
<path d="M148.987 23.0861C145.802 23.0861 143.95 21.2341 143.95 18.8461L144.213 18.5831H145.275L145.538 18.8461C145.538 20.3971 146.6 21.7601 148.987 21.7601C151.638 21.7601 152.428 20.6991 152.428 19.3731C152.428 17.2571 151.107 16.9851 148.453 16.4591C145.799 15.9331 144.213 14.8701 144.213 12.7471C144.213 10.8871 145.764 9.2981 148.728 9.2981C151.379 9.2981 153.494 10.3601 153.494 13.0101L153.231 13.2731H152.169L151.906 13.0101C151.906 11.6891 151.135 10.6231 148.729 10.6231C146.869 10.6231 145.808 11.3941 145.808 12.7461C145.808 14.5981 147.397 14.8691 150.055 15.3961C152.713 15.9231 154.03 16.9851 154.03 19.3721C154.024 21.4971 152.43 23.0861 148.987 23.0861Z" fill="#1F2326"/>
<path d="M158.264 7.44707H157.2L156.941 7.18307V5.58307L157.204 5.32007H158.262L158.525 5.58307V7.22307L158.264 7.44707ZM158.264 22.8221H157.2L156.937 22.5591V9.83407L157.2 9.56307H158.262L158.525 9.83407V22.5591L158.264 22.8221Z" fill="#1F2326"/>
<path d="M171.258 20.9619C170.723 22.0229 169.399 23.0849 167.012 23.0849C163.3 23.0849 161.447 20.1709 161.447 16.1959C161.447 12.2209 163.3 9.2959 167.012 9.2959C169.399 9.2959 170.723 10.3579 171.258 11.4189H171.521L171.784 9.8299L172.047 9.5589H172.818L173.081 9.8299V20.9619C173.081 26.2709 170.957 28.3859 167.518 28.3859C164.332 28.3859 162.743 26.7969 162.48 24.6739L162.743 24.4109H163.8L164.063 24.6739C164.326 25.9949 165.125 27.0609 167.512 27.0609C170.688 27.0609 171.487 24.4109 171.487 20.9609L171.258 20.9619ZM171.521 16.1959C171.521 12.4839 169.972 10.6239 167.283 10.6239C164.594 10.6239 163.035 12.4839 163.035 16.1959C163.035 19.9079 164.624 21.7599 167.283 21.7599C169.942 21.7599 171.521 19.9079 171.521 16.1959Z" fill="#1F2326"/>
<path d="M187.438 22.823H186.376L186.113 22.56V14.6C186.113 11.95 184.792 10.625 182.663 10.625C179.751 10.625 178.425 12.485 178.425 15.399V22.557L178.153 22.82H177.139L176.867 22.564V9.83501L177.139 9.54801H177.909L178.173 9.81901L178.445 11.408H178.685C179.148 10.7188 179.782 10.161 180.525 9.78887C181.267 9.41672 182.093 9.24281 182.923 9.28401C185.846 9.28401 187.698 11.144 187.698 14.584V22.563L187.438 22.823Z" fill="#1F2326"/>
<path d="M71.822 48.156H70.759L70.496 47.893V29.866L70.759 29.603H71.821L72.084 29.866V47.893L71.822 48.156Z" fill="#1F2326"/>
<path d="M86.935 48.157H85.873L85.61 47.894V39.942C85.61 37.292 84.289 35.967 82.161 35.967C79.248 35.967 77.922 37.819 77.922 40.741V47.9L77.659 48.163H76.6L76.337 47.9V35.169L76.6 34.9H77.371L77.642 35.164L77.905 36.713H78.168C78.6317 36.0261 79.265 35.4706 80.0064 35.1004C80.7479 34.7302 81.5724 34.5578 82.4 34.6C85.321 34.6 87.173 36.452 87.173 39.9V47.89L86.935 48.157Z" fill="#1F2326"/>
<path d="M94.8949 48.4269C91.7079 48.4269 89.8569 46.5669 89.8569 44.1799L90.1199 43.9169H91.1819L91.4449 44.1799C91.4449 45.7799 92.5069 47.1009 94.8949 47.1009C97.5449 47.1009 98.3349 46.0399 98.3349 44.7139C98.3349 42.5909 97.0139 42.3259 94.3599 41.7919C91.7059 41.2579 90.1199 40.2429 90.1199 38.0799C90.1199 36.2279 91.7089 34.6389 94.6199 34.6389C97.2779 34.6389 99.3939 35.7009 99.3939 38.3509L99.1309 38.6139H98.0869L97.8239 38.3509C97.8239 37.0299 97.0529 35.9639 94.6399 35.9639C92.7869 35.9639 91.7259 36.7349 91.7259 38.0789C91.7259 39.9389 93.2749 40.2019 95.9649 40.7369C98.6549 41.2719 99.9479 42.2869 99.9479 44.7129C99.9259 46.8299 98.3339 48.4269 94.8949 48.4269Z" fill="#1F2326"/>
<path d="M109.479 48.156H107.621C107.215 48.2019 106.804 48.1602 106.415 48.0336C106.027 47.9071 105.67 47.6987 105.369 47.4225C105.068 47.1463 104.829 46.8088 104.67 46.4326C104.51 46.0564 104.433 45.6504 104.444 45.242V36.492L104.174 36.229H102.055L101.784 35.966V35.195L102.055 34.932H104.17L104.441 34.669V32.254L104.704 31.991H105.766L106.029 32.254V34.641L106.292 34.904H109.477L109.74 35.168V35.938L109.477 36.202H106.294L106.031 36.465V45.238C106.009 45.421 106.023 45.6065 106.073 45.784C106.122 45.9615 106.207 46.1275 106.321 46.2723C106.435 46.4172 106.576 46.5381 106.737 46.6281C106.898 46.7181 107.075 46.7755 107.258 46.797C107.378 46.8125 107.5 46.8125 107.621 46.797H109.481L109.744 47.068V47.838L109.479 48.156Z" fill="#1F2326"/>
<path d="M114.244 32.8001H113.19L112.919 32.5371V30.9871L113.19 30.7241H114.244L114.515 30.9871V32.5291L114.244 32.8001ZM114.244 48.1761H113.19L112.919 47.9131V35.1711L113.19 34.9081H114.244L114.515 35.1711V47.8921L114.244 48.1761Z" fill="#1F2326"/>
<path d="M124.853 48.156H122.993C122.621 48.1986 122.244 48.1675 121.884 48.0644C121.523 47.9613 121.187 47.7883 120.894 47.5552C120.6 47.3221 120.356 47.0336 120.174 46.706C119.992 46.3784 119.877 46.0182 119.834 45.646C119.818 45.5133 119.812 45.3796 119.816 45.246V36.496L119.553 36.233H117.461L117.198 35.97V35.199L117.461 34.936H119.584L119.847 34.673V32.254L120.11 31.991H121.172L121.435 32.254V34.641L121.698 34.904H124.883L125.146 35.168V35.938L124.883 36.202H121.7L121.437 36.465V45.238C121.416 45.4211 121.432 45.6065 121.483 45.7836C121.534 45.9606 121.62 46.1258 121.735 46.2697C121.85 46.4137 121.992 46.5334 122.154 46.6222C122.315 46.7109 122.493 46.7669 122.676 46.787C122.779 46.799 122.883 46.799 122.986 46.787H124.846L125.109 47.058V47.829L124.853 48.156Z" fill="#1F2326"/>
<path d="M128.311 34.9061H129.373L129.636 35.1691V43.3851C129.636 46.0361 130.957 47.0971 132.813 47.0971C135.734 47.0971 137.06 45.2371 137.06 42.3241V35.1661L137.323 34.9031H138.385L138.648 35.1661V47.8921L138.385 48.1551H137.614L137.351 47.8921L137.087 46.3431H136.824C136.359 47.0329 135.724 47.5909 134.98 47.9629C134.235 48.3348 133.408 48.5082 132.577 48.4661C129.926 48.4661 128.077 46.8661 128.077 43.4291V35.1701L128.311 34.9061Z" fill="#1F2326"/>
<path d="M148.986 48.156H147.126C146.754 48.1986 146.377 48.1675 146.017 48.0644C145.656 47.9613 145.32 47.7883 145.027 47.5552C144.733 47.3221 144.489 47.0336 144.307 46.706C144.125 46.3784 144.01 46.0182 143.967 45.646C143.951 45.5133 143.945 45.3796 143.949 45.246V36.496L143.678 36.233H141.562L141.291 35.97V35.199L141.562 34.936H143.677L143.948 34.673V32.254L144.211 31.991H145.273L145.536 32.254V34.641L145.799 34.904H148.984L149.247 35.168V35.938L148.984 36.202H145.8L145.537 36.465V45.238C145.512 45.4509 145.536 45.6668 145.608 45.8689C145.68 46.071 145.797 46.2539 145.95 46.4036C146.104 46.5533 146.29 46.6657 146.493 46.7322C146.697 46.7986 146.914 46.8174 147.126 46.787H148.986L149.249 47.058V47.829L148.986 48.156Z" fill="#1F2326"/>
<path d="M152.961 42.1L152.698 42.363C152.698 43.912 153.752 47.137 157.198 47.137C158.039 47.2018 158.875 46.9639 159.555 46.4665C160.236 45.969 160.716 45.2446 160.91 44.424L161.173 44.153H162.235L162.498 44.424C162.235 45.974 160.909 48.4 157.198 48.4C152.958 48.4 151.098 45.215 151.098 41.5V40.976C151.098 37.264 153.221 34.613 156.935 34.613C160.649 34.613 162.771 37.264 162.771 40.976V41.747L162.5 42.017L152.961 42.1ZM161.176 40.5C161.244 39.3757 160.862 38.2703 160.115 37.4273C159.368 36.5842 158.317 36.0724 157.193 36.0045C156.068 35.9366 154.963 36.3182 154.12 37.0652C153.277 37.8123 152.765 38.8637 152.697 39.988C152.687 40.1586 152.687 40.3295 152.697 40.5L152.96 40.771H160.912L161.176 40.5Z" fill="#1F2326"/>
</g>
</svg>
