<svg width="245" height="62" viewBox="0 0 245 62" fill="none" xmlns="http://www.w3.org/2000/svg">
<mask id="mask0_1_1233" style="mask-type:luminance" maskUnits="userSpaceOnUse" x="0" y="0" width="245" height="62">
<path d="M244.559 0.000976562H0V61.028H244.559V0.000976562Z" fill="white"/>
</mask>
<g mask="url(#mask0_1_1233)">
<path d="M90.335 48.241C90.9689 48.5408 91.4981 49.024 91.854 49.628C92.191 50.2737 92.3671 50.9912 92.3671 51.7195C92.3671 52.4478 92.191 53.1654 91.854 53.811C91.5022 54.4055 90.9726 54.8745 90.34 55.152C89.5684 55.4827 88.7342 55.6417 87.895 55.618H84.5V61.028H83.373V47.744H87.9C88.7397 47.7208 89.5734 47.892 90.336 48.244M90.418 53.855C90.6966 53.577 90.9142 53.244 91.0571 52.8773C91.2 52.5106 91.265 52.1182 91.248 51.725C91.2561 51.1942 91.1339 50.6696 90.892 50.197C90.6418 49.7307 90.2553 49.3518 89.784 49.111C89.1998 48.8201 88.5523 48.6792 87.9 48.701H84.5V54.659H87.9C88.813 54.7313 89.7176 54.441 90.418 53.851" fill="#040504"/>
<path d="M105.036 57.3059H99.0001L97.6311 61.0289H96.4591L101.477 47.7439H102.545L107.572 61.0289H106.4L105.036 57.3059ZM104.68 56.3479L102.016 49.1129L99.3521 56.3479H104.68Z" fill="#040504"/>
<path d="M123.324 60.9099V61.0279H122.118L118.918 55.4899H115.05V61.0279H113.927V47.7439H118.244C119.067 47.7239 119.885 47.8779 120.644 48.1959C121.288 48.4702 121.832 48.9351 122.204 49.5279C122.584 50.1719 122.774 50.9105 122.751 51.6579C122.757 52.2099 122.641 52.7564 122.41 53.2579C122.184 53.74 121.854 54.1654 121.442 54.5029C121.017 54.851 120.525 55.1074 119.996 55.2559L123.324 60.9099ZM118.488 54.5409C119.083 54.5579 119.673 54.4201 120.199 54.1409C120.648 53.8981 121.018 53.533 121.267 53.0879C121.507 52.6488 121.631 52.1555 121.627 51.6549C121.641 51.1031 121.505 50.5578 121.234 50.0769C120.965 49.6259 120.563 49.269 120.084 49.0549C119.504 48.8025 118.875 48.681 118.242 48.6989H115.048V54.5409H118.488Z" fill="#040504"/>
<path d="M138.627 48.7009H134.074V61.0279H132.961V48.7009H128.409V47.7419H138.627V48.7009Z" fill="#040504"/>
<path d="M153.949 61.0279L146.322 49.6599V61.0279H145.19V47.7429H146.322L153.958 59.1119V47.7429H155.081V61.0279H153.949Z" fill="#040504"/>
<path d="M171.132 60.0799V61.0289H162.875V47.7439H171.086V48.7009H164V53.7009H170.2V54.6589H164V60.0789L171.132 60.0799Z" fill="#040504"/>
<path d="M187.284 60.9099V61.0279H186.079L182.879 55.4899H179.01V61.0279H177.888V47.7439H182.2C183.023 47.7238 183.841 47.8778 184.6 48.1959C185.244 48.4699 185.789 48.9348 186.16 49.5279C186.541 50.1717 186.731 50.9104 186.708 51.6579C186.714 52.2101 186.597 52.7566 186.366 53.2579C186.141 53.7394 185.811 54.1642 185.4 54.5009C184.975 54.8491 184.483 55.1054 183.954 55.2539L187.284 60.9099ZM182.448 54.5409C183.043 54.5579 183.633 54.4201 184.159 54.1409C184.608 53.8985 184.978 53.5332 185.227 53.0879C185.467 52.6488 185.591 52.1555 185.587 51.6549C185.601 51.1032 185.466 50.558 185.195 50.0769C184.926 49.6262 184.524 49.2693 184.045 49.0549C183.464 48.8029 182.834 48.682 182.2 48.7009H179.006V54.5409H182.448Z" fill="#040504"/>
</g>
<mask id="mask1_1_1233" style="mask-type:luminance" maskUnits="userSpaceOnUse" x="0" y="0" width="245" height="47">
<path d="M244.559 0H0V46.039H244.559V0Z" fill="white"/>
</mask>
<g mask="url(#mask1_1_1233)">
<path d="M46.453 0.000976563C46.5603 0.0749345 46.677 0.134132 46.8 0.176977C47.8 0.390977 48.815 0.536977 49.8 0.811977C50.9226 1.14177 52.0046 1.59627 53.026 2.16698C55.1779 3.33935 57.0636 4.94489 58.564 6.88236C60.0645 8.81983 61.1473 11.0472 61.744 13.424C62.0871 14.8111 62.269 16.2332 62.286 17.662C62.317 20.462 62.344 23.254 62.334 26.05C62.3817 27.7833 62.2783 29.5176 62.025 31.233C61.8709 32.1032 61.655 32.9614 61.379 33.801C61.084 34.6636 60.739 35.5084 60.346 36.331C59.7512 37.5742 58.9888 38.7299 58.08 39.766C56.1569 42.0409 53.6858 43.7882 50.9 44.843C49.5868 45.3471 48.217 45.6889 46.821 45.861C46.6882 45.9003 46.5626 45.9607 46.449 46.04H43.084C42.9749 45.9678 42.8569 45.91 42.733 45.868C42.145 45.752 41.551 45.662 40.963 45.546C39.8467 45.3087 38.7613 44.9443 37.728 44.46C36.5894 43.9475 35.5111 43.3103 34.513 42.56C32.8841 41.3454 31.4719 39.8646 30.336 38.18C29.586 37.1073 28.9789 35.9415 28.53 34.712C28.204 33.766 27.884 32.812 27.646 31.843C27.3529 30.4826 27.2233 29.0921 27.26 27.701C27.252 24.431 27.266 21.161 27.253 17.892C27.2682 16.6894 27.0718 15.4936 26.673 14.359C26.2378 13.1554 25.5712 12.0486 24.711 11.101C23.6741 9.94585 22.3691 9.0633 20.911 8.53098C19.7705 8.08711 18.5495 7.88781 17.327 7.94598C16.3329 7.99814 15.3528 8.20287 14.421 8.55298C13.5081 8.892 12.6503 9.36373 11.875 9.95298C10.6549 10.893 9.6751 12.1089 9.016 13.501C8.55705 14.4278 8.26106 15.4267 8.141 16.454C8.015 17.687 7.948 18.929 7.925 20.168C7.89 22.038 7.88 23.91 7.925 25.78C7.90404 27.355 8.03093 28.9286 8.304 30.48C8.60846 31.9193 9.25002 33.2658 10.176 34.409C11.0055 35.4736 12.0518 36.3498 13.2454 36.9795C14.4391 37.6093 15.753 37.9783 17.1 38.062C17.8754 38.0936 18.652 38.0534 19.42 37.942C20.37 37.8279 21.2878 37.5261 22.12 37.054C22.771 36.694 23.379 36.254 24.002 35.845C24.0384 35.8096 24.0813 35.7818 24.1285 35.7631C24.1756 35.7444 24.226 35.7351 24.2767 35.7358C24.3274 35.7366 24.3774 35.7473 24.424 35.7674C24.4705 35.7875 24.5127 35.8166 24.548 35.853C24.5793 35.8849 24.6047 35.9222 24.623 35.963C24.723 36.118 24.823 36.281 24.914 36.441L28.214 41.889C28.3008 41.9923 28.3431 42.1259 28.3314 42.2603C28.3198 42.3948 28.2553 42.5191 28.152 42.606C28.1291 42.6256 28.1043 42.6431 28.078 42.658C27.415 43.098 26.749 43.536 26.057 43.929C25.0567 44.5 23.9887 44.9432 22.878 45.248C21.913 45.51 20.919 45.661 19.939 45.871C19.8271 45.9128 19.7217 45.9704 19.626 46.042H15.957C15.8521 45.9677 15.7373 45.9085 15.616 45.866C15.067 45.757 14.516 45.673 13.962 45.566C12.6106 45.2971 11.3017 44.8467 10.071 44.227C8.18123 43.3073 6.47314 42.0539 5.029 40.527C3.88921 39.3536 2.93311 38.0148 2.193 36.556C1.80886 35.794 1.46929 35.0103 1.176 34.209C0.895212 33.4444 0.678793 32.6576 0.529 31.857C0.351 30.857 0.287 29.827 0.162 28.813C0.124049 28.6596 0.0697372 28.5108 0 28.369L0 17.669C0.0812217 17.4569 0.138901 17.2366 0.172 17.012C0.231142 15.3382 0.527772 13.6813 1.053 12.091C1.41503 11.0097 1.88402 9.96718 2.453 8.97898C3.25292 7.57571 4.23847 6.28675 5.383 5.14698C6.59946 3.91128 8.00635 2.87882 9.55 2.08898C10.5479 1.58158 11.5845 1.15424 12.65 0.810977C13.619 0.505977 14.65 0.385977 15.65 0.173977C15.7601 0.131256 15.8634 0.0729985 15.957 0.000976563L19.326 0.000976563C19.4461 0.0741167 19.5739 0.13381 19.707 0.178977C20.58 0.368977 21.475 0.484977 22.327 0.743977C23.3127 1.0441 24.2767 1.41163 25.212 1.84398C26.3912 2.41168 27.4955 3.12308 28.5 3.96198C30.5889 5.65255 32.2699 7.79224 33.418 10.222C34.037 11.5071 34.489 12.8661 34.763 14.266C35.0131 15.4613 35.147 16.6779 35.163 17.899V27.946C35.1241 29.3557 35.3718 30.7587 35.891 32.07C36.2372 32.928 36.7068 33.7308 37.285 34.453C38.8257 36.4079 41.0648 37.6888 43.531 38.026C44.5984 38.1671 45.6825 38.1139 46.731 37.869C48.1802 37.5549 49.5351 36.904 50.686 35.969C52.2127 34.7522 53.3401 33.1062 53.923 31.243C54.2592 30.1593 54.4278 29.0306 54.423 27.896C54.4483 24.6293 54.4483 21.3596 54.423 18.087C54.4219 16.9523 54.2482 15.8244 53.908 14.742C53.543 13.6069 52.9752 12.5474 52.232 11.615C51.3098 10.4522 50.132 9.51771 48.79 8.88398C47.8341 8.44148 46.8165 8.14679 45.772 8.00998C44.6857 7.86787 43.5827 7.92309 42.516 8.17298C41.0311 8.50559 39.6443 9.18015 38.466 10.143C38.166 10.385 37.966 10.361 37.766 10.043C37.574 9.74298 37.398 9.44298 37.215 9.13598C36.5963 8.10864 35.9777 7.08198 35.359 6.05598C34.9463 5.37331 34.5383 4.68831 34.135 4.00098C34.1062 3.96146 34.0855 3.91666 34.074 3.86913C34.0626 3.8216 34.0606 3.77227 34.0682 3.72398C34.0758 3.67568 34.0929 3.62936 34.1184 3.58767C34.1439 3.54597 34.1774 3.50972 34.217 3.48098L34.226 3.47498C34.3282 3.38262 34.4372 3.29805 34.552 3.22198C35.343 2.74598 36.112 2.22198 36.938 1.82198C37.7724 1.40859 38.6406 1.06702 39.533 0.800977C40.492 0.518977 41.492 0.380977 42.472 0.170977C42.585 0.129167 42.6917 0.0719608 42.789 0.000976562L46.453 0.000976563Z" fill="#1C272D"/>
<path d="M244.558 25.414C244.499 25.462 244.41 25.497 244.387 25.558C244.268 25.875 244.006 25.929 243.719 25.944C243.601 25.95 243.483 25.944 243.365 25.944H222.3C221.91 25.944 221.83 26.026 221.85 26.415C221.934 27.8168 222.392 29.1705 223.177 30.335C223.988 31.5801 225.128 32.576 226.471 33.212C227.887 33.8724 229.45 34.1536 231.007 34.028C232.12 33.977 233.212 33.7051 234.219 33.228C235.329 32.6999 236.268 31.8716 236.931 30.837C237.228 30.3513 237.495 29.848 237.731 29.33C237.76 29.2392 237.807 29.1551 237.869 29.0825C237.931 29.0099 238.006 28.9501 238.091 28.9067C238.176 28.8632 238.269 28.8369 238.364 28.8292C238.459 28.8216 238.554 28.8327 238.645 28.862C238.677 28.8718 238.708 28.8842 238.738 28.899C239.728 29.222 240.722 29.53 241.714 29.844C242.266 30.019 242.822 30.184 243.371 30.369C243.961 30.569 244.071 30.842 243.846 31.45C243.208 33.1863 242.214 34.7699 240.927 36.0989C239.64 37.428 238.09 38.4731 236.375 39.167C233.722 40.23 230.835 40.575 228.006 40.167C226.404 39.9609 224.844 39.5111 223.378 38.833C221.278 37.8644 219.435 36.4146 218 34.601C217.098 33.4697 216.366 32.2132 215.826 30.871C215.026 28.8661 214.589 26.7349 214.535 24.577C214.467 23.1985 214.563 21.8167 214.822 20.461C215.06 19.4179 215.357 18.3893 215.712 17.38C216.134 16.1941 216.722 15.074 217.458 14.053C218.367 12.7392 219.478 11.5781 220.751 10.613C221.775 9.82662 222.902 9.18338 224.1 8.70099C225.922 7.93876 227.889 7.58218 229.863 7.65599C230.905 7.69111 231.944 7.78895 232.975 7.94899C234.207 8.16084 235.405 8.53721 236.537 9.06799C238.108 9.78565 239.516 10.816 240.675 12.096C241.567 13.0941 242.306 14.219 242.868 15.434C243.687 17.2261 244.201 19.1425 244.388 21.104C244.426 21.2481 244.484 21.3862 244.56 21.514L244.558 25.414ZM229.574 20.643H236.783C237.061 20.643 237.183 20.524 237.17 20.252C237.166 20.1241 237.155 19.9966 237.136 19.87C236.999 18.9156 236.695 17.993 236.236 17.145C235.787 16.3734 235.187 15.7 234.472 15.1648C233.758 14.6297 232.943 14.2438 232.076 14.03C231.081 13.7798 230.053 13.6874 229.03 13.756C227.634 13.7951 226.282 14.2541 225.15 15.073C224.315 15.653 223.61 16.3998 223.078 17.2663C222.546 18.1327 222.2 19.1 222.061 20.107C221.995 20.53 222.087 20.641 222.519 20.641H229.579" fill="#1C272D"/>
<path d="M77.22 8.61507H80.32C80.803 8.61507 80.92 8.67607 81.061 9.12307C81.308 9.90007 81.527 10.6851 81.761 11.4661C81.966 12.1531 82.178 12.8381 82.38 13.5251C82.582 14.2121 82.78 14.9251 82.98 15.6251C83.18 16.3251 83.389 16.9991 83.592 17.6861C83.795 18.3731 83.992 19.0621 84.198 19.7501C84.409 20.4661 84.623 21.1811 84.833 21.8971L85.433 23.9341C85.6403 24.6407 85.847 25.3477 86.053 26.0551C86.259 26.7624 86.4657 27.4694 86.673 28.1761C86.783 28.5531 86.886 28.9331 86.999 29.3091C87.0254 29.3939 87.0682 29.4727 87.125 29.5411C87.245 29.6871 87.358 29.6851 87.425 29.4901C87.688 28.6901 87.943 27.8841 88.21 27.0841C88.477 26.2841 88.762 25.4671 89.038 24.6591C89.338 23.7851 89.631 22.9101 89.931 22.0371C90.138 21.4371 90.355 20.8371 90.561 20.2301C90.767 19.6231 90.961 19.0381 91.161 18.4431C91.361 17.8481 91.561 17.2731 91.761 16.6881L92.381 14.8771C92.5883 14.2731 92.7943 13.6687 92.999 13.0641C93.208 12.4501 93.414 11.8361 93.623 11.2221C93.876 10.4791 94.123 9.73207 94.393 8.99607C94.4456 8.86709 94.5398 8.75941 94.6607 8.69018C94.7816 8.62096 94.9221 8.59416 95.06 8.61407C96.96 8.62207 98.86 8.61407 100.76 8.61407H101.617C101.751 8.60253 101.885 8.63902 101.995 8.71703C102.105 8.79504 102.184 8.90952 102.217 9.04007C102.542 10.0081 102.872 10.9747 103.208 11.9401C103.497 12.7751 103.799 13.6051 104.084 14.4401C104.369 15.2751 104.636 16.1191 104.921 16.9551C105.206 17.7911 105.509 18.6221 105.794 19.4551C106.079 20.2881 106.355 21.1551 106.642 21.9981C106.842 22.5841 107.055 23.1641 107.256 23.7491C107.457 24.3341 107.656 24.9211 107.85 25.5071C108.058 26.1201 108.27 26.7331 108.479 27.3471C108.688 27.9611 108.887 28.5571 109.09 29.1621C109.105 29.249 109.133 29.333 109.174 29.4111C109.246 29.4839 109.326 29.5471 109.414 29.5991C109.486 29.5288 109.545 29.447 109.59 29.3571C109.911 28.2537 110.227 27.1494 110.537 26.0441C110.82 25.0441 111.091 24.0371 111.379 23.0361C111.661 22.0541 111.96 21.0771 112.244 20.0961C112.444 19.3881 112.638 18.6761 112.844 17.9681C113.05 17.2601 113.255 16.5731 113.457 15.8751C113.664 15.1581 113.864 14.4391 114.069 13.7211C114.263 13.0411 114.459 12.3614 114.656 11.6821L115.292 9.47307C115.319 9.35837 115.353 9.24521 115.392 9.13407C115.579 8.67007 115.665 8.61307 116.164 8.61307H122.015C122.603 8.61307 122.822 8.86707 122.665 9.43407C122.465 10.1521 122.222 10.8581 121.997 11.5691L121.397 13.4511C121.188 14.1057 120.979 14.7604 120.768 15.4151C120.568 16.0511 120.368 16.6881 120.161 17.3241C119.954 17.9601 119.744 18.6131 119.537 19.2581C119.337 19.8754 119.139 20.4924 118.943 21.1091L118.305 23.0991L117.721 24.9231C117.499 25.6151 117.277 26.3067 117.055 26.9981C116.861 27.6061 116.673 28.2151 116.478 28.8231C116.265 29.4871 116.047 30.1491 115.834 30.8131C115.634 31.4211 115.447 32.0291 115.253 32.6371C115.038 33.3097 114.823 33.9831 114.607 34.6571L114.007 36.5381C113.801 37.1834 113.593 37.8284 113.383 38.4731C113.376 38.4915 113.368 38.5095 113.359 38.5271C113.013 39.3711 113.013 39.3701 112.084 39.3701H106.41C105.897 39.3701 105.802 39.3221 105.624 38.8341C105.295 37.9341 104.989 37.0181 104.672 36.1101C104.391 35.3041 104.105 34.4991 103.825 33.6921C103.615 33.0921 103.414 32.4841 103.204 31.8811C102.994 31.2781 102.779 30.6811 102.569 30.0751C102.375 29.5191 102.186 28.9611 101.994 28.4041C101.78 27.7821 101.566 27.1601 101.353 26.5381C101.158 25.9721 100.962 25.4054 100.764 24.8381C100.545 24.2081 100.323 23.5781 100.107 22.9481C99.826 22.1311 99.55 21.3121 99.271 20.4941C99.081 19.9371 98.888 19.3801 98.697 18.8231C98.569 18.4511 98.447 18.0781 98.313 17.7091C98.2686 17.6183 98.2143 17.5328 98.151 17.4541C98.081 17.5271 97.978 17.5871 97.951 17.6741C97.721 18.3121 97.503 18.9541 97.284 19.5951C97.058 20.2541 96.831 20.9131 96.609 21.5741C96.334 22.3931 96.066 23.2151 95.791 24.0341C95.578 24.6671 95.357 25.2971 95.143 25.9341C94.943 26.5111 94.756 27.0891 94.564 27.6661C94.364 28.2811 94.158 28.8981 93.952 29.5121C93.746 30.1261 93.535 30.7401 93.326 31.3541C93.111 31.9861 92.894 32.6181 92.681 33.2541C92.481 33.8401 92.29 34.4281 92.092 35.0141C91.879 35.6471 91.662 36.2781 91.449 36.9141C91.249 37.5141 91.039 38.1031 90.859 38.7051C90.703 39.2281 90.529 39.3811 89.981 39.3811H83.746C83.246 39.3811 83.131 39.3131 82.97 38.8341C82.641 37.8571 82.33 36.8741 82.008 35.8941C81.723 35.0261 81.429 34.1621 81.146 33.2941C80.946 32.6691 80.746 32.0391 80.546 31.4131C80.346 30.7871 80.133 30.1641 79.928 29.5391C79.723 28.9141 79.528 28.3051 79.328 27.6891C79.113 27.0261 78.895 26.3641 78.68 25.7011C78.48 25.0941 78.29 24.4851 78.093 23.8781C77.8843 23.2341 77.6747 22.5901 77.464 21.9461L76.864 20.0961C76.649 19.4331 76.431 18.7711 76.217 18.1081C76.017 17.5001 75.83 16.8911 75.633 16.2841C75.424 15.6401 75.21 15.0011 75 14.3531C74.8 13.7461 74.608 13.1381 74.411 12.5311C74.196 11.8681 73.979 11.2051 73.765 10.5421C73.63 10.1732 73.5139 9.79772 73.417 9.41707C73.301 8.86407 73.517 8.62407 74.087 8.62307H77.22" fill="#1C272D"/>
<path d="M140.383 25.9429H129.683C129.311 25.9429 129.238 26.0179 129.253 26.4019C129.315 27.4762 129.603 28.5255 130.096 29.4819C130.659 30.6378 131.497 31.6378 132.537 32.3939C133.438 33.0488 134.456 33.5241 135.537 33.7939C136.708 34.0808 137.923 34.1379 139.116 33.9619C140.259 33.86 141.36 33.479 142.322 32.8524C143.284 32.2257 144.077 31.3726 144.632 30.3679C144.814 30.0439 144.974 29.7059 145.126 29.3679C145.157 29.2574 145.213 29.1555 145.289 29.0702C145.366 28.9848 145.461 28.9182 145.567 28.8756C145.674 28.8331 145.788 28.8156 145.903 28.8247C146.017 28.8337 146.128 28.8691 146.226 28.9279C146.863 29.1579 147.514 29.3489 148.159 29.5559L150.209 30.2089C150.475 30.2788 150.735 30.3653 150.99 30.4679C151.413 30.6679 151.472 30.9289 151.306 31.3619C150.952 32.2998 150.503 33.1992 149.966 34.0459C148.428 36.4285 146.174 38.2617 143.528 39.2819C142.472 39.6872 141.374 39.9737 140.254 40.1359C139.037 40.3279 137.802 40.3829 136.573 40.2999C134.873 40.1806 133.201 39.805 131.613 39.1859C129.079 38.1919 126.868 36.5199 125.221 34.3529C124.473 33.3647 123.849 32.2883 123.364 31.1479C122.839 29.9488 122.462 28.6907 122.24 27.4009C121.87 25.3619 121.828 23.277 122.116 21.2249C122.279 20.0359 122.564 18.867 122.968 17.7369C123.934 15.0134 125.646 12.6161 127.908 10.8179C129.001 9.94581 130.213 9.2346 131.508 8.70587C133.31 7.94883 135.255 7.59096 137.208 7.65687C138.25 7.69262 139.29 7.78811 140.321 7.94287C141.131 8.10224 141.928 8.31742 142.708 8.58687C143.776 8.93204 144.789 9.42878 145.716 10.0619C146.991 10.9068 148.1 11.9781 148.989 13.2229C149.663 14.1562 150.217 15.1709 150.637 16.2429C151.164 17.6 151.528 19.0149 151.721 20.4579C151.896 21.7564 151.966 23.0671 151.929 24.3769C151.922 24.6419 151.903 24.9079 151.884 25.1769C151.842 25.7379 151.622 25.9469 151.053 25.9479H140.383V25.9429ZM137.007 20.6429H143.979C144.568 20.6429 144.634 20.5949 144.557 19.9989C144.443 19.0012 144.133 18.0359 143.646 17.1579C143.202 16.3889 142.608 15.7168 141.9 15.1816C141.192 14.6463 140.383 14.2588 139.522 14.0419C138.567 13.7989 137.58 13.7008 136.596 13.7509C135.479 13.7579 134.38 14.0388 133.396 14.5689C132.34 15.1092 131.431 15.898 130.747 16.8673C130.063 17.8367 129.624 18.9576 129.469 20.1339C129.403 20.5539 129.489 20.6449 129.915 20.6449H137.005" fill="#1C272D"/>
<path d="M178.153 35.2439C177.961 35.5439 177.779 35.8559 177.576 36.1499C176.791 37.2888 175.751 38.2288 174.539 38.8949C172.594 39.9183 170.395 40.3566 168.206 40.1569C167.054 40.095 165.914 39.901 164.806 39.5789C163.463 39.188 162.191 38.5869 161.036 37.7979C159.664 36.867 158.471 35.6963 157.515 34.3419C156.852 33.4022 156.291 32.3941 155.843 31.3349C155.339 30.1288 154.961 28.8738 154.715 27.5899C154.443 26.0666 154.343 24.5176 154.415 22.9719C154.467 21.5453 154.7 20.131 155.108 18.7629C155.597 17.0404 156.375 15.4133 157.408 13.9509C158.576 12.2854 160.077 10.8801 161.816 9.82393C162.746 9.25174 163.738 8.78709 164.773 8.43893C166.467 7.87615 168.242 7.59969 170.027 7.62093C171.278 7.58909 172.529 7.69676 173.756 7.94193C174.706 8.18196 175.641 8.47917 176.556 8.83193C177.669 9.26195 178.705 9.86986 179.623 10.6319C180.983 11.6822 182.123 12.9901 182.977 14.4809C183.504 15.4019 183.969 16.3566 184.37 17.3389C184.765 18.4074 185.051 19.513 185.224 20.6389C185.427 22.0527 185.508 23.4812 185.468 24.9089C185.468 29.4196 185.468 33.9306 185.468 38.4419C185.468 38.5699 185.468 38.6989 185.458 38.8259C185.46 38.9675 185.407 39.1042 185.308 39.2062C185.21 39.3082 185.076 39.367 184.934 39.3699H184.88C184.437 39.3789 183.994 39.3699 183.55 39.3699H179.059C178.466 39.3699 178.293 39.2019 178.298 38.6189C178.307 37.6439 178.323 36.6689 178.328 35.6939C178.32 35.5465 178.301 35.3998 178.273 35.2549L178.154 35.2379M161.687 23.8569C161.667 25.4244 161.93 26.9827 162.463 28.4569C162.865 29.5568 163.472 30.5707 164.251 31.4449C165.24 32.5549 166.544 33.337 167.989 33.6869C169.157 33.9884 170.377 34.0225 171.56 33.7869C172.692 33.567 173.758 33.0848 174.67 32.3789C175.912 31.385 176.86 30.0712 177.411 28.5789C177.902 27.29 178.181 25.9301 178.237 24.5519C178.331 22.9471 178.127 21.3389 177.637 19.8079C177.379 18.982 177.002 18.1984 176.517 17.4819C175.94 16.6086 175.189 15.8645 174.31 15.2964C173.431 14.7284 172.444 14.3489 171.411 14.1819C169.48 13.8203 167.483 14.1843 165.804 15.2041C164.125 16.2239 162.881 17.8277 162.311 19.7079C161.861 21.0454 161.65 22.4514 161.686 23.8619" fill="#1C272D"/>
<path d="M188.265 8.61592H191.545C191.718 8.59469 191.894 8.64052 192.034 8.74404C192.175 8.84756 192.271 9.00097 192.303 9.17292C192.688 10.2339 193.087 11.2899 193.476 12.3489C193.757 13.1139 194.027 13.8829 194.309 14.6489C194.598 15.4309 194.901 16.2089 195.192 16.9909C195.469 17.7359 195.738 18.4849 196.014 19.2299L196.914 21.6299C197.114 22.1729 197.307 22.7199 197.508 23.2629C197.794 24.0359 198.084 24.8069 198.371 25.5799L198.971 27.2099L199.814 29.5029C199.872 29.7008 199.942 29.8948 200.024 30.0839C200.081 30.1939 200.209 30.2679 200.305 30.3589C200.379 30.2686 200.442 30.1703 200.494 30.0659C200.705 29.4949 200.903 28.9199 201.108 28.3479C201.319 27.7573 201.532 27.1666 201.747 26.5759C202.032 25.7919 202.32 25.0089 202.605 24.2249L203.205 22.5639C203.499 21.7519 203.794 20.9399 204.089 20.1279C204.289 19.5826 204.485 19.0376 204.678 18.4929L205.297 16.7749C205.506 16.1929 205.715 15.6113 205.926 15.0299C206.215 14.2369 206.507 13.4449 206.795 12.6509L207.395 10.9889C207.645 10.3069 207.895 9.62392 208.154 8.94592C208.2 8.83542 208.282 8.74329 208.386 8.6838C208.49 8.62431 208.61 8.6008 208.729 8.61692H214.9C215.56 8.61692 215.769 8.92292 215.533 9.53792C215.086 10.7019 214.648 11.8679 214.193 13.0279C213.659 14.3889 213.106 15.7419 212.572 17.1029C211.956 18.6749 211.358 20.2539 210.742 21.8249C210.212 23.1769 209.664 24.5249 209.133 25.8739C208.763 26.8149 208.415 27.7639 208.046 28.7049C207.677 29.6459 207.296 30.5609 206.93 31.4929C206.564 32.4249 206.209 33.3809 205.841 34.3229C205.559 35.0459 205.263 35.7629 204.979 36.4849C204.695 37.2069 204.404 37.9249 204.142 38.6549C203.932 39.2409 203.774 39.3769 203.162 39.3769H197.162C196.607 39.3769 196.486 39.2669 196.282 38.7399C196.014 38.0399 195.713 37.3609 195.43 36.6709C195.147 35.9809 194.871 35.2879 194.59 34.5969C194.299 33.8776 194.007 33.1596 193.714 32.4429L192.87 30.3719L191.97 28.1629C191.684 27.4529 191.405 26.7399 191.117 26.0309C190.829 25.3219 190.538 24.6309 190.252 23.9309C189.966 23.2309 189.697 22.5669 189.423 21.8839C189.141 21.1839 188.863 20.4839 188.579 19.7839C188.287 19.0659 187.989 18.3499 187.696 17.6319C187.403 16.9139 187.121 16.2139 186.834 15.5049C186.54 14.7769 186.246 14.0489 185.951 13.3209C185.662 12.6119 185.368 11.9059 185.081 11.1959C184.83 10.5769 184.581 9.95892 184.343 9.33392C184.314 9.24949 184.306 9.15907 184.32 9.07088C184.335 8.98269 184.371 8.89954 184.426 8.82897C184.481 8.75841 184.553 8.70269 184.634 8.66688C184.716 8.63106 184.806 8.6163 184.895 8.62392C185.771 8.61392 186.648 8.62392 187.525 8.62392H188.264" fill="#1C272D"/>
</g>
</svg>
